/* XPM */
static char *_4f3d55258a84560dca673a87a016e679efCd0Mmzpe35dzX[] = {
/* columns rows colors chars-per-pixel */
"48 48 11 1 ",
"  c #211F30",
". c #843346",
"X c #A14744",
"o c #076029",
"O c #28860F",
"+ c #72A11D",
"@ c #B96E54",
"# c #B0664D",
"$ c #A4CC42",
"% c #CF9E6E",
"& c #E1F394",
/* pixels */
"                                                ",
" .XXXX..XXXX.XXXXXXXXX..XXXX.XXXX. oOOOOOOOOOO+ ",
" X@@@@##@@@@#@@@@@@@@@##@@@@#@@@X O+++++++++++$ ",
" X@@@@@##@@@@#@@@@@@@@@##@@@@#@@X O+++++++++$+$ ",
" X@@@@@##@@@@#@@@@@@@@@##@@@@#@@X O+++++++++++$ ",
" X@@@%%@##@@@@#@@@@@@@@@##@@@@#@X O+++++$+++++$ ",
" X@@%@@X##@@@@#@@@@@@@@@##@@@@#@X O+O+++++++++$ ",
" X@@%@@X##@@@@#@@@@@@@@@##@@@@#@@X O++++++++++$ ",
" X@@@XX@##@@@@#@@@@@@@@@##@@@@#@@@X  oOO++++++$ ",
" X@@@@@@##@@@@#@@@@@@@@@##@@@@#@@@X O+++++++++$ ",
" X@@@@@@##@@@@#@@@@@@@@@##@@@@#@@X O+OO+++++++$ ",
" X@@@@@##@@%X#@@@@@@@@@##@@@@#@@@X O+OO+++++++$ ",
" X@@@@@##@@@@#@@@@@@@@@##@@@@#@@@X O++++++++++$ ",
" X@@@@##@@@@#@@@@@@@@@##@@@@#@@@@X O++++++++++$ ",
" X@@@@##@@@@#@@@@@@@@@##@@@@#@@@@X O++++++++++$ ",
" X@@@@##@@@@#@@@@@@@@@##@@@@#@@@@@X O+++++++++$ ",
" X@@@@##@@@@#@@@@@@@@@##@@@@#@@@@@X  OO+++++++$ ",
" X@@@@##@@@@#@@@@@@@@@##@@@@#@@@@X O++++++++$+$ ",
" X@@@@##@@@@#@@@@@@@@@##@@@@#@@@X O+++++++++++$ ",
" X@@@@@##@@@@#@@@@@@@@@##@@@@#@@X O+++++++++++$ ",
" X@@@@@##@@@@#@@@@@@@@@##@@@@#@@X O+++++++++++$ ",
" X@@@@@@##@@@@#@@@@@@@@@##@@@@#@X O+++++++++++$ ",
" X@@@@@@##@@@@#@@@@@@@@@##@@@@#@X O+O+++++++++$ ",
" X@@@@@@##@@@@#@@@@@@@@@##@@@@#@@X O++++++++++$ ",
" X@@@@@@##@@@@#@@@@@@@@@##@@@@#@@@X  oOO++++++$ ",
" X@@@@@@##@@@@#@@@@@@@@@##@@@@#@@@X O+++++++++$ ",
" X@@@@@@##@@@@#@@@@@@@@@##@@@@#@@X O++++++++++$ ",
" X@@@@@##@@@@#@@@@@@@@@##@@@@#@@@X O++++++$+++$ ",
" X@@@@@##@@@@#@@@@@@@@@##@@@@#@@@X O++++++++++$ ",
" X@@@@##@@@@#@@@@@@@@@##@@@@#@@@@X O+OO+++++++$ ",
" X@@@@##@@@@#@@@@@@@@@##@@@@#@@@@X O+OO+++++++$ ",
" X@@@@##@@@@#@@@@@@@@@##@@@@#@@@@@X O+++++++++$ ",
" X@@@@##@@@@#@@@@@@@@@##@@@@#@@@@@X  OO+++++++$ ",
" X@@@@##@@@@#@@@@@@@@@##@@@@#@@@@X O++++++++++$ ",
" X@@@@##@@@@#@@@@@@@@@##@@@@#@@@X O+O+++++++++$ ",
" X@@@@@##@@XX#@@@@@@@@@##@@@@#@@X O++++++$++++$ ",
" X@@@@@##@%@@X@@@@@@@@@##@@@@#@@X O+++++++++++$ ",
" X@@@@@@##%@@X#@@@@@@@@@##@@@@#@X O+++++++++++$ ",
" X@@@@@@##@%%@#@@@@@@@@@##@@@@#@X O+++++++++++$ ",
" X@@@@@@##@@@@#@@@@@@@@@##@@@@#@@X O++++++++++$ ",
" X@@@@@@##@@@@#@@@@@@@@@##@@@@#@@@X  oOO++++++$ ",
" X@@@@@@##@@@@#@@@@@@@@@##@@@@#@@@X O+++++++++$ ",
" X@@%X@@##@@@@#@@@@@@@@@##@@@@#@@X O+OO+++++++$ ",
" X@@@@@##@@@@#@@@@@@@@@##@@@@#@@@X O+OO+++++++$ ",
" X@@@@@##@@@@#@@@@@@@@@##@@@@#@@@X O++++++++$+$ ",
" X@@@@##@@@@#@@@@@@@@@##@@@@#@@@@X O++++++++++$ ",
" @%%%%@@%%%%@%%%%%%%%%@@%%%%@%%%%%@ +$$$$$$$$$& ",
"                                                "
};
