/* XPM */
static char *result[] = {
/* columns rows colors chars-per-pixel */
"48 48 65 1 ",
"  c #CE0509",
". c #CE0A0D",
"X c #D10B08",
"o c #D61407",
"O c #D81707",
"+ c #DA1C07",
"@ c #D51208",
"# c #CE0E10",
"$ c #CF1415",
"% c #CF1A1A",
"& c #DE2206",
"* c #CF201F",
"= c #D0211F",
"- c #E02606",
"; c #E32B05",
": c #E73205",
"> c #E93604",
", c #EC3B04",
"< c #CF2322",
"1 c #CF2927",
"2 c #D02523",
"3 c #D02A27",
"4 c #D02D29",
"5 c #D0322C",
"6 c #D03631",
"7 c #D13B34",
"8 c #EF4103",
"9 c #F14502",
"0 c #F44B02",
"q c #F75002",
"w c #FA5501",
"e c #FF5D00",
"r c #D1443B",
"t c #D2493F",
"y c #D14D43",
"u c #D25045",
"i c #D25649",
"p c #D35B4D",
"a c #D25E51",
"s c #D36354",
"d c #D26758",
"f c #D36C5C",
"g c #D4705E",
"h c #D37563",
"j c #D47A66",
"k c #D37C6A",
"l c #D5826D",
"z c #D48671",
"x c #D48B75",
"c c #D48F7A",
"v c #D69077",
"b c #D5937B",
"n c #D69A7F",
"m c #D49780",
"M c #D59D83",
"N c #D7A286",
"B c #D5A48A",
"V c #D6AB8E",
"C c #D6AE91",
"Z c #D5B195",
"A c #D8B695",
"S c #D8B897",
"D c #D6B698",
"F c #D7BA9A",
"G c #D8BD9B",
/* pixels */
"GGGGGGGGGGGGGGGGGGGGGGGGGGGGFFFGGGGGGGGGGGGGGGGG",
"GGGGGGGGGGGGGGGGGGGGGGGGGGGGGGGGGGGGGGGGGGGGGGGG",
"GGGGGGGGGGGGGGGGNjhghlVZFGGGGGGGGGSnjjnGGGGGGGGG",
"GGGGGGGGGSVNVGVvu54445ixVDGGGGGSNjyr55rpzBGGGGGG",
"GGGGGGGGSlsfnNhr@.    $rhVCAACNhy<X X$ralNAGGGGG",
"GGGGGGGAnr3png6$       $7jxlljs5$.  %rlNVAGGGGGG",
"GGGGGGZzi$$uh4$         #4t432%    XrzAGGGGGGGGG",
"GGGGFAvt% .25.           #$....    #lVGGGGGGGGGG",
"GGGGZlt#   .        XX.  XXX      .rNGGGGGGGGGGG",
"GGGGMs=X          X@O+&&+++oXX    .yBGGGGGGGGGGG",
"GGGGl6@         @@;>89qq009,;+X   .5NGGGGGGGGGGG",
"GGSAi%       Xo;00wweeeeeeeee0>@   .fnAGGGGGGGGG",
"GGGVu$       o;0weeeeeeeeeeeee0+X   5fnGGGGGGGGG",
"GGGVu$      X:0eeeeeeeeeeeeeeee>@   orzGGGGGGGGG",
"GGGVu$     X-weeeeeeeeeeeeeeeee,&X  X$innVGGGGGG",
"GGGVu$     O,eeeeeeeeeeeeeeew09;@    .5itgCGVVAG",
"GGGVy$    X;weeeeeeeeeeeeee8:&@@      #$%yNFblxN",
"GGGVu$    O8eeeeeeeeeeeeee8&@.          .rNFZlpp",
"GGGVu$   @&0eeeeeeeeeeeeee+.            %iNGGNja",
"GGGVy$   @,weeeeeeeeeeeeee@             <dVGGGBj",
"GGGSf1.  o8eeeeeeeeeeeeeew@             6jVFFFFV",
"GGGGk6#  o8eeeeeeeeeeeeeewX             rxCDGGGF",
"GGGAxu%  o8eeeeeeeeeeweeewX           #%aMZZDGGF",
"GGFZCba% o8eeeeeee0,::9eewOXXXX@@.   .1plnCZZDFC",
"GDZZCCx7.o>qweee0,+@X.:qee,&+&&:&.   .<pkmBZZZBz",
"ZZZZZCc6.X+->wew;oX   &0eew8800>@.    #5dhxBCBmg",
"ZZZZZBh#   Xo,q9@     &8weeeew8O.      #$*6hkkhk",
"ZZZZZMd.    .&89OX    &0eeeew0&.         .$ryfxM",
"ZZZZZcy      @:0,;;;&:8weee,>&o.         #4kjcBZ",
"ZZZZma1      @;>>90qqqweee8&Oo           $rBVCZZ",
"Cmzd7$      X+;;X:weeeeee,O@ooX          $rZZZZZ",
"Bh6#         +>9&;weeeee0O O&+           $rZZZZA",
"kr#           $8eeeeeeeq:  80;           %yZZZZZ",
"k6. ..        o:qeeeeee0:..0w>@         .4hZZZZZ",
"mr# .$%$#     .&,qeeee0:+XOqw,@         %ycZZZZZ",
"ma< <ray1#    .X&9weq9>&XO:ww,@        .6hBZZZZZ",
"Bcr#7kBBc*      .808&o@@O:qw0;@       %7kBZZZZZZ",
"Zmd*7mCZC1      .:,&OXo+;80,&O    %5tupjBZZZZZZZ",
"ZBcryzCZZt$     X:8;+&>>,,&+o.X %5pjvnnBCZZZZZZZ",
"ZZCmkmCZFvt#    X&88:>q8;@     *uxSGGGGSZCZZZZZZ",
"ZZZCVCAGGVf=X    X;>88;oX     .tvAGGGGGZBZZZZZZZ",
"ZZZZCASGGCh5      XX         X%gVGGGGGSbkZZZZZZZ",
"ZZZZDFGGGCl6.          ..     *hAGSNzjfpzZDZZZZZ",
"ZZCDGGGGGAbi*$..       $*    .3vAGAnir6ymZGFDZZZ",
"ZZZFGGGGGGCvar=*.      4i$  ..rnAGSNgpigZFGGFZZZ",
"ZZFGGGGGGGGSCnxg5.     7ja$ .3fCGGGGDZCZFGGGFFZZ",
"DGGGGGGGGGGGGSABlt*.   *snsaahnGGGGGGGGGFGGGGGFD",
"FGGGGGGGGGGGGGGSCn4.   %tAVVCZFGGGGGGGGGGGGGGGFF"
};
