/* XPM */
static char *result[] = {
/* columns rows colors chars-per-pixel */
"48 48 68 1 ",
"  c #CE0509",
". c #CE0A0C",
"X c #D10B08",
"o c #D71507",
"O c #D81707",
"+ c #DA1B07",
"@ c #D51208",
"# c #D91B09",
"$ c #CE0E10",
"% c #CF1314",
"& c #CF1718",
"* c #CF1C1B",
"= c #D21811",
"- c #D11B19",
"; c #DE2206",
": c #CF201F",
"> c #E02606",
", c #E32C05",
"< c #E63105",
"1 c #E93604",
"2 c #EC3C03",
"3 c #CF2322",
"4 c #D02523",
"5 c #D02A27",
"6 c #D02D29",
"7 c #D0322D",
"8 c #D03732",
"9 c #D13C35",
"0 c #D03E38",
"q c #EF4103",
"w c #F14503",
"e c #F54C02",
"r c #F75002",
"t c #F95401",
"y c #FE5D00",
"u c #D1433B",
"i c #D24A3F",
"p c #D24C42",
"a c #D25146",
"s c #D1554A",
"d c #D35B4E",
"f c #D25E51",
"g c #D36354",
"h c #D26658",
"j c #D36B5B",
"k c #D4705F",
"l c #D37362",
"z c #D47A66",
"x c #D47D6A",
"c c #D4826D",
"v c #D38671",
"b c #D48B74",
"n c #D48D78",
"m c #D69077",
"M c #D5937C",
"N c #D6987E",
"B c #D49780",
"V c #D59D83",
"C c #D7A286",
"Z c #D6A589",
"A c #D7AB8D",
"S c #D5AD91",
"D c #D5B195",
"F c #D8B595",
"G c #D8B897",
"H c #D6B698",
"J c #D7BA9A",
"K c #D8BD9B",
/* pixels */
"KKKKKKKKKKKKKFACCAGKKKKKKKKKKKKKKKKKKCza9uscKKKK",
"KKKKKKKKKKKKGxi90aCGKKKKKKKKKKKKKKKKKmdukbmCKKKK",
"KKKKKKKKKKKKKAVNNNCjzCKJJKHzllllmAKKKFCAFKKKKKKK",
"KKKKKKKKKKKKKKKKKKFpujADDZh756558dvJKKKKKKKKKKKK",
"KKKKKKKKKKKKKKKKKKKg57vMcd% X    %9NFKKKKKKKKKKK",
"KKKKKKKKKKKKKKKKKKKz7-ps03       .&dNFKKKKKKKKKK",
"KKKKKKKKKKKKKKKKKKKk5 %%.         .*hFKKKKKKKKKK",
"KKKKKKKKKKKKKKKKKKFa-              X8NKKKKKKKKKK",
"KKKKKKKKKKKKKKKKKDV8.    .XXXXX     %zAGKKKKKKKK",
"KKKKKKKKKKKKKKKKDZj:. .XXo+++++XXX  .pbFKKKKKKKK",
"KKKKKKKKKKKKKKKHAv6. .O>12eewww1<;@  3dNKKKKKKKK",
"KKKKKKKKKKKKKKDMk9.O>1wttyyyy2,>><,X %pMKKKKKKKK",
"KKKKKKKKKKKFCcls7%.<etyyyyyyw;@@@o#X @uvKKKKKKKK",
"KKKKKKKKKKAbdu7-.O;ryyyyyyyr<O       .3gFKKKKKKK",
"KKKKKKKKKns:   X;ryyyyyyyyq;X         .5cFKKKKAM",
"KKKKKKKKC0%.  X;wyyyyyyyyeOX          X.ibSKKKMj",
"KKKKKKKAg%    +2tyyyyyyyyq              %pbFKKDC",
"KKKKKKKC8.   o2tyyyyyyyyr<               .pCKKKK",
"KKKKKKJV6.   ;wtyyyyyyyyr<.               uVKKKK",
"KKKKKKHB5.  .<tyyyyyyyyyt2                uCKKKK",
"KKKKHVj0%   X2tyyyytq;;qrwX               uVKKKK",
"KKKJbd6$    X2yyyyyq;XX#1e<@              0VKKKK",
"KKJCs*      X2yyyyy;X   ;rt;XX XXX        9MDKKK",
"KKAx3.      .<eeyyrO.   ;ryt<;;;<,;       9MDJKK",
"KSMs%        +>>1yeO  .X;tyyrwettr1      .0BDDHK",
"HZl7$..      XXX;yr+. @;qyyyyyyyye>.     &aBDDDD",
"DVa&387*        +yt<OO,wtyytyyytw<O     *snSDDDD",
"DMu&gvxa        +yyeq1eyytw<ryyq;@     .anSDDDDD",
"DBu7nSBs        X1ttytyytq;@2tyq;.     *xBVSSDDD",
"DBsaVDvp        X+<etyyye;  ;tyr,$    $8nBxxMSDD",
"DVllSDnp           ;qyyyw;  Oqyy1@    %sZZvfphxn",
"DZvnDDBh3.        .O1yyyr<  @,ryq;.   &hDDSvp6sk",
"DSVZDDDSB0&$.     +2ryyyt2@ XO1yyw;   *hDDDDDDDD",
"DDSDDDDDSBp3$.   X<ryyyyyr;. @1yyr<  $7lDDDDDDDD",
"DDDDDDDDDSvf8%.  X;werrtyt,X.O2yyr1  $9xDDDDDDDD",
"DDDDDDDDDDSBx0&. X@,,,<2et,. O2ytw>  .5lDDDDDDDD",
"DDDDDDDDDDHJHnp$  .XXXO1tt,.X>eyr<X   &gDDDDDDDD",
"DDDDDDDDDHJKJDj3.     @2te+X;wyt2+X   %gDDDDDDDD",
"DDDDDDDDDJKKKJMs*     O1w1X;qty1;X    &gDDDDDDDD",
"DDDDDDDDJJKKKJHnp     O;>+;wttqOX     -gDDDDDDDD",
"DDDDDDGKKKKKKKKJb     XXO;eyye;       *hHDDDDDDD",
"DDDDDDKKKKKKKKKJM     X;qyyye;@      .3lJJDDDDDD",
"DDDDDJKKKKKKKKJZjXX.   @+;;;#=::*:39udxSJKJHDDDD",
"DDDDKKKKKKKKKJSvi:75&...X.XX=udjhhknnVDKKKKJHDDD",
"DDDJKKKKKKKKKAmjsgcju5:=....uzNAAZAJKKKKKKKKJDDD",
"DDKKKKKKKKKKJFZNNFGFCmcgiuuumDKKKKKKKKKKKKKKJJDD",
"HKKKKKKKKKKKKKKGKKKJJGFNmvvbDJKKKKKKKKKKKKKKKKJH",
"JKKKKKKKKKKKKKKKKKKKKKKFFFFFKKKKKKKKKKKKKKKKKKKJ"
};
