/* XPM */
static char *result[] = {
/* columns rows colors chars-per-pixel */
"48 48 64 1 ",
"  c #CE0509",
". c #CE0A0C",
"X c #D30F07",
"o c #D10B08",
"O c #D71507",
"+ c #D81707",
"@ c #DB1C07",
"# c #D51208",
"$ c #CE0E10",
"% c #CF1415",
"& c #CF1718",
"* c #CF1B1B",
"= c #DE2206",
"- c #CF201F",
"; c #D0211F",
": c #E02606",
"> c #E32B05",
", c #E73205",
"< c #E93504",
"1 c #EC3B03",
"2 c #CF2422",
"3 c #D02422",
"4 c #D02925",
"5 c #D02D29",
"6 c #D0322D",
"7 c #D13732",
"8 c #D13C35",
"9 c #EF4103",
"0 c #F14403",
"q c #F54C02",
"w c #F75001",
"e c #FA5401",
"r c #FF5D00",
"t c #D1433B",
"y c #D2493F",
"u c #D24C42",
"i c #D25347",
"p c #D25449",
"a c #D25B4D",
"s c #D25E51",
"d c #D36355",
"f c #D36857",
"g c #D36B5B",
"h c #D4715F",
"j c #D47562",
"k c #D47A66",
"l c #D47D69",
"z c #D5846E",
"x c #D48772",
"c c #D48A74",
"v c #D69077",
"b c #D6947B",
"n c #D6997E",
"m c #D59D82",
"M c #D7A285",
"N c #D5A489",
"B c #D6AA8D",
"V c #D5AD92",
"C c #D5B195",
"Z c #D8B595",
"A c #D8B897",
"S c #D6B698",
"D c #D7B999",
"F c #D8BD9B",
/* pixels */
"FFFFFFFFFFFFFFFFFFFFFFFFFFFFFFFFFFFFFFFFFFFFFFFF",
"FFFFFFFFFFFFFFFFFFFFFFFFFFFFFFFFFFFFFFFFFFFFFFFF",
"FFFFFFFFABzi6555fkbZDFFSDFFFFFFFFFFNlzNAFFFFFFFF",
"FFFFFFFDBMMzjhf#358fbVCVCSFFFFFFFFFVcyhMFFFFFFFF",
"FFFFFFFFZZAFFDM&   &8pdgcmVDFAZZZAFAm74dnFFFFFFF",
"FFFFFFFFFFFFFAb*    $&*2ugbCCnzzzMAZm6%7zFFFFFFF",
"FFFFFFFFFFFFFZc4.        2sxki646dMBz4 -aFFFFFFF",
"FFFFFFFFFFFAZMi*.        $262%$o%5gji% $8AFFFFFF",
"FFFFFFFFFFDMli%.      ...o#.#..  .%*%   -nDFFFFF",
"FFFFFFFFFFBh7*     ..X#=@@@=@+#o        &sZFFFFF",
"FFFFFFFFFAct%     o#==0w00q000<>X       .5VFFFFF",
"FFFFFFFFAnt%    X=1qeerrrrrrrree0@o      &CFFFFF",
"FFFFFFFFBz3     =9errrrrrrrrrrrre1#      &BFFFFF",
"FFFFFFFDna.    +9rrrrrrrrrrrrrrrrwO      &BFFFFF",
"FFFFFFFAvto   Oqrrrrrrrrrrrrrrrre<O     o*BFFFFF",
"FFFFFFFDvyo  o>errrrrrrrrrrrrrrr<X       *BFFFFF",
"FFFFFFFCc8  .+0rrrrrrrrrrrrrrrrq=       .2BFFFFF",
"FFFFFFFba2  X=rrrrrrrrrrrrrrrr0,        %aCFFFFF",
"FFFFFFFg5.  #,rrrrrrrrrrrrree9=O        &fZAFFFF",
"FFFFFFCu&   @0rrrrrrrrrrrrrq,=X.        &fZFFFFF",
"FFFFFSCt%   =wrrrrrrrrrrrre,X           -nCFFFFF",
"FFFFSCCt%   =wrrrrrrrrrrrre>..          4CCSFFFF",
"FFFZCCCt%   =errrrrrrrrrrre,           .6CCCCFFF",
"FFDCCCVy%   =errrrrrrr0<,ww,.         .*pCCCCDFF",
"FCCCCCCa2   +0rrrre01>+X.1q9O .X==X    &pVCCCCSD",
"ZCCCCVCl8$  +,eerrq=OXo  ,ww=OO:0<#.  ..8BCCCCCC",
"CCCCCCCNku% .o:1er0Oo    ,wrq00qe,      -lVCCCCC",
"CCCCCCCCNk6%$ o>erw>X  . <ereree0+      &gBCCCCC",
"CVCCCCCCVmd2.  #1er0,>>>>qrrreq<=.      %dVCCCCC",
"CCCCCCCCCVk6.  .=1qewwwqwerre0>=O       &dNCCCCC",
"CCCCCCCCVVf3..  ==>qrrrrrrre<:,<%.      &dVCCCCC",
"CCCCCCCVBb7.    ==@1errrrre1#>qw@       &dNCCCCC",
"CCCCCCCVl7       @=,qerrrr0= >ee0o      &dNCCCCC",
"CCCCCCCNg5      X>1wrrrrre9@ :qe9o      &dBCCCCC",
"CCCCCCCms*.      +<rrrerew<@o>qe1o      *gVCCCCC",
"CCCCCCCxt...    .X,ereww>,==:1ee<o     &uvVCCCCC",
"CCCCCCCk5        o=09==@.#,0ew0,#     %uxCCCCCCV",
"CCCCCCCl7-5&.     O=@ooO@@9ew1:O      4gNCCCCCCC",
"CCCCCCClppd5$      @=OO=110q,+#o   .%6acVCCCCCCC",
"CCCCCCCNcmNd2.    .O>,,qe0<=o     .*ubBACCCCCCCC",
"CCCCCCSFCCFma*..    =,191=X       $7lFFFSCCCCCCC",
"CCCCCCDFDDFDms&.     .            $8xFFFFDCSCCCC",
"CCCCCDFFFFFFSBxut8;X       .    $$7hVFFFFFDSCCCC",
"CCCSFFFFFFFFFDCnbzs-..   .&-&$$&68jNDFFFFFFDCCCC",
"CCCDFFFFFFFFFFFFFAny;%.  $6iy66yjxVSFFFFFFFFSSCC",
"CCDFFFFFFFFFFFFFFFAMkitt.$6dvbnNSFFFFFFFFFFFDDCC",
"CFFFFFFFFFFFFFFFFFFABbcxdyyyajbVFFFFFFFFFFFFFFSS",
"DFFFFFFFFFFFFFFFFFFFAAZZBzfy-tjNFFFFFFFFFFFFFFFS"
};
