/* XPM */
static char *result[] = {
/* columns rows colors chars-per-pixel */
"48 48 185 2 ",
"   c #BE0616",
".  c #B2081F",
"X  c #B9061A",
"o  c #B8121C",
"O  c #BD2A1C",
"+  c #BD321D",
"@  c #AC0423",
"#  c #A30329",
"$  c #A70D28",
"%  c #AC0F25",
"&  c #AD1725",
"*  c #B62620",
"=  c #B82720",
"-  c #CE0509",
";  c #CE0A0C",
":  c #C6050E",
">  c #D10B09",
",  c #CE170C",
"<  c #D71507",
"1  c #D81707",
"2  c #D51D07",
"3  c #DA1B07",
"4  c #D31309",
"5  c #D41C08",
"6  c #CE0E10",
"7  c #C30812",
"8  c #CF1314",
"9  c #CB1F12",
"0  c #CF1718",
"q  c #CF1B1B",
"w  c #D72207",
"e  c #DB2507",
"r  c #D92A07",
"t  c #D5250A",
"y  c #D42C0E",
"u  c #DA2B09",
"i  c #DC3406",
"p  c #DE3D06",
"a  c #D3350E",
"s  c #DC340C",
"d  c #D53B0C",
"f  c #CF201F",
"g  c #C22D19",
"h  c #C82713",
"j  c #C4361B",
"k  c #D03112",
"l  c #D03D11",
"z  c #E32D06",
"x  c #E53305",
"c  c #E13C05",
"v  c #CF2422",
"b  c #CF2927",
"n  c #D02522",
"m  c #D02A26",
"M  c #D02D29",
"N  c #D0322D",
"B  c #D13631",
"V  c #D03B34",
"C  c #D03E38",
"Z  c #DE4207",
"A  c #DF4C08",
"S  c #CD4C15",
"D  c #C64118",
"F  c #D24710",
"G  c #D24A12",
"H  c #D55411",
"J  c #E14405",
"K  c #EB4404",
"L  c #E34B05",
"P  c #EC4C04",
"I  c #E14608",
"U  c #E24B0A",
"Y  c #F64E02",
"T  c #F04403",
"R  c #E55305",
"E  c #EB5504",
"W  c #E65905",
"Q  c #E95B03",
"!  c #E55A0A",
"~  c #F25302",
"^  c #F45C02",
"/  c #FD5D01",
"(  c #E14C15",
")  c #E24F1A",
"_  c #E55112",
"`  c #DD650E",
"'  c #DC6716",
"]  c #EB6203",
"[  c #EC6C03",
"{  c #E26D0A",
"}  c #EA6309",
"|  c #F46302",
" . c #FE6200",
".. c #F26D02",
"X. c #FC6A00",
"o. c #F06B08",
"O. c #ED7205",
"+. c #ED7E06",
"@. c #ED750A",
"#. c #EC7E08",
"$. c #F47402",
"%. c #FC7500",
"&. c #F37B02",
"*. c #FB7B01",
"=. c #F07B0F",
"-. c #E7631F",
";. c #EF7D17",
":. c #F07D13",
">. c #D1433B",
",. c #D2493F",
"<. c #DE6B21",
"1. c #EB7522",
"2. c #EE7C21",
"3. c #D14C43",
"4. c #D25246",
"5. c #D1564A",
"6. c #D25B4E",
"7. c #D25D50",
"8. c #D36253",
"9. c #D26759",
"0. c #D36C5C",
"q. c #D4715F",
"w. c #D37462",
"e. c #D47A66",
"r. c #D47D6A",
"t. c #ED800B",
"y. c #EF8304",
"u. c #F38503",
"i. c #FA8201",
"p. c #F58B01",
"a. c #F98C01",
"s. c #F3810B",
"d. c #F38A0B",
"f. c #FA8E08",
"g. c #F69104",
"h. c #F89201",
"j. c #F79209",
"k. c #F9960A",
"l. c #F9990A",
"z. c #F28618",
"x. c #F48F1D",
"c. c #FC9513",
"v. c #F99E13",
"b. c #F6961D",
"n. c #F79F1D",
"m. c #FB9B1D",
"M. c #FAA116",
"N. c #FAA41C",
"B. c #FBA81F",
"V. c #E78026",
"C. c #F18623",
"Z. c #F69D24",
"A. c #F5982C",
"S. c #F9A423",
"D. c #FBAB24",
"F. c #FBAE2B",
"G. c #FCB22D",
"H. c #FAAD38",
"J. c #FCB533",
"K. c #FDB937",
"L. c #FBB53A",
"P. c #FDBC3C",
"I. c #FDBF41",
"U. c #D4836E",
"Y. c #D38571",
"T. c #D58B74",
"R. c #D48E78",
"E. c #D5947C",
"W. c #D6997E",
"Q. c #FEC244",
"!. c #FEC649",
"~. c #FFC84D",
"^. c #FFCB51",
"/. c #D49780",
"(. c #D59C83",
"). c #D6A286",
"_. c #D5A58A",
"`. c #D6AB8E",
"'. c #D5AD92",
"]. c #D5B195",
"[. c #D8B695",
"{. c #D8B897",
"}. c #D6B698",
"|. c #D7BA9A",
" X c #D8BD9B",
/* pixels */
" X X X X X X X X X X X X[.W.U.).{. X X X X X X X X X X X X X X X X X X X X X X X X X X X X X X X",
" X X X X X X X X X X X X X`.`.{. X X X X X X X X X X X X X X X X X X X X X X X X X X X X X X X X",
" X X X X X X X X X X X X X X X X X X X X X X X}.}. X X X X[.E.r.w.T.`.|. X X X X X X X X X X X X",
" X X X X X X X X X X X X X X X X X X X X X X}.].}.}. X X X8.C M M B 3.0.[.|. X X X X X X X X X X",
" X X X X X X X X X X X X{.{.|.{.{.[.)./.(.).'.'.'.].'.).0.q - - - - ; q q.[. X X X X X X X X X X",
" X X X X X X X X X X X`.`.`.`.E.T.q.7.4.5.0.Y.(.'.'.(.7.m ; - - - - - , ,.`.{. X X X X X X X X X",
" X X X X X X X X X[.).q.0.0.0.3.N n 8 - > f C q.T.R.q.0 - - - - - - - ; m T.[. X X X X X X X X X",
" X X X X X X X X`.T.,.f q q q 8 4 > > - - ; 6 n C >.M - - - - - - - - ; 4 7.`. X X X X X X X X X",
" X X X X X X X).q.n 8 > - - - - - - - - - ; > > 8 8 4 > > > - - - - - - ; B ). X X X X X X X X X",
" X X X X X X'.e.N > - > - - - - - - ; - > 4 w r r r u u r 2 4 > - - - - - 8 E. X X X X X X X X X",
" X X X X X X).7.q - - - - - - - - > 4 5 p R ] [ $.@.@.@.O.Q J r > - - - - - e.`. X X X X X X X X",
" X X X X X XU.V 6 - - - - - - - 2 J ;.A.b.N.D.G.J.K.P.G.h.a.p.O.p 5 - - - - 8.). X X X X X X X X",
" X X X X X Xr.N ; - - - - - > 1 I =.J.!.P.I.!.!.!.~.!.D.h.h.h.g.] i > - - > 8.W. X X X X X X X X",
" X X X X X Xq.n ; - - - - - 5 L :.S.~.~.^.^.^.^.^.~.P.l.h.h.h.h.u.R 2 > - > ,.W. X X X X X X X X",
" X X X X X'.4.8 - - - - - > ! x.J.~.~.^.^.^.^.^.^.!.G.h.h.h.h.h.h.&.A 5 - - f q. X X X X X X X X",
" X X X X X`.4.8 - - - - > w :.J.!.^.^.^.^.^.^.^.^.Q.D.h.h.h.h.h.g.p.Q w - - q 8.). X X X X X X X",
" X X X X X'.5.q - - - - 4 p Z.Q.~.^.^.^.^.^.^.^.~.J.v.h.h.h.h.h.a.h.O.i - - 8 3.R.{. X X X X X X",
" X X X X X|.r.B 6 - - > t ] G.~.^.^.^.^.^.^.^.^.P.M.h.a.h.h.h.h.h.h.i.W - - ; M 8.). X X X X X X",
" X X X X X X(.5.q - - 4 p O.J.~.~.^.^.^.^.^.^.^.G.k.p.i.h.h.h.h.h.h.p.] - - - 0 >.Y. X X X X X X",
" X X X X X X'.w.M - - 4 R p.D.I.~.~.^.^.^.^.^.~.G.g.*.a.h.h.a.h.h.a.p.] > - - ; B r.{. X X X X X",
" X X X X X}.].Y.C - - 2 ] h.l.l.D.Q.^.^.Q.J.G.J.N.a.%.h.h.h.h.a.h.h.a...1 - - q 6.).[. X X X X X",
" X X X X}.].].E.3.- - 2 ] h.h.l.D.P.~.P.D.M.v.M.l.i.%.h.h.h.h.a.a.h.a.$.3 - 6 V r.].].[.|.]. X X",
" X X X[.].].].(.9.- - 2 ] h.h.l.D.P.K.N.k.h.p.p.a.a.i.g.h.h.a.*.%.i.i.| 3 - q 7.W.].].].`.R.'.[.",
" X X|.].].].]._.w.- - 2 ] h.h.h.l.N.l.p.+.` H S ` +.i.i.a.i.%. ./  .| T > - M r.].].].]./.>.T.).",
" X[.].].].].]._.e.6 - 5 W a.g.g.h.j.#.` S = & $ + ` u.%.f.%.X. ./ / T z - - 3.R.].].].]./.3.R.(.",
"[.].].].].].]._.r.q ; > p [ p.g.g.u.S = & $ # # = H d.%.*.%.X. . .Y z < - - 5.R.].].].'.(.e.(._.",
"].].].].].].]._.w.6 - > , h H { a.y.D $ # # # @ O <.S.*.*.*.i.*.~ x < > - - 4./.].].].'.'.(.'.'.",
"'.].].].].].'.E.4.- - - - 7 g } p.p.{ h . . .   y 1.H.b.a.a.a.$.x < > - - - 3.R.].].].'.'././.(.",
"].].].].].].].R.>.- - - : 7 o l O.p.u.R y y u x R x.L.D.h.O.! Z 4 > > - - - M 9.(.].].]._.9.Y.E.",
"].].].].].].].Y.C - - - - :   9 A O.d.t.| ^ ^ | s.N.J.v.d.F a t > - - - - - 8 3.r._.].'.R.C Y.(.",
"].].].].].]._.w.N - - - - - : 2 d S ' S.m.c.c.v.M.N.N.{ G k s x > ; - - - - : q V 6.9.8.4.C /._.",
"].].].].'.'.r.3.q - - - - - - r a j + V.L.K.G.D.D.M.t.j   P ^ K > - - - - - - - - - - : q q.'.}.",
"].].].'._.r.= 7 : - - - - - - - , h h U Z.K.J.M.l.i.! X - ^ *.| 3 > - - - - - - - - 6 b 4.(.].].",
"].].]._.r.3.M f 6 - - - - - - - w J E $.Z.N.v.h.h.s.R : - Q $.| 3 > - - - - - - 6 0 C w./.'.].].",
"].].'./.w.7.w.6.v - - - - - - - 4 i $.f.B.v.h.k.v.z._ ; 4 ] %.^ 3 > - - - - - 6 n 4.R.(.'.].].].",
"].]._./.r.r._.r.V - - - - - - - - 2 &.k.B.v.v.v.b.2.) w c ..$.Y < - - - - - ; f 4.R.'.].].].].].",
"].].'._._.'.].(.7.- - - - - - - - 4 Q j.F.S.C.) ( ! } $.X.^ c z > - - - - - 8 C r.].].].].].].].",
"].].'._.'.].]._.T.M ; - - - - - - > i o.1.-.) s L [ &.*.~ z 3 > - - - - - - f 7.(.].].].].].].].",
"].]._./.r./.].].(.w.N 0 6 - - - - - < c ( U U W ..*...P z 4 > - - - - - - 0 3.Y.'.].].].].].].].",
"].]._.w.6.w.].].|.}.T.7.>.M q 6 - - > z E o...%.| E x 4 - - - - - > 8 n 3.7.).}.].].].].].].].].",
"].].`.R.e.r.{. X X X X}.(.r.6.B q 8 > > x T T K z 1 - - - - - > 8 b >.9._. X X X}.].].].].].].].",
"].].].].'.].|. X X X X X X|.{.(.U.8.6 > - - - ; - - - - - - 6 n 9./.'.|. X X X X X|.].].].].].].",
"].].].].}.|. X X X X X X X X X{.[.`.q.m 6 > > - - - - > 6 f >.e.'.}. X X X X X X X X|.}.].].].].",
"].].].[.|.|. X X X X X X X X X X X X).q.N q 6 ; > 6 8 n B 8.Y.`.|. X X X X X X X X X X|.}.].].].",
"].].].}. X X X X X X X X X X X X X X X).e.4.B n n M >.0.r._.[.|. X X X X X X X X X X X X}.}.].].",
"].]. X X X X X X X X X X X X X X X X X X[.`.W.T.R.E.(.[. X X|.|. X X X X X X X X X X X X|.|.].].",
"}. X X X X X X X X X X X X X X X X X X X X X X[.[. X X X X X X X X X X X X X X X X X X X X X}.}.",
"}. X X X X X X X X X X X X X X X X X X X X X X X X X X X X X X X X X X X X X X X X X X X X X X}."
};
