/* XPM */
static char *result[] = {
/* columns rows colors chars-per-pixel */
"48 48 111 2 ",
"   c #BC0517",
".  c #BE0F18",
"X  c #B6111F",
"o  c #BD101A",
"O  c #BC1D1F",
"+  c #BF201D",
"@  c #A90B27",
"#  c #A3052A",
"$  c #A60828",
"%  c #B31423",
"&  c #B81720",
"*  c #CE0509",
"=  c #CE0A0C",
"-  c #D10B09",
";  c #D61307",
":  c #D81707",
">  c #DA1C07",
",  c #D51209",
"<  c #D31F0D",
"1  c #DA1E08",
"2  c #C40C13",
"3  c #CE0E11",
"4  c #CF1314",
"5  c #C71814",
"6  c #CF1718",
"7  c #CF1C1C",
"8  c #DE2206",
"9  c #D6250D",
"0  c #DC2509",
"q  c #D6280E",
"w  c #DE2B09",
"e  c #DC350E",
"r  c #DE3E0F",
"t  c #CA2216",
"y  c #CE2E16",
"u  c #C1221C",
"i  c #CF201F",
"p  c #C92A19",
"a  c #D02612",
"s  c #D0211F",
"d  c #CF3015",
"f  c #D43413",
"g  c #DA3A11",
"h  c #E02606",
"j  c #E42C05",
"k  c #E02D09",
"l  c #E63205",
"z  c #E93604",
"x  c #EC3B04",
"c  c #E13109",
"v  c #E33C0B",
"b  c #CF2422",
"n  c #CF2926",
"m  c #D02522",
"M  c #D02A26",
"N  c #D02E2A",
"B  c #D0332D",
"V  c #D03631",
"C  c #D13B34",
"Z  c #DF440E",
"A  c #EE4104",
"S  c #EE4906",
"D  c #E5450C",
"F  c #EB4B09",
"G  c #F14503",
"H  c #F44C02",
"J  c #EE5907",
"K  c #EA510A",
"L  c #F45204",
"P  c #FA5501",
"I  c #F65B01",
"U  c #FE5D00",
"Y  c #FE6300",
"T  c #FD6B00",
"R  c #FC7300",
"E  c #FB7C00",
"W  c #D1433B",
"Q  c #D2483E",
"!  c #D24D43",
"~  c #D15046",
"^  c #D2554A",
"/  c #D35A4D",
"(  c #D35F51",
")  c #D36254",
"_  c #D26558",
"`  c #D36C5C",
"'  c #D4715E",
"]  c #D37563",
"[  c #D47A66",
"{  c #D47D69",
"}  c #FA8400",
"|  c #F98C00",
" . c #F89200",
".. c #D5836D",
"X. c #D48671",
"o. c #D58C75",
"O. c #D69077",
"+. c #D5947C",
"@. c #D6997E",
"#. c #D49780",
"$. c #D59D82",
"%. c #D6A186",
"&. c #D6A589",
"*. c #D6AB8D",
"=. c #D5AD91",
"-. c #D5B195",
";. c #D8B695",
":. c #D8B897",
">. c #D6B698",
",. c #D7BA9A",
"<. c #D8BD9B",
/* pixels */
"<.<.<.<.<.<.<.<.<.<.<.<.<.<.<.<.<.<.;.;.<.<.;.=.;.;.:.<.<.<.<.<.<.<.<.<.<.<.<.<.<.<.<.<.<.<.<.<.",
"<.<.<.<.<.<.<.<.<.<.<.<.<.<.<.<.<.*.....<.=...[ [ o.*.<.<.<.<.<.<.<.<.<.<.<.<.<.<.<.<.<.<.<.<.<.",
"<.<.<.<.<.<.<.<.<.<.<.<.<.<.<.<.&.+.O.%.,.,.*.%.[ C ` *.<.<.<.<.<.<.<.<.<.<.<.<.<.<.<.<.<.<.<.<.",
"<.<.<.<.<.<.<.<.<.<.<.<.<.<.<.<.;.*.*.<.,.,.>.&.' i M / o.<.<.<.<.<.<.<.<.<.<.<.<.<.<.<.<.<.<.<.",
"<.<.<.<.<.<.<.<.<.<.<.<.<.<.<.<.<.<.<.<.<.*.+...~ = * 6 W $.*.:.<.<.<.<.<.<.<.<.<.<.<.<.<.<.<.<.",
"<.<.<.<.<.<.<.<.<.<.<.<.<.<.<.<.<.<.<.<.*...^ Q M * * = a ^ ' $.;.<.<.<.<.<.<.<.<.<.<.<.<.<.<.<.",
"<.<.<.<.<.<.<.<.<.<.<.<.<.<.<.<.<.:.;.%...V 3 = * * * * * = s _ @.;.<.<.<.<.<.<.<.<.<.<.<.<.<.<.",
"<.<.<.<.<.<.<.<.<.<.<.<.<.<.<.;.&.+...` C 4 = * * * * * * = - M ) @.<.<.<.<.<.<.<.<.<.<.<.<.<.<.",
"<.<.<.<.<.<.<.<.<.<.<.<.<.<.;.X.Q B i 6 - - - , ; ; , - - - * - m / %.-.;.<.<.<.<.<.<.<.<.<.<.<.",
"<.<.<.<.<.<.<.<.<.<.<.<.<.;.@./ 4 3 = = , > 8 l x x j > > > ; - 3 N ] O.@.*.*.;.:.<.<.<.<.<.<.<.",
"<.<.<.<.<.<.<.<.<.<.<.<.<.%.) s = - , 8 x G L P U P L H G G z > - 4 m V Q / _ { ;.<.<.<.<.<.<.<.",
"<.<.<.<.<.<.<.<.<.<.<.<.*.~ 7 = , j S I R E } } } R T U U U U G h - * * - 3 6 7 ..;.<.<.;.&.@.<.",
"<.<.<.<.<.<.<.<.<.<.:.%.` 7 = - j G Y E | |  . .| | R Y U U U U x h * * * * * * Q +.<.<.*...' <.",
"<.<.<.<.<.<.<.<.:.*.o./ M - * : G U R |  . . . . . .E T U U U U P z - - * * * * y ..<.<.&.' / <.",
"<.<.<.<.<.<.<.;.X.~ m * * = , j P R }  . . . . . . . .E Y U U U U H h - * * * * s ` *.<.&.` W %.",
"<.<.<.<.<.<.<.+.Q 6 = * * - 8 G Y E |  . . . . . . . .E Y U U U U U z > * * * * 4 Q O.<.%.( C @.",
"<.<.<.<.<.:.&.^ 7 = * * * ; x U T E  . . . . . . . .} R Y U U Y U U H h - * * * 3 Q ..*...! W *.",
"<.<.<.<.:.&.` 7 = * * * * x P U T E |  . . . . . . .E T Y U U U U U H h , * * * 6 / { ) V N ^ :.",
"<.<.<.<.-...C 3 * * * * - H U U R |  . . . . . . .| R Y Y U U U U U P h - * * * = s M 7 6 W X.<.",
"<.<.<.<.$./ 7 * * * * * > P U U R }  . . . . . . .} T Y U U U U U U P h - * * * * * = - W { *.<.",
"<.<.<.<.X.C * * * * * - j P Y Y Y E |  . . . . .| T Y U U U U Y U U H h - * * * * = n ` $.-.<.<.",
"<.<.<.<._ b * * * * * - j P U U Y E } | | | | } R Y Y U U U U U U U G 8 - * * * * 4 V +.:.<.<.<.",
"<.<.<.-.! 6 * * * * * - l P U U U T R E E E E R T Y U U Y U U U U U x > - * * * * = C #.-.<.<.<.",
"<.<.;.@.N 3 * * * * * - j P Y Y U U Y U U U U U U U U U U U U U U U l - * * * * * 4 ! $.-.:.<.<.",
":.;.=.` i * * * * * * - h P Y T T Y Y Y Y Y Y Y U U P L P P P U P P h - - * * * = i ( =.-.-.>.<.",
">.=.#.C b 3 * * * * * * 8 G I R E R R T T T Y T Y U F v w h x H G l ; * * * * * 3 V { -.-.-.-.-.",
"-.&.` C ~ n * * * * * * - 8 A Y E } } } } E T Y U P D a 3 - ; > ; - * * * * * * 6 ^ #.-.-.-.-.-.",
"-.$.! _ ` C 3 * * * * * * , j L Y T T R T T L K F F F f . * - - - * * * * * * * i ` =.-.-.-.-.-.",
"-.$.~ #.+.( b * * * * * * - q F U U Y I Z g p u + + g f X   2 0 8 ; * * * * * * b { -.-.-.-.-.-.",
"-.=.{ =.&.o.^ 2 * * * * * = 6 y D L P F % % $ # # # f f & t f x j ; * * * * * * V { -.-.-.-.-.-.",
"-.-.-.-.=.=.o.N = * * * * = 2 % p F P D % # # # $ O D D g L U x 1 = * * * * * * ] %.-.-.-.-.-.-.",
"-.-.-.-.=.=.#.V = * * * * = q g r F J L f % % & u K T Y U U L e - * * * * * 2 7 #.-.-.-.-.-.-.-.",
"-.-.-.-.-.=.#.! X 2 * * * 3 l H U F f f I D L Y T } | E Y L d w > * * * * 3 n o.=.-.-.-.-.-.-.-.",
"-.-.=.=.=.-.=.{ C 3 * * * * , h G e 5 + L I Y R } } E Y L Z y c , = * * * 4 ( $.-.-.-.-.-.-.-.-.",
"-.-.=.#.=.-.-.#._ B 6 * * * = - > 9 i g J U Y R E R J Z g d e 0 , * * * * 7 ] =.-.-.-.-.-.-.-.-.",
"-.-.-.%.=.-.-.-.#.] ! = * * * * * , w S U U Y Y Y K f p f v v : - * * * * 4 / =.-.-.-.-.-.-.-.-.",
"-.-.-.#.=.-.-.-.-.=.$./ 3 = * * * 8 x P U U U P Z b d D S j : * * * * * * * b $.-.-.-.-.-.-.-.-.",
"-.-.=.{ %.=.-.-.-.;.:.$.C 3 * * - h A L L L L D d p D P A , * * * * * * * * 6 %.-.-.-.-.-.-.-.-.",
"-.-.=.{ %.=.-.-.-.,.<.;.{ s * * * > l v f Z g g g D S x 8 * * * * * * * * * 6 $.-.-.-.-.-.-.-.-.",
"-.-.-.=.=.=.-.-.,.<.<.<.<.M * * * - < 9 d r g D L S l > - * * * * * * * * 3 V *.-.-.-.-.-.-.-.-.",
"-.-.-.-.-.-.,.<.<.<.<.<.<.n * * * * - > H P P P H h - * * * * * * * * * 2 N { ,.>.-.-.-.-.-.-.-.",
"-.-.-.-.-.-.<.<.<.<.<.<.<.N * * - - * - > > 8 > : - * * * * * * * * * * b _ >.<.,.>.-.>.-.-.-.-.",
"-.-.-.-.;.,.<.<.<.<.<.<.<./ s * 4 N W C m , - - - * * * * * * * * * = 4 C { <.<.,.<.,.>.-.-.-.-.",
"-.-.-.;.<.<.<.<.<.<.<.<.<.X.C 4 C ' O.O.` N 4 * * * * * * * = = = 3 6 C ] &.<.<.<.<.<.,.-.-.-.-.",
"-.-.-.,.<.<.<.<.<.<.<.<.<.&.` N Q O.:.:.&.' V 4 * * * * * = 6 m m N ! { -.>.,.<.<.<.<.<.>.>.-.-.",
"-.-.,.,.<.<.<.<.<.<.<.<.<.<.%._ V ' *.:.<.=.O.^ m * * * 3 ! ] o.O.+.&.-.<.<.,.,.<.<.<.<.,.,.-.-.",
"-.<.<.<.<.<.<.<.<.<.<.<.<.<.:.$.` ..&.:.<.<.;.+.' ~ C C ( O.*.,.:.:.<.<.<.<.<.<.<.<.<.<.<.<.,.>.",
",.<.<.<.<.<.<.<.<.<.<.<.<.<.:.:.&.%.*.:.<.<.<.:.=.O.' { $.;.,.<.<.<.<.<.<.<.<.<.<.<.<.<.<.,.,.>."
};
