/* XPM */
static char *result[] = {
/* columns rows colors chars-per-pixel */
"48 48 109 2 ",
"   c #BD101A",
".  c #BC1D1F",
"X  c #BF201D",
"o  c #A90B27",
"O  c #A3052A",
"+  c #A60828",
"@  c #B31423",
"#  c #CE0509",
"$  c #CE0A0C",
"%  c #D10B08",
"&  c #D71507",
"*  c #D81607",
"=  c #D61C07",
"-  c #DA1C07",
";  c #D51208",
":  c #D61D08",
">  c #CF0E10",
",  c #CF1314",
"<  c #CB1F13",
"1  c #CF1718",
"2  c #CF1C1B",
"3  c #D01E1A",
"4  c #DD2206",
"5  c #DC2C06",
"6  c #D8250B",
"7  c #D62C0E",
"8  c #DC320D",
"9  c #DB3B0F",
"0  c #CC2B16",
"q  c #C3231B",
"w  c #CF201F",
"e  c #C82919",
"r  c #D42214",
"t  c #D62D10",
"y  c #D0211C",
"u  c #CF3015",
"i  c #D63412",
"p  c #D83512",
"a  c #D93B11",
"s  c #E02606",
"d  c #E42C05",
"f  c #E63305",
"g  c #E83504",
"h  c #E43A06",
"j  c #EB3B04",
"k  c #E33208",
"l  c #E23D0B",
"z  c #CF2523",
"x  c #D02422",
"c  c #D02A26",
"v  c #D02E29",
"b  c #D1332E",
"n  c #D3382E",
"m  c #D13630",
"M  c #D13C35",
"N  c #DF430E",
"B  c #E74204",
"V  c #ED4404",
"C  c #ED4B06",
"Z  c #E5440B",
"A  c #EB4C09",
"S  c #F14503",
"D  c #F44C02",
"F  c #EB5304",
"G  c #EA5209",
"H  c #F45304",
"J  c #F95401",
"K  c #F45E03",
"L  c #FE5C00",
"P  c #F56202",
"I  c #FE6400",
"U  c #FD6B00",
"Y  c #F67202",
"T  c #FC7300",
"R  c #FB7B00",
"E  c #D1433B",
"W  c #D2483E",
"Q  c #D24D43",
"!  c #D35446",
"~  c #D25649",
"^  c #D35B4D",
"/  c #D35E50",
"(  c #D36354",
")  c #D36C5B",
"_  c #D4715E",
"`  c #D37462",
"'  c #D47A66",
"]  c #D57E69",
"[  c #FA8300",
"{  c #F98C00",
"}  c #F89200",
"|  c #D5826C",
" . c #D38773",
".. c #D48B74",
"X. c #D48D78",
"o. c #D5947C",
"O. c #D6987E",
"+. c #D49780",
"@. c #D59D84",
"#. c #D6A185",
"$. c #D6A58A",
"%. c #D7AA8D",
"&. c #D6AE91",
"*. c #D5B195",
"=. c #D8B695",
"-. c #D8B897",
";. c #D6B698",
":. c #D7BA9A",
">. c #D8BD9B",
/* pixels */
">.>.>.>.>.>.>.>.>.>.>.>.>.>.>.>.>.=.O.O.] ` ~ m ) $.:.>.-.>.>.>.>.>.>.>.>.>.>.>.>.>.>.>.>.>.>.>.",
">.>.>.>.>.>.>.>.>.>.>.>.>.>.>.>.%.o.( ^ v w 3 M | *.>.>.>.>.>.>.>.>.>.>.>.>.>.>.>.>.>.>.>.>.>.>.",
">.>.>.>.>.>.>.>.>.>.>.>.>.>.>.&.] E 3 1 > # % b ' %.:.-.=.&.*.=.=.>.>.>.>.>.>.>.>.>.>.>.>.>.>.>.",
">.>.>.>.>.>.>.>.>.>.>.>.>.>.>.X.E , # % # # # , E | %.O.] ' ' | @.>.>.>.>.>.>.>.>.>.>.>.>.>.>.>.",
">.>.>.>.>.>.>.>.>.>.>.>.>.:.*.) x % # # # # # # > 3 x x 1 1 1 y Q $.:.>.>.>.>.>.>.>.>.>.>.>.>.>.",
">.>.>.>.>.>.>.>.>.>.>.>.=.O.^ v , # # # # # # # # # # # # # # % 3 ' %.:.>.>.>.>.>.>.>.>.>.>.>.>.",
">.>.>.>.>.>.>.>.>.>.>.*...Q > # # # # # # # # # # # # # # # # # % ^ @.:.>.>.>.>.>.>.>.>.>.>.>.>.",
">.>.>.>.>.>.>.>.>.>.>.#.^ 3 # # # # # # # # # # # # # # # # # # 3 _ #.>.>.>.>.>.>.>.>.>.>.>.>.>.",
">.>.>.>.>.>.>.>.>.>.>.| m # # # # # # # # # # # # # # # # # # % v  .%.-.>.>.>.>.>.>.>.>.>.>.>.>.",
">.>.>.>.>.:.=.%.%.>.>.) x # # # # # # # # # # # # # # # # # # # x / ] $.>.>.>.>.>.>.>.>.>.>.>.>.",
">.>.>.>.>.*.] ~ ! #.*.^ x # # # # # # % % ; * * % % % % # # # # $ 1 M ' >.>.>.>.>.>.>.>.>.>.>.>.",
">.>.>.>.:.O.E 2 3 ! ..W 3 # # # # % ; - - g j j d - - - ; % # # # # x ( >.>.>.>.>.>.>.>.>.>.>.>.",
">.>.>.>.=.| y $ % 1 v 3 > # # % & - j S D J L J J D D S j * % # # # , E %.>.>.>.>.>.>.>.>.>.>.>.",
">.>.>.:.$.( , # # # # # # # ; d S J U R R [ R U L L L L L S s % # # $ , W #.-.>.-.%.&.>.>.>.>.>.",
">.>.>.>.#.^ % # # # # # # % s S L U [ { { } { T U I I L L J S s % # # $ r ] %.>.%._ | &.>.>.>.>.",
":.>.>.>.#.^ $ # # # # # # & S L I T } } } } { [ R R U L L L J g % # # $ ; ! %.-.%.( ^ ..%.>.-.%.",
"#.:.>.-.@./ $ # # # # # ; d L I R [ } } } } } } } { R L L L L D d % # # # m o.-.>.@.~ Q X.>.*.' ",
">.>.>.:.$.( > $ # # # % 4 S I R { { } } } } } } } { T L I L L L S * % # # $ / | o.' M E | >.>._ ",
">.>.>.>.*.| 2 $ # # # * j I R { } } } } } } } } } { T L I L L L J s % # # # 2 z c x , b | >.>.@.",
">.>.>.>.-.| 2 $ # # # j J T { } } } } } } } } } } R U L L L L L J s % # # # # # # # # b | >.>.>.",
">.>.>.=.$._ 1 $ # # # D U R } } } } } } } } } } { R I L L J J D S s % # # # # # # # # m ] >.>.>.",
">.>.%.| Q c $ $ # # - L U [ } } } } } } } } { { [ T I L L g s - s - % # # # # # # # # v | >.>.>.",
">.>.%.~ 3 # # # # % d L T [ } } } } } } } } } R T U L J d ; # # $ $ # # # # # # # # 3 ~ o.>.>.>.",
">.>.#.~ 1 # # # # % d K T { } } } } } } } } } T U I J f ; # # # # # # # # # # # # # v ` $.;.>.>.",
">.=.+.~ 1 # # # # % f L T [ } } } } } } } } { U I J j ; # # # # # # # # # # # # # # E  .&.*.;.>.",
"=.*.o.Q 1 # # # # % d J U [ } } } } } { [ R T I D d ; # # # # # # # # # # # # # # # E ] &.*.*.*.",
"*.*.o.Q , # # # # % d J I T { { } } { [ U I I J g ; # # # # # # # # # # # # # # # $ Q  .&.*.*.*.",
"*.*.@./ 2 $ # # # # - J I I T { { } [ U I I L D s ; # # # # # # # # # # # # # # $ z / +.&.*.*.*.",
"*.*.&.] E > > $ $ # # S L I I T R [ R I L L L D g ; # # # # % % # # # # # $ $ $ . ` @.&.*.*.*.*.",
"*.*.*.+.) c 2 z x $ $ g J L L I I U I I H A A A g s % # # # % ; $ # # # # $ $ 2 ~ @.&.*.*.*.*.*.",
"*.*.*.&.+.` ) ` _ E > 4 h H L L L L N p e X X X t d ; # # * - ; # # # # $ z E (  .&.*.*.*.*.*.*.",
"*.*.*.&.&.@.@.&.$. .b 1 < u Z H L A @ @ o + + O 0 k ; # - g s ; # # # > E ) +.@.$.*.*.*.*.*.*.*.",
"*.*.*.*.*.*.*.*.*.$.(     @ z N H A @ O O O O @ Z C g h D S 4 % # # # w  .&.*.*.*.*.*.*.*.*.*.*.",
"*.*.*.*.*.*.*.*.*.&.( 2 r N N G H H i @ @ @ z G U U T U K j - # # # # 2  .&.*.*.*.*.*.*.*.*.*.*.",
"*.*.*.*.*.*.*.*.*.$.~ 2 B P U A p p H A H K I R R [ [ H f f * # # # # , Q $.*.*.*.*.*.*.*.*.*.*.",
"*.*.*.*.*.*.*.*.&.+.m   ; s D a q q H J L L L I U Y Y j f f * # # # # # z #.*.*.*.*.*.*.*.*.*.*.",
"*.*.*.*.*.*.*.*.$./ 2 % # ; d l p a L L L L L L H A B h B 5 & # # # # # 1 #.*.*.*.*.*.*.*.*.*.*.",
"*.*.*.*.*.*.&.*.+.z $ # # # * h A H L L L L L A i t h F C : $ # # # # # 2 %.=.*.*.*.*.*.*.*.*.*.",
"*.*.*.*.*.@.+.@. .# # # # # ; j J I I L I L D i i A F B : # # # # # # $ b %.>.*.*.*.*.*.*.*.*.*.",
"*.*.*.*.*. .Q ( ` # # # # # % f D H H H D C 9 9 G I K ; # # # # # # # , ~ *.>.:.*.*.*.*.*.*.*.*.",
"*.&.*.*.&. .b n M $ # # # # # - h Z 9 l l l l G K P F # # # # # # # # w  .:.>.>.;.*.*.*.*.;.*.*.",
"*.*.*.*.&.o.! x > # # # # # # % ; 6 8 l l S J S B h 5 # # # # # # # , M *.>.>.>.:.;.*.*.*.*.*.*.",
"*.*.*.*.=.;.o./ m > $ # # # # # % - H J J J D s % # # # # # # # $ 1 M ` :.>.>.>.:.>.:.;.*.*.*.*.",
"*.*.*.=.:.>.>.*.o.M > # # # # # # % - 4 - - - % # # # # # # # # 1 ( +.;.>.>.>.>.>.>.>.:.;.*.*.*.",
"*.*.*.>.>.>.>.>.=.X.c % # # # # # # y n E W _ | | _ W y 2 x b Q ` $.;.>.>.>.>.>.>.>.>.>.;.;.*.*.",
"*.*.>.>.>.>.>.>.:.&.` b 1 $ # # # , ~ | | o.%.&.&.#...) ) ) ] o.$.;.>.>.>.>.>.>.>.>.>.>.:.:.*.*.",
"*.>.>.>.>.>.>.>.>.-.%._ W c , $ % y | =.%.-.>.>.>.-.=.$.$.&.*.>.>.>.>.>.>.>.>.>.>.>.>.>.>.:.;.;.",
">.>.>.>.>.>.>.>.>.>.>.*.#...~ c 1 r _ =.>.>.>.>.>.>.>.>.>.>.>.>.>.>.>.>.>.>.>.>.>.>.>.>.>.:.:.:."
};
