/* XPM */
static char *result[] = {
/* columns rows colors chars-per-pixel */
"48 48 193 2 ",
"   c #BF0A0C",
".  c #B4051D",
"X  c #BB0618",
"o  c #BF0415",
"O  c #BB131A",
"+  c #B8181C",
"@  c #BD2D1D",
"#  c #BD301C",
"$  c #A70527",
"%  c #A2022A",
"&  c #A60C28",
"*  c #AA0324",
"=  c #B00620",
"-  c #AB1326",
";  c #B21F22",
":  c #872621",
">  c #B52421",
",  c #CE0509",
"<  c #CE0A0C",
"1  c #D10C08",
"2  c #D41407",
"3  c #D51D07",
"4  c #DA1C07",
"5  c #D31308",
"6  c #D41A08",
"7  c #C00614",
"8  c #CE0F11",
"9  c #CF1314",
"0  c #CF1A1A",
"q  c #CD250F",
"w  c #D72407",
"e  c #DB2406",
"r  c #DA2C07",
"t  c #D62D0D",
"y  c #DA2B0A",
"u  c #DC3406",
"i  c #DE3A06",
"p  c #D7350C",
"a  c #DB3D0B",
"s  c #DB340F",
"d  c #C22718",
"f  c #CF201E",
"g  c #CB2B12",
"h  c #D12D10",
"j  c #CE3412",
"k  c #CF3A11",
"l  c #C63717",
"z  c #D13F11",
"x  c #DD3C15",
"c  c #E22A05",
"v  c #E63205",
"b  c #E43B05",
"n  c #EC3E04",
"m  c #E33908",
"M  c #CF2322",
"N  c #C42A25",
"B  c #D02422",
"V  c #D02A26",
"C  c #D02C29",
"Z  c #D0322D",
"A  c #D03732",
"S  c #D13D36",
"D  c #D03E38",
"F  c #DA5D0F",
"G  c #D8530E",
"H  c #C74118",
"J  c #CE4E1C",
"K  c #CC4B15",
"L  c #DE4118",
"P  c #D24611",
"I  c #D55A14",
"U  c #D35417",
"Y  c #E24506",
"T  c #EC4303",
"R  c #E44C05",
"E  c #EB4904",
"W  c #E04208",
"Q  c #E54C0C",
"!  c #F34D02",
"~  c #E55505",
"^  c #EF5703",
"/  c #E75804",
"(  c #EA5B03",
")  c #E45A0C",
"_  c #F35C03",
"`  c #FF5E00",
"'  c #F15102",
"]  c #E44F10",
"[  c #E65D1C",
"{  c #E15C15",
"}  c #DD630D",
"|  c #DE680D",
" . c #EC6403",
".. c #EC6B04",
"X. c #E8620B",
"o. c #EC6D0A",
"O. c #E46E09",
"+. c #F56202",
"@. c #FD6500",
"#. c #F36B02",
"$. c #FD6C00",
"%. c #EE7203",
"&. c #EE7E06",
"*. c #E7760A",
"=. c #EE760A",
"-. c #E87908",
";. c #F57401",
":. c #FB7400",
">. c #F37C01",
",. c #FB7C00",
"<. c #F37009",
"1. c #EC7F10",
"2. c #EE7919",
"3. c #EA781B",
"4. c #F07B10",
"5. c #E86617",
"6. c #D1443B",
"7. c #D2483F",
"8. c #EA6F23",
"9. c #EB7529",
"0. c #9B6F5B",
"q. c #B57C67",
"w. c #D14C42",
"e. c #D25247",
"r. c #D2574A",
"t. c #D25B4E",
"y. c #D25E51",
"u. c #D36455",
"i. c #D36B5B",
"p. c #D4715F",
"a. c #D37563",
"s. c #D47A66",
"d. c #D47D6A",
"f. c #EF8306",
"g. c #F38302",
"h. c #FA8400",
"j. c #F58B02",
"k. c #F98D00",
"l. c #F38B0C",
"z. c #FB8808",
"x. c #F79102",
"c. c #F89200",
"v. c #F79308",
"b. c #FA940A",
"n. c #F99B0C",
"m. c #EF8C16",
"M. c #F0841E",
"N. c #F69711",
"B. c #F99314",
"V. c #FA9C12",
"C. c #F69318",
"Z. c #F7991D",
"A. c #FB9C1B",
"S. c #FAA116",
"D. c #FAA51B",
"F. c #FBA81E",
"G. c #F28A22",
"H. c #F09129",
"J. c #F69822",
"K. c #F49F32",
"L. c #FAA623",
"P. c #FBAB24",
"I. c #FBAB2B",
"U. c #FCB22D",
"Y. c #FCAE31",
"T. c #FCB533",
"R. c #FDB837",
"E. c #FDBB3B",
"W. c #FBB639",
"Q. c #FDBF40",
"!. c #D5826D",
"~. c #D48771",
"^. c #D58C74",
"/. c #D48D78",
"(. c #D69077",
"). c #D6947B",
"_. c #D6997E",
"`. c #FEC245",
"'. c #FEC64A",
"]. c #FFC84D",
"[. c #FFCB51",
"{. c #BFA487",
"}. c #D69D82",
"|. c #D7A286",
" X c #D6A589",
".X c #D6AB8E",
"XX c #D5AD92",
"oX c #D5B195",
"OX c #D8B695",
"+X c #D8B897",
"@X c #D6B698",
"#X c #D7BA9A",
"$X c #D8BD9B",
/* pixels */
"$X$X$X$X$X$X$X$X$X$X$X$X$X$X$X$X$X$X$X$X$X$X$X$X$X$X$XoX.XOX$X$X$X$X$X$X$X$X$X$X$X$X$X$X$X$X$X$X",
"$X$X$X$X$X$X$X$X$X$X$X$X$X$X$X$X$X$X$X$X$X$X$X$X$X$X$X$X$X$X$X$X$X$X$X$X$X$X$X$X$X$X$X$X$X$X$X$X",
"$X$X$X$X$X$X$X$X$X$X$X$X$X$X$X$X$X.X_.|.@X$X$X@X+X$X$X$X$X$X$X$X$X$X#X#X$X$X$X$X$X$X$X$X$X$X$X$X",
"$X$X$X$X$X$X$X$X$X$X$X$X$X$X}.(.s.r.S 7.i./.).}.XXoX+XoX|.}.}._._._. XOX$X$X$X$X$X$X$X$X$X$X$X$X",
"$X$X$X$X$X$X$X$X$X$X$X$X+X_.t.7.Z 0 1 9 B 6.w.i./. X}.!.u.r.r.e.e.r.i.(..X#X$X$X$X$X$X$X$X$X$X$X",
"$X$X$X$X$X$X$X$X$X$XOX.X.Xr.0 , , , 1 , , , < B w.p.i.A 0 1 < < < < f u._.+X$X$X$X$X$X$X$X$X$X$X",
"$X$X$X$X$X$X$X$XoX}.~.s.!.f < , , , , , , , , 1 9 M M 8 , , , , , , f p..X$X$X$X$X$X$X$X$X$X$X$X",
"$X$X$X$X$X$X$XOXs.7.C V V 1 , , , , , , , 1 1 1 < < 1 1 1 , , , 1 < f !.OX$X$X$X$X$X$X$X$X$X$X$X",
"$X$X$X$X$X$XOX).S 9 < < < , , , , , 1 1 6 r r r y y r w 6 1 1 , , , 0 p. X+XOX.X+X$X$X$X$X$X$X$X",
"$X$X$X$X$XOX_.u.0 , , , , , , , 1 6 r W / ..%.=.=.=.%...~ i 5 , , , 8 A p.^.!.u._.$X$X$X$X$X$X$X",
"$X$X$X$X$X|.u.B , , , , , , 5 u X.M.J.Z.L.U.U.R.E.R.L.c.j.g. .r 1 , , < 0 f 0 9 V }.$X$X$X$X$X$X",
"$X$X$X$X$X^.6.1 , , , , , , i o.Z.E.`.E.`.`.'.].].E.D.c.c.c.j./ 2 , , , , , , , , _.$X$X$X$X$X$X",
"$X$X$X$X$X!.Z , , , , , 1 w o.J.R.].[.[.[.[.[.].`.U.v.c.c.c.k.>.r 1 , , , , , , , _.$X$X$X$X$X$X",
"$X$X$X$X$X!.Z , , , , , 3 =.I.Q.[.[.[.[.[.[.[.].R.D.c.c.c.c.c.c.( w , , , , , , , _.$X$X$X$X$X$X",
"+X X}..X$Xd.Z , , , , 1 W Z.Q.[.[.[.[.[.[.[.].'.U.n.c.c.c.c.c.c.%.i 1 , , , , , , _.$X$X$X$X$X$X",
".X!.u.a.OX!.Z , , , 1 3 %.T.].[.[.[.[.[.[.[.[.Q.F.v.c.c.c.c.c.c.,.R 6 , , , , 1 9 _.$X$X$X$X+XOX",
"+X X^.e.}.s.Z , , , 2 u x.'.[.[.[.[.[.[.[.[.[.L.n.k.c.c.c.c.c.c.j...r , , , , < r..X$X$X$X$X.X|.",
"$X#X|.6.y.y.V , , , 6 R v.'.[.].[.[.[.[.[.[.[.V.k.h.h.c.c.c.c.c.j.%.i , , , , 0 _.$X$X$X+XOX_.^.",
"$X$X X7.f B 9 , , , r ..v.R.'.'.[.[.[.[.[.[.[.N.,.,.k.c.c.c.c.c.k.%.m 1 , , < 7..X$X$XoX}.p.e.u.",
"$X$XoXq.:   , , , , u &.c.n.F.R.].[.].E.T.R.U.v.,.,.c.c.c.c.c.c.c.,.R 1 , , B }.XXOXoX!.6.0 Z p.",
"$X$X#X{.0.N 8 , , , u &.c.c.S.R.'.`.U.F.V.S.V.k.,.,.c.c.k.c.k.k.k.>.E 1 , , V oXoXoX.Xs.6.D u.).",
"$X$X$X#XXXy.Z 0 , , u >.c.c.S.R.`.U.S.c.x.j.j.j.h.h.c.c.k.h.,.,.h.;.T 1 , , C oXoXoXXX(.s.(.|.oX",
"$X$X$XOXoX X/.i.M , u &.c.c.n.D.S.v.f.-.} K K *.g.h.h.k.,.$.` ` ` ! c , , 9 D oXoXoXoXoX@X$X$X$X",
"$X$XOXoXoXoXXX|.6., u ..c.c.x.x.j.*.I H > & & I >.h.,.h.:.@.` ` ! v 5 , , M t.oXoXoXoXoXoX@X$X$X",
"$XOXoXoXoXoXoXXX6.< 3 R f.j.j.j.*.H > - $ % % J 1.z.,.,.$.@.@.` n 4 , , , M y.oXoXoXoXoXoXoX@X#X",
"oXoXoXoXoXoXoXXX7.< , 6 k F j.j.| N $ $ % $ * U H.J.,.,.,.,.;.! 4 1 , , , M y.oXoXoXoXoXoXoXoX@X",
"oXoXoXoXoXoXoXXX6.< , , O l f.c.f.G = = = X 7 { K.Y.B.k.k.g. .e , < , , , M y.oXoXoXoXoXoXoXoXoX",
"oXoXoXoXoXoXoX.X7.< , 7 . + ) g.j.%.a t y y u 1.Y.R.S.g.O.~ r 1 , , , , , M y.XXoXoXoXoXoXoXoXoX",
"oXoXoXoXoXoXXX}.A < , , o . a o.f.l.=._ _ +.#.N.T.U.N.} z t 5 , , , , , 7 M y.oXoXoXoXoXoXoXoXoX",
"oXoXoXoXoXoX Xd.M < , , , , p P I 3.J.A.B.n.V.D.D.m.} j s m 4 , , , , , , M y.oXoXoXoXoXoXoXoXoX",
"oXoXoXoXoXoXXXd.M , , , , , p l > J I.W.T.U.P.D.l.F d t _ ` e , , , , , , M u.oXoXoXoXoXoXoXoXoX",
"oXoXoXoXoXoXXX~.Z < , , , , 1 q h g 3.I.R.I.V.j...j o m #.:.T 1 , , , , 9 w.~.oXoXoXoXoXoXoXoX@X",
"oXoXoXoXoXoXXX}.r.; 7 , , , 1 m ~ +.C.D.S.n.c.j.X.y , u #.;.n 1 , , , 9 w.d. XoXoXoXoXoXoXoXoXoX",
"oXoXoXoXoXoXoXXXd.D 8 , , , 1 w ~ >.A.L.n.b.v.C.5.t 1 i #.;.n 1 , 1 9 A a. XoXoXoXoXoXoXoXoXoXoX",
"oXoXoXoXoXoXoXoX~.D 8 , , , < 5 Y g.S.D.V.A.A.G.[ s y ( ;.#.v 1 8 C 6.a.}.XXoXoXoXoXoXoXoXoXoXoX",
"oXoXoXoXoXoXoXXXd.A 8 , , , , 1 u ..L.I.J.9.x ) X...;.+.! n 1 , A a.|.OXXXoXoXoXoXoXoXoXoXoXoXoX",
"oXXXoXoXoXoXoXoX/.w.0 < , , , , 6 Y 2.8.[ L y  .>.,.#.n c 2 , , 7.(.$X$X$XOXXXoXoXoXoXoXoXoXoXoX",
"oXXXoXoXoXoXoXoX Xa.A 1 , , , , 1 e Q ] Q Q ( >.;.( T 4 1 1 , , y.}.$X$X$X@X@X@XoXoXoXoXoXoXoXoX",
"oXoXoXoXoXoXoXoXXX Xa.Z , , , , , 2 T ^ ..;.;.^ n e 1 , , , , 9 !.OX$X$X$X$X$XXXoXoXoXoXoXXXoXoX",
"oXoXXXoXoXoXoXoX$X$X|.i.9 < , , , , e b T E T 4 1 , , , , , 1 Z }.+X$X$X$X$X$X#XoXoXoXoXoXoXoXoX",
"oXoXoXXXoXoX$X$X$X$X$X Xr.B , , , , , , 1 1 1 , , , , , , , 8 i.@X$X$X$X$X$X$X$X@XoXoXoXoXoXoXoX",
"oXoXoX@XoXXX$X$X$X$X$X$X.X).a.e.6.V 1 , , , , , , 8 0 7.u.d.!. X#X$X$X$X$X$X$X$X$X#XoXoXoXoXoXoX",
"oXoX@XXX@X+X$X$X$X$X$X$X$X+X X).^.i.V 9 1 , , , 1 B e.^.|..XXX@X$X$X$X$X$X$X$X$X$X$X#X@XoXoXoXoX",
"oXoXXX@X$X$X$X$X$X$X$X$X$X$X$X$X+X|.u.6.B 8 < , 8 Z a.OX$X$X$X$X$X$X$X$X$X$X$X$X$X$X$X#XoXoXoXoX",
"oXoXoX$X$X$X$X$X$X$X$X$X$X$X$X$X$X$X.X|.~.e.6.9 < V i.$X$X$X$X$X$X$X$X$X$X$X$X$X$X$X$X$X#X@XoXoX",
"oXoX$X$X$X$X$X$X$X$X$X$X$X$X$X$X$X$X$X$XOX).^.y.D C e..X$X$X$X$X$X$X$X$X$X$X$X$X$X$X$X$X#X#XoXoX",
"oX$X$X$X$X$X$X$X$X$X$X$X$X$X$X$X$X$X$X$X$XOXOX}.i.Z S |.@X$X$X$X$X$X$X$X$X$X$X$X$X$X$X$X$X$X#X@X",
"$X$X$X$X$X$X$X$X$X$X$X$X$X$X$X$X$X$X$X$X$X$X$X$X.X|.|.OX$X$X$X$X$X$X$X$X$X$X$X$X$X$X$X$X$X$X#X@X"
};
