/* XPM */
static char *result[] = {
/* columns rows colors chars-per-pixel */
"48 48 220 2 ",
"   c #A1032B",
".  c #A6092B",
"X  c #B10720",
"o  c #AA112D",
"O  c #B61C29",
"+  c #B42C34",
"@  c #CE0509",
"#  c #CE0A0C",
"$  c #C7050E",
"%  c #D10C0A",
"&  c #CF120F",
"*  c #DA1C07",
"=  c #D2120B",
"-  c #D41909",
";  c #D91B08",
":  c #CE0E10",
">  c #C30812",
",  c #CF1414",
"<  c #CE1B12",
"1  c #CF1D1C",
"2  c #C4161A",
"3  c #D11511",
"4  c #D31B11",
"5  c #DC2306",
"6  c #DB2907",
"7  c #DB2B0A",
"8  c #D8250B",
"9  c #DD3407",
"0  c #DC330C",
"q  c #DC3909",
"w  c #CC251C",
"e  c #D62615",
"r  c #D2231E",
"t  c #DA2910",
"y  c #DA351A",
"u  c #D93A18",
"i  c #CB3618",
"p  c #E22905",
"a  c #E43105",
"s  c #E63705",
"d  c #CF2422",
"f  c #CF2926",
"g  c #D02523",
"h  c #D12A25",
"j  c #D02D29",
"k  c #CC3A28",
"l  c #C53728",
"z  c #D0322C",
"x  c #DD3D25",
"c  c #D03732",
"v  c #D03B35",
"b  c #BF4337",
"n  c #DF4005",
"m  c #D84E1D",
"M  c #DD411F",
"N  c #DA501B",
"B  c #E94705",
"V  c #F14603",
"C  c #F44C03",
"Z  c #EB5C04",
"A  c #E85506",
"S  c #F55203",
"D  c #F85302",
"F  c #FC5E01",
"G  c #F35A02",
"H  c #E84413",
"J  c #E04C1B",
"K  c #EC5413",
"L  c #E75A19",
"P  c #EC6508",
"I  c #FC6304",
"U  c #F36905",
"Y  c #FD6C01",
"T  c #F86807",
"R  c #EE7003",
"E  c #F37402",
"W  c #FC7201",
"Q  c #FB7D00",
"!  c #F67808",
"~  c #ED6A14",
"^  c #EF6411",
"/  c #F56613",
"(  c #F4651A",
")  c #EA741A",
"_  c #FC7B16",
"`  c #DF4321",
"'  c #DF4B24",
"]  c #DE492A",
"[  c #D95328",
"{  c #C54A39",
"}  c #D1443C",
"|  c #D1483F",
" . c #D44134",
".. c #CD5738",
"X. c #E04D24",
"o. c #E44F28",
"O. c #E45329",
"+. c #E35525",
"@. c #E25D33",
"#. c #DB743C",
"$. c #DD793E",
"%. c #D9662A",
"&. c #E7672D",
"*. c #EC7223",
"=. c #E87625",
"-. c #E76F3C",
";. c #E96B37",
":. c #EA7834",
">. c #F36A23",
",. c #C04A42",
"<. c #D14C43",
"1. c #D25146",
"2. c #D2564A",
"3. c #D25B4E",
"4. c #D25D51",
"5. c #C75847",
"6. c #D36455",
"7. c #D26759",
"8. c #D36C5C",
"9. c #D36857",
"0. c #D4715F",
"q. c #E77350",
"w. c #E06944",
"e. c #D37462",
"r. c #D47966",
"t. c #D47D69",
"y. c #F68403",
"u. c #FA8400",
"i. c #F68C00",
"p. c #F98B00",
"a. c #FD810D",
"s. c #F89301",
"d. c #F9990B",
"f. c #F89408",
"g. c #FB8D15",
"h. c #FA9717",
"j. c #FBA419",
"k. c #F18225",
"l. c #FB8C22",
"z. c #EF942C",
"x. c #F69E2C",
"c. c #FB9226",
"v. c #ED8237",
"b. c #EF8839",
"n. c #FC9733",
"m. c #F99B3A",
"M. c #EC8826",
"N. c #FBA825",
"B. c #FDAF34",
"V. c #FAAF3C",
"C. c #F8AA35",
"Z. c #FEB33B",
"A. c #FDB836",
"S. c #DC834C",
"D. c #E68947",
"F. c #F39B40",
"G. c #F09141",
"H. c #EB8759",
"J. c #F19955",
"K. c #F5A847",
"L. c #FEB440",
"P. c #FDBC44",
"I. c #F9B248",
"U. c #FDBB4A",
"Y. c #F6B64D",
"T. c #F5A759",
"R. c #FFB555",
"E. c #FCBD55",
"W. c #EEA549",
"Q. c #D5816C",
"!. c #D38571",
"~. c #D58C75",
"^. c #D48E79",
"/. c #D5947C",
"(. c #D69A7F",
"). c #D69077",
"_. c #DD936A",
"`. c #E29A64",
"'. c #F0A46C",
"]. c #F0B269",
"[. c #FEC244",
"{. c #FEC44C",
"}. c #FFC84E",
"|. c #FEC653",
" X c #FFCB52",
".X c #FFCB5A",
"XX c #FFD15E",
"oX c #FBC768",
"OX c #FFD364",
"+X c #FFD56E",
"@X c #FED474",
"#X c #FFDC7C",
"$X c #FFDB77",
"%X c #D49780",
"&X c #D59C82",
"*X c #D6A286",
"=X c #D6A68A",
"-X c #D7AB8D",
";X c #D6AD91",
":X c #D5B195",
">X c #D8B695",
",X c #D8B897",
"<X c #D6B698",
"1X c #D7BA9A",
"2X c #D8BD9B",
"3X c #FEDD84",
"4X c #FAD18F",
"5X c #F9D997",
"6X c #F9C985",
"7X c #FFE38C",
"8X c #FFE185",
"9X c #FEE595",
"0X c #FFEA9C",
"qX c #FFE799",
"wX c #FFEDA3",
"eX c #FEECAA",
"rX c #FFF0AA",
"tX c #FFF3B3",
"yX c #FFF7BB",
"uX c #FFF8BE",
/* pixels */
"2X2X2X2X2X2X2X2X2X2X2X2X2X2X2X2X2X2X2X2X2X2X2X2X2X2X2X2X2X2X2X2X2X:X>X2X2X2X2X2X2X2X2X2X2X2X2X2X",
"2X2X2X2X2X2X2X2X2X2X2X2X2X2X2X2X2X2X2X2X2X2X2X2X2X2X2X2X2X2X2X2X2X=X).*X>X2X2X2X2X2X2X2X2X2X2X2X",
"2X2X2X2X2X2X2X2X2X2X2X2X2X2X2X2X2X2X2X2X2X2X2X1X1X1X<X>X:X>X1X2X1X/.2.8.*X2X2X2X2X2X2X2X2X2X2X2X",
"2X2X2X2X2X2X2X2X2X2X2X2X2X2X2X2X2X2X2X2X2X1X<X;X<X;X=X!.r.).;X1X1X).j j 9.;X2X2X2X2X2X2X2X2X2X2X",
"2X2X2X2X2X2X2X2X2X2X2X2X2X2X2X2X2X2X2X2X2X:X&X<.j f g 1 4 h <.Q.*X6.3 # j ).,X2X2X2X2X2X2X2X2X2X",
"2X2X2X2X2X2X2X2X2X2X2X2X2X2X2X2X2X2X>X&X9.1.} < @ @ @ @ @ # 1 z } g : @ 3 6.(.,X2X2X2X2X2X2X2X2X",
"2X2X2X2X2X2X2X2X2X2X2X2X2X2X2X2X2X,X).1., @ @ @ @ @ @ @ @ @ @ @ @ @ @ @ % g 0.;X2X2X2X2X2X2X2X2X",
"2X2X2X2X2X2X2X2X2X2X2X2X2X2X2X2X2X-X9.1 @ @ @ @ @ @ @ @ @ @ @ @ @ @ @ @ @ # 6.-X2X2X2X2X2X2X2X2X",
"2X2X2X2X2X2X2X2X2X2X2X2X2X2X2X2X>X/.<.# @ @ @ @ @ @ @ @ @ @ @ @ @ @ @ @ @ @ 3.-X2X2X2X2X2X2X2X2X",
"2X2X2X2X2X2X2X2X2X2X2X2X2X2X2X<X=XQ.v @ @ @ @ @ @ @ @ @ @ @ @ @ @ @ @ @ @ @ 3.-X2X2X2X2X2X2X2X2X",
"2X2X2X2X2X2X2X2X2X2X2X2X2X2X<X&X0.} r @ @ @ # & % 3 % % @ @ @ @ @ @ @ @ @ d 8.:X2X2X2X2X2X2X2X2X",
"2X2X2X2X2X2X2X2X2X2X2X2X>X>X&X0.j , # @ % 4 e u u y y e % % @ @ @ @ @ @ # } ~.>X2X2X2X2X2X2X2X2X",
"2X2X2X2X2X2X2X2X2X2X>X=X/.e.<.f : @ # 4 ' &.b.F.F.F.m.:.O.4 # @ @ @ @ @ # 8.-X<X2X2X2X2X2X2X2X2X",
"2X2X2X2X2X2X2X2X2X>X9.v f 1 # @ e ' :.G.I.{.}. X X X X{.I.v.X.4 @ @ @ @ # t.<X2X2X2X2X2X2X2X2X2X",
"2X2X2X2X2X2X2X2X>X).z # @ @ @ & w.T.oX@XXX X X}. X X}. X XU.b.` @ @ @ @ # 8.;X2X2X2X2X2X2X2X2X2X",
"2X2X2X2X2X2X2X2X&X3., @ @ % y O.].3XqXeX#XOX X X X X{.[.[.[.V.:.= @ @ @ @ 1.%X2X2X2X2X2X2X2X2X2X",
"2X2X2X2X2X2X2X;Xr.j @ @ 4 ] T.#XqXqXqXrXtX7XXX X[.A.N.j.j.j.N.N.J = @ @ # d 9.=X<X2X2X2X2X2X2X2X",
"2X2X2X2X2X2X2X;Xe.j @ : ] J.0XtXyXtX0X9XeX3X.XA.N.d.s.s.s.s.f.f.) - @ @ # @ v t.:X2X2X2X2X2X2X2X",
"2X2X2X2X2X2X1X=X8.j # ] H.4XyXuXyXtXwX8X+X|.Z.d.d.s.p.p.s.s.s.s.y.q % @ @ @ & | /.2X2X2X2X2X2X2X",
"2X2X2X2X2X1X=X!.3.f e q.5XyXuXuXwX7X$XOX{.V.h.p.p.u.u.u.i.s.s.s.i.P - @ @ @ @ d 9.>X2X2X2X2X2X2X",
"2X2X2X2X1X-Xe.c 1 , u '.eXuXuXuX7X#X#X+X XA.c.W Y Y Q u.u.p.s.s.i.R - @ @ @ @ d 4.:X<X2X2X2X2X2X",
"2X2X2X1X&X7.j % @ # -.6XtXuXuXuXrX7X#X+X X{.n.F F Y Y a.h.d.s.s.i.P - @ @ @ @ d 4.:X:X<X2X2X2X2X",
"2X2X2X/.2.1 @ @ @ % J.5XtXuXyXtX5X_.5.b D.Y.I.( I Y _ g.d.s.s.s.i.q % @ @ @ : v 8.} 9.=X<X2X2X2X",
"2X2X;Xr.j @ @ @ @ % D.#XwXrX9X8X`.b o o b S.W.:.S I _ g.s.s.s.i.R 8 # @ @ , v 7.r.<.r.=X;X1X2X2X",
"2X>X%X6.d @ @ @ @ # v.oX#X#XOX|...O     o b S.J.H D _ ! u.u.u.E q % @ @ % v 8.t.r./.:X:X:X:X<X1X",
">X:X%X4.1 : @ @ @ # ;.W.Y.}.}.K.f X       + S.9Xq.K D F F I T A @ @ @ @ # <.2.<.3.:X:X:X:X:X:X:X",
":X;X^.4.c v : @ @ @ k ..$.W.}.I.u 2 X . o b '.eX6Xw.( / / ( ~ A @ @ @ @ @ g 1 , c :X:X:X:X:X:X:X",
":X:Xt.4.7.t.j : @ @ 2 O k :. X[.L 9 e 2 { S.oX7X@XT.T.m.n.M.~ q @ @ @ @ @ # # , v :X:X:X:X:X:X:X",
":X:Xt.8.%X=X3.1 # @ @ > , O.OX@Xn._ >.-.T.U. X X}.[.L.Z.N.~ 0 - @ @ @ @ @ @ @ 1 2.:X:X:X:X:X:X:X",
":X:X%X%X;X;X%Xv , @ @ @ < [ +X0XoXU.R.E. X{.L.B.N.N.h.y.~ 9 - @ @ @ @ @ @ @ @ d 4.:X:X:X:X:X:X:X",
":X:X;X;X:X:X;X8.f @ @ @ r w..XoX.X.XOX.XU.n.g.h.f.P A A S 5 % @ @ @ @ @ @ @ @ d 4.:X:X:X:X:X:X:X",
":X:X:X:X:X:X:X!.v @ @ @ r @.B.=.C.P. X XL.l.! R A 9 9 G U a % @ @ @ @ @ @ @ @ d 4.:X:X:X:X:X:X;X",
":X:X:X:X:X:X:X%X4.O @ @ : 0 ! 7 N x.[.[.A.h.U 6 # - B y.p.B ; % @ @ @ @ @ @ @ f 7.:X:X:X:X:X:X:X",
":X:X:X:X:X:X:X;X%X<.: $ @ = P 7 i %.C.[.x.M.~ = @ - n E p.G 5 % @ @ @ @ @ # , } !.:X:X:X:X:X:X:X",
":X:X:X:X:X:X:X:X=X%Xc , @ # 7 ) ) M.x.x.:.#.%.q @ @ 8 P p.Y V 5 @ @ @ @ # c 8.%X;X:X:X:X:X:X:X:X",
":X:X:X:X:X:X:X:X:X=Xr.} w $ 8 *.M.k.=.=.D.#.l > @ @ - A p.Y D a @ @ @ @ : 7.=X;X;X<X:X:X:X:X:X:X",
":X:X:X:X:X:X:X:X:X:X=X~.2.g - u N N m [ [ l 2 @ @ = 7 A Q Y D s @ @ @ : g !.;X:X:X:X:X:X:X:X:X:X",
":X:X:X:X:X:X:X:X:X>X1X:X(.0.j 4 i u u u w 2 < % % u L Z F I V p @ @ = g 4.=X:X:X:X:X:X:X:X:X:X:X",
":X:X:X:X:X:X:X:X:X1X2X2X2X:X8.< - - - & > & p ; t @.X.B C C a = @ @ } t.-X2X1X:X:X:X:X:X:X:X:X:X",
":X:X:X:X:X:X:X:X1X2X2X2X2X<Xt., @ @ @ $ > # 5 x &.O.H V D s ; @ @ @ 0.-X1X2X2X1X:X:X:X:X:X:X:X:X",
":X;X:X:X:X:X<X2X2X2X2X2X1X-Xe.3 @ @ @ % : e X.o.;.H C D V * % @ % z ).:X2X2X2X2X<X:X:X:X:X:X:X:X",
":X:X:X:X:X:X1X2X2X2X2X2X:X~.v % @ @ @ % u @.&.K K C D s * % @ @ 3 8.-X;X*X*X:X1X1X1X:X:X:X:X:X:X",
":X:X:X:X>X1X2X2X2X2X2X2X-Xr.: @ @ @ @ = +.*./ U Q F C p % @ @ @ : 4.~.Q.6.0.%X<X1X2X1X<X:X:X:X:X",
":X:X:X>X2X2X2X2X2X2X2X2X1X&Xj 3 @ @ @ % a Z E u.W C p % @ @ @ @ @ 3 g , 3 9.;X1X2X2X2X1X:X:X:X:X",
":X:X:X2X2X2X2X2X2X2X2X2X2X<X*Xt.z r r 1 e t 7 p p ; % @ @ @ @ @ @ : g c 4.=X1X2X2X2X2X2X1X<X:X:X",
":X:X1X2X2X2X2X2X2X2X2X2X2X2X2X;XQ.8.9.9.3. .h = = : # # : 3 3 , g j 2.e.&X1X1X1X2X2X2X2X1X1X:X:X",
":X2X2X2X2X2X2X2X2X2X2X2X2X2X2X2X;X-X=X-X&XQ.6.v h g g g z <.1.2.6.t.&X;X1X2X2X2X2X2X2X2X2X2X1X<X",
"2X2X2X2X2X2X2X2X2X2X2X2X2X2X2X2X2X2X2X2X2X1X:X&X).~.~.~./.=X;X:X>X1X2X2X2X2X2X2X2X2X2X2X2X1X1X1X"
};
