/* XPM */
static char *result[] = {
/* columns rows colors chars-per-pixel */
"48 48 17 1 ",
"  c #D8BD9B",
". c #211F30",
"X c #D7B898",
"o c #F7EC8A",
"O c white",
"+ c #D8BC9A",
"@ c #D6B496",
"# c #D5B195",
"$ c #D6B698",
"% c #E1CA33",
"& c #CE8B16",
"* c #AFBBC3",
"= c #D8E1E4",
"- c #48475B",
"; c #D7BA9A",
": c #D5B296",
"> c #BA570B",
/* pixels */
"                                                ",
"                                                ",
"             ...       XX                       ",
"            .oOO.    +@##$+                     ",
"           .%oooO.   @####@                     ",
"           .%oooO.  X######X                    ",
"           .%oooo.+@########$+                  ",
"            .%%%. @##########@                  ",
"             ... X############X                 ",
"             .&......##########$+ ......        ",
"             .%.*===-.............*=---.        ",
"             .&.*===-.--====----==*=---.        ",
"            +.%.*===-.--====----==*=---.        ",
"            @.%.*===-.--====----==*=---.        ",
"           X#.%..---=*--====----==.-===.        ",
"         +@##.%..---=*==----====--.-===.        ",
"         @###.%..---=*==----====--.-===.        ",
"        X####.o..---=*==----====--.-===.        ",
"      +@#####.o.*===-.==----====--*=---.$+      ",
"      @######.o.*===-.--====----==*=---.#@      ",
"     X#######.o.*===-.--====----==*=---.##X     ",
"   +@########.o.*===-.--====----==*=---.###$+   ",
"   @#########.o..---=*--====----==.-===.####@   ",
"  X##########.%..---=*==----====--.-===.#####X  ",
"+@###########.o..---=*==----====--.-===.######$+",
"@############.%..---=*==----====--.-===.#######@",
"#############.%.......==----====--......########",
"#############.%.###@; ............##############",
"#############.%.##@+        ;@##################",
"#############.%.##;          ;##################",
"#############.%.@;            ;:################",
"#############.%.+              ;@###############",
"#############.%.                ;###############",
"#############.%.                 ;:#############",
"############@.%.                  ;@############",
"############;.%.                   ;############",
"##########@; .%.                    ;:##########",
"#########@+  .&.                     ;@#########",
"#########;   .%.                      ;#########",
"#######@;    .&.                       ;:#######",
"######@+     .&.                        ;@######",
"######;      .%.                         ;######",
"####@;       .&.                          ;:####",
"###@+        .&.                           ;@###",
"###;        .....                           ;###",
"#@;        .>&&%%.                           ;:#",
"@+         ..>&&..                            ;@",
";         .>>&&&&%.                            ;"
};
