/* XPM */
static char *result[] = {
/* columns rows colors chars-per-pixel */
"48 48 82 1 ",
"  c #D8BD9B",
". c #D7B898",
"X c #D8BC9A",
"o c #D6B496",
"O c #D5B195",
"+ c #D6B698",
"@ c #D08B6B",
"# c #D14B25",
"$ c #CE6C4B",
"% c #D58362",
"& c #E75122",
"* c #DA6943",
"= c #D97F5C",
"- c #F05523",
"; c #E0663E",
": c #DC8055",
"> c #F26123",
", c #E36B37",
"< c #E09355",
"1 c #F7902E",
"2 c #F7912E",
"3 c #E98A3A",
"4 c #E3B491",
"5 c #FCD3AA",
"6 c #EDBD96",
"7 c #E28D46",
"8 c #F68C23",
"9 c #EB8327",
"0 c #E16F40",
"q c #F25F23",
"w c #E85A23",
"e c #E0673E",
"r c #E95222",
"t c #D65E38",
"y c #DF4D21",
"u c #DB4B21",
"i c #D25833",
"p c #D84920",
"a c #D74920",
"s c #D25631",
"d c #D1532E",
"f c #D1512B",
"g c #D14F29",
"h c #D14E28",
"j c #D14D26",
"k c #C24323",
"l c #C6411E",
"z c #B93F21",
"x c #BB3B1C",
"c c #B94022",
"v c #BA4223",
"b c #D7BA9A",
"n c #D5B296",
"m c #BA4324",
"M c #BB4426",
"N c #BB4728",
"B c #B5452A",
"V c #B2371B",
"C c #B1462C",
"Z c #AD341A",
"A c #B34A30",
"S c #B44F34",
"D c #B55237",
"F c #AC341A",
"G c #B7583D",
"H c #AC351B",
"J c #B95E42",
"K c #AE3920",
"L c #BB6448",
"P c #AF3F26",
"I c #BD6B4F",
"U c #BC7256",
"Y c #A6311A",
"T c #A7311A",
"R c #A7321A",
"E c #A8321A",
"W c #B14D34",
"Q c #BD795D",
"! c #9F2E19",
"~ c #AE533B",
"^ c #C08265",
"/ c #B15B42",
/* pixels */
"                                                ",
"                                                ",
"                       ..                       ",
"                     XoOO+X                     ",
"                     oOOOOo                     ",
"                    @#####$.                    ",
"                  Xo%&&&&&*O+X                  ",
"                  oO=-----;OOo                  ",
"                 .OO:>>>>>,OOO.                 ",
"               XoOOO<111223OOOO+X               ",
"               oOOOO4555556OOOOOo               ",
"              .OOOOO7888889OOOOOO.              ",
"            XoOOOOOO0qqqqqwOOOOOOO+X            ",
"            oOOOOOOOe-----rOOOOOOOOo            ",
"           .OOOOOOOOtyyyyyuOOOOOOOOO.           ",
"         XoOOOOOOOOOipppppaOOOOOOOOOO+X         ",
"         oOOOOOOOOOOsppppppOOOOOOOOOOOo         ",
"        .OOOOOOOOOOOdppppppOOOOOOOOOOOO.        ",
"      XoOOOOOOOOOOOOfppppppOOOOOOOOOOOOO+X      ",
"      oOOOOOOOOOOOOOgppppppOOOOOOOOOOOOOOo      ",
"     .OOOOOOOOOOOOOOhppppppOOOOOOOOOOOOOOO.     ",
"   XoOOOOOOOOOOOOOOOjppppppOOOOOOOOOOOOOOOO+X   ",
"   oOOOOOOOOOOOOOOOOkllllllOOOOOOOOOOOOOOOOOo   ",
"  .OOOOOOOOOOOOOOOOOzxxxxxxOOOOOOOOOOOOOOOOOO.  ",
"XoOOOOOOOOOOOOOOOOOOzxxxxxxOOOOOOOOOOOOOOOOOOO+X",
"oOOOOOOOOOOOOOOOOOOOzxxxxxxOOOOOOOOOOOOOOOOOOOOo",
"OOOOOOOOOOOOOOOOOOOOcxxxxxxOOOOOOOOOOOOOOOOOOOOO",
"OOOOOOOOOOOOOOOOOOOovxxxxxxbnOOOOOOOOOOOOOOOOOOO",
"OOOOOOOOOOOOOOOOOOoXmxxxxxx boOOOOOOOOOOOOOOOOOO",
"OOOOOOOOOOOOOOOOOOb Mxxxxxx  bOOOOOOOOOOOOOOOOOO",
"OOOOOOOOOOOOOOOOob  Nxxxxxx   bnOOOOOOOOOOOOOOOO",
"OOOOOOOOOOOOOOOoX   BVVVVVV    boOOOOOOOOOOOOOOO",
"OOOOOOOOOOOOOOOb    CZZZZZZ     bOOOOOOOOOOOOOOO",
"OOOOOOOOOOOOOob     AZZZZZZ      bnOOOOOOOOOOOOO",
"OOOOOOOOOOOOoX      SZZZZZZ       boOOOOOOOOOOOO",
"OOOOOOOOOOOOb       DZZZZZF        bOOOOOOOOOOOO",
"OOOOOOOOOOob        GZZZZZH         bnOOOOOOOOOO",
"OOOOOOOOOoX         JZZZZZK          boOOOOOOOOO",
"OOOOOOOOOb          LZZZZZP           bOOOOOOOOO",
"OOOOOOOob           IZZZZZC            bnOOOOOOO",
"OOOOOOoX            UYYTREW             boOOOOOO",
"OOOOOOb             Q!!!!!~              bOOOOOO",
"OOOOob              ^!!!!!/               bnOOOO",
"OOOoX                                      boOOO",
"OOOb                                        bOOO",
"Oob                                          bnO",
"oX                                            bo",
"b                                              b"
};
