/* XPM */
static char *result[] = {
/* columns rows colors chars-per-pixel */
"48 48 130 2 ",
"   c #9F2E19",
".  c #A6321A",
"X  c #AD341B",
"o  c #AD381E",
"O  c #B1371B",
"+  c #B53A1C",
"@  c #BB3B1C",
"#  c #B43C20",
"$  c #BD3F20",
"%  c #C23F1E",
"&  c #B6401C",
"*  c #BD411D",
"=  c #BB4A1C",
"-  c #B24126",
";  c #BC4324",
":  c #BB4729",
">  c #BC4D2F",
",  c #AA4932",
"<  c #B44D32",
"1  c #BC4F30",
"2  c #B65337",
"3  c #BF5538",
"4  c #C5401E",
"5  c #CC441F",
"6  c #CC4B1F",
"7  c #D0461F",
"8  c #D24F1F",
"9  c #CB541F",
"0  c #D2541F",
"q  c #C04626",
"w  c #C24C2B",
"e  c #D34720",
"r  c #D44922",
"t  c #D94A20",
"y  c #D35520",
"u  c #DC5321",
"i  c #D45C21",
"p  c #DC5B21",
"a  c #D2522C",
"s  c #DC532B",
"d  c #D45D2F",
"f  c #C55233",
"g  c #C75B3B",
"h  c #D25D39",
"j  c #E24E21",
"k  c #E45222",
"l  c #EB5323",
"z  c #E45A23",
"x  c #EC5F23",
"c  c #EB5728",
"v  c #EA5929",
"b  c #F05523",
"n  c #F15D23",
"m  c #DC6222",
"M  c #DE6921",
"N  c #DC632B",
"B  c #D96D2D",
"V  c #D66E34",
"C  c #D56B38",
"Z  c #E66522",
"A  c #E96522",
"S  c #E36D21",
"D  c #EA6D22",
"F  c #E2652B",
"G  c #E9672A",
"H  c #F26323",
"J  c #F36A24",
"K  c #EF7123",
"L  c #EB712B",
"P  c #F47423",
"I  c #E96630",
"U  c #E96D31",
"Y  c #F26D31",
"T  c #E5743F",
"R  c #E5793F",
"E  c #B35F46",
"W  c #BB6347",
"Q  c #C36144",
"!  c #CB6747",
"~  c #C46C4C",
"^  c #D4704D",
"/  c #C57253",
"(  c #C37D5F",
")  c #D17654",
"_  c #F68C23",
"`  c #F68F2E",
"'  c #E4803A",
"]  c #F68932",
"[  c #F69334",
"{  c #D38059",
"}  c #D8845E",
"|  c #DC8A5C",
" . c #E68E41",
".. c #E28B50",
"X. c #F18F52",
"o. c #F49454",
"O. c #F8A757",
"+. c #F8A159",
"@. c #C28062",
"#. c #CA8061",
"$. c #D08262",
"%. c #D88765",
"&. c #DA9366",
"*. c #D6976E",
"=. c #CD9474",
"-. c #CC997A",
";. c #D49677",
":. c #D99772",
">. c #D29E7D",
",. c #F79D61",
"<. c #F09E6F",
"1. c #F0B07D",
"2. c #D1A180",
"3. c #DBAB85",
"4. c #D1A78B",
"5. c #D3AD8D",
"6. c #D8AE89",
"7. c #D4B18F",
"8. c #D3AD91",
"9. c #D5B195",
"0. c #D7B896",
"q. c #D6B698",
"w. c #D7B999",
"e. c #D8BD9B",
"r. c #F8B690",
"t. c #F9BA93",
"y. c #FCCB9E",
"u. c #F0C5A7",
"i. c #F8CCA5",
"p. c #FCD1A6",
/* pixels */
"e.e.e.e.e.e.e.e.e.e.e.e.e.e.e.e.e.e.e.e.e.e.e.e.e.e.e.e.e.e.e.e.e.e.e.e.e.e.e.e.e.e.e.e.e.e.e.e.",
"e.e.e.e.e.e.e.e.e.e.e.e.e.e.e.e.e.e.e.e.e.e.e.e.e.e.e.e.e.e.e.e.e.e.e.e.e.e.e.e.e.e.e.e.e.e.e.e.",
"e.e.e.e.e.e.e.e.e.e.e.e.e.e.e.e.e.e.e.e.e.e.e.w.w.e.e.e.e.e.e.e.e.e.e.e.e.e.e.e.e.e.e.e.e.e.e.e.",
"e.e.e.e.e.e.e.e.e.e.e.e.e.e.e.e.e.e.e.e.e.w.q.9.9.q.e.e.e.e.e.e.e.e.e.e.e.e.e.e.e.e.e.e.e.e.e.e.",
"e.e.e.e.e.e.e.e.e.e.e.e.e.e.e.e.e.e.e.e.e.q.8.9.8.q.q.e.e.e.e.e.e.e.e.e.e.e.e.e.e.e.e.e.e.e.e.e.",
"e.e.e.e.e.e.e.e.e.e.e.e.e.e.e.e.e.e.e.&.G z r r r r r r ) 0.e.e.e.e.e.e.e.e.e.e.e.e.e.e.e.e.e.e.",
"e.e.e.e.e.e.e.e.e.e.e.e.e.e.e.e.e.e.*.H J H l j j l l k l } 0.e.e.e.e.e.e.e.e.e.e.e.e.e.e.e.e.e.",
"e.e.e.e.e.e.e.e.e.e.e.e.e.e.e.e.e.6.U ,.] P n k c b b b l v :.e.e.e.e.e.e.e.e.e.e.e.e.e.e.e.e.e.",
"e.e.e.e.e.e.e.e.e.e.e.e.e.e.e.e.e.| o.r.Z A H b k H H H H H T 0.e.e.e.e.e.e.e.e.e.e.e.e.e.e.e.e.",
"e.e.e.e.e.e.e.e.e.e.e.e.e.e.e.e.5.R t.N = = t l z [ [ [ [ [ [ 3.e.e.e.e.e.e.e.e.e.e.e.e.e.e.e.e.",
"e.e.e.e.e.e.e.e.e.e.e.e.e.e.e.q.>.L A 9 J S * j s i.p.p.p.p.i.3.q.e.e.e.e.e.e.e.e.e.e.e.e.e.e.e.",
"e.e.e.e.e.e.e.e.e.e.e.e.e.e.q.9.{ J 9 X.[ P t @ t S _ _ _ _ _  .8.q.e.e.e.e.e.e.e.e.e.e.e.e.e.e.",
"e.e.e.e.e.e.e.e.e.e.e.e.e.9.9.9.N Z F i.P H b e r t n n n n H I ;.9.q.e.e.e.e.e.e.e.e.e.e.e.e.e.",
"e.e.e.e.e.e.e.e.e.e.e.e.q.9.8.4.y m <.o.H H b j % t l b b b b c %.9.9.9.e.e.e.e.e.e.e.e.e.e.e.e.",
"e.e.e.e.e.e.e.e.e.e.e.w.9.9.9.=.u m ' S H A p k @ e t t t j j t ^ 9.9.9.q.e.e.e.e.e.e.e.e.e.e.e.",
"e.e.e.e.e.e.e.e.e.e.q.9.9.9.9.$.8 0 ..r.z F L u @ e r t t t t t h 9.9.9.9.q.e.e.e.e.e.e.e.e.e.e.",
"e.e.e.e.e.e.e.e.e.9.9.8.9.9.q.) 8 p u.O.p m n u % q 7 7 j j 7 j a 9.9.9.9.9.9.e.e.e.e.e.e.e.e.e.",
"e.e.e.e.e.e.e.e.w.9.9.9.9.9.8.! 7 B o.J m 0 b j % % 7 7 7 7 j 7 e 9.9.9.9.9.9.q.e.e.e.e.e.e.e.e.",
"e.e.e.e.e.e.e.q.9.9.9.q.9.9.9.g q V Y b Z k b 7 % @ 5 j 7 j 7 t t 9.9.9.9.9.9.9.q.e.e.e.e.e.e.e.",
"e.e.e.e.e.e.9.9.9.9.9.9.9.9.9.f 4 B H b n n l 7 % O % 7 t 7 j 7 t 9.9.9.9.9.9.8.9.9.e.e.e.e.e.e.",
"e.e.e.e.w.w.9.9.9.9.9.9.9.9.9.w * M n b b b j 5 % O % 7 t 7 t t t 9.9.9.9.9.9.9.9.9.q.e.e.e.e.e.",
"e.e.e.e.9.9.9.9.9.9.9.9.9.9.8.q + S n b b b j 5 % + % 7 t t t t t 9.9.9.9.9.9.9.9.9.9.q.w.e.e.e.",
"e.e.e.9.9.9.9.9.9.9.9.9.9.9.8.q & S n b b l 7 5 % O @ % % % % % 4 9.9.9.9.9.9.9.9.9.9.9.q.e.e.e.",
"e.e.e.9.9.9.9.9.9.9.9.9.9.9.9.$ & M n l b j 7 5 % O @ @ % % % % @ 9.9.9.9.9.9.9.9.9.9.9.9.q.e.e.",
"e.9.9.9.9.9.9.9.9.9.9.9.9.9.9.$ @ M b j t j % % % X @ @ @ @ @ @ @ 8.9.9.9.9.9.9.9.9.9.9.9.9.q.e.",
"9.9.9.9.9.9.9.9.9.9.9.9.8.9.8.; + 0 n j t j % @ % X + @ @ @ @ @ $ 9.9.9.9.9.9.9.9.9.9.9.9.9.9.9.",
"9.9.9.9.9.9.9.9.9.9.9.9.9.9.9.; O 0 n 7 % j % X % X % @ @ @ @ @ @ 8.9.9.9.9.9.9.9.9.9.9.9.9.9.9.",
"9.9.9.9.9.9.9.9.9.9.9.9.9.9.9.: O 8 n t t t % X % O @ @ @ @ @ @ @ 9.9.9.9.9.9.9.9.9.9.9.9.9.9.9.",
"9.9.9.9.9.9.9.9.9.9.9.9.9.9.9.1 O 6 D 8 t % % X % . @ @ @ @ @ @ @ 9.9.9.9.9.9.9.9.9.9.9.9.9.9.9.",
"9.9.9.9.9.9.9.9.9.9.9.9.9.9.9.f X 4 S j t % O O % X O @ @ @ @ @ # 9.9.9.9.9.9.9.9.9.9.9.9.9.9.9.",
"9.9.9.9.9.9.9.9.9.9.9.9.9.9.9.Q X % 0 u % % . % % O % @ @ % @ @ # 9.9.9.9.9.9.9.9.9.9.9.9.9.9.9.",
"9.9.9.9.9.9.9.9.9.9.9.9.9.9.7.~ X @ % p % % X % @ O O O X O O X o 9.9.9.9.9.9.9.9.9.9.9.9.9.9.9.",
"9.9.9.9.9.9.9.9.9.9.9.9.9.9.9.( X @ % 0 @ + O 4 O O O X O X X X : 9.9.9.9.9.9.9.9.9.9.9.9.9.9.9.",
"9.9.9.9.9.9.9.8.9.9.9.9.9.9.q.;.+ o 4 6 4 O + 4 X + O X X X X X W w.9.9.9.9.9.9.9.9.9.9.9.9.9.9.",
"9.9.9.9.9.9.9.9.9.9.9.9.9.e.e.4.@ X @ * * O % % . @ X X X X o o ( e.w.q.9.9.9.9.9.9.9.9.9.9.9.9.",
"9.9.9.9.9.9.9.9.9.9.9.9.e.e.e.e.; o @ 4 @ @ % + X @ X X X X X - =.e.e.w.9.9.9.9.9.9.9.9.9.9.9.9.",
"9.9.9.9.9.9.9.9.9.9.9.w.e.e.e.e./ X X 4 + @ % . O O X X X X o 2 9.e.e.e.w.9.9.9.9.9.9.9.9.9.9.9.",
"9.9.9.9.9.9.9.9.9.9.e.e.e.e.e.e.>.+ . X % % X . + X X X X X o W e.e.e.e.e.w.9.9.9.9.9.9.9.9.9.9.",
"9.9.9.9.9.9.9.9.9.e.e.e.e.e.e.e.5.> X . . . . X + X X X X X X -.e.e.e.e.e.e.e.9.9.9.9.9.9.9.9.9.",
"9.9.9.9.9.9.9.9.w.e.e.e.e.e.e.e.e./ o X X . o O O X X O X X : 9.e.e.e.e.e.e.e.w.9.9.9.9.9.9.9.9.",
"9.9.9.9.9.9.9.e.e.e.e.e.e.e.e.e.e.>.; O o o O + . . . . . X ( e.e.e.e.e.e.e.e.e.q.9.9.9.9.9.9.9.",
"9.9.9.9.9.9.e.e.e.e.e.e.e.e.e.e.e.e./ @ X O @ X           E 9.e.e.e.e.e.e.e.e.e.e.w.9.9.9.9.9.9.",
"9.9.9.9.9.e.e.e.e.e.e.e.e.e.e.e.e.e.e.~ % % X           , 8.e.e.e.e.e.e.e.e.e.e.e.e.w.9.9.9.9.9.",
"9.9.9.9.e.e.e.e.e.e.e.e.e.e.e.e.e.e.e.e.e.e.e.e.e.w.e.e.e.e.e.e.e.e.e.e.e.e.e.e.e.e.e.w.9.9.9.9.",
"9.9.9.e.e.e.e.e.e.e.e.e.e.e.e.e.e.e.e.e.e.e.e.e.e.e.e.e.e.e.e.e.e.e.e.e.e.e.e.e.e.e.e.e.w.9.9.9.",
"9.9.w.e.e.e.e.e.e.e.e.e.e.e.e.e.e.e.e.e.e.e.e.e.e.e.e.e.e.e.e.e.e.e.e.e.e.e.e.e.e.e.e.e.e.w.9.9.",
"9.e.e.e.e.e.e.e.e.e.e.e.e.e.e.e.e.e.e.e.e.e.e.e.e.e.e.e.e.e.e.e.e.e.e.e.e.e.e.e.e.e.e.e.e.e.w.q.",
"e.e.e.e.e.e.e.e.e.e.e.e.e.e.e.e.e.e.e.e.e.e.e.e.e.e.e.e.e.e.e.e.e.e.e.e.e.e.e.e.e.e.e.e.e.e.e.w."
};
