/* XPM */
static char *result[] = {
/* columns rows colors chars-per-pixel */
"48 48 183 2 ",
"   c #9F2F1A",
".  c #A12F19",
"X  c #A5311A",
"o  c #AC341B",
"O  c #AE391F",
"+  c #B1361B",
"@  c #B5391C",
"#  c #BB3C1D",
"$  c #A33822",
"%  c #B63C20",
"&  c #B93E20",
"*  c #C23E1D",
"=  c #A7432C",
"-  c #BD4223",
";  c #BF492A",
":  c #B4472C",
">  c #B44C32",
",  c #BD5033",
"<  c #B0563E",
"1  c #BF593C",
"2  c #C5411E",
"3  c #CC441F",
"4  c #C4491E",
"5  c #CC4B1E",
"6  c #D1461F",
"7  c #D24A1F",
"8  c #C7511E",
"9  c #CC531F",
"0  c #D2521F",
"q  c #D3581F",
"w  c #C04524",
"e  c #C94320",
"r  c #CF4E2B",
"t  c #C24C2C",
"y  c #D34720",
"u  c #D64920",
"i  c #D94A20",
"p  c #D04E29",
"a  c #CB5420",
"s  c #D45420",
"d  c #DB5422",
"f  c #DC5C21",
"g  c #D0532F",
"h  c #DA542C",
"j  c #DD582C",
"k  c #C25535",
"l  c #C75838",
"z  c #DC5731",
"x  c #D35B36",
"c  c #DF5D36",
"v  c #E34F22",
"b  c #E25621",
"n  c #EC5423",
"m  c #E35C21",
"M  c #EB5D23",
"N  c #EB5728",
"B  c #F05523",
"V  c #F15B23",
"C  c #F15D2D",
"Z  c #DC6420",
"A  c #DF6D21",
"S  c #DB6139",
"D  c #D96A38",
"F  c #D26638",
"G  c #DD7235",
"H  c #E46322",
"J  c #EB6322",
"K  c #E16C21",
"L  c #EC6C24",
"P  c #EB602D",
"I  c #EB6D2D",
"U  c #F26523",
"Y  c #F26C24",
"T  c #F26B29",
"R  c #E57221",
"E  c #EB7323",
"W  c #E77B21",
"Q  c #EB7B22",
"!  c #E4792A",
"~  c #F37223",
"^  c #F37A23",
"/  c #F47B2C",
"(  c #E76335",
")  c #E26C3C",
"_  c #F26734",
"`  c #F27330",
"'  c #F17E39",
"]  c #F27E34",
"[  c #BA624B",
"{  c #BD694E",
"}  c #BA6246",
"|  c #BD6A50",
" . c #BD795C",
".. c #C56142",
"X. c #C46C4D",
"o. c #D76943",
"O. c #D5734C",
"+. c #C76F51",
"@. c #C86F51",
"#. c #C97353",
"$. c #C27C5E",
"%. c #D27552",
"&. c #DD7B51",
"*. c #EC6B43",
"=. c #E27446",
"-. c #EF7642",
";. c #F3754C",
":. c #EF7F5C",
">. c #F47F59",
",. c #C77C60",
"<. c #EB812A",
"1. c #F08423",
"2. c #F68B23",
"3. c #EC8539",
"4. c #F58831",
"5. c #F79534",
"6. c #E68D4A",
"7. c #F68A45",
"8. c #EE8853",
"9. c #EA9C5F",
"0. c #F7995C",
"q. c #F7A355",
"w. c #F8A659",
"e. c #CB8263",
"r. c #C7886D",
"t. c #CD8C6F",
"y. c #D18161",
"u. c #DB8760",
"i. c #CC9375",
"p. c #CF9877",
"a. c #CE9578",
"s. c #CC9C7E",
"d. c #D39472",
"f. c #D69A76",
"g. c #DA9E70",
"h. c #D09578",
"j. c #F69760",
"k. c #F6997B",
"l. c #F39172",
"z. c #F58865",
"x. c #D8A27F",
"c. c #D7A87D",
"v. c #F2A560",
"b. c #EEA878",
"n. c #E6A975",
"m. c #F9B47D",
"M. c #CE9E83",
"N. c #D2A383",
"B. c #D8A582",
"V. c #D8AA87",
"C. c #D4AC8B",
"Z. c #D2A589",
"A. c #D4AF93",
"S. c #D5B195",
"D. c #D7B896",
"F. c #D8B895",
"G. c #D6B698",
"H. c #D7BA99",
"J. c #D8BD9B",
"K. c #DAB591",
"L. c #F0AC80",
"P. c #FABE83",
"I. c #F6B088",
"U. c #F9B789",
"Y. c #F9B88E",
"T. c #FABD90",
"R. c #F6B99B",
"E. c #F8BD9D",
"W. c #F9B6A0",
"Q. c #FAC38E",
"!. c #F5C0A2",
"~. c #F2CAAD",
"^. c #FBD0AF",
"/. c #FAC7B6",
"(. c #FACCB9",
"). c #FCD6B6",
"_. c #F4D8C5",
"`. c #FDE6DC",
"'. c #FEEFEA",
"]. c #FDEAE4",
"[. c #FDF1E6",
"{. c #FCF1E8",
"}. c #FFFDFC",
/* pixels */
"J.J.J.J.J.J.J.J.J.J.J.J.J.J.J.J.J.J.J.J.J.J.J.J.J.J.J.J.J.J.J.J.J.J.J.J.J.J.J.J.J.J.J.J.J.J.J.J.",
"J.J.J.J.J.J.J.J.J.J.J.J.J.J.J.J.J.J.J.J.J.J.J.J.J.J.J.J.J.J.J.J.J.J.J.J.J.J.J.J.J.J.J.J.J.J.J.J.",
"J.J.J.J.J.J.J.J.J.J.J.J.J.J.J.J.J.J.J.J.J.J.J.H.H.J.J.J.J.J.J.J.J.J.J.J.J.J.J.J.J.J.J.J.J.J.J.J.",
"J.J.J.J.J.J.J.J.J.J.J.J.J.J.J.J.J.J.J.J.J.J.S.S.S.G.J.J.J.J.J.J.J.J.J.J.J.J.J.J.J.J.J.J.J.J.J.J.",
"J.J.J.J.J.J.J.J.J.J.J.J.J.J.J.J.J.J.J.J.J.G.S.S.S.S.G.J.J.J.J.J.J.J.J.J.J.J.J.J.J.J.J.J.J.J.J.J.",
"J.J.J.J.J.J.J.J.J.J.J.J.J.J.J.J.x.&.S j h i i i d m J M D u.V.J.J.J.J.J.J.J.J.J.J.J.J.J.J.J.J.J.",
"J.J.J.J.J.J.J.J.J.J.J.J.J.J.J.B.o.B B B n n b J T T Y U B N &.V.J.J.J.J.J.J.J.J.J.J.J.J.J.J.J.J.",
"J.J.J.J.J.J.J.J.J.J.J.J.J.J.f.P B B B B n M Y 0.U.4.^ ^ ~ V B ( f.H.J.J.J.J.J.J.J.J.J.J.J.J.J.J.",
"J.J.J.J.J.J.J.J.J.J.J.J.F.g.I Y U U U M J ` Y.E.8.H f H b M B B j f.G.J.J.J.J.J.J.J.J.J.J.J.J.J.",
"J.J.J.J.J.J.J.J.J.J.J.J.K.n.w.w.w.w.q.R Y 7.E.) s 9 5 9 4 6 n B v o.N.J.J.J.J.J.J.J.J.J.J.J.J.J.",
"J.J.J.J.J.J.J.J.J.J.J.J.n.m.Q.P.Q.P.b.L ^ ~ D q f R E E Z # * n n i O.H.J.J.J.J.J.J.J.J.J.J.J.J.",
"J.J.J.J.J.J.J.J.J.J.J.c.2.2.2.2.2.1.f L ~ f O.' m.5.2.^ U n 2 o i i v N.J.J.J.J.J.J.J.J.J.J.J.J.",
"J.J.J.J.J.J.J.J.J.J.H.8.M J V U U b m ~ q q I.).P.^ Y U B B B 4 # y i %.H.J.J.J.J.J.J.J.J.J.J.J.",
"J.J.J.J.J.J.J.J.J.J.V.( B B B B n 7 H J 9 -.).w./ U U U B B B n # * u x V.J.J.J.J.J.J.J.J.J.J.J.",
"J.J.J.J.J.J.J.J.J.H.d.i i u i 7 7 7 J q q 1.~.D f Y U U n 0 7 n u # e i d.H.J.J.J.J.J.J.J.J.J.J.",
"J.J.J.J.J.J.J.J.J.C.%.7 i i i i 7 7 B 0 E ! [.Q.6.M U M G ] ^ q i # & e #.C.J.J.J.J.J.J.J.J.J.J.",
"J.J.J.J.J.J.J.J.H.f.p i i i 6 v 6 v 6 7 R 9.}.P.5.K m H ` B B M u * @ 3 g a.G.H.H.J.J.J.J.J.J.J.",
"J.J.J.J.J.J.J.J.F.,.i i 6 i i 7 * v + q 6._.}.`.Y.<.q J M B B n * 6 @ * e e.G.G.J.J.J.J.J.J.J.J.",
"J.J.J.J.J.J.H.G.S.O.i i i i 6 6 e r [ W.{.}.}.}.'.(.L.-.B B n 7 3 7 # # 2 @.A.S.G.J.J.J.J.J.J.J.",
"J.J.J.J.J.J.G.S.S.S i i i i v 6 3 # - 3.v.^.}./.z._ T N B n v 3 * y * + 2 ..G.A.S.S.J.J.J.J.J.J.",
"J.J.J.J.J.G.S.S.S.x i i 7 v 6 6 2 @ 2 W 1.j.}.l.C B B B B n 7 * * * * + * l S.S.S.S.G.J.J.J.J.J.",
"J.J.J.J.S.S.S.S.S.r i y 6 6 6 * 2 o 0 W 1.T ].z.B B B B B v 7 3 * * y o & t S.S.S.S.S.G.J.J.J.J.",
"J.J.J.S.S.S.S.S.A.* * * * * * * * o s A 1.U (.;.B B B B v v v * # * e o # w S.S.S.S.S.S.S.J.J.J.",
"J.J.G.S.S.S.S.A.A.% * % # # # * * o q Z 1.U W.*.v B n n 6 7 6 * @ * y o # w S.S.S.S.S.S.S.H.J.J.",
"J.G.S.S.S.S.S.S.S.# # # # # # * * X 5 f Q ~ l.c 6 v i i i i * * o 3 3 X # w A.S.S.S.S.A.S.S.G.H.",
"S.S.S.S.S.S.S.S.A.& # # # # # # # o 4 d Q ~ >.h 6 6 i 6 6 i * # o 3 3 o # w G.A.S.S.S.S.S.S.S.S.",
"S.S.S.S.S.S.S.S.A.: # # # # # # * o & i Z Q *.h v i i v i * * o # 3 * o @ t S.S.S.S.S.S.S.S.A.G.",
"S.S.S.S.S.S.S.S.A., # # # # # # # o @ y i W C i 6 i i 6 * * + X * y * X # k S.S.S.S.S.S.S.S.S.S.",
"S.S.S.S.S.S.S.S.S.1 # # # # # # * o o 6 7 K U v i v v * * * o + * y # X & ..S.S.S.S.S.S.S.S.S.S.",
"S.S.S.S.S.S.S.S.A.X.# # # # # @ # + X 3 7 7 ^ 0 i v * * * * X @ y * + o * @.S.S.S.S.S.S.S.S.S.S.",
"S.S.S.S.S.S.S.S.A.,.# # # # # # # + X # 3 7 K b * v * * * X o * y * o + # ,.S.S.S.S.S.S.S.S.S.S.",
"S.S.S.S.S.S.S.S.A.t.: + + + + @ @ @ o + * 2 9 n v * * * @ X * * * % o @ k h.S.S.S.S.S.S.S.S.S.S.",
"S.S.S.S.S.S.S.S.S.Z.| o o o o o + # o o # 2 2 Z q * * #   o * 2 * o X @ #.Z.S.S.S.S.S.S.S.A.S.S.",
"S.S.S.S.S.S.S.S.A.A.r.% o o o o + # o o # 2 2 4 q 2 * o o # 2 2 # o o - t.A.S.S.S.S.S.S.S.S.S.S.",
"S.S.A.S.S.S.S.S.S.S.M.> o o o o o # @ o X # 2 * 4 5 # + @ 2 2 2 o o o k M.S.S.S.S.S.S.S.S.S.S.S.",
"S.S.S.S.S.S.S.S.S.S.A.[ + o o + o + * o X o * 2 2 2 * # # 2 * + o o @ #.A.S.S.S.S.S.S.S.S.S.S.S.",
"S.S.S.S.S.S.S.S.S.A.G.M.o o o + o o * + o o o * 2 * # # 2 2 o X o o # N.J.S.S.S.A.S.S.S.S.S.S.S.",
"S.S.S.S.S.S.S.S.S.G.H.H.[ o o o o o + # o o X o + # # # # o X o o # X.J.J.H.G.S.G.S.S.S.S.A.S.S.",
"S.A.S.S.S.S.S.S.S.H.H.J.a.> o o o + o @ & o o o X X o X X o o o @ ..N.J.J.J.H.S.A.S.A.S.S.S.S.S.",
"S.S.S.S.A.S.S.S.H.J.H.H.A.#.o + o o o + & # o o o o X o o o o O ; a.D.J.J.J.J.H.G.S.G.A.S.S.S.S.",
"S.S.S.S.S.S.G.J.J.J.J.J.J.S.{ o o o o o o + # + o o o o o + @ k s.H.J.J.J.J.J.J.G.G.S.S.S.S.S.S.",
"S.S.S.S.S.S.H.J.J.J.J.J.J.J.A.[ X X X X X X o # 2 & # # # - #.N.H.J.J.J.J.J.J.J.J.G.S.S.S.S.S.S.",
"S.A.S.S.F.H.J.J.J.J.J.J.J.J.J.N. .< = $       o @ - w - l e.C.J.J.J.J.J.J.J.J.J.J.J.H.G.S.S.S.S.",
"S.S.S.G.H.J.J.J.J.J.J.J.J.J.J.J.J.J.J.J.J.J.J.J.J.J.J.J.J.J.J.J.J.J.J.J.J.J.J.J.J.J.J.H.S.S.S.S.",
"S.S.S.H.J.J.J.J.J.J.J.J.J.J.J.J.J.J.J.J.J.J.J.J.J.J.J.J.J.J.J.J.J.J.J.J.J.J.J.J.J.J.J.J.G.G.S.S.",
"S.S.H.J.J.J.J.J.J.J.J.J.J.J.J.J.J.J.J.J.J.J.J.J.J.J.J.J.J.J.J.J.J.J.J.J.J.J.J.J.J.J.J.J.J.H.S.S.",
"G.J.J.J.J.J.J.J.J.J.J.J.J.J.J.J.J.J.J.J.J.J.J.J.J.J.J.J.J.J.J.J.J.J.J.J.J.J.J.J.J.J.J.J.J.J.G.G.",
"H.J.J.J.J.J.J.J.J.J.J.J.J.J.J.J.J.J.J.J.J.J.J.J.J.J.J.J.J.J.J.J.J.J.J.J.J.J.J.J.J.J.J.J.J.J.J.G."
};
