/* XPM */
static char *result[] = {
/* columns rows colors chars-per-pixel */
"48 48 176 2 ",
"   c #9F2E19",
".  c #A12F19",
"X  c #A5311A",
"o  c #AC341B",
"O  c #B1371B",
"+  c #B4391C",
"@  c #BB3C1D",
"#  c #AF3D22",
"$  c #A33923",
"%  c #C13E1D",
"&  c #BD4C1D",
"*  c #AF482F",
"=  c #BD4224",
"-  c #B1442A",
";  c #AE553C",
":  c #BE5036",
">  c #C4401E",
",  c #CB431F",
"<  c #C44A1E",
"1  c #CC491F",
"2  c #D2461F",
"3  c #C6511E",
"4  c #CA531E",
"5  c #D3571F",
"6  c #CA4522",
"7  c #C34B2B",
"8  c #C44826",
"9  c #D34720",
"0  c #D54920",
"q  c #D94A20",
"w  c #D24E28",
"e  c #D55720",
"r  c #DD5321",
"t  c #D55A21",
"y  c #DD5C21",
"u  c #D4562D",
"i  c #D05B28",
"p  c #C45635",
"a  c #CB5C39",
"s  c #D15631",
"d  c #D45A33",
"f  c #E14D21",
"g  c #E55223",
"h  c #EC5323",
"j  c #E35B24",
"k  c #ED5B23",
"l  c #E3572D",
"z  c #F05523",
"x  c #F15D23",
"c  c #F05A29",
"v  c #DC6421",
"b  c #DF6E21",
"n  c #DD652E",
"m  c #DE7527",
"M  c #DF762A",
"N  c #CB6031",
"B  c #DC6833",
"V  c #E46322",
"C  c #EB6322",
"Z  c #E36A21",
"A  c #EC6C24",
"S  c #EA672B",
"D  c #ED6D2D",
"F  c #F26523",
"G  c #F26C24",
"H  c #E07421",
"J  c #EC7423",
"K  c #E77822",
"L  c #E97B22",
"P  c #F37423",
"I  c #F47C23",
"U  c #F07428",
"Y  c #F47C2E",
"T  c #E5643A",
"R  c #F2693D",
"E  c #E4723A",
"W  c #EB7035",
"Q  c #F47937",
"!  c #B46248",
"~  c #BB664D",
"^  c #C36346",
"/  c #C76B4A",
"(  c #CB6C4C",
")  c #D26944",
"_  c #D87340",
"`  c #C76E51",
"'  c #C37356",
"]  c #CA7C5E",
"[  c #D17450",
"{  c #E17345",
"}  c #EB704A",
"|  c #F37749",
" . c #E07350",
".. c #F37952",
"X. c #EE822C",
"o. c #F58424",
"O. c #F68C23",
"+. c #F6862C",
"@. c #E78D3B",
"#. c #ED883A",
"$. c #F5863F",
"%. c #F69334",
"&. c #DF8553",
"*. c #DA885F",
"=. c #F58542",
"-. c #F08B43",
";. c #F7A251",
":. c #F1A15B",
">. c #CC8162",
",. c #C68368",
"<. c #C68A6D",
"1. c #C38062",
"2. c #D28561",
"3. c #D88661",
"4. c #D38A63",
"5. c #D18A68",
"6. c #DA9669",
"7. c #CE9578",
"8. c #D19775",
"9. c #D49F7D",
"0. c #F38562",
"q. c #E99B60",
"w. c #F69F61",
"e. c #F69C6F",
"r. c #F79E73",
"t. c #F6997A",
"y. c #D7A27B",
"u. c #D8A57E",
"i. c #F8A766",
"p. c #F9AC60",
"a. c #F6A67D",
"s. c #F9AC72",
"d. c #F7B07D",
"f. c #FAB877",
"g. c #CF9F84",
"h. c #D09F83",
"j. c #F79D80",
"k. c #CFA085",
"l. c #CFA888",
"z. c #D1A584",
"x. c #D5AA87",
"c. c #D8AE87",
"v. c #D3AB89",
"b. c #D5B08E",
"n. c #D4AF94",
"m. c #D5B195",
"M. c #D7B896",
"N. c #D6B698",
"B. c #D7BA99",
"V. c #D8BD9B",
"C. c #EBB282",
"Z. c #F0B789",
"A. c #F9B78B",
"S. c #F9B684",
"D. c #F8AF97",
"F. c #EFBF9E",
"G. c #F9B89D",
"H. c #F8B39D",
"J. c #FAC593",
"K. c #FBC99C",
"L. c #FACAA3",
"P. c #FAC4A9",
"I. c #FCD1A6",
"U. c #FBD2A8",
"Y. c #FAC4B3",
"T. c #FCD7BE",
"R. c #FCDAB9",
"E. c #FADFC7",
"W. c #FCD9CE",
"Q. c #FCDED4",
"!. c #FDE6CF",
"~. c #FEEFDF",
"^. c #FBEFE7",
"/. c #FEF2EF",
"(. c #FEF7F2",
"). c #FFFEFD",
/* pixels */
"V.V.V.V.V.V.V.V.V.V.V.V.V.V.V.V.V.V.V.V.V.V.V.V.V.V.V.V.V.V.V.V.V.V.V.V.V.V.V.V.V.V.V.V.V.V.V.V.",
"V.V.V.V.V.V.V.V.V.V.V.V.V.V.V.V.V.V.V.V.V.V.V.V.V.V.V.V.V.V.V.V.V.V.V.V.V.V.V.V.V.V.V.V.V.V.V.V.",
"V.V.V.V.V.V.V.V.V.V.V.V.V.V.V.V.V.V.V.V.V.V.B.N.B.B.B.V.V.V.V.V.V.V.V.V.V.V.V.V.V.V.V.V.V.V.V.V.",
"V.V.V.V.V.V.V.V.V.V.V.V.V.V.V.V.V.V.V.V.V.B.N.N.N.N.V.V.V.V.V.V.V.V.V.V.V.V.V.V.V.V.V.V.V.V.V.V.",
"V.V.V.V.V.V.V.V.V.V.V.V.V.V.V.V.V.V.V.V.V.N.N.n.m.m.m.V.V.V.V.V.V.V.V.V.V.V.V.V.V.V.V.V.V.V.V.V.",
"V.V.V.V.V.V.V.V.V.V.V.V.V.V.V.V.M.y.&.W S C k q 0 9 9 0 u ) 5.v.V.V.V.V.V.V.V.V.V.V.V.V.V.V.V.V.",
"V.V.V.V.V.V.V.V.V.V.V.V.V.V.B.y.E F G G G F F x c z f f g g g g 3.N.V.V.V.V.V.V.V.V.V.V.V.V.V.V.",
"V.V.V.V.V.V.V.V.V.V.V.V.V.m.6.D G =.S.i.+.I o.P F z z z f h z z z { 9.V.V.V.V.V.V.V.V.V.V.V.V.V.",
"V.V.V.V.V.V.V.V.V.V.V.V.b.E G =.L.T.e.A V V V C k F x z h q k F F x S 6.V.V.V.V.V.V.V.V.V.V.V.V.",
"V.V.V.V.V.V.V.V.V.V.V.V._ F Q U.r.W 4 < & & & & + q z z h f r Y %.%.%.%.c.V.V.V.V.V.V.V.V.V.V.V.",
"V.V.V.V.V.V.V.V.V.V.M.4.C I I D i < 5 C A P P A 6 o @ g z g q  .L.U.U.L.C.c.V.V.V.V.V.V.V.V.V.V.",
"V.V.V.V.V.V.V.V.V.V.4.j P P C N B J f.:.O.O.I G x h 6 o , 2 q g Z O.O.O.O.@.N.V.V.V.V.V.V.V.V.V.",
"V.V.V.V.V.V.V.V.V.x.u C P C 3 { A.!.J.o.P F F F z z z q O % 2 f q k x x x x 3.V.V.V.V.V.V.V.V.V.",
"V.V.V.V.V.V.V.V.V.*.5 A F 4 t a.R.f.+.G F G G x z z z z 2 O , 2 q q k z z z T m.V.V.V.V.V.V.V.V.",
"V.V.V.V.V.V.V.V.b.d r C 5 5 J J.q.H V F F F F k j V y g z > + , 9 2 2 f f f f 2.V.V.V.V.V.V.V.V.",
"V.V.V.V.V.V.V.V.5.2 g g < P L F.!.U.:.v C F k n -.G G v g q o @ 2 2 , q q 2 q w m.V.V.V.V.V.V.V.",
"V.V.V.V.V.V.V.V.a 2 g > 1 I m !.^.f.%.L j F r #.F z c C e f % o , , , q q q 9 q 7.V.V.V.V.V.V.V.",
"V.V.V.V.V.V.V.z.2 2 2 o C m Z.).(.P.$.o.K r K x z z z z q 6 q o @ , , , q q q q ( B.V.V.V.V.V.V.",
"V.V.V.V.V.V.B.>., 2 = : d.^.).).).)./.G.w.H x z z z h q 9 % q % o > , , q q q q s V.V.V.V.V.V.V.",
"V.V.V.V.V.V.N.( , > o 1 H ;.K.(.(.P.x z x G z z z z q 9 % , 9 9 o > > % q q 9 q q m.V.V.V.V.V.V.",
"V.V.V.V.V.M.N.a > @ o 5 H O.Y W.Q.} z z z z z z h h f 2 % % 2 q o @ % % % f q q q m.B.V.V.V.V.V.",
"V.V.V.V.m.m.n.w > @ + P m O.G H.Y.z z z z z z z h f 2 % % @ % q o o % % f f % f q m.m.m.V.V.V.V.",
"V.V.V.N.m.m.N.8 @ + + Z b O.G t.D.z z z z z z h f 2 q % % + , f O o % % % % % % > m.m.m.m.V.V.V.",
"V.V.N.n.m.m.m.> @ + + Z t O.P 0.t.z h h z z h q f 2 q % % + , q O o % % % % @ @ @ n.n.m.m.B.V.V.",
"V.N.n.n.m.n.m., @ O O t 9 O.P ....f q q q q q 2 2 q % % @ @ % 2 O o @ % @ @ @ + @ m.m.m.m.m.m.V.",
"N.m.N.n.N.n.n.6 @ O o e q L o.| ..2 q q 2 q q f 2 q % @ X @ 2 2 o X @ % @ @ @ @ @ m.m.m.m.m.m.m.",
"n.n.n.n.m.m.n.7 > o o , q v O.Q T q q q q q 2 2 q % % o O % 2 % # o O % + @ @ @ @ m.m.m.m.m.m.m.",
"n.N.N.n.m.m.m.p @ O o > q 0 K Y l q 2 q q q f q % % % o @ % 2 2 X o @ % @ @ @ @ @ m.m.m.m.m.m.n.",
"m.m.m.n.m.m.m.^ % O X @ 2 q t o.h q q q f 2 f % % % X o @ 2 2 % X O @ @ @ @ @ @ @ m.m.m.m.m.m.m.",
"m.m.m.m.m.m.m.] % O X O , 0 0 L k q q 9 2 2 % % % o . O % 2 % @ X O % @ @ @ @ @ # m.m.m.m.m.m.m.",
"m.m.m.m.m.m.m.7.% + o . > 6 9 e L g q q 2 % % % O . o % 2 % % O o O % @ @ @ @ @ ^ m.m.m.m.m.m.m.",
"m.n.m.m.m.m.m.m.7 @ o X @ > > , v P q , % % % @ . . @ 2 2 % @ o o @ % O O o O # ] m.m.m.m.m.m.m.",
"m.m.m.m.m.m.n.m.' % O o X % % > < m r % % % % o . O % , > > o X o @ @ o o o o O h.n.m.m.m.m.m.m.",
"m.m.m.n.m.m.m.m.g.7 O o X @ > > > > Z , % % O X O @ > > > @ X X + % + o o o o ~ n.n.n.m.m.m.m.m.",
"n.m.m.m.m.m.m.m.n.` % O o X @ % > > > e , + o + @ > % , % X o o @ @ o o o o - z.m.m.m.m.m.m.m.n.",
"m.m.m.m.m.m.m.m.m.7.= @ O X X @ > > > 8 1 @ @ @ > > > @ o X o o % O o o o o ~ n.m.m.m.m.m.m.m.m.",
"m.m.m.n.m.m.m.m.n.n.` % O # X . @ > > > % % + % % , @ X X o o @ @ o o o o - h.n.m.m.m.m.m.m.m.m.",
"m.m.m.m.m.m.m.m.m.n.b./ @ o o o . X @ > % % > % @ o X X o o @ @ o o o o + ,.N.m.m.m.m.m.m.m.m.n.",
"m.n.m.m.m.m.n.m.m.V.V.N.7 @ o o o X . . X o # . . X o o O + % O o o o o <.B.V.N.m.m.n.m.m.m.m.m.",
"m.m.m.m.m.m.m.m.B.V.V.B.h.7 @ O o O o o X X . o o X o O + @ O o o o o ' B.V.V.M.m.n.m.m.m.m.m.m.",
"m.m.m.m.m.m.m.V.V.V.V.V.V.z.( @ + O o o o o o o o o O + + o o . $ * ] B.V.V.V.V.B.m.m.m.m.m.m.m.",
"m.m.m.m.m.n.V.V.V.V.V.V.V.V.B.>.8 > + + o O o O + % % # .   .   ; l.V.V.V.V.V.V.V.V.m.m.m.m.m.m.",
"m.m.m.m.m.V.V.V.V.V.V.V.V.V.V.V.z.] p % > > > % @ O . . . $ ! <.N.V.V.V.V.V.V.V.V.V.B.m.m.m.m.m.",
"m.m.m.m.V.V.V.V.V.V.V.V.V.V.V.V.V.V.V.V.V.V.V.V.V.V.V.V.V.V.V.V.V.V.V.V.V.V.V.V.V.V.V.B.m.m.m.m.",
"m.m.m.V.V.V.V.V.V.V.V.V.V.V.V.V.V.V.V.V.V.V.V.V.V.V.V.V.V.V.V.V.V.V.V.V.V.V.V.V.V.V.V.V.B.m.m.m.",
"m.m.B.V.V.V.V.V.V.V.V.V.V.V.V.V.V.V.V.V.V.V.V.V.V.V.V.V.V.V.V.V.V.V.V.V.V.V.V.V.V.V.V.V.V.B.m.m.",
"m.V.V.V.V.V.V.V.V.V.V.V.V.V.V.V.V.V.V.V.V.V.V.V.V.V.V.V.V.V.V.V.V.V.V.V.V.V.V.V.V.V.V.V.V.V.B.N.",
"V.V.V.V.V.V.V.V.V.V.V.V.V.V.V.V.V.V.V.V.V.V.V.V.V.V.V.V.V.V.V.V.V.V.V.V.V.V.V.V.V.V.V.V.V.V.V.B."
};
