/* XPM */
static char *result[] = {
/* columns rows colors chars-per-pixel */
"48 48 166 2 ",
"   c #9F2E19",
".  c #A12F19",
"X  c #A5311A",
"o  c #AC341B",
"O  c #B1371B",
"+  c #B5391C",
"@  c #BC3C1D",
"#  c #AD3B21",
"$  c #B93F21",
"%  c #C13E1D",
"&  c #BF471D",
"*  c #BC4C1D",
"=  c #B14328",
"-  c #BB4A2E",
";  c #BA4224",
":  c #A94730",
">  c #B44E35",
",  c #AD5038",
"<  c #B55337",
"1  c #B7583E",
"2  c #BC5A3E",
"3  c #C4401E",
"4  c #CC441F",
"5  c #C34F1D",
"6  c #CB4C1F",
"7  c #D1461F",
"8  c #C4501E",
"9  c #CD531F",
"0  c #D2521F",
"q  c #C24424",
"w  c #CA4420",
"e  c #C24827",
"r  c #C24828",
"t  c #CE4F2B",
"y  c #D34720",
"u  c #D64920",
"i  c #D94A20",
"p  c #D65521",
"a  c #DD5223",
"s  c #D65920",
"d  c #DB5B20",
"f  c #D4522B",
"g  c #DE5E28",
"h  c #C25334",
"j  c #C45B3A",
"k  c #D15833",
"l  c #D25D38",
"z  c #DA5B32",
"x  c #E24E21",
"c  c #E45222",
"v  c #EC5323",
"b  c #E15C22",
"n  c #EC5D22",
"m  c #E95B2C",
"M  c #F05523",
"N  c #F15C23",
"B  c #D76520",
"V  c #DD6421",
"C  c #DB6B22",
"Z  c #DF7729",
"A  c #E46222",
"S  c #EB6323",
"D  c #E26A21",
"F  c #EB6923",
"G  c #E2642B",
"H  c #E86328",
"J  c #F26423",
"K  c #F26A23",
"L  c #E27422",
"P  c #E97322",
"I  c #E67B21",
"U  c #E3762F",
"Y  c #E37E2E",
"T  c #F37323",
"R  c #F47C23",
"E  c #E56235",
"W  c #EF753B",
"Q  c #F37037",
"!  c #F47931",
"~  c #F47E3C",
"^  c #BD6549",
"/  c #B6694F",
"(  c #BC6B4F",
")  c #C56140",
"_  c #C66749",
"`  c #C66B4B",
"'  c #C96544",
"]  c #D26945",
"[  c #DB6840",
"{  c #DC744C",
"}  c #C36C50",
"|  c #C77154",
" . c #C87457",
".. c #CA7C5C",
"X. c #D27451",
"o. c #D17E5B",
"O. c #DD7D53",
"+. c #E07046",
"@. c #EE8222",
"#. c #F48323",
"$. c #F68B23",
"%. c #F4802F",
"&. c #F58F2C",
"*. c #EA8B3E",
"=. c #F48237",
"-. c #F5823A",
";. c #F79333",
":. c #F69138",
">. c #F79A3E",
",. c #DE904D",
"<. c #CD805F",
"1. c #DA855E",
"2. c #E88441",
"3. c #E0834E",
"4. c #F18147",
"5. c #F68B4A",
"6. c #E99142",
"7. c #F69044",
"8. c #F89D44",
"9. c #F79748",
"0. c #F79E4C",
"q. c #F49C56",
"w. c #F8A14A",
"e. c #F8A758",
"r. c #C88569",
"t. c #CA8262",
"y. c #D38763",
"u. c #D58965",
"i. c #D98E69",
"p. c #D2906D",
"a. c #CB9275",
"s. c #CD9C7D",
"d. c #D19674",
"f. c #D39A77",
"g. c #D6A27F",
"h. c #F4AB67",
"j. c #E7AB7A",
"k. c #F7A270",
"l. c #F8AC73",
"z. c #CD9C81",
"x. c #D4A583",
"c. c #D6AA86",
"v. c #D1A689",
"b. c #D3AC8D",
"n. c #D5B18F",
"m. c #D4AD91",
"M. c #D5B195",
"N. c #D7B997",
"B. c #D6B698",
"V. c #D7BA99",
"C. c #D8BD9B",
"Z. c #F8AE8A",
"A. c #F9BD82",
"S. c #F6BC88",
"D. c #FABE8E",
"F. c #ECB393",
"G. c #EDBFA1",
"H. c #FBC895",
"J. c #F4C49B",
"K. c #FBCFA8",
"L. c #FCD1A6",
"P. c #FCD5B4",
"I. c #FCDABB",
"U. c #FDDCC2",
"Y. c #FFF8F1",
"T. c #FEFDFD",
/* pixels */
"C.C.C.C.C.C.C.C.C.C.C.C.C.C.C.C.C.C.C.C.C.C.C.C.C.C.C.C.C.C.C.C.C.C.C.C.C.C.C.C.C.C.C.C.C.C.C.C.",
"C.C.C.C.C.C.C.C.C.C.C.C.C.C.C.C.C.C.C.C.C.C.C.C.C.C.C.C.C.C.C.C.C.C.C.C.C.C.C.C.C.C.C.C.C.C.C.C.",
"C.C.C.C.C.C.C.C.C.C.C.C.C.C.C.C.C.C.C.C.C.C.C.N.B.C.C.C.C.C.C.C.C.C.C.C.C.C.C.C.C.C.C.C.C.C.C.C.",
"C.C.C.C.C.C.C.C.C.C.C.C.C.C.C.C.C.C.C.C.C.C.B.M.M.B.C.C.C.C.C.C.C.C.C.C.C.C.C.C.C.C.C.C.C.C.C.C.",
"C.C.C.C.C.C.C.C.C.C.C.C.C.C.C.C.C.C.C.C.C.B.M.M.M.M.B.C.C.C.C.C.C.C.C.C.C.C.C.C.C.C.C.C.C.C.C.C.",
"C.C.C.C.C.C.C.C.C.C.C.C.C.C.C.C.N.p.X.l f y p a d n S H E +.1.x.C.N.C.C.C.C.C.C.C.C.C.C.C.C.C.C.",
"C.C.C.C.C.C.C.C.C.C.C.C.C.C.M.u.c v x c d J J K K K K K N M M M [ x.N.C.C.C.C.C.C.C.C.C.C.C.C.C.",
"C.C.C.C.C.C.C.C.C.C.C.C.N.i.E v M v n S K -.l.D.9.#.R R R J N M M m { c.C.C.C.C.C.C.C.C.C.C.C.C.",
"C.C.C.C.C.C.C.C.C.C.C.c.3.J J J c S K 7.H.U.Z.4.F A A A S n n J N M v z y.B.C.C.C.C.C.C.C.C.C.C.",
"C.C.C.C.C.C.C.C.C.C.N.6.;.;.:.P S J 7.P.Z.W 0 9 5 * * * * & % c M M M x i u.C.C.C.C.C.C.C.C.C.C.",
"C.C.C.C.C.C.C.C.C.N.j.L.L.L.F.A K #.T S 0 5 9 0 F P T T F p @ X 3 v M x x i f.N.C.C.C.C.C.C.C.C.",
"C.C.C.C.C.C.C.C.n.,.$.$.$.I d S #.K b 5 9 F q.D.>.$.$.T T J M v % X 3 i x x a d.C.C.C.C.C.C.C.C.",
"C.C.C.C.C.C.C.N.1.N N N n i b R K 0 8 S 7.U.I.e.R T J J J N M M M i O @ y i x f c.C.C.C.C.C.C.C.",
"C.C.C.C.C.C.C.c.n M M M x 7 F T b 5 G k.J.H.:.R K K J K J M M M M M i o @ y i i ..N.C.C.C.C.C.C.",
"C.C.C.C.C.C.C.X.x x x i i i J n 8 A %.q.Y L V n J J J J n v g V d v M w o 3 y i t x.C.C.C.C.C.C.",
"C.C.C.C.C.C.x.f 7 7 i 7 i a v 5 d R *.J.S.P.A.*.A J J N b 2.=.K T D a i 3 o 3 7 7 ' C.C.C.C.C.C.",
"C.C.C.C.C.C...i i i 7 7 7 c 7 o F ;.J.T.Y.H.8.$.L b J c U ! M M M N 0 7 x X % 4 4 4 b.C.C.C.C.C.",
"C.C.C.C.C.B.u i 7 i 7 7 7 0 o 7 #.C J.U.~ N J T $.I x L K M M M M M x 4 x % X % 7 3 <.C.C.C.C.C.",
"C.C.C.C.C.d.i y i i 4 3 7 3 o K L h.0.Q M M M M N R C K M M M M v x x % 7 7 X O 4 3 j C.C.C.C.C.",
"C.C.C.C.C.o.i i 7 i 4 % 3 O 3 R Z 0.R v M M M M M N R M M M M M i x % % % x O o 3 % q C.C.C.C.C.",
"C.C.C.C.C.] i i i i 4 @ @ o 0 $.L $.K M M M M M M M M M M M M c x % % % % x % X @ % 3 C.C.C.C.C.",
"C.C.C.C.M.k i i i 7 4 @ @ o S #.I $.J M M M M M M M M M M M v 7 x % % % @ i 4 X O % 3 B.C.C.C.C.",
"C.C.C.M.M.e % % % % 4 + @ o A P I $.S M M M M M M M M M M v 7 0 y % % O @ y y o o % 3 M.M.C.C.C.",
"C.C.N.M.M.$ % @ % @ 4 O O o V A L $.J M M M c v M M M v x 7 x 7 i % % O + x y o o @ 3 M.M.N.C.C.",
"C.M.M.M.M.$ @ @ @ @ 4 O O o 0 b V $.T M M v x 7 7 i 7 i i i i 7 4 % o O % y % O o $ 3 M.M.M.B.V.",
"B.M.m.M.M.; @ @ @ @ 4 O O o 9 c 0 $.R M M x 7 7 x 7 i i i i i i % % X @ % y % o X $ 3 M.M.M.M.M.",
"M.M.M.M.m.- @ @ @ @ 3 @ O o 3 7 7 P $.N v 7 7 x 7 7 i i i x 7 % % o X % % 7 % X o + % M.M.M.M.M.",
"M.M.M.M.M.2 @ @ @ @ % O O X 3 4 x 0 #.K M 7 x 7 i i i i i 7 % % o . O % 7 7 % X o $ % M.M.M.M.M.",
"M.M.M.M.M.} @ @ @ @ @ @ O X @ 4 7 x D #.N 7 x 7 7 x x 7 7 % % % . . @ 7 y 4 o X o % % m.M.M.M.M.",
"M.M.M.M.M.r.@ @ @ @ @ % O X X 4 7 7 0 @.R 7 7 x x x % % % % % X . O % y 7 3 X o O % h M.M.M.M.M.",
"M.M.M.M.M.v.@ @ @ @ @ 3 + o . @ 3 7 7 0 #.n x x 7 % % % % % X . o % y 7 % % . o $ % | M.M.M.M.M.",
"M.M.M.M.m.m.^ O O O O 3 @ o o o 3 3 4 7 6 R i x % % % % % o . X $ y 4 % % o X o $ % d.M.M.M.M.M.",
"M.M.M.M.M.M.a.# X o o % % o o X @ w % 3 3 B S u 3 % % % + . . + w w 3 3 $ . O O % h m.M.M.M.M.M.",
"M.M.M.M.M.M.m.1 o o o O % O o o X % % 3 3 3 B d 3 % % + . o + % 3 3 3 @ X o o + q a.M.M.M.M.M.M.",
"M.M.M.M.M.M.M.a.# o o o + % o o X X % % 3 3 3 9 0 3 @ X O @ % 3 3 3 @ o X o O % _ m.M.M.M.M.M.M.",
"M.M.M.M.M.M.M.m.1 o o o O % + O o X o % 3 3 3 & 8 4 @ % @ % 3 3 3 % o . o o @ e a.m.M.M.M.M.M.M.",
"M.M.M.M.M.M.M.M.z.> o o o O % + O o X X @ % w % % % % @ % % 3 3 + . X O o O %  .m.M.M.M.M.M.M.M.",
"M.M.M.M.M.M.M.M.M.v.$ o o o + % # o o o . . + % 3 3 $ % w @ + . . o o o O % ..m.M.M.M.M.M.M.M.M.",
"M.M.M.M.M.M.M.M.M.V.z.# o o o + % O o o o o . . X o o o .   . o O o o # @ _ N.M.M.M.M.M.M.M.M.M.",
"M.M.M.M.M.M.M.M.V.C.V.p.- o O o + % @ o o o o o X X o X o o o o o O + q ` M.C.C.M.M.M.M.M.M.M.M.",
"M.M.M.M.M.M.M.C.C.C.C.C.m.( # X X o $ @ @ o o o o o o o o o o # $ $ j d.V.C.C.C.B.M.M.M.M.M.M.M.",
"M.m.M.M.M.M.V.C.C.C.C.C.C.V.z., . . . o $ % @ + # O o o O + @ % % ..m.C.C.C.C.C.C.V.M.M.M.M.M.M.",
"M.M.M.M.B.V.C.C.C.C.C.C.C.C.C.C.a./ : X . o @ @ % % % 3 3 r ) t.m.C.C.C.C.C.C.C.C.C.V.M.M.M.M.M.",
"M.M.M.B.V.C.C.C.C.C.C.C.C.C.C.C.C.C.C.C.C.C.C.C.C.C.C.C.C.C.C.C.C.C.C.C.C.C.C.C.C.C.C.V.M.M.M.M.",
"M.M.M.V.C.C.C.C.C.C.C.C.C.C.C.C.C.C.C.C.C.C.C.C.C.C.C.C.C.C.C.C.C.C.C.C.C.C.C.C.C.C.C.C.V.M.M.M.",
"M.M.V.C.C.C.C.C.C.C.C.C.C.C.C.C.C.C.C.C.C.C.C.C.C.C.C.C.C.C.C.C.C.C.C.C.C.C.C.C.C.C.C.C.C.V.M.M.",
"B.C.C.C.C.C.C.C.C.C.C.C.C.C.C.C.C.C.C.C.C.C.C.C.C.C.C.C.C.C.C.C.C.C.C.C.C.C.C.C.C.C.C.C.C.C.V.B.",
"V.C.C.C.C.C.C.C.C.C.C.C.C.C.C.C.C.C.C.C.C.C.C.C.C.C.C.C.C.C.C.C.C.C.C.C.C.C.C.C.C.C.C.C.C.C.C.V."
};
