/* XPM */
static char *result[] = {
/* columns rows colors chars-per-pixel */
"48 48 175 2 ",
"   c #9F2E19",
".  c #A12F19",
"X  c #A5311A",
"o  c #AC341B",
"O  c #AE391D",
"+  c #B1371B",
"@  c #B5391C",
"#  c #BC3C1C",
"$  c #A23621",
"%  c #AE3C23",
"&  c #B93F21",
"*  c #C13E1D",
"=  c #BD4C1D",
"-  c #B9431C",
";  c #A6412A",
":  c #BD4425",
">  c #BC4C2F",
",  c #B0573F",
"<  c #BD583C",
"1  c #C4401E",
"2  c #CC441F",
"3  c #C34C1D",
"4  c #CB4A1F",
"5  c #D1461F",
"6  c #D04D1F",
"7  c #C6501E",
"8  c #CC531F",
"9  c #CE5A1F",
"0  c #D1551F",
"q  c #D4581F",
"w  c #C14424",
"e  c #CB4824",
"r  c #C34A2A",
"t  c #D34720",
"y  c #D54921",
"u  c #D94A20",
"i  c #D55221",
"p  c #DC5321",
"a  c #D65A22",
"s  c #DD5C21",
"d  c #D95329",
"f  c #D2532C",
"g  c #C25131",
"h  c #C85E3C",
"j  c #C45A3B",
"k  c #D15732",
"l  c #C45728",
"z  c #E14E21",
"x  c #E35122",
"c  c #EC5323",
"v  c #E35C21",
"b  c #EF5B23",
"n  c #E85728",
"m  c #E45E2D",
"M  c #F05523",
"N  c #F15C23",
"B  c #F15D2C",
"V  c #D76220",
"C  c #DB6120",
"Z  c #DA6C21",
"A  c #DF692B",
"S  c #DE7423",
"D  c #CF633F",
"F  c #D1613C",
"G  c #E66122",
"H  c #EC6423",
"J  c #ED6922",
"K  c #E86528",
"L  c #EB6A2D",
"P  c #F26523",
"I  c #F36C23",
"U  c #E47421",
"Y  c #EB7322",
"T  c #E67921",
"R  c #EB7C22",
"E  c #F37323",
"W  c #F47C23",
"Q  c #F4772E",
"!  c #F2693C",
"~  c #EB7137",
"^  c #F47F37",
"/  c #F47E3F",
"(  c #B75A40",
")  c #B95F45",
"_  c #BB674B",
"`  c #B86449",
"'  c #C35E40",
"]  c #C46142",
"[  c #CC6543",
"{  c #C46648",
"}  c #C56C4C",
"|  c #CD6B49",
" . c #D36B45",
".. c #DC6941",
"X. c #D16E4A",
"o. c #D2704C",
"O. c #DA744C",
"+. c #C57256",
"@. c #C07359",
"#. c #CB7B5A",
"$. c #F26B40",
"%. c #F3754C",
"&. c #F47E58",
"*. c #EC8122",
"=. c #EC852B",
"-. c #F48423",
";. c #F68B23",
":. c #F68A2A",
">. c #F5873B",
",. c #F79535",
"<. c #F2923D",
"1. c #DE8847",
"2. c #D1805D",
"3. c #E48046",
"4. c #F68B40",
"5. c #EC954A",
"6. c #F49445",
"7. c #F5934B",
"8. c #F79D55",
"9. c #F6905F",
"0. c #F6A04E",
"q. c #F8A553",
"w. c #F6A659",
"e. c #F8AA5C",
"r. c #C5886B",
"t. c #CB8A6C",
"y. c #C18366",
"u. c #D08765",
"i. c #D78A65",
"p. c #D48D6A",
"a. c #D69C6C",
"s. c #CB8C70",
"d. c #CB977C",
"f. c #CD997E",
"g. c #CE9373",
"h. c #D29473",
"j. c #F58C6B",
"k. c #F6997B",
"l. c #F7A064",
"z. c #F9AF65",
"x. c #F9B26C",
"c. c #F7A37B",
"v. c #F9B478",
"b. c #CE9D82",
"n. c #D1A383",
"m. c #D3AC8B",
"M. c #D6AC85",
"N. c #D4AF93",
"B. c #D5B195",
"V. c #D7B997",
"C. c #D6B698",
"Z. c #D7BA9A",
"A. c #D8BD9B",
"S. c #EBAF85",
"D. c #E6AA84",
"F. c #F7A88F",
"G. c #F6B982",
"H. c #FABC87",
"J. c #FABD9A",
"K. c #E0BAA1",
"L. c #FAC48F",
"P. c #FAC593",
"I. c #FBCEA2",
"U. c #FAC3AD",
"Y. c #FBD1A7",
"T. c #FCD9B8",
"R. c #FAD6B3",
"E. c #FDDEC0",
"W. c #FCDECC",
"Q. c #FDE2C8",
"!. c #FDE6DF",
"~. c #FEEADC",
"^. c #FEF5EC",
"/. c #FFFAF6",
"(. c #FFFDFC",
/* pixels */
"A.A.A.A.A.A.A.A.A.A.A.A.A.A.A.A.A.A.A.A.A.A.A.A.A.A.A.A.A.A.A.A.A.A.A.A.A.A.A.A.A.A.A.A.A.A.A.A.",
"A.A.A.A.A.A.A.A.A.A.A.A.A.A.A.A.A.A.A.A.A.A.A.A.A.A.A.A.A.A.A.A.A.A.A.A.A.A.A.A.A.A.A.A.A.A.A.A.",
"A.A.A.A.A.A.A.A.A.A.A.A.A.A.A.A.M.u.D f y e t i s v H K m ..i.m.A.A.A.A.A.A.A.A.A.A.A.A.A.A.A.A.",
"A.A.A.A.A.A.A.A.A.A.A.A.A.A.m.O.d x x x u v H P P P P P P M M n O.m.A.Z.A.A.A.A.A.A.A.A.A.A.A.A.",
"A.A.A.A.A.A.A.A.A.A.A.A.A.p.c M M M M v P P I 7.v.:.-.-.E P M M M n p.Z.A.A.A.A.A.A.A.A.A.A.A.A.",
"A.A.A.A.A.A.A.A.A.A.A.V.O.M M M M c v P I 8.Q.W.>.E I P I I E P M M c X.V.A.A.A.A.A.A.A.A.A.A.A.",
"A.A.A.A.A.A.A.A.A.A.V.3.W W -.W E v J Q I.~.c.H s a 8 8 i p c M N c c z  .Z.A.A.A.A.A.A.A.A.A.A.",
"A.A.A.A.A.A.A.A.A.A.K.Y.Y.P.I.P.K H E 6.j.H 8 = 3 9 q q 9 - . * c M c z u o.Z.A.A.A.A.A.A.A.A.A.",
"A.A.A.A.A.A.A.A.A.a.0.q.q.q.q.O.v E -.I s = 8 G E W -.-.-.W q @ o u c z z u p.A.A.A.A.A.A.A.A.A.",
"A.A.A.A.A.A.A.A.M.=.;.;.;.;.R v J -.P q l v >.H.P.;.-.W I N M M 5 . * u z z d n.A.A.A.A.A.A.A.A.",
"A.A.A.A.A.A.A.A.O.P N N N N 6 v W P q 7 ~ l.~.Y.:.E I P P M M M M z X * 5 u z | A.A.A.A.A.A.A.A.",
"A.A.A.A.A.A.A.n.c M M M M x 5 J E v : L J.T.e.-.I I P P P M M M M M u . * 5 z t n.A.A.A.A.A.A.A.",
"A.A.A.A.A.A.A. .z z x z z 5 u P H 3 v >.L.S Z s P P P P P M u p 6 M M * o 2 t u [ A.A.A.A.A.A.A.",
"A.A.A.A.A.A.n.y 5 5 5 z 5 5 5 M 8 0 E *.D.w.z.5.s P P P M s 6.-.*.q c z o # 2 t e n.A.A.A.A.A.A.",
"A.A.A.A.A.A.2.u z z 5 5 5 u z z O H -.S R.^.Y.x.R s P P a 7.P c N I i u 1 o 1 5 e 2.A.A.A.A.A.A.",
"A.A.A.A.A.Z.F u 5 5 z 5 5 t x # # Y S G.(.T.7.:.;.U v p *.N M M M c i t u o @ 5 1 h Z.A.A.A.A.A.",
"A.A.A.A.A.m.u 5 z 5 5 5 2 2 z X m <.S.Q./.~.F.j.%.;.q V P M M M M M 5 * z * o * 5 e M.Z.A.A.A.A.",
"A.A.A.A.A.h.u 5 5 z 5 5 2 1 1 o E Z v.-.U.j.M M M I R E M M M M c z * 5 5 5 . # * * g.A.A.A.A.A.",
"A.A.A.A.A.#.5 z z 5 5 5 2 * @ 1 -.S ,.I F.%.M M M M I N M M M M z 5 * * * z o o e 1 #.Z.A.A.A.A.",
"A.A.A.A.A...z 5 z 5 5 1 1 * o 6 ;.T ;.N k.! M M M M M M M M M z 5 5 * * * z + o # 1 ' A.A.A.A.A.",
"A.A.A.A.A.k 5 5 5 5 5 2 - # X v *.T ;.M j.B M M M M M M M M c 5 5 5 * * @ z # o @ * g A.A.A.A.A.",
"A.A.A.A.V.r 5 2 5 5 2 5 # # . C U T ;.M &.M M M M M M M M M z 5 5 5 * # @ z * X @ * r C.A.A.A.A.",
"A.A.A.V.B.# # # # # # 2 # @ . C q U ;.N ! M M M M M M M c 5 5 q 5 * * o # z * X + * w N.B.A.A.A.",
"A.A.C.N.m.# + # # # # 2 # @ . q v Z ;.P B M x 5 z z z z 5 z 5 z 5 * @ @ * 5 * X o * w N.B.C.A.A.",
"A.B.B.B.B.& # # # @ @ 5 # + . 6 p q ;.I M M z 5 * z * z z u u * * * o @ * 5 * . o * w B.B.B.C.Z.",
"V.B.B.N.B.: # # # # # * * + . 2 z 2 ;.W M M 5 5 5 z u u u u z u * @ X # 5 5 # X o & r B.B.B.B.B.",
"B.B.B.B.N.> # # # # # * # + . * 5 z Z ;.N c 5 z z z * u u z * * * . + * 5 5 @ X o * g B.B.B.B.B.",
"B.B.B.B.N.< # # # # # # * o o # 5 5 6 ;.I z z 5 * z z z * z * * + . @ * 5 2 + o o * ' B.B.B.B.B.",
"B.B.B.B.B.+.# # # # # # * o o + 5 5 5 U -.c 5 5 u u u u u * * * . . # 5 t 1 X o + 1 +.B.B.B.B.B.",
"N.B.B.B.B.s.# # # # # # 1 o o X 2 5 5 6 -.P 5 z u u u * * * * o . + * 5 e 1 . o + * s.B.B.B.B.B.",
"B.B.B.B.B.b.& @ # # # @ 1 @ o X * 2 5 z q -.z u u * * * * * @ . X # 5 5 * @ . + & w n.B.B.B.B.B.",
"B.B.B.B.B.N.< @ @ @ @ @ * # o X o 1 1 5 5 Y N z z * * * * * . . @ 5 5 * * o X o * j N.B.B.B.B.B.",
"B.B.B.B.B.B.@.o o o o o @ * o o . * * 1 1 4 R p 2 * * * * X . o 1 2 1 1 # X o + 1 #.B.B.B.B.B.B.",
"B.B.B.B.B.B.b.+ o o o o + * @ o . o 1 1 1 * 8 J 2 * * * o   o # 1 1 1 1 X o o @ w b.B.N.B.B.N.B.",
"B.B.B.B.B.B.B.( o o o o o * * o o . # w 1 1 * 9 q 1 * @ . + @ 1 1 1 1 @ X o o # ] B.B.B.B.B.B.B.",
"B.B.B.N.B.B.B.d.o o o o o + * + o o . # 1 1 w * q 5 # o # @ 1 1 1 1 # . o o @ 1 d.B.B.B.B.B.B.B.",
"B.B.B.B.B.B.B.B.) o o o o o * @ o o X . * * 1 1 * 4 1 * @ 1 1 * 1 # X X o o * { B.B.B.B.B.B.B.B.",
"B.B.B.B.N.B.B.B.b.% o o o o o * @ o o o . # w 1 1 # # @ # 1 1 * @ . o o o @ r b.B.B.B.B.B.N.B.B.",
"B.B.N.B.B.B.B.B.N.t.o o o o o @ * + o o o . o # 1 1 1 1 1 1 # o . o o o + w t.B.B.B.B.B.B.N.B.B.",
"B.B.B.B.B.B.B.B.C.C.' o o o o o # * o o o o X . X o + + o X   X o o o o 1 } Z.Z.B.B.B.B.B.B.B.B.",
"N.B.B.B.B.B.B.A.A.A.V._ + o o o o # # o o o o o X X X X X X o o o o + # } Z.A.A.Z.B.B.B.B.B.B.B.",
"B.B.B.B.B.N.A.A.A.A.A.C._ o o o o o # * @ o o o + o o o + o o o o @ * } C.A.A.A.A.A.B.B.B.B.B.B.",
"B.B.B.B.B.A.A.A.A.A.A.A.A.r.X .   .   X w * @ + o o o o + o o @ * r t.A.A.A.A.A.A.A.Z.B.B.B.B.B.",
"B.B.B.B.A.A.A.A.A.A.A.A.A.A.m.` $       . @ # * * & @ # # & * w } m.A.A.A.A.A.A.A.A.A.Z.B.B.B.B.",
"B.B.B.A.A.A.A.A.A.A.A.A.A.A.A.A.m.y.( ; $ $ X % & : w w r ] t.m.A.A.A.A.A.A.A.A.A.A.A.A.Z.B.B.B.",
"B.B.A.A.A.A.A.A.A.A.A.A.A.A.A.A.A.A.Z.A.A.A.A.A.A.A.A.A.A.A.A.A.A.A.A.A.A.A.A.A.A.A.A.A.A.Z.B.B.",
"B.A.A.A.A.A.A.A.A.A.A.A.A.A.A.A.A.A.A.A.A.A.A.A.A.A.A.A.A.A.A.A.A.A.A.A.A.A.A.A.A.A.A.A.A.A.Z.B.",
"A.A.A.A.A.A.A.A.A.A.A.A.A.A.A.A.A.A.A.A.A.A.A.A.A.A.A.A.A.A.A.A.A.A.A.A.A.A.A.A.A.A.A.A.A.A.A.Z."
};
