/* XPM */
static char *result[] = {
/* columns rows colors chars-per-pixel */
"48 48 170 2 ",
"   c #9F2E19",
".  c #A12F19",
"X  c #A6311A",
"o  c #AC341B",
"O  c #B1371B",
"+  c #B5391C",
"@  c #BB3C1D",
"#  c #C13E1D",
"$  c #BF401F",
"%  c #BF4323",
"&  c #C4401E",
"*  c #CB441F",
"=  c #C44E1D",
"-  c #CD4D1F",
";  c #D1461F",
":  c #D54C1F",
">  c #C7511D",
",  c #CA521E",
"<  c #D4551F",
"1  c #D35B1F",
"2  c #C14525",
"3  c #C94623",
"4  c #C14827",
"5  c #CB4824",
"6  c #C34B2A",
"7  c #C94F2C",
"8  c #D34720",
"9  c #D54920",
"0  c #D94A20",
"q  c #C2502F",
"w  c #CC502E",
"e  c #D55421",
"r  c #DD5421",
"t  c #D55921",
"y  c #DB5B20",
"u  c #DB562C",
"i  c #C45232",
"p  c #C55738",
"a  c #C55B3B",
"s  c #CA5A38",
"d  c #D25731",
"f  c #E14E21",
"g  c #E55122",
"h  c #ED5423",
"j  c #E35D21",
"k  c #EC5C23",
"l  c #EA5728",
"z  c #F05523",
"x  c #F15C23",
"c  c #E55E30",
"v  c #DC6321",
"b  c #DD6F20",
"n  c #DE7321",
"m  c #CD613F",
"M  c #DD6A33",
"N  c #D46039",
"B  c #DF693F",
"V  c #E46221",
"C  c #EB6323",
"Z  c #E46B22",
"A  c #EC6D23",
"S  c #E2642A",
"D  c #EA6228",
"F  c #EB6B2A",
"G  c #E36D2B",
"H  c #F26523",
"J  c #F26B23",
"K  c #E57122",
"L  c #EC7222",
"P  c #E47A25",
"I  c #EC7D22",
"U  c #F37423",
"Y  c #F47C23",
"T  c #F3742E",
"R  c #E56437",
"E  c #E46C34",
"W  c #EE7A33",
"Q  c #E8763C",
"!  c #F37432",
"~  c #F07B3F",
"^  c #C56243",
"/  c #C76C4B",
"(  c #CD6C49",
")  c #CB6644",
"_  c #C97355",
"`  c #CB7C5B",
"'  c #D37D59",
"]  c #E16E45",
"[  c #E37540",
"{  c #CA7F62",
"}  c #EE8223",
"|  c #EF842E",
" . c #F38423",
".. c #F68B23",
"X. c #F68E2F",
"o. c #F6902A",
"O. c #E0813B",
"+. c #E98238",
"@. c #EB8B3A",
"#. c #F58634",
"$. c #F38C34",
"%. c #F1943E",
"&. c #CB805F",
"*. c #D6835E",
"=. c #DD835B",
"-. c #E58942",
";. c #E3804B",
":. c #EA8A44",
">. c #F28F4D",
",. c #F6934C",
"<. c #E08958",
"1. c #ED9B54",
"2. c #F79754",
"3. c #F69759",
"4. c #F79E59",
"5. c #F8A14A",
"6. c #F8A250",
"7. c #F8A75D",
"8. c #F8AA5D",
"9. c #F2A35C",
"0. c #CB8364",
"q. c #CC876A",
"w. c #CD8C6C",
"e. c #DE8F60",
"r. c #D38D6A",
"t. c #DB8E68",
"y. c #CE906F",
"u. c #D4926B",
"i. c #DC9A6F",
"p. c #DB946E",
"a. c #CF9374",
"s. c #CF9877",
"d. c #CE977B",
"f. c #D59C77",
"g. c #D19D7D",
"h. c #DC9D72",
"j. c #F09970",
"k. c #D3A17F",
"l. c #F0A666",
"z. c #F9B17D",
"x. c #CF9F83",
"c. c #D2A585",
"v. c #D8A784",
"b. c #D3A986",
"n. c #D9AC87",
"m. c #D2A68A",
"M. c #D4AC8B",
"N. c #D6B18E",
"B. c #D8B08C",
"V. c #D4AE91",
"C. c #D5B195",
"Z. c #D7B896",
"A. c #D6B698",
"S. c #D7BA99",
"D. c #D8BD9B",
"F. c #F9BC8D",
"G. c #F3BE91",
"H. c #FABF95",
"J. c #F9BC9F",
"K. c #F4C093",
"L. c #F6C69B",
"P. c #FBC999",
"I. c #F9C1A4",
"U. c #F7CEA9",
"Y. c #FCD2A9",
"T. c #FCD8B7",
"R. c #FDE5CF",
"E. c #FDE5D8",
"W. c #FDEDDD",
"Q. c #FFFAF6",
/* pixels */
"D.D.D.D.D.D.D.D.D.D.D.D.D.D.D.D.D.D.D.D.D.D.D.D.D.D.D.D.D.D.D.D.D.D.D.D.D.D.D.D.D.D.D.D.D.D.D.D.",
"D.D.D.D.D.D.D.D.D.D.D.D.D.D.D.D.D.D.D.D.D.D.D.D.D.D.D.D.D.D.D.D.D.D.D.D.D.D.D.D.D.D.D.D.D.D.D.D.",
"D.D.D.D.D.D.D.D.D.D.D.D.D.D.D.D.D.D.D.D.D.D.D.S.S.D.D.D.D.D.D.D.D.D.D.D.D.D.D.D.D.D.D.D.D.D.D.D.",
"D.D.D.D.D.D.D.D.D.D.D.D.D.D.D.D.D.D.D.D.D.D.C.C.C.S.D.D.D.D.D.D.D.D.D.D.D.D.D.D.D.D.D.D.D.D.D.D.",
"D.D.D.D.D.D.D.D.D.D.D.D.D.D.D.D.D.D.D.D.D.C.C.C.C.C.C.D.D.D.D.D.D.D.D.D.D.D.D.D.D.D.D.D.D.D.D.D.",
"D.D.D.D.D.D.D.D.D.D.D.D.D.D.D.D.D.n.h.e.[ E F H D k c ] ' p.v.S.D.D.D.D.D.D.D.D.D.D.D.D.D.D.D.D.",
"D.D.D.D.D.D.D.D.D.D.D.D.D.D.S.B.i.;.F J T ! J J J J x z z z ] t.v.S.D.D.D.D.D.D.D.D.D.D.D.D.D.D.",
"D.D.D.D.D.D.D.D.D.D.D.D.D.B.=.Q C U ,.z.H.4. .Y Y Y U J H x z z R *.v.D.D.D.D.D.D.D.D.D.D.D.D.D.",
"D.D.D.D.D.D.D.D.D.D.D.D.v.E H J ,.T.E.I.! H V V j V C z x H x z z g u f.S.D.D.D.D.D.D.D.D.D.D.D.",
"D.D.D.D.D.D.D.D.D.D.Z.u.S J Y 2.I.j.E t , , , , > e > @ & 9 g z z g f 0 ' C.D.D.D.D.D.D.D.D.D.D.",
"D.D.D.D.D.D.D.D.D.Z.k.G A U Y T G < 5 , v Z A A L L Z < @ + @ 0 g g f f c r.C.D.D.D.D.D.D.D.D.D.",
"D.D.D.D.D.D.D.D.D.r.M C Y U V t > 1 F >.F.7.....Y U U x h g ; O @ ; 0 f f u ' S.D.D.D.D.D.D.D.D.",
"D.D.D.D.D.D.D.D.b.e j U U j > > H 3.R.W.5...U J H J H z z h h z # X # 3 0 f 0 g.D.D.D.D.D.D.D.D.",
"D.D.D.D.D.D.D.M.d : V J V > y ~ z.L.9.X.J J H H H H x z h h h h h * o # ; 0 0 ) k.D.D.D.D.D.D.D.",
"D.D.D.D.D.D.S.' 0 0 H j = y U $.O.P P K V C H H H H h < G L Z < g g * X # ; 9 8 ( N.D.D.D.D.D.D.",
"D.D.D.D.D.D.M.N 0 g h - > J } P @.G.U.K.+.V C J H k R :.W A J L j f 0 + o * ; 8 w k.D.D.D.D.D.D.",
"D.D.D.D.D.S.r.: : g : o k  .K 1.Q.Y.5..... .v V k j | H z z z z x : : : o @ # ; ; ` M.D.D.D.D.D.",
"D.D.D.D.D.v.) * ; : + * U P l.P.,.J x k U Y } Z j Z H z z z z z h ; ; f # X + ; * w g.D.D.D.D.D.",
"D.D.D.D.D.y.3 & : @ o V ..-.8.#.x z z z z x J Y K H z z z z h f f # # ; ; o o # * & ` D.D.D.D.D.",
"D.D.D.D.D.` * @ ; O @ L n %.o.J z z z z z h x J H z z z z z f ; ; # # # f + X # & & ^ D.D.D.D.D.",
"D.D.D.D.D.s & $ # X 5  .n ..U x z z z z z z z z z z z z z g 0 0 # # # # f # o O # & 2 S.D.D.D.D.",
"D.D.D.D.C.w * @ @ o <  .n ..U z z z z z z z z z z z z z f 0 0 ; # # # + f # o O @ # 2 A.S.D.D.D.",
"D.D.D.C.C.3 & @ + O 1 L V ..U z z z z z z z z z z z z f 0 0 0 ; # + + + ; ; O X + # & C.A.D.D.D.",
"D.D.Z.C.C.* & + O o < V 1 ..U x z z h g g h z h h f f 0 0 0 ; ; # O + @ f ; O o O # & C.C.A.D.D.",
"D.Z.V.C.C.* # + O o - r ;  ...H z h f f 0 0 0 f ; 0 ; 0 0 0 ; # + X + # f # o X O # & C.C.C.A.D.",
"C.C.C.C.C.3 & + o o * : : K ..J z h f # # 0 0 f 0 0 0 0 0 8 # # O O + # f # O X o # & C.C.C.C.C.",
"C.C.C.C.C.6 & + O o # ; f < .. .z g 0 0 f f 0 # 0 0 0 0 ; # # + . + # ; ; # O o O # $ C.C.C.C.C.",
"C.C.C.C.C.a & + O X + ; : : L ..x g 0 0 0 0 0 f ; 0 0 ; # # + . o @ # 8 # # X O O # 6 C.C.C.C.C.",
"C.C.V.C.C._ & + o X o * ; f : K  .x f : 0 0 0 g f # # # # + X . O & 8 8 & O X o + $ ^ C.C.C.C.C.",
"C.C.C.C.C.q.2 @ o o o # * : : <  .J f : ; 0 0 # # # # # # o . o # 8 8 * # o X o + & _ C.C.C.C.C.",
"C.C.C.C.V.x.^ # o o o + # # ; : < I k : f 0 0 # # # # # X . X + 8 3 * & @ . o O @ q d.C.V.C.C.C.",
"C.C.C.C.C.V.0.# + o o o # # & & ; 1 I h f # # # # # # X . o # # 8 & & & X X o @ # _ m.C.C.C.C.C.",
"C.C.C.C.C.C.x.p # O O . o # & & & & 1 Z e * # # # @ o . o + * * # & # O . o O # 6 d.C.C.V.C.C.C.",
"C.C.C.C.C.C.C.{ # + o o . O # & & & $ = v : & @ + o o O @ # # # & # O . o o + 4 _ V.C.C.C.C.C.C.",
"C.C.C.C.C.C.C.x.q # O o o X + # & & & & > t * & O O O + # # & & # O X o o O $ a d.C.C.C.C.C.C.C.",
"C.C.C.C.C.C.C.C.x.2 @ O o o . X $ & & & # & - & @ @ @ & * # & & o . o o o @ 2 d.V.C.C.C.C.C.C.C.",
"C.C.C.C.C.C.C.C.C.0.i @ o o o X X O @ & & & $ $ @ @ * # # # + X X o o o + 6 _ C.C.C.C.C.C.C.C.C.",
"C.C.C.C.C.C.C.C.C.V.d.i @ O o o X X X o O + $ % @ # + + o X X X o o o + 6 w.M.C.C.C.C.C.C.C.C.C.",
"C.C.C.C.C.C.C.C.C.S.A.w.2 @ O o O o o X X o X X X o X X X X o o o o + % { C.Z.C.C.C.C.C.C.C.C.C.",
"C.C.C.C.C.C.C.C.S.D.D.D.V._ 6 @ O O o o o o o X o o o o o o O O @ 6 ) c.D.D.D.S.C.C.C.C.C.C.C.C.",
"C.C.C.V.C.C.A.D.D.D.D.D.D.M.` a $ + O O o o X o O o o o O O + @ p { m.D.D.D.D.D.A.C.C.C.C.C.C.C.",
"C.C.C.C.C.C.S.D.D.D.D.D.D.D.S.M.y./ 4 & @ @ $ % + + @ @ @ % ^ q.m.A.D.D.D.D.D.D.D.S.C.C.C.C.C.C.",
"C.C.C.C.C.S.D.D.D.D.D.D.D.D.D.D.D.b.a.&.m % % % 2 2 q ^ &.y.c.A.D.D.D.D.D.D.D.D.D.D.D.C.C.C.C.C.",
"C.C.C.A.D.D.D.D.D.D.D.D.D.D.D.D.D.D.D.D.D.D.D.D.D.D.D.D.D.D.D.D.D.D.D.D.D.D.D.D.D.D.D.S.C.C.C.C.",
"C.C.C.D.D.D.D.D.D.D.D.D.D.D.D.D.D.D.D.D.D.D.D.D.D.D.D.D.D.D.D.D.D.D.D.D.D.D.D.D.D.D.D.D.S.C.C.C.",
"C.C.S.D.D.D.D.D.D.D.D.D.D.D.D.D.D.D.D.D.D.D.D.D.D.D.D.D.D.D.D.D.D.D.D.D.D.D.D.D.D.D.D.D.D.S.C.C.",
"C.D.D.D.D.D.D.D.D.D.D.D.D.D.D.D.D.D.D.D.D.D.D.D.D.D.D.D.D.D.D.D.D.D.D.D.D.D.D.D.D.D.D.D.D.D.S.A.",
"D.D.D.D.D.D.D.D.D.D.D.D.D.D.D.D.D.D.D.D.D.D.D.D.D.D.D.D.D.D.D.D.D.D.D.D.D.D.D.D.D.D.D.D.D.D.D.S."
};
