/* XPM */
static char *result[] = {
/* columns rows colors chars-per-pixel */
"48 48 132 2 ",
"   c #9F2E19",
".  c #A22F1A",
"X  c #A6311A",
"o  c #AD341A",
"O  c #B1371C",
"+  c #B4391C",
"@  c #BB3C1C",
"#  c #AF3D23",
"$  c #B93F21",
"%  c #C13E1D",
"&  c #BE421D",
"*  c #BA4B1C",
"=  c #AB4028",
"-  c #B74527",
";  c #BA4527",
":  c #BC4C2F",
">  c #B44E32",
",  c #BE5335",
"<  c #C4411E",
"1  c #CC441F",
"2  c #C54C1E",
"3  c #CE4A1F",
"4  c #D0461F",
"5  c #D34B1F",
"6  c #C6521E",
"7  c #CB531F",
"8  c #D0541F",
"9  c #C44220",
"0  c #CB4621",
"q  c #C34E2E",
"w  c #C94D2B",
"e  c #D24720",
"r  c #D44A22",
"t  c #D94920",
"y  c #C85526",
"u  c #DE5321",
"i  c #D65C20",
"p  c #DE5A24",
"a  c #D4532C",
"s  c #C35D3D",
"d  c #CB5A38",
"f  c #D25832",
"g  c #D25F3B",
"h  c #E24E22",
"j  c #E45223",
"k  c #EB5323",
"l  c #E35D21",
"z  c #EB5B23",
"x  c #F05523",
"c  c #F15C23",
"v  c #DD6421",
"b  c #DF6D27",
"n  c #DB6328",
"m  c #DC7228",
"M  c #DC6B35",
"N  c #D7633D",
"B  c #DE633A",
"V  c #E36322",
"C  c #EC6324",
"Z  c #E56B21",
"A  c #E6682D",
"S  c #ED692A",
"D  c #F26323",
"F  c #F26923",
"G  c #EE7022",
"H  c #E97E2D",
"J  c #F37223",
"K  c #F57F23",
"L  c #F47A2E",
"P  c #E26335",
"I  c #E47430",
"U  c #ED7932",
"Y  c #F47A35",
"T  c #B96F54",
"R  c #BE7154",
"E  c #BF7E62",
"W  c #C05F42",
"Q  c #C46748",
"!  c #CF6D4C",
"~  c #D16340",
"^  c #D26A47",
"/  c #DD7148",
"(  c #C06C51",
")  c #C37355",
"_  c #C27C5F",
"`  c #C97E5E",
"'  c #D17756",
"]  c #DA7952",
"[  c #D37C5B",
"{  c #E17B41",
"}  c #F37248",
"|  c #EE8022",
" . c #F58223",
".. c #F68C23",
"X. c #F79333",
"o. c #D8935F",
"O. c #E1874B",
"+. c #EF834A",
"@. c #E8934A",
"#. c #E98B5B",
"$. c #F69256",
"%. c #F79E59",
"&. c #F8A055",
"*. c #CF8162",
"=. c #D18263",
"-. c #DC8F62",
";. c #D88E69",
":. c #CD9474",
">. c #CE9F7F",
",. c #D29474",
"<. c #D59D7C",
"1. c #F09063",
"2. c #F8A260",
"3. c #F9B07F",
"4. c #CFA585",
"5. c #D4AC8C",
"6. c #D4B08F",
"7. c #D5B195",
"8. c #D6B698",
"9. c #D7B999",
"0. c #D8BD9B",
"q. c #E8A981",
"w. c #F0B286",
"e. c #FABFAC",
"r. c #FBC491",
"t. c #F5C59B",
"y. c #FBC6A0",
"u. c #F8CAA1",
"i. c #FCD1A6",
"p. c #FDDFC0",
"a. c #F9E9DF",
"s. c #FFFAF6",
/* pixels */
"0.0.0.0.0.0.0.0.0.0.0.0.0.0.0.0.0.0.0.0.0.0.0.0.0.0.0.0.0.0.0.0.0.0.0.0.0.0.0.0.0.0.0.0.0.0.0.0.",
"0.0.0.0.0.0.0.0.0.0.0.0.0.0.0.0.0.0.0.0.0.0.0.0.0.0.0.0.0.0.0.0.0.0.0.0.0.0.0.0.0.0.0.0.0.0.0.0.",
"0.0.0.0.0.0.0.0.0.0.0.0.0.0.0.0.0.0.0.0.0.0.0.8.0.0.0.0.0.0.0.0.0.0.0.0.0.0.0.0.0.0.0.0.0.0.0.0.",
"0.0.0.0.0.0.0.0.0.0.0.0.0.0.0.0.0.0.0.0.0.0.7.7.7.7.0.0.0.0.0.0.0.0.0.0.0.0.0.0.0.0.0.0.0.0.0.0.",
"0.0.0.0.0.0.0.0.0.0.0.0.0.0.0.0.0.0.0.0.0.8.7.7.7.7.8.0.0.0.0.0.0.0.0.0.0.0.0.0.0.0.0.0.0.0.0.0.",
"0.0.0.0.0.0.0.0.0.0.0.0.0.0.0.0.0.0.0.,.a r r r r r p C / 8.0.0.0.0.0.0.0.0.0.0.0.0.0.0.0.0.0.0.",
"0.0.0.0.0.0.0.0.0.0.0.0.0.0.0.0.0.0.<.k j k h k j l F F x ] 7.0.0.0.0.0.0.0.0.0.0.0.0.0.0.0.0.0.",
"0.0.0.0.0.0.0.0.0.0.0.0.0.0.0.0.0.5.P x x x x x z Y 2. .F z ;.0.0.0.0.0.0.0.0.0.0.0.0.0.0.0.0.0.",
"0.0.0.0.0.0.0.0.0.0.0.0.0.0.0.0.0.-.D D D D D D S y.+.V C c B 7.0.0.0.0.0.0.0.0.0.0.0.0.0.0.0.0.",
"0.0.0.0.0.0.0.0.0.0.0.0.0.0.0.0.7.@.X.X.X.X.X.H $.1.6 * & x j <.9.0.0.0.0.0.0.0.0.0.0.0.0.0.0.0.",
"0.0.0.0.0.0.0.0.0.0.0.0.0.0.9.7.5.t.i.i.u.i.t.#.J y l J 8 1 j [ 7.9.0.0.0.0.0.0.0.0.0.0.0.0.0.0.",
"0.0.0.0.0.0.0.0.0.0.0.0.0.0.9.7.-...........| V v n &. .D % 4 N 7.9.0.0.0.0.0.0.0.0.0.0.0.0.0.0.",
"0.0.0.0.0.0.0.0.0.0.0.0.0.7.7.7.P c D c c D j Z 8 3.%.F c h % a ,.7.8.0.0.0.0.0.0.0.0.0.0.0.0.0.",
"0.0.0.0.0.0.0.0.0.0.0.0.8.7.7.5.k x x x x x u C M r.L F c k < r [ 7.7.7.0.0.0.0.0.0.0.0.0.0.0.0.",
"0.0.0.0.0.0.0.0.0.0.0.9.7.7.7.,.h t t h t h t v I m C F j u r < ! 7.7.7.9.0.0.0.0.0.0.0.0.0.0.0.",
"0.0.0.0.0.0.0.0.0.0.8.7.7.7.7.=.5 t t t t r t r Z t.{ C M V 5 % d 7.7.7.7.8.0.0.0.0.0.0.0.0.0.0.",
"0.0.0.0.0.0.0.0.9.7.7.7.7.7.7.' t t t t t t t 0 O.p.U p A z 3 % w 7.7.7.7.7.7.9.9.0.0.0.0.0.0.0.",
"0.0.0.0.0.0.0.0.9.7.7.7.7.7.7.^ t t t t t t 1 ~ a.s.w.y c k 1 @ < 7.7.7.7.7.7.7.0.0.0.0.0.0.0.0.",
"0.0.0.0.0.0.9.7.7.7.7.7.7.7.7.g t t 5 t 5 5 % 6 q.e.c i k k 1 @ % 7.7.7.7.7.7.7.8.9.0.0.0.0.0.0.",
"0.0.0.0.0.0.7.7.7.7.7.7.7.7.7.f t t t t 5 4 % 6 U } x C x t % @ % 7.7.7.7.7.7.7.7.8.0.0.0.0.0.0.",
"0.0.0.0.9.9.7.7.7.7.7.7.7.7.7.a t 5 t 5 h % @ 6 F x x x x 5 % @ @ 7.7.7.7.7.7.7.7.7.8.0.0.0.0.0.",
"0.0.0.0.7.7.7.7.7.7.7.7.7.7.7.r t t t 4 h % & 7 J x x x k 4 % % $ 7.7.7.7.7.7.7.7.7.7.8.9.0.0.0.",
"0.0.0.7.7.7.7.7.7.7.7.7.7.7.7.% % % % % % % % 6 J x x x h 4 @ @ O 7.7.7.7.7.7.7.7.7.7.7.8.0.0.0.",
"0.0.9.7.7.7.7.7.7.7.7.7.7.7.7.@ @ @ % % % % @ 1 J x k x t 1 @ % o 7.7.7.7.7.7.7.7.7.7.7.7.9.0.0.",
"0.7.7.7.7.7.7.7.7.7.7.7.7.7.7.+ @ @ @ @ @ @ @ 2 F k t t t 1 + @ O 7.7.7.7.7.7.7.7.7.7.7.7.7.9.9.",
"8.7.7.7.7.7.7.7.7.7.7.7.7.7.7.$ @ @ @ @ @ @ + 1 Z j t t t % + @ O 7.7.7.7.7.7.7.7.7.7.7.7.7.7.8.",
"7.7.7.7.7.7.7.7.7.7.7.7.7.7.7.$ @ @ @ @ @ @ + < V t 5 t 4 + + @ O 7.7.7.7.7.7.7.7.7.7.7.7.7.7.7.",
"7.7.7.7.7.7.7.7.7.7.7.7.7.7.7.; @ + @ @ @ @ + % v j 5 t 4 O @ @ O 7.7.7.7.7.7.7.7.7.7.7.7.7.7.7.",
"7.7.7.7.7.7.7.7.7.7.7.7.7.7.7.: @ @ @ @ @ @ O @ 8 j t t % o @ @ O 7.7.7.7.7.7.7.7.7.7.7.7.7.7.7.",
"7.7.7.7.7.7.7.7.7.7.7.7.7.7.7.q @ @ @ @ @ @ O @ 8 C t 4 % X % + O 7.7.7.7.7.7.7.7.7.7.7.7.7.7.7.",
"7.7.7.7.7.7.7.7.7.7.7.7.7.7.7.W @ @ @ @ @ @ O + 1 Z t % @ o % O $ 7.7.7.7.7.7.7.7.7.7.7.7.7.7.7.",
"7.7.7.7.7.7.7.7.7.7.7.7.7.7.6.Q O O O o O O + O < 6 5 % o @ % O # 7.7.7.7.7.7.7.7.7.7.7.7.7.7.7.",
"7.7.7.7.7.7.7.7.7.7.7.7.7.7.7.E o o O o o o + o % < 3 < X @ % o , 7.7.7.7.7.6.7.7.7.7.7.7.7.7.7.",
"7.7.7.7.7.7.7.7.7.7.7.7.7.7.7.:.o o o o o o + o % < 2 @ o < @ O Q 9.7.7.7.7.7.7.7.7.7.7.7.7.7.7.",
"7.7.7.7.7.7.7.7.7.7.7.7.8.9.9.5.o o o o o o + + + % < + + < O O ` 0.9.8.7.7.7.7.7.7.7.7.7.7.7.7.",
"7.7.7.7.7.7.7.7.7.7.7.7.9.0.9.9.# o o o o o O O o < & @ @ @ o - :.0.0.9.7.7.7.7.7.7.7.7.7.7.7.7.",
"7.7.7.7.7.7.7.7.7.7.8.9.0.0.0.0.R o o o o o O + o @ & O < O X s 6.0.0.0.0.7.7.7.7.7.7.7.7.7.7.7.",
"7.7.7.7.7.7.7.7.7.8.9.0.0.0.0.0.>.O o o o o o + o X @ < @ X O ) 0.0.0.0.0.9.8.7.7.7.7.7.7.7.7.7.",
"7.7.7.7.7.7.7.7.7.9.0.0.0.0.0.0.7.> o o o o o + O X X o . o O :.0.0.0.0.0.0.9.7.7.7.7.7.7.7.7.7.",
"7.7.7.7.7.7.7.7.9.0.0.0.0.0.0.0.0.( o o O o o o @ o X X o o : 7.0.0.0.0.0.0.0.9.7.7.7.7.7.7.7.7.",
"7.7.7.7.7.7.8.0.0.0.0.0.0.0.0.0.0.4.= X X X X X O + o o o + ` 0.0.0.0.0.0.0.0.0.7.7.7.7.7.7.7.7.",
"7.7.7.7.7.7.9.0.0.0.0.0.0.0.0.0.0.0.E           X & + o + s 5.0.0.0.0.0.0.0.0.0.0.9.7.7.7.7.7.7.",
"7.7.7.7.7.9.0.0.0.0.0.0.0.0.0.0.0.0.0.T           X @ < q 5.0.0.0.0.0.0.0.0.0.0.0.0.9.7.7.7.7.7.",
"7.7.7.8.0.0.0.0.0.0.0.0.0.0.0.0.0.0.0.0.0.0.0.0.0.0.0.0.0.0.0.0.0.0.0.0.0.0.0.0.0.0.0.9.7.7.7.7.",
"7.7.7.9.0.0.0.0.0.0.0.0.0.0.0.0.0.0.0.0.0.0.0.0.0.0.0.0.0.0.0.0.0.0.0.0.0.0.0.0.0.0.0.0.9.7.7.7.",
"7.7.9.0.0.0.0.0.0.0.0.0.0.0.0.0.0.0.0.0.0.0.0.0.0.0.0.0.0.0.0.0.0.0.0.0.0.0.0.0.0.0.0.0.0.9.7.7.",
"7.0.0.0.0.0.0.0.0.0.0.0.0.0.0.0.0.0.0.0.0.0.0.0.0.0.0.0.0.0.0.0.0.0.0.0.0.0.0.0.0.0.0.0.0.0.0.7.",
"9.0.0.0.0.0.0.0.0.0.0.0.0.0.0.0.0.0.0.0.0.0.0.0.0.0.0.0.0.0.0.0.0.0.0.0.0.0.0.0.0.0.0.0.0.0.0.0."
};
