/* XPM */
static char *result[] = {
/* columns rows colors chars-per-pixel */
"48 48 201 2 ",
"   c #0D0415",
".  c #0C0A1C",
"X  c #110516",
"o  c #110619",
"O  c #1B0618",
"+  c #14091D",
"@  c #1A0D1D",
"#  c #23071B",
"$  c #220818",
"%  c #2C091C",
"&  c #3A0C1D",
"*  c #0C0E21",
"=  c #170B20",
"-  c #1B0D24",
";  c #0B1427",
":  c #0D1A2E",
">  c #1F1028",
",  c #151D34",
"<  c #21112A",
"1  c #261828",
"2  c #2D1D30",
"3  c #301E33",
"4  c #3D0F21",
"5  c #0A293B",
"6  c #092237",
"7  c #15253E",
"8  c #28212C",
"9  c #3C2A38",
"0  c #55111E",
"q  c #5C141C",
"w  c #4C141F",
"e  c #621619",
"r  c #661B1C",
"t  c #691B1A",
"y  c #6B241C",
"u  c #74251C",
"i  c #7D2B1D",
"p  c #460C24",
"a  c #4B0E22",
"s  c #500F20",
"d  c #4F162B",
"f  c #521020",
"g  c #571827",
"h  c #681F20",
"j  c #641D22",
"k  c #5E2737",
"l  c #46373A",
"z  c #60232E",
"x  c #672D33",
"c  c #67313D",
"v  c #7C3B36",
"b  c #764334",
"n  c #083E58",
"m  c #0D3149",
"M  c #3D3747",
"N  c #4B3942",
"B  c #523E44",
"V  c #6F3D45",
"C  c #743C41",
"Z  c #08445D",
"A  c #074B66",
"S  c #055A77",
"D  c #105E78",
"F  c #07506D",
"G  c #0C637B",
"H  c #3C6067",
"J  c #524343",
"K  c #5C4B4A",
"L  c #5B4747",
"P  c #5D4D52",
"I  c #43575F",
"U  c #78454A",
"Y  c #61514D",
"T  c #6B5753",
"R  c #755E5C",
"E  c #715A55",
"W  c #624D4E",
"Q  c #78615D",
"!  c #49767D",
"~  c #7C6762",
"^  c #82423C",
"/  c #864D47",
"(  c #8E5E5C",
")  c #895754",
"_  c #8E5B4C",
"`  c #8F645F",
"'  c #97655B",
"]  c #B1795D",
"[  c #986962",
"{  c #8B7569",
"}  c #92776A",
"|  c #927C6E",
" . c #9E7169",
".. c #88716A",
"X. c #A77868",
"o. c #9B8273",
"O. c #A78778",
"+. c #B48B78",
"@. c #B3937F",
"#. c #BC927C",
"$. c #AB947D",
"%. c #C28561",
"&. c #026482",
"*. c #006C8B",
"=. c #046B85",
"-. c #07738A",
";. c #006F90",
":. c #017393",
">. c #00799B",
",. c #176B82",
"<. c #357989",
"1. c #247589",
"2. c #068499",
"3. c #238198",
"4. c #0183A4",
"5. c #008CA7",
"6. c #0088AC",
"7. c #0093AE",
"8. c #008CB1",
"9. c #0093B4",
"0. c #0095BC",
"q. c #009CB8",
"w. c #188EA6",
"e. c #2A92A9",
"r. c #02A1B9",
"t. c #3BABBD",
"y. c #5E868A",
"u. c #538188",
"i. c #4B868A",
"p. c #718C8B",
"a. c #54AFB7",
"s. c #78B8B8",
"d. c #009DC5",
"f. c #00A3CB",
"g. c #03A5C6",
"h. c #00B5CE",
"j. c #02B8CE",
"k. c #00ABD5",
"l. c #00AED8",
"z. c #00B4DD",
"x. c #00B8DD",
"c. c #17B6D5",
"v. c #27BAC8",
"b. c #30B4CE",
"n. c #24B4D2",
"m. c #00B7E0",
"M. c #00BBE1",
"N. c #48BEC6",
"B. c #60B7C0",
"V. c #02C4DB",
"C. c #39D6DD",
"Z. c #33C7D5",
"A. c #00C2E5",
"S. c #00CAE2",
"D. c #00C6E8",
"F. c #00CBEA",
"G. c #00D2ED",
"H. c #00D8EF",
"J. c #00D5F0",
"K. c #00DEF4",
"L. c #0CDCF0",
"P. c #23D7E5",
"I. c #47D1D5",
"U. c #66CFCB",
"Y. c #8E978E",
"T. c #9A9B8F",
"R. c #B69E84",
"E. c #BD9C86",
"W. c #BD9582",
"Q. c #A09D90",
"!. c #AF9782",
"~. c #BCA489",
"^. c #B1A491",
"/. c #8EB1AD",
"(. c #9BB3A9",
"). c #95BCB1",
"_. c #8EACA2",
"`. c #A5B7A8",
"'. c #B4BCA6",
"]. c #B8B4A1",
"[. c #A5ADA0",
"{. c #C29C85",
"}. c #C39F89",
"|. c #C79B81",
" X c #C3A98D",
".X c #CEA88F",
"XX c #C6A489",
"oX c #CCAE92",
"OX c #D0AC91",
"+X c #CCB399",
"@X c #D5B195",
"#X c #D6B698",
"$X c #D6B999",
"%X c #D8BD9B",
"&X c #D2B897",
"*X c #C6BEA1",
"=X c #90C7B9",
"-X c #8EC0B5",
";X c #A2C5B2",
":X c #B4C3AA",
">X c #C0C1A5",
/* pixels */
"%X%X%X%X%X%X%X%X%X%X%X%X%X%X%X%X%X%XXX+.` U a q e e e e t r q x p s e e e e e e e e e / %X%X%X%X",
"%X%X%X%X%X%X%X%X%X%X%X%X%X%X%X%X%X%X( z 0 0 p p p p a a e i i q r a e e e e e e e e e h %X%X%X%X",
"%X%X%X%X%X%X%X%X%X%X%X%X%X%X%X%X%X%X%X%XE.a q e e q f q g f f a t p a a s e e e e e e e %X%X%X%X",
"%X%X%X%X%X%X%X%X%X%X%X%X%X%X%X%X%X%X%X%X&XV q e e e f e e e q a 0 f 0 s a a a a s q e e ^ oX%X%X",
"%X%X%X%X%X%X%X%X%X%X%X%X%X%X%X%X%X%X%X%X%XU g e e e e q e e e a q e e e e e a s s p a 0 e |.%X%X",
"%X%X%X%X%X%X%X%X%X%X%X%X%X%X%X%X%X%X%X%X&XU a e e e e e e e e a q e e e e 0 e e e e 0 s p d ` %X",
"%X%X%X%X%X%X%X%X%X%X%X%X%X%X%X%X%X%X%X@X@X .p q q e e e e e e s e e e e e e e e e e e e j +.}.%X",
"%X%X%X%X%X%X%X%X%X%X%X%X%X%X%X%X%X%X@X@X@XX.a q e e e e e e e s e e e e e e e e e e e e X.%X%X%X",
"%X%X%X%X%X%X%X%X%X%X%X%X%X%X%X%X%X@X@X@X@X( p e e e q e e e e a 0 0 0 q e e e e e e e e }.%X%X%X",
"%X%X%X%X%X%X%X%X%X%X%X%X%X%X%X%X@X@X@X@X@XU p e e e q q e e q a e e e e e e e e e e e e %X%X%X%X",
"%X%X%X%X%X%X%X%X%X%X%X%X%X%X%X@X@X@X@X@XX.V s q q q e q e e e a q e e e e e e e e e e v %X%X%X%X",
"%X%X%X%X%X%X%X%X%X%X%X%X%X%X$X@X@X@X@XC j f s a a a a a u r 0 a q e e e e e e e e e e _ %X%X%X%X",
"%X%X%X%X%X%X%X%X%X%X%X%X%X@X@X@X@X@X@X.XW.[ s 0 e e q f q t u e 0 q e e e q e e e e e XX%X%X%X%X",
"%X%X%X%X%X%X%X%X%X%X%X%X#X@X@X@X@X@X@X@X@X@Xc a e e e e q a a j a p a s e 0 e e e e v %X%X%X%X%X",
"%X%X%X%X%X%X%X%X%X%X%X$X@X@X@X@X@X@X@X@X@X@X@.g 0 e e e e e / a a s s a a a s a 0 g ) #X%X%X%X%X",
"%X%X%X%X%X%X%X%X%X%X#X@X@X@X@X@X@X@X@X@X@X@X@X( a q 0 e e e  .k s e e e e q 0 q 0 f a V %X%X%X%X",
"%X%X%X%X%X%X%X%X%X@X@X@X@X@X@X@X@X@X@X@X@X@X@X|.d f e e e e @X( p q q e e e e e e e v %X%X%X%X%X",
"%X%X%X%X%X%X%X%X#X@X@X@X@X@X@X@X@X@X@X@X@X@X@X@X( a e e e ^ @X( a 0 e e e e e e e X.@X%X%X%X%X%X",
"%X%X%X%X%X%X%X#X@X@X@X@X@X@X@X@X@X@X@X@X@X@X@X@X}.k p e e ' @X( p 0 e e e e e r %.$X%X%X%X%X%X%X",
"%X%X%X%X%X%X@X@X@X@X@X@X@X@X@X@X@X@X@X@X@X@X@X@X@X` w.g q ) a p a e e e e e v @X$X&X%X%X%X%X%X%X",
"%X%X%X%X%X#X@X@X@X@X@X@X@X@X@X@Xy.oX@X@X@X@X@X@X}.c.M 0 a p a 0 q e e e e ^ .X@X#X#X#X%X%X%X%X%X",
"%X%X%X%X@X@X@X@X@X@X@X@X@X@X@X@XY.y.@X@X@X'.).@X[ A.M - + X O - 4 a x / +.@X@X@X@X@X@X#X%X%X%X%X",
"%X%X%X@X@X@X@X@X@X@X@X@X@X@X@X@Xu.b.p.Z.P.L.V.t.e.d.: X + o     = < 2 l R {.@X@X@X@X@X@X#X%X%X%X",
"%X%X%X@X@X@X@X@X@X@X@X@X@X@X@X@Xy.h.r.J.D.J.S S.A.M.S   =         = > < - R @X@X@X@X@X@X@X#X%X%X",
"%X@X@X@X@X@X@X@X@X@X@X@X@X@X@X@X@X(.+XN.x.=.r.j.&.Z .   -   @ o +   o o   R @X@X@X@X@X@X@X@X#X$X",
"@X@X@X@X@X@X@X@X@X@X@X@X@X@X@X@X@X@X@Xi.j.5 K.S .           - = > o o     R @X@X@X@X@X@X@X@X@X@X",
"@X@X@X@X@X@X@X@X@X@X@X@X@X@X@X#X@X@X&XI.j.V.-.6   X # X     = = - > o     } @X@X@X@X@X@X@X@X@X@X",
"@X@X@X@X@X@X@X@X@X@X@X@X@X|.%.] @X@X&XI.V.2.. =.  & 0 % o % o = + < > o   K E.@X@X@X@X@X@X@X@X@X",
"@X@X@X@X@X@X@X@X@X@X@X@XOX_ b u @X@X@X*X'.I 6 A   % % O $ O + @   < < > o   1 T @X@X@X@X@X@X@X@X",
"@X@X@X@X@X@X@X@X@X@X@X@X@X] y e @X].$X%X%XB m 5   # # O % & - =   < < < = o - < E.@X@X@X@X@X@X@X",
"@X@X@X@X@X@X@X@X@X@X@X@X@X%.b {.:X;X;X:X#XN = = X p p X % $ - =   < < < < o o   !.@X@X@X@X@X@X@X",
"@X(./.@X@X@X].[.@X@X@X&X%Xo.L '.C.;XU.*XR < < = o % O O & % < =   < < < < -   + {.@X@X@X@X.X} B ",
"Z.m.m.d.y.@X3.k.[.@X@X@X@X..H K.>X>X%X| - < < @   o X   X - < =   < < < < < + = J O.@XOX@X!.l }.",
"K.K.J.z.4.oX<.*.T.@X@X+X).a.C.J.).%X%XK X   o X       X > < < =   < < < < < = = > 2 M 9 W W.L @X",
"K.K.K.M.d.Y.^.Y.@X(.a.I.K.K.J.m.>X%X%XJ               o o + < +   < < < > > > o > > = o X 2 9 @X",
"K.K.H.k.<.@X@X@XQ.8.G.K.K.K.m.>.%X%XT L K l 8               - @   < o   o - < o < =       o l @X",
"K.K.v._.oX@X@X@X1.S.K.K.K.D.l.;.%X%XK ~.%X%X&X| 8             o o =         - o +           } @X",
"*.5.,.9.e.`.Q.<.5.K.K.K.K.m.6.! %X~.J %X%X%XO.P 1               o           o o X         E @X@X",
"G &.>.>.f.d.-.4.H.K.K.K.K.k.D Q { ..Y %X&X~ 1 +                                         + W.@X@X",
"&.>.d.k.m.f.G.L.K.J.A.K.J.>.1.~.T | %X XN < .                                   o     1 o.@X@X@X",
"x.G.A.H.J.K.K.K.K.M.M.K.q.*.n.%X XP Z F m <                       o o         o <   X !.@X@X@X@X",
"H.K.H.h.J.K.K.K.J.A.F.z.4.f.B.%Xo.+ = 7 7 -                       o =         + < - l oX@X@X@X@X",
"K.9.5.V.K.K.K.K.K.J.z.l.l.b.'.%Xo.      @ -   n ;                 > =         > < < { @X@X@X@X@X",
"8.*.G.K.K.S.K.J.G.D.z.M.F.s.%X%X X, ;   X     m n   + o         . > =       - < < - | $X@X@X@X@X",
"*.V.K.H.5.J.F.A.J.m.m.M.K.=X%X%X%X{ ; Z ;     ; S 6 <           - < =       - > < < !.%X$X@X@X@X",
"V.K.K.7.q.m.M.G.z.k.m.F.K.=X%X%X%X%XJ F :.      Z Z +           < < =         - < o.%X%X%X$X@X@X",
"K.K.K.:.*.m.F.M.8.m.J.J.F.).%X%X%X%Xo.6 >.Z .   Z F o         @ < 1 J l @     = } %X%X%X%X%X%X@X",
"K.K.K.K.z.F.F.6.*.>.f.M.A.c.'.%X%X%X$.A ;.5 Z , S D 9         > < ~.%X%X XR.R.~.%X%X%X%X%X%X%X%X"
};
