/* XPM */
static char *result[] = {
/* columns rows colors chars-per-pixel */
"48 48 182 2 ",
"   c #0D0415",
".  c #110619",
"X  c #14091D",
"o  c #1A0D1D",
"O  c #170618",
"+  c #210816",
"@  c #2E0B17",
"#  c #22071A",
"$  c #2A081D",
"%  c #3B0E17",
"&  c #3F0E1D",
"*  c #340C18",
"=  c #170B20",
"-  c #1B0D24",
";  c #1F1028",
":  c #1D1220",
">  c #2F0E27",
",  c #270B21",
"<  c #3A0D25",
"1  c #231824",
"2  c #21112A",
"3  c #281228",
"4  c #261829",
"5  c #2C1B2C",
"6  c #351423",
"7  c #3E1322",
"8  c #2D1D31",
"9  c #351D32",
"0  c #2E202A",
"q  c #30222D",
"w  c #382735",
"e  c #3F2C3C",
"r  c #392A34",
"t  c #3F3035",
"y  c #410F17",
"u  c #440E1C",
"i  c #4C1119",
"p  c #55111E",
"a  c #5C141C",
"s  c #5B1B19",
"d  c #621619",
"f  c #5B2419",
"g  c #6B291D",
"h  c #6E221E",
"j  c #74231A",
"k  c #7E311E",
"l  c #470C24",
"z  c #4B0E22",
"x  c #500F20",
"c  c #4C1123",
"v  c #521020",
"b  c #5B1720",
"n  c #531A2D",
"m  c #571E30",
"M  c #681F20",
"N  c #542729",
"B  c #462736",
"V  c #5E2737",
"C  c #5F2938",
"Z  c #46333C",
"A  c #46383A",
"S  c #6E2525",
"D  c #63232C",
"F  c #742D2B",
"G  c #75302D",
"H  c #7C352E",
"J  c #682C33",
"K  c #6D333B",
"L  c #613634",
"P  c #7F3D38",
"I  c #7C3935",
"U  c #122942",
"Y  c #4C3842",
"T  c #493542",
"R  c #523D46",
"E  c #6F3A43",
"W  c #074E6A",
"Q  c #045673",
"!  c #015D7A",
"~  c #524242",
"^  c #5D464D",
"/  c #5C4B4C",
"(  c #5B4747",
")  c #624D4C",
"_  c #77464B",
"`  c #7B484C",
"'  c #784449",
"]  c #64524E",
"[  c #674F54",
"{  c #665351",
"}  c #6D5B54",
"|  c #715B55",
" . c #725C5A",
".. c #726058",
"X. c #7C655C",
"o. c #4C6C73",
"O. c #56747A",
"+. c #7E6B60",
"@. c #802C1B",
"#. c #82311C",
"$. c #AD6236",
"%. c #B56535",
"&. c #854944",
"*. c #844844",
"=. c #87584F",
"-. c #8E5E5C",
";. c #875955",
":. c #8F645F",
">. c #9B6357",
",. c #99675C",
"<. c #A66042",
"1. c #AC6445",
"2. c #A76851",
"3. c #A36E5D",
"4. c #B97B5B",
"5. c #9A6C66",
"6. c #966863",
"7. c #8F736B",
"8. c #92776B",
"9. c #947F6E",
"0. c #9E7168",
"q. c #997C71",
"w. c #8B6965",
"e. c #A3796E",
"r. c #AE7D6B",
"t. c #A57161",
"y. c #B17B66",
"u. c #9F8976",
"i. c #9A8472",
"p. c #B18069",
"a. c #B98166",
"s. c #A58F79",
"d. c #A88A79",
"f. c #AD8376",
"g. c #BA8E7A",
"h. c #B78C79",
"j. c #AA927E",
"k. c #BB967F",
"l. c #CA997A",
"z. c #027698",
"x. c #177C97",
"c. c #2B6A80",
"v. c #0C8AAB",
"b. c #178EAC",
"n. c #1791AD",
"m. c #0092B7",
"M. c #0093B9",
"N. c #6A979A",
"B. c #539CA7",
"V. c #019FC8",
"C. c #019BC2",
"Z. c #00A0C8",
"A. c #12BCD5",
"S. c #00B7E0",
"D. c #00BDE3",
"F. c #8E978E",
"G. c #B79683",
"H. c #BD9582",
"J. c #B99C85",
"K. c #B69E84",
"L. c #A59F90",
"P. c #BCA08B",
"I. c #8EABA5",
"U. c #8EADA8",
"Y. c #8EB1AD",
"T. c #A5BBAA",
"R. c #BEB6A0",
"E. c #C29780",
"W. c #C49F89",
"Q. c #C29A85",
"!. c #C4A58C",
"~. c #C4AA8E",
"^. c #CCA98E",
"/. c #CDA388",
"(. c #CCAF91",
"). c #CAB49B",
"_. c #CDB394",
"`. c #D5B195",
"'. c #D6B698",
"]. c #D7B999",
"[. c #D8BD9B",
"{. c #8EC0B5",
/* pixels */
"[.[.[.[.[.[.[.[.[.[.[.[.[.[.[.[.[.[.[.[.[.[.[.[.[.[.[.[.[.[.[.[.[.[.[.[.[.[.[.[.[.[.[.[.[.[.[.[.",
"[.[.[.[.[.[.[.[.[.[.[.[.[.[.[.[.[.[.[.[.[.[.[.[.[.[.[.[.[.[.[.[.[.[.[.[.[.[.[.[.[.[.[.[.[.[.[.[.",
"[.[.[.[.[.[.[.[.[.[.[.[.[.[.[.[.[.[.[.[.[.[.[.`.].[.[.[.[.[.[.[.[.[.[.[.[.[.[.[.[.[.[.[.[.[.[.[.",
"[.[.[.[.[.[.[.[.[.[.[.[.[.[.[.[.[.[.[.[.[.[.`.`.`.'.[.[.[.[.[.[.[.[.[.[.[.[.[.[.[.[.[.[.[.[.[.[.",
"[.[.[.[.[.[.[.[.[.[.[.[.[.[.[.[.[.[.[.[.[.'.`.`.`.`.`.[.[.[.[.[.[.[.[.[.[.[.[.[.[.[.[.[.[.[.[.[.",
"[.[.[.[.[.[.[.[.[.[.[.[.[.[.[.[.[.[.[.[.].`.`.`.`.`.`.'.[.[.[.[.[.[.[.[.[.[.[.[.[.[.[.[.[.[.[.[.",
"[.[.[.[.[.[.[.[.[.[.[.[.[.[.[.[.[.[.[.`.`.`.`.`.`.`.`.`.].[.[.[.[.[.[.[.[.[.[.[.[.[.[.[.[.[.[.[.",
"[.[.[.[.[.[.[.[.[.[.[.[.[.[.[.[.[.[.'.`.`.`.`.`.`.`.`.`.`.`.[.[.[.[.[.[.[.[.[.[.[.[.[.[.[.[.[.[.",
"[.[.[.[.[.[.[.[.[.[.[.[.[.[.[.[.[.`.`.`.`.`.`.`.`.`.`.`.`.`.].[.[.[.[.[.[.[.[.[.[.[.[.[.[.[.[.[.",
"[.[.[.[.[.[.[.[.[.[.[.[.[.[.[.].`.`.`.`.`.`.`.`.`.`.`.`.`.`.`.'.].[.[.[.[.[.[.[.[.[.[.[.[.[.[.[.",
"[.[.[.[.[.[.[.[.[.[.[.[.[.[.[.`.`.`.`.`.`.`.`.`.`.`.).T.`.`.`.`.'.[.[.[.[.[.[.[.[.[.[.[.[.[.[.[.",
"[.[.[.[.[.[.[.[.[.[.[.[.[.[.].`.`.`.`.`.`.`.`.`.I.A.o.C.I.`.`.`.`.].[.[.[.[.[.[.[.[.[.[.[.[.[.[.",
"[.[.[.[.[.[.[.[.[.[.[.[.[.'.`.`.`.`.`.`.`.`.`.`.F.Q z.W O.`.`.).Y.Y.).].[.[.[.[.[.[.[.[.[.[.[.[.",
"[.[.[.[.[.[.[.[.[.[.[.[.`.`.`.`.`.`.`.`.`.`.`.`.`.  Q D.D.B.{.b.b.I.P.'.[.[.[.[.[.[.[.[.[.[.[.[.",
"[.[.[.[.[.[.[.[.[.[.[.'.`.`.`.`.`.`.`.G.[ w q w Z     Z.M.z.D.m.N.g.F `.].[.[.[.[.[.[.[.[.[.[.[.",
"[.[.[.[.[.[.[.[.[.[.'.`.`.`.`.W.e.q.^ 2 2 O -       = U ! x.Z.v.L.&.j `.`.'.[.[.[.[.[.[.[.[.[.[.",
"[.[.[.[.[.[.[.[.[.'.`.`.`.`.`.^ 3 2 2 2 - = =     = 2 2 c.L.`.`.^.M b _ 5.H.'.[.[.[.[.[.[.[.`.(.",
"[.[.[.[.[.[.[.[.].`.`.`.`.`.H.X . = 2 2 = ; .   . 2 2 2 9 Q.`./.K x b l l l J E :.[.[.[.[.].3.,.",
"[.[.[.[.[.^.k.`.`.`.`.`.`.W.;.O     X 2 O , O   = ; . = = R W.-.l z l a M a x z l _ e.^.[.r.@.:.",
"[.[.[.[.[.` ;.`.!.Y 2 2 B < l >       = $ l #   .         = w.n x x l v a d a d v l l l 6.S M [.",
"[.[.[.[.[.0.J `.)   . - 2 2 2 -       < O O   = .         = V z d a l a d d d a d d v l x h J ].",
"[.[.[.[.`.H.z K #       - 2 2 .       . .               & l l x a a l a d d d a d d d d l x z J ",
"[.[.[.'.`.` p x u       . 2 -         ; -   .     : Z b d x x d a a l a d d d a d d d a l l x z ",
"[.[.].`.6.l z z p         = .       O 2 - - ; .   } `.^.F d d d d a l x a d d d d d d x l M d a ",
"[.`.`.f.l z a l a +               . ; 2 ; 2 ; .   ] `.`.E.P G S d a l b d a d d d d a z z d d d ",
"`.`.-.z x d d x p %               = 2 ; 2 2 2 X   4 8.8.^ e T  .d d l a d d d d d d p l a d d a ",
"`.e.l x a d d d z d O             ; = X 2 ; 2 =   X 2 2 2 .   6 &.d z a d d d d v a z z d d d d ",
"h.i d d p p y @ # * + .         X X   - ; ; 2 2 X   - 2 -   . 0 E.M z a d d d d d a z v d d d d ",
"V &.d d i @ y i i & % * o   .         ; X ; ; 2 2 =   ; .     5 `.t.z v d d d d d v z d d d d d ",
"`.'.g.I a * d p c < 7 6 ;   X .     = -   X X = ; ;   . .     0 `.`.E b d d d d d z x d d d d Q.",
"`.l.4.a.3.7 s 6 2 2 2 2 X X X       =             ; .         | `.`.6.*.>.>.S d a z d d F >.E.`.",
"/.$.#.H `.A =.B 2 2 2 2 X 2 X     . X       X               o !.`.`.`.h.`.`./.*.x a M r.`.`.`.`.",
"`.N g L f.X.8.} ; ; 2 2 2 X       .       . ;               ..[.]._.`.`.`.`.`.G.m r.l._.`.`.`.`.",
"`.y.y.X.( ) 8.k.2 2 2 ; X         =     = 2 ; .             i.[.[.].`.`.`.`.4.$.,.`.`.`.`.`.`.`.",
"`.`.'.`.`.`.`.`.T 2 2 -                 ; ; -               i.[.[.[.]._.`.`.g %.1.`.`.`.`.`.`.`.",
"`.`.`.`.`.`.`.`.^ 2 2 =               . - ;             . i.X.[.[.[.[.[.`.8.s f g.`.`.`.`.`.`.`.",
"`.`.`.`.`.`.`.`.d.2 ; =             . ; ; ;             ~ [.} j.[.[.[.[.~.t 2.#.f.`.`.`.`.`.`.`.",
"`.`.`.`.`.`.`.`.`.{ 2 X           . ; 2 e / A         1 P.[.+.+.[.[.[.].u.r '.`.`.`.`.`.`.`.`.`.",
"`.`.`.`.`.`.`.`.`.G.]       . 1 . 8 2 +.[.[.[.s. . ...[.[.[.[.} P.[.[.i.] [.[._.`.`.`.`.`.`.`.`.",
"`.`.`.`.`.`.`.`.].'.[.s.~   { _.K.).~.[.[.[.[.[.[.[.[.[.[.[.[./ X...~ +.X.[.[.].`.`.`.`.`.`.`.`.",
"`.`.`.`.`.`._.[.[.[.[.[.[.[.[.[.[.[.[.[.[.[.[.[.[.[.[.[.[.[.[.[.~.9.9.[.[.[.[.[.'.`.`.`.`.`.`.`.",
"`.`.`.`.`.`.].[.[.[.[.[.[.[.[.[.[.[.[.[.[.[.[.[.[.[.[.[.[.[.[.[.[.[.[.[.[.[.[.[.[.].`.`.`.`.`.`.",
"`.`.`.`.'.].[.[.[.[.[.[.[.[.[.[.[.[.[.[.[.[.[.[.[.[.[.[.[.[.[.[.[.[.[.[.[.[.[.[.[.[.].`.`.`.`.`.",
"`.`.`.'.].[.[.[.[.[.[.[.[.[.[.[.[.[.[.[.[.[.[.[.[.[.[.[.[.[.[.[.[.[.[.[.[.[.[.[.[.[.[.].`.`.`.`.",
"`.`.`.].[.[.[.[.[.[.[.[.[.[.[.[.[.[.[.[.[.[.[.[.[.[.[.[.[.[.[.[.[.[.[.[.[.[.[.[.[.[.[.[.].`.`.`.",
"`.`.].[.[.[.[.[.[.[.[.[.[.[.[.[.[.[.[.[.[.[.[.[.[.[.[.[.[.[.[.[.[.[.[.[.[.[.[.[.[.[.[.[.[.].`.`.",
"'.].[.[.[.[.[.[.[.[.[.[.[.[.[.[.[.[.[.[.[.[.[.[.[.[.[.[.[.[.[.[.[.[.[.[.[.[.[.[.[.[.[.[.[.[.].'.",
"].[.[.[.[.[.[.[.[.[.[.[.[.[.[.[.[.[.[.[.[.[.[.[.[.[.[.[.[.[.[.[.[.[.[.[.[.[.[.[.[.[.[.[.[.[.[.]."
};
