/* XPM */
static char *result[] = {
/* columns rows colors chars-per-pixel */
"48 48 191 2 ",
"   c #0D0415",
".  c #0D0719",
"X  c #120516",
"o  c #110619",
"O  c #1B0618",
"+  c #15091C",
"@  c #1C111F",
"#  c #26091A",
"$  c #2B091B",
"%  c #25071B",
"&  c #350B1D",
"*  c #3C0C1D",
"=  c #1B0D24",
"-  c #1F0F28",
";  c #0C192D",
":  c #1F1028",
">  c #1F1421",
",  c #221423",
"<  c #251A26",
"1  c #21112A",
"2  c #291A2A",
"3  c #301F30",
"4  c #270E24",
"5  c #2C2029",
"6  c #32262D",
"7  c #372A31",
"8  c #3C2B37",
"9  c #440E1C",
"0  c #48141C",
"q  c #55111E",
"w  c #5B141C",
"e  c #611619",
"r  c #631A1D",
"t  c #681E1F",
"y  c #67211F",
"u  c #7C2B1D",
"i  c #4B0E23",
"p  c #470C24",
"a  c #4C1125",
"s  c #4D1228",
"d  c #521222",
"f  c #5D1A24",
"g  c #52172B",
"h  c #551A2C",
"j  c #571827",
"k  c #631C22",
"l  c #5B2333",
"z  c #5F2837",
"x  c #43323B",
"c  c #4B3C3E",
"v  c #403237",
"b  c #4A242A",
"n  c #6B2324",
"m  c #67252C",
"M  c #702928",
"N  c #7A3629",
"B  c #622C39",
"V  c #672A32",
"C  c #67303D",
"Z  c #66383C",
"A  c #783431",
"S  c #7C3C39",
"D  c #773737",
"F  c #7F403D",
"G  c #08334B",
"H  c #4E3D41",
"J  c #6E3943",
"K  c #6A3640",
"L  c #763F44",
"P  c #05445D",
"I  c #135370",
"U  c #07536D",
"Y  c #2F5168",
"T  c #564646",
"R  c #594947",
"E  c #5B4948",
"W  c #7C4B4B",
"Q  c #744348",
"!  c #72554F",
"~  c #6B4F54",
"^  c #675351",
"/  c #6C5652",
"(  c #6C5B54",
")  c #765D57",
"_  c #746058",
"`  c #7A645D",
"'  c #787275",
"]  c #80362D",
"[  c #813F3A",
"{  c #9A4B29",
"}  c #884739",
"|  c #864A44",
" . c #89564C",
".. c #985A47",
"X. c #885654",
"o. c #945C52",
"O. c #935F59",
"+. c #8F615C",
"@. c #966157",
"#. c #9F695C",
"$. c #986358",
"%. c #A86E55",
"&. c #B57757",
"*. c #886C66",
"=. c #996E67",
"-. c #966C65",
";. c #897366",
":. c #8D796A",
">. c #887266",
",. c #9D746A",
"<. c #937B6D",
"1. c #9C7F70",
"2. c #A57364",
"3. c #AB7F6F",
"4. c #A87768",
"5. c #B47F68",
"6. c #A77C71",
"7. c #9A8472",
"8. c #9F8976",
"9. c #AA806F",
"0. c #B5846D",
"q. c #B8876F",
"w. c #A48A77",
"e. c #A98676",
"r. c #B88A76",
"t. c #B48A7A",
"y. c #B48972",
"u. c #AC937D",
"i. c #A7917B",
"p. c #BA937E",
"a. c #B1927E",
"s. c #C28560",
"d. c #C49377",
"f. c #C1957F",
"g. c #CA9979",
"h. c #026281",
"j. c #05708E",
"k. c #177A9A",
"l. c #0184A8",
"z. c #028FB3",
"x. c #029DBA",
"c. c #0592A7",
"v. c #2D8CA2",
"b. c #2C97A5",
"n. c #3AA8B5",
"m. c #488B99",
"M. c #509AA6",
"N. c #4BA6B7",
"B. c #6DBCBE",
"V. c #7EBAB6",
"C. c #019CC3",
"Z. c #01A6CA",
"A. c #11ACC6",
"S. c #01ADD2",
"D. c #18B9D6",
"F. c #27ADCA",
"G. c #1EC1D3",
"H. c #26CEDC",
"J. c #00D9EF",
"K. c #4EC5CD",
"L. c #63C9C8",
"P. c #AE9480",
"I. c #BA9580",
"U. c #B39B83",
"Y. c #BB9A84",
"T. c #B39380",
"R. c #B9A187",
"E. c #BFA088",
"W. c #AFAA98",
"Q. c #97B9AD",
"!. c #AEBAA7",
"~. c #A3B7A9",
"^. c #C49B84",
"/. c #CDA285",
"(. c #C4A28A",
"). c #CAA38B",
"_. c #C4AB8E",
"`. c #CDA98D",
"'. c #D0AA8F",
"]. c #CCAD91",
"[. c #C7AE90",
"{. c #D2AD92",
"}. c #CEB394",
"|. c #CDB399",
" X c #C2B39C",
".X c #D5B195",
"XX c #D6B698",
"oX c #D7BA99",
"OX c #D8BD9B",
"+X c #D2B897",
"@X c #85C2B9",
/* pixels */
"OXOXOXOXOXOXOXOXOXOXOXOXOXOXOXOXOXOXOXOXOXOXOXOXOXOXOXOXOXOXOXOXOXOXOXOXOXOXOXOXOXOXOXOXOXOXOXOX",
"OXOXOXOXOXOXOXOXOXOXOXOXOXOXOXOXOXOXOXOXOXOXOXOXOXOXOXOXOXOXOXOXOXOXOXOXOXOXOXOXOXOXOXOXOXOXOXOX",
"OXOXOXOXOXOXOXOXOXOXOXOXOXOXOXOXOXOXOXOXOXOXOXoXoXOXOXOXOXOXOXOXOXOXOXOXOXOXOXOXOXOXOXOXOXOXOXOX",
"OXOXOXOXOXOXOXOXOXOXOXOXOXOXOXOXOXOXOXOXOXOX.X.X.XXXoXOXOXOXOXOXOXOXOXOXOXOXOXOXOXOXOXOXOXOXOXOX",
"OXOXOXOXOXOXOXOXOXOXOXOXOXOXOXOXOXOXOXOXOX.X.X.X.X.XXXOXOXOXOXOXOXOXOXOXOXOXOXOXOXOXOXOXOXOXOXOX",
"OXOXOXOXOXOXOXOXOXOXOXOXOXOXOXOXOXOXOXOXoX.X.X.X.X.X.XXXOXOXOXOXOXOXOXOXOXOXOXOXOXOXOXOXOXOXOXOX",
"OXOXOXOXOXOXOXOXOXOXOXOXOXOXOXOXOXOXOX.X.X.X.X.X.X.X.X.XXXOXOXOXOXOXOXOXOXOXOXOXOXOXOXOXOXOXOXOX",
"OXOXOXOXOXOXOXOXOXOXOXOXOXOXOXOXOXOXXX.X.X.X.X.X.X.X.X.X.XXXOXOXOXOXOXOXOXOXOXOXOXOXOXOXOXOXOXOX",
"OXOXOXOXOXOXOXOXOXOXOXOXOXOXOXOXOXXX.X.X.X.X.X{..X.X.X.X.X.X.XOXOXOXOXOXOXOXOXOXOXOXOXOXOXOXOXOX",
"OXOXOXOXOXOXOXOXOXOXOXOXOXOXOXOXXX.X.X.X.X.X.X.X.X.X.X.X.X.X.X.XOXOXOXOXOXOXOXOXOXOXOXOXOXOXOXOX",
"OXOXOXOXOXOXOXOXOXOXOXOXOXOXOXXX.X.X.X.X.X.X.X.X.X.X.X.X.X.X.X.X.XOXOXOXOXOXOXOXOXOXOXOXOXOXOXOX",
"OXOXOXOXOXOXOXOXOXOXOXOXOXOXXX.X.X.X.X.X.X.X.X.X.X.X.X.X.X.X.X.X.XoXOXOXOXOXOXOXOXOXOXOXOXOXOXOX",
"OXOXOXOXOXOXOXOXOXOXOXOXoXXX.X.X.X.X.X.X.X.X.X.X.X.X.X.X.X.X.X.X.X.XXXoXOXOXOXOXOXOXOXOXOXOXOXOX",
"OXOXOXOXOXOXOXOXOXOXOXOX.X.X.X.X.X.X.X.X.X.X.X.X.X.X.X.X.X.X.X.X.X.X.XXXOXOXOXOXOXOXOXOXOXOXOXOX",
"OXOX+X].oXOXOXOXOXOXOXXX.X.X.X.X.X.X.X.X.X.X.X.X.X.X.X.X.X.X.X.X.X.X.X.XoXOXOXOXOX+XoXOXOXOXOXOX",
"OXOXp.2._.OXOXOXOXOX.X.X.X|.}..X.X.X.X.XXX XQ..X.X.X.X.X.X.X.X.X.X.X.X.X.XXXOXOXOX&.`.OXOXOXOXOX",
"OXOX3.V +.e.I.}.OX.Xt.{.|.!.!.]..X{..X.X].@XL..X.X.X.X.X.X.X.X.X.X.X.X.X.X.X.XXX.X] s.OXOXOXOXOX",
"OX.X+.q j l K O.=.6.| `..X@XQ. XW.~.Q.~.Q.K.B..X.X.X.X.X.X.X.X.X.X.X.X.X.X'.t.,.O.] | ^.OXOXOXOX",
"OXI.B 0 p q q d g z l 4.^.Q.N.M.n.H.Z.v.F.D.N.3.0.`..X.X.X.X.X/.^.{.^.6.O.W B g d k f L e.XXOXOX",
"+X-.a a p q e q w q s l K ' m.m.D.J.x.h.C.z.k.b ] ..^..X.X.X.Xd.] K K l g q q w w i i s B =.|.oX",
"(.K d w q d w w e q p q d h ~ *.b.c.j.l.P ; ; X 9 k o.^..X.X'.J w d i w q w e e w p i w q l ,..X",
"I.h w e w d q e e w p q w w d g k.Z.Z.U .       O 9 k 3.{.^.B i q i w e e e e e e p w e w w h ,.",
"+.p q w e q i w e q i w q e e q k.Z.U G     + = + O 9 k F j i e q i q e e e e e e p w e e e w g ",
"Q q e e e r j t y f f M } $.@.W Y I U G   X X = : + % i g g f k w q i w e e e e e i w e e e w q ",
"j m A A | %.X.o.4.O.O.^.'.Y.~ 3 1 4 4 X X O % o : = : Z X.2.4.$.] m j q e e t t e p e e e r e e ",
"S 2.^.`.{./.&.5.{..X.X.X{.-.1 = - * 9 $ % $ % O = : = ) `.{..X{.^.3.X.m w [ $.o.D s k k A ] A n ",
"I..X.X.X.X%.N } {.{.{.].w.H = = - % & # q & $ % . - - 8 T..X.X.X.X.X'.2.L I.{..XI.K %.2.r.^.q.2.",
".X.X.X.X.X2.}  .{..X].<.H = = = = # 9 & & & O O . = - - *.{..X.X.X.X.X/.T.^.{..X'.6..X.X.X{..X.X",
".X.X.X.X.X/.y.) {..X`.~ < , o o O # 9 & X O o   . = : = H Y..X.X.X.X.X.X.X.X.X.X.X{..X.X.X.X.X.X",
".X.X.X.X.X.X(.! {..X].Y.1.c       o $ #         . = : - - P..X.X.X.X.X.X.X.X.X.X.X.X.X.X.X.X.X.X",
".X.X.X.X.X.X(./ ]..X.X.X^.R   = +   o     = o   . = 1 - - P.oX.X.X{.g.s.^.{..X.X.X.X.X.X.X.X.X.X",
".X.X.X.X.X.X`.) e..X.X.Xa.x = 1 =       = - =     = : - - P.OXoX.X/.} { &./..X.X.X.X.X.X.X.X.XXX",
".X.X.X.X.X.X.X.X` ! +._ / + . O +       > > : . o : 1 : : u.OXOXOXI.Z 0  ./..X.X.X.X.X.X.X.X.X.X",
".X.X.X.X.X.X.X.X(.p.<.v + . .           : : =   o + + - : U.OXOXOXu.! 4.q.'..X.X.X.X.X.X.X.X.X.X",
".X.X.X.X.X.X.X.X.X.Xw., + o .           = = = o       = 8 }.OXOXOXR.7.+X.X.X.X.X.X.X.X.X.X.X.X.X",
".X.X.X.X.X.X.X.X.X].T o : =             . . =       . X R }.OXOXOXa.;.OX.X.X.X.X.X.X.X.X.X{..X.X",
".X.X.X.X.X.X.X.X.X>.> = : = .               X           v _.OXOXOXa.7.+X+X}..X.X.X.X.X.X.X.X.X.X",
".X.X.X.X.X.X.X.Xu.< O - = - o                           @ u.OXOX+X7.7.OXOXoX+X.X.X.X.X.X.X.X.X.X",
".X.X.X{..X.X.X.X^   + o o = +                             c ` :._ ;.R.OXOXOXoX.X.X.X.X.X.X.X.X.X",
".X.X.X.X.X.X.X.XT   .     + +                           7 ;.u.U.u.[.+XOXOXOXOXoX.X.X.X.X.X.X.X.X",
".X.X.X.X.X.X+XOX>.          .                           :..XoXoXoXOXOXOXOXOXOXOXXXXX.X.X.X.X.X.X",
".X.X.X.X.X.XOXOXoXu.>.>                               6 u.OXOXOXOXOXOXOXOXOXOXOXOXoX.X.X.X.X.X.X",
".X.X.X.X.XOXOXOXOXOX}.^         .                 7 u.OXOXOXOXOXOXOXOXOXOXOXOXOXOXOXoX.X.X.X.X.X",
".X.X.X.XOXOXOXOXOXOXoXw.<   + v c @     @ < @     ( [.OXOXOXOXOXOXOXOXOXOXOXOXOXOXOXOXoX.X.X.X.X",
".X.X.XoXOXOXOXOXOXOXOX}.:.H _ R.}.R +   _ 8.E 5 6 7.+XOXOXOXOXOXOXOXOXOXOXOXOXOXOXOXOXOXoX.X.X.X",
".XXXoXOXOXOXOXOXOXOXOXOXOXOXOXOXOXi.E R [.+X_.7.8._.OXOXOXOXOXOXOXOXOXOXOXOXOXOXOXOXOXOXOXoX.X.X",
"XXoXOXOXOXOXOXOXOXOXOXOXOXOXOXOXOX+XR.R.OXOXOXOXOXOXOXOXOXOXOXOXOXOXOXOXOXOXOXOXOXOXOXOXOXOXoXXX",
"oXOXOXOXOXOXOXOXOXOXOXOXOXOXOXOXOXOXOXOXOXOXOXOXOXOXOXOXOXOXOXOXOXOXOXOXOXOXOXOXOXOXOXOXOXOXoXoX"
};
