/* XPM */
static char *result[] = {
/* columns rows colors chars-per-pixel */
"48 48 179 2 ",
"   c #0D0415",
".  c #130516",
"X  c #1A0617",
"o  c #110719",
"O  c #190619",
"+  c #15091D",
"@  c #190C1C",
"#  c #2C0B17",
"$  c #250819",
"%  c #2C0A1C",
"&  c #240A19",
"*  c #350A1D",
"=  c #3B0C1D",
"-  c #170B20",
";  c #1B0D24",
":  c #1E1221",
">  c #1F1028",
",  c #0C1628",
"<  c #260D25",
"1  c #3A0D23",
"2  c #231824",
"3  c #21112A",
"4  c #261827",
"5  c #2B1A30",
"6  c #301E33",
"7  c #092339",
"8  c #0B2136",
"9  c #2E222B",
"0  c #3A2D33",
"q  c #3D2A3B",
"w  c #4A0F1E",
"e  c #471219",
"r  c #55111F",
"t  c #5C141C",
"y  c #5E181F",
"u  c #621619",
"i  c #631C1E",
"p  c #6B1F1D",
"a  c #5A2419",
"s  c #74241C",
"d  c #470C24",
"f  c #4B0E22",
"g  c #500F20",
"h  c #4C1124",
"j  c #4F162B",
"k  c #531120",
"l  c #52172A",
"z  c #54192B",
"x  c #591926",
"c  c #571F31",
"v  c #681F20",
"b  c #5E222E",
"n  c #4B2B37",
"m  c #5B2333",
"M  c #5F2938",
"N  c #48373B",
"B  c #52303A",
"V  c #6F2827",
"C  c #62232C",
"Z  c #672227",
"A  c #712E2F",
"S  c #78362E",
"D  c #7A3B36",
"F  c #632B36",
"G  c #073B54",
"H  c #3C3441",
"J  c #382B44",
"K  c #493542",
"L  c #4C3945",
"P  c #503E40",
"I  c #413F52",
"U  c #6E3B44",
"Y  c #14405C",
"T  c #384559",
"R  c #065A76",
"E  c #2E4D62",
"W  c #524343",
"Q  c #5D4B4B",
"!  c #5C4040",
"~  c #414A5A",
"^  c #604C4A",
"/  c #794649",
"(  c #7F5544",
")  c #674F54",
"_  c #675650",
"`  c #6C5555",
"'  c #715A55",
"]  c #725959",
"[  c #746058",
"{  c #7B625E",
"}  c #4E5C68",
"|  c #7E6B60",
" . c #86311C",
".. c #883C2A",
"X. c #913C21",
"o. c #8F452D",
"O. c #90422D",
"+. c #80403A",
"@. c #B25C2E",
"#. c #C9763D",
"$. c #884B43",
"%. c #824E4E",
"&. c #90564D",
"*. c #8C5F5C",
"=. c #835655",
"-. c #935F52",
";. c #8F645F",
":. c #996559",
">. c #AC6445",
",. c #856C63",
"<. c #8A7366",
"1. c #8F776B",
"2. c #937D6E",
"3. c #9A7468",
"4. c #997C71",
"5. c #996962",
"6. c #A57A6F",
"7. c #A67565",
"8. c #9B8373",
"9. c #AA8575",
"0. c #AA8C79",
"q. c #BA8D74",
"w. c #B28C7B",
"e. c #B68C77",
"r. c #B3947F",
"t. c #BE987E",
"y. c #AB947D",
"u. c #C5875B",
"i. c #C28561",
"p. c #C8997B",
"a. c #036988",
"s. c #027C9E",
"d. c #077285",
"f. c #527E8B",
"g. c #0185A9",
"h. c #1783A1",
"j. c #038CB1",
"k. c #019CBC",
"l. c #0093B9",
"z. c #1098BC",
"x. c #41A2B1",
"c. c #6AB3BA",
"v. c #77C1BD",
"b. c #00A6CE",
"n. c #01A8C7",
"m. c #00ACD6",
"M. c #17B2D5",
"N. c #53B2C1",
"B. c #6ABEC0",
"V. c #23CBDF",
"C. c #00C4E4",
"Z. c #00C9E9",
"A. c #0CD0E9",
"S. c #00DFF5",
"D. c #50C6CD",
"F. c #B79683",
"G. c #BC9582",
"H. c #B59D83",
"J. c #BE9D87",
"K. c #BEB19D",
"L. c #BCA489",
"P. c #B8B4A1",
"I. c #8EB1AD",
"U. c #C09F86",
"Y. c #C49B85",
"T. c #CDA886",
"R. c #C4A38A",
"E. c #CCA58B",
"W. c #C3A98D",
"Q. c #C9AA8E",
"!. c #C8A087",
"~. c #C8AD91",
"^. c #D3AE92",
"/. c #CEB296",
"(. c #C9B199",
"). c #D5B195",
"_. c #D6B698",
"`. c #D7B999",
"'. c #D8BD9B",
/* pixels */
"'.'.'.'.'.'.-.t '.'.'.'.'.'.'.'.'.'.'.'.'.'.'.'.'.'.'.'.'.'.'.'.'.'.'.'.R.x p / _.'.'.'.'.'.'.'.",
"'.'.'.'.'.'.F g =.'.'.'.'.'.'.'.'.'.'.'.'.'.'.'.'.'.'.'.'.'.'.'.'.'.'.R.z s s i U '.'.'.'.'.'.'.",
"'.'.'.'.'.9.k g l Q.'.'.'.'.'.'.'.'.'.'.'.'.'._.`.'.'.'.'.'.'.'.'.'.R.C d r f d d j r.'.'.'.'.'.",
"'.'.'.'.'.F d d d *.'.'.'.'.'.'.'.'.'.'.'.`._.).)._.'.'.'.'.'.'.'.R.A r t y r f r d m 6.'.'.'.'.",
"'.'.'.'.0.f g f f f Q.'.'.'.'.'.'.'.'.'.'._.).).).)._.'.'.'.'.'.Q.C r u u u r f t u w f ;.).'.'.",
"'.'.'._.U u t f t r U '.'.'.'.'.'.'.'.'._.).).).).).)._.'.'.'.U.c f u u u u r f u u u r d M 0.'.",
"'.'.'.;.f u t f u u f 0.'.'.'.'.'.'.'.).).).).).).).).)._.`.U.m r t t u u u t f t u u r t r l 9.",
"'.'.9.l k g t d u u r j Q.'.'.'.'.'._.).).).).).).).).).).!.m t u u t u u u t f t u u t t u t l ",
"'.'.c t u u u d u t r w / '.'.'.'._.).).).).).).).^.E.).G.c r u u t t u u u t h g u u r u u u u ",
"'.w.r u u u t f u r u t l U.'.`._.).).).D.P.).).).E.O.&.m r u u u u u u u u u t g u u u u u u t ",
"Q.l t u u u t d u u ~ B f / 7.).)./.).v.c./.).).).).e.k t u u u u u u u u u u u f u u u u u ..F.",
"*.C u u u u t d u u u z.r r ;.(.P././.D.c.).).).).).6.p h r u t t t u u u u u u f u u u V e.'.'.",
"w.).:.Z u u t f u u I j.J E h.M.m.x.V.A.B.).G.G.).).*.g k d f t t u u u u u u u r t u V ).`.'.'.",
"'.'.'.t.D u t h u u L l.s.s.C.Z.R k.b.Z.S.n h s 5.).M t u t d k u u u u u u u u t r D E.'.'.'.'.",
"'.'.'.'.).+.t w u u t T H T Z.j.s.a.a.R d.  < v v 6.h t u u t d k u u u u u u u u k Y.'.'.'.'.'.",
"'.'.'.'.'.Q.x r u u f u u e k.7 j.g.7 o   - + < t C d u u u u k d t u u u u u S $.M '.'.'.'.'.'.",
"'.'.'.'.'.`.;.c u k k u v } b.m.n.7         > > 1 g f g r u u u u d r u u v 7.'.'.;.'.'.'.'.'.'.",
"'.'.'.'.'.`.6.U.7.f -.Y.Y.I.b.C., G     + @ o > 3 d g u u t u u u u f t u q.)._.'.e.'.'.'.'.'.'.",
"'.'.'.'.'.'.`.).Y.G.).).).(.f.G a.8       ; ; o 3 n %.$.$.$.u u u u t g A ).).)._.'.'.'.'.'.'.'.",
"'.'._.T.E.'.).).).).).).).1.3 % $     X * + 3 + ; ] ^.).^.).).).).E.:.%.z G.).).)._.'.'.'.'.'.'.",
"'.'.u.@. ._.).).).).).).F.5 @ w e $ . # X X 3 > ; 6 Y.).).).).).).).).).w.6.).^.).)._.'.'.'.'.'.",
"'.'.%.a s ).).).).).4.{ 5 ; O 1 = = u = % # - 3 - 3 G.).).).).).).).).).).).).).).).)._.'.'.'.'.",
"'.'.q.o.-.).).E.] q 3 3 3     O $ * e = X = + 3 ; - ` ).).).).).).).).).).).).).).).).)._.'.'.'.",
"'.'.`.8.{ ^.).) ; ; 3 3     . w p = % d X . + 3 ; + K ).).).).).).).).).).).).).).).).).)._.'.'.",
"'.).).<.<.).)._ ;   . +       1 1 $         - 3 3 - > E.).).).).).).).).).).).).).).).).).)._.'.",
"_.).).0.P ^.).).R.N       o     $ $   +     > 3 > - > 4.).).).)._.p.i.p.).).).).).).).).).).).).",
"^.).).r.0 ^.).).).F.2     > o       - 3 + - 3 3 3 - > ,.).).).).)...#.>.).).).).).).).).).).).).",
").).).).r.^ r.!.G.| )   + > o     - 3 3   3 3 3 3 - > Q ).).).).).D & ..).).).).).).).).).).).).",
").).).).).;.W N 5 ; 3 > 3 -     ; 3 3 > + 3 3 3 3 ; 3 J ~._.).).r.P X...).).).).).).).).).).).).",
").).).).).).)._     + - > o > 3 > > > - ; > 3 3 3 - 3 3 1._.).).1.' ).).^.).).).).).).).).).).).",
").).).).).).y.:       + > - - > > > > o > - 3 3 3 + 3 3 4.'.`.).,.0.).).).).).).).).).).).).).).",
").).).).).).'   - +               > - - 3 + ; > 3 + > K (.'.'.`.,.' ).).).).).).).).).).).).).).",
").).).).).).] ; ;               , :             ; + o 8.'.'.'./._ y._._.).).).).).).).).).).).).",
"^.).).).).F.q 3 ;               : o                   H.'.'.'.<._ '.).).).).).).).).).).).).).).",
").).).).).K 3 3 -               @                   0 `.'.'.'.[ y.'.`._.).).).).).).).).).).).).",
").).).).4.+ + > -                                   _ H.y.Q 8.W '.'.'.`.).).).).).).).).).).).).",
").).).).E.    + +                                   9 0 W | H.L.'.'.'.'.`.).).).).).).).).).).).",
"^.).).).).'   o +                                   W '.'.'.'.'.'.'.'.'.'.'.).).^.).).).).).).).",
").).).).).).] @ +                           @ : @ W 8.'.'.'.'.'.'.'.'.'.'.'.`.).).).).).).).).^.",
").).).).).)._.R.9     :                     9 ~.L.'.'.'.'.'.'.'.'.'.'.'.'.'.'.'.).).).).).).).).",
").).).).).)._.'.'.'.'.'.9                   Q '.'.'.'.'.'.'.'.'.'.'.'.'.'.'.'.'.`._.).).).).).).",
").).).).).).'.'.'.'.'.'.1.      o W 0       [ '.'.'.'.'.'.'.'.'.'.'.'.'.'.'.'.'.'.`.).).).).).).",
").).).).).'.'.'.'.'.'.'.'.W     W '.W.Q   2 r.'.'.'.'.'.'.'.'.'.'.'.'.'.'.'.'.'.'.'.`.).).).).).",
").).).).`.'.'.'.'.'.'.'.'.'.'.'.'.'.'.'.'.'.'.'.'.'.'.'.'.'.'.'.'.'.'.'.'.'.'.'.'.'.'.`.).).).).",
").).)._.'.'.'.'.'.'.'.'.'.'.'.'.'.'.'.'.'.'.'.'.'.'.'.'.'.'.'.'.'.'.'.'.'.'.'.'.'.'.'.'.`.).).).",
")._.'.'.'.'.'.'.'.'.'.'.'.'.'.'.'.'.'.'.'.'.'.'.'.'.'.'.'.'.'.'.'.'.'.'.'.'.'.'.'.'.'.'.'.`.).).",
"_.`.'.'.'.'.'.'.'.'.'.'.'.'.'.'.'.'.'.'.'.'.'.'.'.'.'.'.'.'.'.'.'.'.'.'.'.'.'.'.'.'.'.'.'.'.'._.",
"`.'.'.'.'.'.'.'.'.'.'.'.'.'.'.'.'.'.'.'.'.'.'.'.'.'.'.'.'.'.'.'.'.'.'.'.'.'.'.'.'.'.'.'.'.'.'.`."
};
