/* XPM */
static char *result[] = {
/* columns rows colors chars-per-pixel */
"48 48 180 2 ",
"   c #0D0415",
".  c #0F0518",
"X  c #120516",
"o  c #1B0817",
"O  c #120619",
"+  c #1C0619",
"@  c #14091C",
"#  c #1B091D",
"$  c #1B0717",
"%  c #24071B",
"&  c #220A1A",
"*  c #2B091C",
"=  c #280C17",
"-  c #330A1E",
";  c #3A0F1C",
":  c #321218",
">  c #150D21",
",  c #1C0E24",
"<  c #1F0F28",
"1  c #0C162A",
"2  c #1F1224",
"3  c #220E26",
"4  c #290C22",
"5  c #2C0F28",
"6  c #3A0D23",
"7  c #320F27",
"8  c #221029",
"9  c #2A1727",
"0  c #371327",
"q  c #2F222B",
"w  c #33242E",
"e  c #3B212B",
"r  c #3F2131",
"t  c #400F1B",
"y  c #4D131C",
"u  c #4B171C",
"i  c #54111E",
"p  c #5C141C",
"a  c #621619",
"s  c #641B1D",
"d  c #5A2019",
"f  c #6C211E",
"g  c #72291D",
"h  c #440D22",
"j  c #4C0E21",
"k  c #500F20",
"l  c #4B1222",
"z  c #541322",
"x  c #5D1923",
"c  c #53192B",
"v  c #681F20",
"b  c #641F26",
"n  c #512124",
"m  c #412435",
"M  c #5E2533",
"N  c #552A36",
"B  c #4D3A3D",
"V  c #5D3334",
"C  c #672724",
"Z  c #712C2C",
"A  c #642C36",
"S  c #62333E",
"D  c #6E333A",
"F  c #7E3B37",
"G  c #7C3D3A",
"H  c #7A3633",
"J  c #092F45",
"K  c #152E48",
"L  c #083B53",
"P  c #133850",
"I  c #5F3940",
"U  c #6D3943",
"Y  c #723D45",
"T  c #4F4041",
"R  c #5C4747",
"E  c #684B4A",
"W  c #794246",
"Q  c #784845",
"!  c #64524E",
"~  c #7B5349",
"^  c #774D50",
"/  c #6A5651",
"(  c #735E57",
")  c #79615A",
"_  c #83443F",
"`  c #945137",
"'  c #AA5D34",
"]  c #8B4E46",
"[  c #8A4E48",
"{  c #88544E",
"}  c #9B5D43",
"|  c #8C5754",
" . c #945D53",
".. c #80675E",
"X. c #94665C",
"o. c #9D685C",
"O. c #99675F",
"+. c #A06858",
"@. c #876D64",
"#. c #886F64",
"$. c #946863",
"%. c #8E7568",
"&. c #9B7367",
"*. c #92756A",
"=. c #9C7269",
"-. c #997D6F",
";. c #A97C6F",
":. c #95806F",
">. c #9E8071",
",. c #AF856D",
"<. c #B0816F",
"1. c #A38574",
"2. c #AA8C79",
"3. c #B28473",
"4. c #B38B7A",
"5. c #BA8D78",
"6. c #B88B74",
"7. c #AB917C",
"8. c #B4917E",
"9. c #BB927E",
"0. c #C28965",
"q. c #C5977C",
"w. c #056481",
"e. c #036B8B",
"r. c #067389",
"t. c #0389A3",
"y. c #0590A3",
"u. c #039AB8",
"i. c #2A93A9",
"p. c #04A7BE",
"a. c #31ADBD",
"s. c #5F838B",
"d. c #6C9A9C",
"f. c #5DA3A7",
"g. c #75ADAD",
"h. c #02AFC5",
"j. c #17AAC5",
"k. c #13ADD1",
"l. c #17B7D4",
"z. c #35B2CB",
"x. c #26B8C8",
"c. c #4BB2C4",
"v. c #02C0D6",
"b. c #17C7DF",
"n. c #26C8D7",
"m. c #0AD4EC",
"M. c #57C0C3",
"N. c #75C6C0",
"B. c #B79381",
"V. c #BC9983",
"C. c #BD9582",
"Z. c #A59988",
"A. c #B3AD9C",
"S. c #85B3AD",
"D. c #99B3A8",
"F. c #83B6B2",
"G. c #93B9B0",
"H. c #A8B5A3",
"J. c #A9BCA9",
"K. c #B4B8A4",
"L. c #C29C85",
"P. c #C29781",
"I. c #C4A38A",
"U. c #CAA68D",
"Y. c #C4AB8E",
"T. c #CDA98D",
"R. c #CCA583",
"E. c #D2AB8C",
"W. c #D2B18F",
"Q. c #CCAD92",
"!. c #D1AD92",
"~. c #CFB194",
"^. c #C2B49D",
"/. c #CCB99D",
"(. c #D5B195",
"). c #D6B698",
"_. c #D6BA9A",
"`. c #D8BD9B",
"'. c #C3BCA1",
"]. c #94C3B5",
/* pixels */
"`.`.`.`.`.`.`.`.`.`.`.`.`.`.`.`.`.`.`.`.`.`.`.`.`.`.`.`.`.`.`.`.`.`.`.`.`.`.`.`.`.`.`.`.`.`.`.`.",
"`.`.`.`.`.`.`.`.`.`.`.`.`.`.`.`.`.`.`.`.`.`.`.`.`.`.`.`.`.`.`.`.`.`.`.`.`.`.`.`.`.`.`.`.`.`.`.`.",
"`.`.`.`.`.`.`.`.`.`.`.`.`.`.`.`.`.`.`.`.`.`.`._._.`./.`.`.`.`.`.`.`.`.`.`.`.`.`.`.`.`.`.`.`.`.`.",
"`.`.`.`.`.`.`.`.`.`.`.`.`.`.`.`.`./.`.`.`._.).(.(.D.F.`.`.`.`.`.`.`.`.`.`.`.`.`.`.`.`.`.`.`.`.`.",
"`.`.`.`.`.`.`.`.`.`.`.`.`.`.`.`.K.G.K.`.`././.).^.c.K.`.`.`.`.`.`.`.`.`.`.`.`.`.`.`.`.`.`.`.`.`.",
"`.`.`.`.`.`.`.`.`.`.`.`.`.`.`.`.`.S.g.J.].N.c.H.S.z.A.L.T.`.`.`.`.`.`.`.`.`.`.`.`.`.`.`.`.`.`.`.",
"`.`.`.`.`.`.`.`.`.`.`.`.`.`.`.`.`.g.i.a.b.m.y.p.j.k.s.Q  .V.`.`.`.`.`.`.`.`.`.`.`.`.`.`.`.`.`.`.",
"`.`.`.`.`.`.`.`.`.`.`.`.`.`.`.`.`.J.d.f.l.u.t.t.e.w.P ; C o.~.`.`.`.`.`.`.`.`.`.`.`.`.`.`.`.`.`.",
"`.`.`.`.`.`.`.`.`.`.`.`.`.`.`.`.`.).Q.Z.n.r.h.w.1 1 > 4 y G C._.`.`.`.`.`.`.`.`.`.`.`.`.`.`.`.`.",
"`.`.`.`.`.`.`.`.`.`.`.`.`.`.`.`.).(.~.H.x.h.y.J     X , 6 x ;.)._.`.`.`.`.`.`.`.`.`.`.`.`.`.`.`.",
"`.`.`.`.`.`.`.`.`.`.`.`.`.`.`.(.(.(.~.J.n.h.L L   . > > 4 j W L.).`.`.`.`.`.`.`.`.`.`.`.`.`.`.`.",
"`.`.`.`.`.`.`.`.`.`.`.`.`.`._.(.(.(.4.U 7 K J X     @ , 4 h h 4.(.).`.`.`.`.`.`.`.`.`.`.`.`.`.`.",
"`.`.`.`.`.`.`.`.`.`.`.`.`.).(.(.(.B.U 7 , X % X X + + 3 6 j k [ q.(.).`.`.`.`.`.`.`.`.`.`.`.`.`.",
"`.`.`.`.`.`.`.`.`.`.`.`.(.(.!.V.4.^ 6 3 X X 4 + & + + h j k a a F q.(.(.`.`.`.`.`.`.`.`.`.`.`.`.",
"`.`.`.`.`.`.`.`.).q.`.`.(.(.9.N m 5 8 >   + * = s u y k p z a a a H 9.(._.`.`.`.`.`.`.`.`.`.`.`.",
"`.`.`.`.`.`.`.(.6.} 6.W.(.W.#.3 , , , O   & - & y f s b p a a a a a _ q.(.(.`.`.`.`.`.`.`.`.`.`.",
"`.`.`.`.`.`.`.R.} g +.!.(.!.*.w . O O     + 4 X + k z z k k i a p a a ] I.(.(.`.`.`.`.`.`.`.`.`.",
"`.`.`.`.`.`.`.(.,.[ ^ T.(.!.B.N % .   .   X + X O y p p a p p i i i i x | P.(.(.`.`.`.`.`.`.`.`.",
"`.`.`.`.`.`.`.).Q.1.( T.(.!.$.l ; O   X O . . . 3 h p a a a a a a a p i z U =.U.).`.`.`.`.`.`.`.",
"`.`.`.`.`.`.(.(.(.U.%.T.).L.r 3 , .   . O . > < 3 j p p a a a a a a a a v  .5.0.0.E.`.`.`.`.`.`.",
"`.`.`.`.`._.(.(.(.1.! U.L.B # < @       > , < 8 5 h k a a a a a a a a a Z 5.3.` ' q.).`.`.`.`.`.",
"`.`.`.`.(.(.(.(.(.U.( ! R 5 X O @       @ , < < 3 h a a a a a a a a a a Z <.&.n f q.(.).`.`.`.`.",
"`.`.`.).(.(.(.(.(.(.U.%.E -   O           X @ , > h p a a p p a a a a i x A E Q X.V.).(.(.`.`.`.",
"`.`._.(.(.(.(.(.!.L.6.O.A 6 @ > X           , , X h i p p i i z i k k k C O.>.7.(.(.(.(.(._.`.`.",
"_.(.(.(.(.(.(.(.(.3._ D l 5 < @             2 X - p s k j k k i p a a a F 4.) >.(.(.(.(.(.(.).`.",
"(.(.(.(.(.(.(.(.(.(.9.4.0 , 2 .             > = d g x k i p a a a a a a ] L.@.2.(.(.(.(.(.(.(.(.",
"(.(.(.(.(.(.(.(.(.(.(.(.w O > O               o = t y j p a a a a a a v  .V.*.V.(.(.(.(.(.(.(.(.",
"(.(.(.(.(.(.(.(.!.(.(.(.#.  O                   X X % 6 j p p a a a a a A ) 7.!.(.(.(.(.(.(.(.(.",
"(.(.(.(.(.(.(.(.(.(.(.(.T./ 2                         # 6 h i p a a a v { 4.!.(.(.(.(.(.(.(.(.(.",
"(.(.(.(.(.(.(.(.(.(.(.(.(.T.1.q                       w %.&.M z a a a v  .!.(.(.(.(.(.(.(.(.(.(.",
"(.(.(.(.(.(.(.(.(.(.(.(.(.(.(.T.;.M : X               T Y.`.B.U z z a a [ (.(.(.(.(.(.(.(.(.(.(.",
"(.(.(.(.(.(.(.(.(.(.(.(.(.(.).(._.8.S &     9 / q @ @ ! `.`.`.~.U z p a ] !.(.(.(.(.(.(.(.(.(.(.",
"(.E.(.(.(.(.(.(.(.(.(.(.(.(.(.(.`._.5.U 0 T :.`.Y.( ! 7.`.`.`.`.V.| c z Z 5.(.(.(.(.(.(.(.(.(.(.",
"(.(.(.(.(.(.(.(.(.(.(.(.(.(._.`.`.`.`.B.&.~.`.`.`.`.`.`.`.`.`.`.`.`.@.W W 3.(.(.(.(.(.(.(.!.(.(.",
"(.(.(.(.(.(.(.(.(.(.(.(.(.`.`.`.`.`.`.`.`.`.`.`.`.`.`.`.`.`.`.`.`.`._.Q.5.L.(.(.(.(.(.(.(.(.(.(.",
"(.(.(.(.(.(.(.(.(.(.(.(._.`.`.`.`.`.`.`.`.`.`.`.`.`.`.`.`.`.`.`.`.`._._.(.(.(.(.(.(.(.(.(.(.(.(.",
"(.(.(.(.(.(.(.(.(.(.(.`.`.`.`.`.`.`.`.`.`.`.`.`.`.`.`.`.`.`.`.`.`.`.`.`._.(.(.(.(.(.(.(.(.(.(.(.",
"(.(.(.(.(.(.(.(.(.(.`.`.`.`.`.`.`.`.`.`.`.`.`.`.`.`.`.`.`.`.`.`.`.`.`.`.`._.).(.(.(.(.(.(.(.(.(.",
"(.(.(.(.(.(.(.(.(.`.`.`.`.`.`.`.`.`.`.`.`.`.`.`.`.`.`.`.`.`.`.`.`.`.`.`.`.`._.(.(.(.(.(.(.(.(.(.",
"(.(.(.(.(.(.(.(._.`.`.`.`.`.`.`.`.`.`.`.`.`.`.`.`.`.`.`.`.`.`.`.`.`.`.`.`.`.`._.(.(.(.(.(.(.(.(.",
"(.(.(.(.(.(.(.`.`.`.`.`.`.`.`.`.`.`.`.`.`.`.`.`.`.`.`.`.`.`.`.`.`.`.`.`.`.`.`.`.).(.(.(.(.(.(.(.",
"(.(.(.(.(.(.`.`.`.`.`.`.`.`.`.`.`.`.`.`.`.`.`.`.`.`.`.`.`.`.`.`.`.`.`.`.`.`.`.`.`._.(.(.(.(.(.(.",
"(.(.(.(.(._.`.`.`.`.`.`.`.`.`.`.`.`.`.`.`.`.`.`.`.`.`.`.`.`.`.`.`.`.`.`.`.`.`.`.`.`._.(.(.(.(.(.",
"(.(.(.(.`.`.`.`.`.`.`.`.`.`.`.`.`.`.`.`.`.`.`.`.`.`.`.`.`.`.`.`.`.`.`.`.`.`.`.`.`.`.`._.(.(.(.(.",
"(.(.(.`.`.`.`.`.`.`.`.`.`.`.`.`.`.`.`.`.`.`.`.`.`.`.`.`.`.`.`.`.`.`.`.`.`.`.`.`.`.`.`.`._.(.(.(.",
"(.(.`.`.`.`.`.`.`.`.`.`.`.`.`.`.`.`.`.`.`.`.`.`.`.`.`.`.`.`.`.`.`.`.`.`.`.`.`.`.`.`.`.`.`._.(.(.",
"(.`.`.`.`.`.`.`.`.`.`.`.`.`.`.`.`.`.`.`.`.`.`.`.`.`.`.`.`.`.`.`.`.`.`.`.`.`.`.`.`.`.`.`.`.`._.(.",
"`.`.`.`.`.`.`.`.`.`.`.`.`.`.`.`.`.`.`.`.`.`.`.`.`.`.`.`.`.`.`.`.`.`.`.`.`.`.`.`.`.`.`.`.`.`.`.`."
};
