/* XPM */
static char *result[] = {
/* columns rows colors chars-per-pixel */
"48 48 194 2 ",
"   c #0D0415",
".  c #0D081A",
"X  c #120516",
"o  c #110619",
"O  c #1C0619",
"+  c #15091D",
"@  c #23071A",
"#  c #26081B",
"$  c #2B091C",
"%  c #200816",
"&  c #350A1D",
"*  c #170B20",
"=  c #1C0E25",
"-  c #0C1629",
";  c #1F1028",
":  c #1E1320",
">  c #0A1D32",
",  c #0C0E21",
"<  c #3A0D23",
"1  c #21112A",
"2  c #281C28",
"3  c #0A2238",
"4  c #382637",
"5  c #31232D",
"6  c #55111F",
"7  c #5C141C",
"8  c #4C141F",
"9  c #621619",
"0  c #631A1D",
"q  c #681E1E",
"w  c #75281B",
"e  c #66271C",
"r  c #470C24",
"t  c #4C0E22",
"y  c #500F20",
"u  c #4B1225",
"i  c #531121",
"p  c #551B2C",
"a  c #571E30",
"s  c #681F20",
"d  c #5D2636",
"f  c #5F2938",
"g  c #483A3B",
"h  c #6A2120",
"j  c #693021",
"k  c #75322E",
"l  c #69343E",
"z  c #773838",
"x  c #622A37",
"c  c #7D423E",
"v  c #0D344A",
"b  c #3A3C51",
"n  c #4A3643",
"m  c #6F3A43",
"M  c #07445D",
"N  c #0F556B",
"B  c #13647D",
"V  c #5A454B",
"C  c #495358",
"Z  c #414A5A",
"A  c #61514D",
"S  c #675754",
"D  c #775354",
"F  c #736059",
"G  c #79635D",
"H  c #545F61",
"J  c #47576B",
"K  c #4F6D7E",
"L  c #59696B",
"P  c #7D6861",
"I  c #822F1E",
"U  c #82413C",
"Y  c #A45A35",
"T  c #854A45",
"R  c #8E5E5C",
"E  c #8C564D",
"W  c #8C655D",
"Q  c #9C695A",
"!  c #956358",
"~  c #AD735C",
"^  c #976964",
"/  c #97786C",
"(  c #91796C",
")  c #A67A6F",
"_  c #A87765",
"`  c #9B8373",
"'  c #AA8B7A",
"]  c #A98677",
"[  c #B58C7A",
"{  c #B28C75",
"}  c #C79979",
"|  c #006381",
" . c #016A87",
".. c #036C8B",
"X. c #0C6681",
"o. c #006F90",
"O. c #017494",
"+. c #007C9C",
"@. c #067E91",
"#. c #15718A",
"$. c #247689",
"%. c #30788A",
"&. c #25768C",
"*. c #017EA1",
"=. c #507C84",
"-. c #12819E",
";. c #29848E",
":. c #0183A4",
">. c #008CA7",
",. c #0086A9",
"<. c #008AAE",
"1. c #0C81A0",
"2. c #0093AE",
"3. c #018DB3",
"4. c #0191B3",
"5. c #009CB6",
"6. c #0097BD",
"7. c #009AB9",
"8. c #1287A4",
"9. c #239CB5",
"0. c #00A4BE",
"q. c #24B0BF",
"w. c #3BA9BF",
"e. c #598C94",
"r. c #508A92",
"t. c #6B8C8D",
"y. c #6E9A9A",
"u. c #479CAB",
"i. c #5EB2BD",
"p. c #60AEB5",
"a. c #6BB5BB",
"s. c #7BB5B6",
"d. c #72ABAB",
"f. c #78C0BC",
"g. c #019FC7",
"h. c #00A4CD",
"j. c #00ADCA",
"k. c #0BA8C9",
"l. c #00ACD3",
"z. c #00AED8",
"x. c #00BAD4",
"c. c #00B3DD",
"v. c #06B6D6",
"b. c #15B1CC",
"n. c #30B4CE",
"m. c #25B4D2",
"M. c #24ADCB",
"N. c #00B7E0",
"B. c #00BBE1",
"V. c #4DB2C3",
"C. c #60B7C0",
"Z. c #0DC4DB",
"A. c #30C8D9",
"S. c #00C2E5",
"D. c #00CCE5",
"F. c #00C6E8",
"G. c #00CAEA",
"H. c #00D2ED",
"J. c #00D8EF",
"K. c #1BDBEA",
"L. c #00DEF5",
"P. c #00D5F0",
"I. c #4ED3D5",
"U. c #78C9C2",
"Y. c #8E978E",
"T. c #9A9B8F",
"R. c #919E92",
"E. c #B99A83",
"W. c #A59F90",
"Q. c #9CAD9E",
"!. c #B1A491",
"~. c #BAA792",
"^. c #B8B19F",
"/. c #8FB2AE",
"(. c #9BB6AB",
"). c #90B9B1",
"_. c #8EADA8",
"`. c #A4B4A7",
"'. c #B4BBA6",
"]. c #B1B4A3",
"[. c #C29780",
"{. c #C39F89",
"}. c #CDA88F",
"|. c #C6A289",
" X c #CCAE93",
".X c #D1AC92",
"XX c #C9B199",
"oX c #D5B195",
"OX c #D6B698",
"+X c #D7B999",
"@X c #D8BD9B",
"#X c #C0BCA2",
"$X c #96C7B7",
"%X c #AEC4AD",
/* pixels */
"@X@X@X@X@X@X@X@X@X@X@X@X@X@X@X@X@X@X@X@X@X@X}.|.! ! t 6 7 7 7 7 7 7 7 z E.D r r 9 9 9 9 9 9 9 9 ",
"@X@X@X@X@X@X@X@X@X@X@X@X@X@X@X@X@X@X@X@X@X@X] l 7 u u r t r r r r t s w I 9 7 t 9 9 9 9 9 9 9 9 ",
"@X@X@X@X@X@X@X@X@X@X@X@X@X@X@X@X@X@X@X@X@X@X@X+XOXx i 9 9 9 6 9 9 9 9 T E r s t t y 7 9 9 9 9 9 ",
"@X@X@X@X@X@X@X@X@X@X@X@X@X@X@X@X@X@X@X@X@X@XOXoXoX^ i 9 9 9 7 7 9 9 9 Q [ r y y y r r y 7 9 9 9 ",
"@X@X@X@X@X@X@X@X@X@X@X@X@X@X@X@X@X@X@X@X@XoXoXoXoX) y 9 9 9 9 9 9 9 9 Q W r 7 9 9 9 i y r t y i ",
"@X@X@X@X@X@X@X@X@X@X@X@X@X@X@X@X@X@X@X@X+XoXoXoXoX) r 7 9 9 9 9 9 9 9 Q ^ r 7 9 9 9 9 y 9 9 y t ",
"@X@X@X@X@X@X@X@X@X@X@X@X@X@X@X@X@X@X@X+XoXoXoXoXoX}.r 6 7 7 9 9 9 9 9 z l t 9 9 9 9 9 9 9 9 9 9 ",
"@X@X@X@X@X@X@X@X@X@X@X@X@X@X@X@X@X@XoXoXoXoXoXoXoXoXr 7 9 9 9 9 9 9 9 k d y 9 9 9 9 9 9 9 9 9 9 ",
"@X@X@X@X@X@X@X@X@X@X@X@X@X@X@X@X@XoXoXoXoXoXoXoXoXoXr 6 9 9 9 7 9 9 9 k x i i 7 7 9 9 9 9 9 9 9 ",
"@X@X@X@X@X@X@X@X@X@X@X@X@X@X@X@XoXoXoXoXoXoXoXoXoXoXr y 9 9 9 7 9 9 9 i u i 9 9 9 9 9 9 9 9 9 9 ",
"@X@X@X@X@X@X@X@X@X@X@X@X@X@X@XoXoXoXoXoXoXoXoXoX}.) r 6 7 7 6 y 7 7 7 6 r i 9 9 9 9 9 9 9 9 9 9 ",
"@X@X@X@X@X@X@X@X@X@X@X@X@X@X+XoXoXoXoXoXoXoXoX[ z 6 y 6 r t t t t i h 7 t t 9 9 9 9 9 9 9 9 9 9 ",
"@X@X@X@X@X@X@X@X@X@X@X@X@XoXoXoXoXoXoXoXoXoXoXoX{.E.m t 7 9 9 9 9 u 0 w 7 7 7 9 9 9 7 9 9 9 9 9 ",
"@X@X@X@X@X@X@X@X@X@X@X@XoXoXoXoXoXoXoXoXoXoXoXoXoXoX{.p 6 9 9 9 9 9 7 p t q r y 7 7 7 9 9 9 9 9 ",
"@X@X@X@X@X@X@X@X@X@X@X+XoXoXoXoXoXoXoXoXoXoXoXoXoXoXoX^ t 9 9 9 9 9 U }.d y t t r r r 6 7 7 9 9 ",
"@X@X@X@X@X@X@X@X@X@XOXoXoXoXoXoXoXoXoXoXoXoXoXoXoXoXoXoXd y y 7 9 0 U oXl r 7 9 7 7 y y t t y 7 ",
"@X@X@X@X@X@X@X@X@XoXoXoXoXoXoXoXoXoXoXoXoXoXoXoXoXoXoXoX) r y 7 9 9 Q oXR t 7 9 9 9 9 9 9 9 9 y ",
"@X@X@X@X@X@X@X@X+X.XoXoXoXoXoXoXoXoXoXoXoXoXoXoXoXoXoXoXoXm t 7 9 9 [.oXR r y 9 9 9 9 9 9 9 9 _ ",
"@X@X@X@X@X@X+XoXoXoXoXoXoXoXoXoXoXoXoXoXoXoXoXoXoXoXoXoXoXE.p n 9 9 oXoXR r i 9 9 9 9 9 q ! |.@X",
"@X@X@X@X@X@XoXoXoXoXoXoXoXoXoXoXoXoXoXoXoX^.oXoXoXoXoXoXoXXXJ &.9 9 / r r t 6 9 9 9 s E .X@X@X@X",
"@X@X@X@X@X+XoXoXoXoXoXoXoXoXoXoXoXoXoXoXoXs.`..XoXoXoXOXoX) g.n u < t i 6 7 9 9 9 s [ @X@X@X@X@X",
"@X@X@X@XoXoXoXoXoXoXoXoXoXoXoXoXoXoXoXoXoXQ.u..X!./.p.V.].=.z.v + 1 = * $ 8 6 9 9 _ oXoX@X@X@X@X",
"@X@X@X+XoXoXoXoXoXoXoXoXoXoXoXoXoXoXoXoXoXa.o.V.*.v.B.*.b.k.B.N   * = + = ; ; / [..XoXoXoX@X@X@X",
"@X+X+XoXoXoXoXoXoXoXoXoXoXoXoXoXoXoXoXoXoX`.*.%.9.L.B.N j.<.S.@.+ +         + 4 {.oXoXoXoXOX@X@X",
"+XOXoXoXoXoXoXoXoXoXoXoXoXoXoXoXoXoXoXoXoXoXOX+Xt.F.- 3.X.>         * +     X 1 5 E.oXoXoXoXOX+X",
"oXoXoXoXoXoXoXoXoXoXoXoXoXoXoXoXoXoXoXoXoXoX@X@Xy.N.o.h.v           X = o   * 1 1 n oXoXoXoXoXoX",
"oXoXoXoXoXoXoXoXoXoXoXoXoXoXoXoXoXoXoXoXoX+X@X@XC.3.4.v M ,         O + 1 X o ; = = / OXoXoXoXoX",
"oXoXoXoXoXoXoXoXoXoXoXoXoXoXoXoXoXoXoXOX+X@X@X@X).m.N + O.3 @ 7 & X & X = 1 +     * G oXoXoXoXoX",
"oXoXoXoXoXoXoXY.t.Y. XoXoXoXoXoXoXoX~ Y } @X@X@X@X@XC >  .v # # # @ @ # ; 1 = o     5 .XoXoXoXoX",
"B W.oXOXoXoXW.r.0.B Y.oXoXoXoXoXoX} Y e ! @X@X@X$X;.: M :.> O & # # # O * 1 ; o o     ' oXoXoXoX",
"~.+X!.t.~.oX}.oX_.B K oXoXoXoXoXoX+Xj w Q @X@X@Xb.-     + + # r < O O @ = ; 1 = o +   V oXoXoXoX",
"oXoXY.K e.oXoXoX+XR.B oXoXoXoXoX@X+X{ W W @X@X$X6.X     =   O & O X # o ; ; ; ;   + = o / oXoXoX",
"oXoXoXoXoXoXoXoXoXoXR.oXoXoXoX+X%XI.A.b.e.'.'.I.c.L   + 1   X O         = 1 1 1 * o 1 = 2 |.oXoX",
"oXoXoXoXOX X!.!.!.oXoXoXoXoX+X%XK.L.L.D.M.B.c.F.n.@Xg = =             . 1 1 1 1 1 o = 1 + 1 V ' ",
"oXY.Y. XoXt.4.6.3.e.oX]./.).U.K.L.L.L.L.G.L.f.).'.@X2 *               = 1 1 1 1 1 o = 1 o   1 1 ",
"e.2.2.:.Y.4.G.G.B.c.XXV.N.S.P.G.L.L.L.L.q.@X@X@XE.: ` @X@XA         * 1 1 1 1 1 ; o 1 *   o = 1 ",
"J.L.B.N.#.6.L.L.L.N.a.m.S.S.c.B.L.L.L.x. .@X@XF A F @X@X@X!.      + 1 1 1 1 1 1 = + ; +     + ; ",
"L.G.S.B.3.2.L.L.L.B.a.m.c.c.N.G.L.L.>. .N ( ` S ` @X@X@X' V +     = *       = 1 + * 1 =     o ; ",
"L.L.L.L.z.4.J.L.L.+.8.c.N.c.G.L.L.L.B B S G V 2 n P P n ; ; .   + o         + 1   = 1 1 =     = ",
"H.L.L.L.3.o.:.D.7.*.N.B.B.N.S.L.L.L. .$.@X@XS . * ; ; ; ; * .               o =   ; = o + *   ; ",
"S.>.>.+.*. .B | | c.B.F.c.c.c.G.L.H.z.&.@X@XF   o = ; ; *                   . = o +       o   + ",
"S.c.l.+.h.*.O. ...F.J.c.c.c.c.P.L.L.B.p.'.m.H     . ; ; .                   o . + o             ",
"c.G.L.P.B.h.l.c.D.L.P.H.G.S.S.P.L.L.Z.'.C.B.R.      . *                         o               ",
"+.x.P.N.N.N.J.L.L.L.L.L.L.L.L.L.L.j.R.@X@X(.@XC > .                   +             + = + o     ",
"|  .6.c.N.H.L.L.L.L.L.L.F.B.J.L.G...R.@X@Xr.M.c.N...                  ; *           * ; ; V P ] ",
"B | B 7.P.L.L.L.L.L.L.B.S.c.F.L.B.,.R.+X@X=.o.6.g.,.>               * ; ;           = ; ( +XoXoX",
"B  .0.L.L.L.L.L.L.J.N.P.c.B.B.h.l.k.Q.).l.,.| O.B.N.O.,         o X 1 1 ; .         = P @X@X+XoX",
"B 7.7.D.L.L.L.L.L.G.L.L.N.c.N.+.d.#X+Xn.c.c.g.x.L.N.g.>           @ = b E.( g     . S @X@X@X@X+X"
};
