/* XPM */
static char *result[] = {
/* columns rows colors chars-per-pixel */
"48 48 176 2 ",
"   c #0D0415",
".  c #0D0718",
"X  c #110516",
"o  c #110619",
"O  c #1B0618",
"+  c #14091D",
"@  c #190D1D",
"#  c #1B0716",
"$  c #22071B",
"%  c #27091C",
"&  c #2B091B",
"*  c #220817",
"=  c #390B1D",
"-  c #0C0E21",
";  c #170B20",
":  c #1B0D24",
">  c #0C1629",
",  c #1E1321",
"<  c #1F1028",
"1  c #131126",
"2  c #091E33",
"3  c #1C1F38",
"4  c #390A20",
"5  c #21112A",
"6  c #2A1A2E",
"7  c #231824",
"8  c #2B1A30",
"9  c #301E33",
"0  c #0A293D",
"q  c #16243D",
"w  c #2E222B",
"e  c #30222E",
"r  c #3C2A3B",
"t  c #382B32",
"y  c #4C141F",
"u  c #55111E",
"i  c #5C141C",
"p  c #621619",
"a  c #631A1D",
"s  c #6B1D1A",
"d  c #73241D",
"f  c #7C2A1D",
"g  c #6D281A",
"h  c #470C24",
"j  c #4B0E22",
"k  c #500F20",
"l  c #471325",
"z  c #521020",
"x  c #531A2D",
"c  c #571E30",
"v  c #681F20",
"b  c #5F2938",
"n  c #5D2636",
"m  c #46383A",
"M  c #692528",
"N  c #78332E",
"B  c #6A2F30",
"V  c #67313D",
"C  c #7E4228",
"Z  c #6E4639",
"A  c #092C40",
"S  c #08364C",
"D  c #083950",
"F  c #3C3746",
"G  c #533E48",
"H  c #733C41",
"J  c #09435A",
"K  c #234D5E",
"L  c #084A65",
"P  c #06526D",
"I  c #085C75",
"U  c #07657B",
"Y  c #524343",
"T  c #5C4B4A",
"R  c #56464E",
"E  c #5E4A50",
"W  c #76434A",
"Q  c #7A4448",
"!  c #6D5B54",
"~  c #685455",
"^  c #726058",
"/  c #7B635E",
"(  c #7E6B60",
")  c #863F31",
"_  c #80403A",
"`  c #83514F",
"'  c #935B4F",
"]  c #855455",
"[  c #8C5D5B",
"{  c #8B5F52",
"}  c #955B50",
"|  c #884A42",
" . c #93665E",
".. c #A1745A",
"X. c #9C6A61",
"o. c #897567",
"O. c #8D776B",
"+. c #937E6E",
"@. c #997C71",
"#. c #856A66",
"$. c #A67A6F",
"%. c #A97967",
"&. c #9A8474",
"*. c #9F8976",
"=. c #BF8B68",
"-. c #B88E79",
";. c #AB947D",
":. c #B9967F",
">. c #C38A63",
",. c #006280",
"<. c #0C6681",
"1. c #036982",
"2. c #166B82",
"3. c #1E7D94",
"4. c #037799",
"5. c #236F83",
"6. c #247184",
"7. c #387786",
"8. c #477C87",
"9. c #23899F",
"0. c #038EB2",
"q. c #0494AA",
"w. c #57858A",
"e. c #4C898C",
"r. c #6B8B8B",
"t. c #778E8C",
"y. c #7A918E",
"u. c #47A8B8",
"i. c #69B7BD",
"p. c #75B8B9",
"a. c #00ABC5",
"s. c #02B8CE",
"d. c #06BAD6",
"f. c #36B5CD",
"g. c #00B7E0",
"h. c #48BBC7",
"j. c #60B7C0",
"k. c #07C3D9",
"l. c #30CBD5",
"z. c #3BC4CD",
"x. c #00CBE4",
"c. c #00CBEA",
"v. c #00C4E6",
"b. c #02DDF3",
"n. c #23D7E5",
"m. c #48D4D7",
"M. c #8D978E",
"N. c #9A9B8F",
"B. c #909F92",
"V. c #B59482",
"C. c #BD9582",
"Z. c #B69E84",
"A. c #BF9E87",
"S. c #A39E90",
"D. c #B1A491",
"F. c #B8A692",
"G. c #BEA893",
"H. c #BAB197",
"J. c #8FB8AB",
"K. c #95BCB1",
"L. c #A7BAAA",
"P. c #B5BCA5",
"I. c #C19D86",
"U. c #C59F89",
"Y. c #C3A98D",
"T. c #C9A489",
"R. c #C7AD93",
"E. c #CCBA9D",
"W. c #CDB394",
"Q. c #D5B195",
"!. c #D6B698",
"~. c #D6B999",
"^. c #D8BD9B",
"/. c #D5B897",
"(. c #C2BCA1",
"). c #C0C1A5",
/* pixels */
"^.^.^.^.^.^.^.^.^.^.^.^.^.^.^.^.^.^.^.^.^.^.^.^.T.-. .V z i p p p p s a i b h j p p p p p p p p ",
"^.^.^.^.^.^.^.^.^.^.^.^.^.^.^.^.^.^.^.^.^.^.^.^.] M u u l h h h j j p f f i v k i p p p p p p p ",
"^.^.^.^.^.^.^.^.^.^.^.^.^.^.^.^.^.^.^.^.^.^.^.!.~.^.A.h i p a i z i i k k j a j h j u p p p p p ",
"^.^.^.^.^.^.^.^.^.^.^.^.^.^.^.^.^.^.^.^.^.^.Q.Q.Q././.n i p p p z p p p i h z z u j j h j k u i ",
"^.^.^.^.^.^.^.^.^.^.^.^.^.^.^.^.^.^.^.^.^.!.Q.Q.Q.Q.Q.n u p p p p i p p p h i p p p p u k k k h ",
"^.^.^.^.^.^.^.^.^.^.^.^.^.^.^.^.^.^.^.^.!.Q.Q.Q.Q.Q.Q.V j p p p p p p p p h p p p p p i p p p p ",
"^.^.^.^.^.^.^.^.^.^.^.^.^.^.^.^.^.^.^.!.Q.Q.Q.Q.Q.Q.Q.] j i i p p p p p p j p p p p p p p p p p ",
"^.^.^.^.^.^.^.^.^.^.^.^.^.^.^.^.^.^.!.Q.Q.Q.Q.Q.Q.Q.Q.[ h p p p p p p p p j p p p p p p p p p p ",
"^.^.^.^.^.^.^.^.^.^.^.^.^.^.^.^.^.Q.Q.Q.Q.Q.Q.Q.Q.Q.Q.W h p p p i p p p p h z i z p p p p p p p ",
"^.^.^.^.^.^.^.^.^.^.^.^.^.^.^.^.Q.Q.Q.Q.Q.Q.Q.Q.Q.Q.Q.n j p p p i p p p i h p p p p p p p p p p ",
"^.^.^.^.^.^.^.^.^.^.^.^.^.^.^.Q.Q.Q.Q.Q.Q.Q.Q.Q.Q.Q.$.c k i i p p i p p p h p p p p p p p p p p ",
"^.^.^.^.^.^.^.^.^.^.^.^.^.^.~.Q.Q.Q.Q.Q.Q.Q.Q.Q.U.H i i k h j h j h d a z j i p p p p p p p p p ",
"^.^.^.^.^.^.^.^.^.^.^.^.^.Q.Q.Q.Q.Q.Q.Q.Q.Q.Q.Q.Q.T.C.] k z p p i j p d d v i p p p p z p p p p ",
"^.^.^.^.^.^.^.^.^.^.^.^.Q.Q.Q.Q.Q.Q.Q.Q.Q.Q.Q.Q.Q.Q.Q.Q.V k p p p p i h j d h h j k p u p p p p ",
"^.^.^.^.^.^.^.^.^.^.^.~.Q.Q.Q.Q.Q.Q.Q.Q.Q.Q.Q.Q.Q.Q.Q.Q.$.x i p p p p v ` z j z k j j j h j z z ",
"^.^.^.^.^.^.^.^.^.^.!.Q.Q.Q.Q.Q.Q.Q.Q.Q.Q.Q.Q.Q.Q.Q.Q.Q.Q.[ j i u p p s X.c z p p p p i i i i z ",
"^.^.^.^.^.^.^.^.~.Q.Q.Q.Q.Q.Q.Q.Q.Q.Q.Q.Q.Q.Q.Q.Q.Q.Q.Q.Q.I.k z p p p N Q.H k i z p p p p p p a ",
"^.^.^.^.^.^.^.^.!.Q.Q.Q.Q.Q.Q.Q.Q.Q.Q.Q.Q.Q.Q.Q.Q.Q.Q.Q.Q.Q.H k p p p } Q.W j z s p p p p a d %.",
"^.^.^.^.^.^.^.Q.Q.Q.Q.Q.Q.Q.Q.Q.Q.Q.Q.Q.Q.Q.Q.Q.Q.Q.Q.Q.Q.Q.I.c j p p %.Q.W h i p p p p p M C.^.",
"^.^.^.^.^.^.Q.Q.Q.Q.Q.Q.Q.Q.Q.Q.Q.Q.Q.Q.Q.Q.Q.Q.Q.Q.Q.Q.Q.Q.Q.~ 3.p i Q h h h z p p p p _ ^.^.^.",
"^.^.^.^.^.!.Q.Q.Q.Q.Q.Q.Q.Q.Q.Q.Q.Q.Q.Q.Q.R.8.Q.Q.Q.Q.!.Q.Q.I.d.G j h h j i i i p p p } Q.~.^.^.",
"^.^.^.^.Q.Q.Q.Q.Q.Q.Q.Q.Q.Q.Q.Q.Q.Q.Q.Q.Q.Q.M.M.Q.Q.Q.L.L.Q.] v.F ; ;   + , l k B | C.Q.^.^.^.^.",
"^.^.^.Q.Q.Q.Q.Q.Q.Q.Q.Q.Q.Q.Q.Q.Q.Q.Q.Q.Q.Q.7.l.y.z.n.b.d.u.9.0.2   @ .     : 5 9 m / U.Q.^.^.^.",
"^.^.~.Q.Q.Q.Q.Q.Q.Q.Q.Q.Q.Q.Q.Q.Q.Q.Q.Q.Q.Q.8.v.a.b.c.b.<.c.c.g.I   +         ; 5 < ; / Q.!.^.^.",
"^.Q.Q.Q.Q.Q.Q.Q.Q.Q.Q.Q.Q.Q.Q.Q.Q.Q.Q.Q.Q.Q./.J.(.h.d.I q.c.P J . . ;   @ o o   +     / Q.Q.!.^.",
"!.Q.Q.Q.Q.Q.Q.Q.Q.Q.Q.Q.Q.Q.Q.Q.Q.Q.Q.Q.Q././.^.^.e.s.D b.L . .         : . : +       / Q.Q.Q.Q.",
"Q.Q.Q.Q.Q.Q.Q.Q.Q.Q.Q.Q.Q.Q.Q.Q.Q.Q.Q.Q.Q./.^.^.^.m.a.s.U 0   X *       ; + : < o   + @.Q.Q.Q.Q.",
"Q.Q.Q.Q.Q.Q.Q.Q.Q.Q.Q.Q.Q.Q.Q.Q.Q.Q.^.:.>.>.^.^.^.m.v.U - 4.X = u % # & + + + 5 < o   / I.Q.Q.Q.",
"5.D.Q.Q.Q.Q.Q.Q.Q.Q.Q.Q.Q.Q.Q.Q.Q.Q.Q.C _ _ ^.^.^.).P.K A U X % % O O X + + o 5 5 : o o 6 #.Q.Q.",
",.<.S.Q.Q.Q.Y.M.S.Q.Q.Q.Q.Q.Q.Q.Q.Q.^...g N ^.^.^.^.^.w D 0   % O O & = : + o < 5 5 +   : 6 A.Q.",
"N.D.S.Q.F.8.2.I U y.Q.Q.Q.Q.Q.Q.Q.^.^.T.{ T.^.^.^.^.~.e ; ; O h 4 O % O ; + o < 5 5 5 o +   V.Q.",
"Q.Q.Q.Q.r.5.r.D.M.U G.Q.Q.Q.Q.Q.^.^.^.*.^ ^.^.^.^.^.R 5 5 + X & O O 4 % < + + 5 5 5 5 ;   7 A.Q.",
"Q.Q.Q.Q.D.R.Q.Q.Q.7.t.Q.Q.Q.Q.!.^.^.^.&./ ^.^.^.^.&.1 , < @   #       < 5 + o 5 5 5 5 5 + : G V.",
"Q.Q.Q.Q.Q.Q.Q.Q.Q.R.M.Q.Q.Q.~.~.^.^.^.&.( Y.^.^.^.T     o .       o < 5 5 + o < 5 5 5 5 ; ; < 8 ",
"Q.Q.Q.Q.Q.Q.Q.Q.Q.Q.Q.Q.!.~.^.^.^.^.^.;.Y &.^.^.W.Y               + + ; < + + 5 5 < 5 < : ; < < ",
"Q.Q.Q.Q.Q.Q.Q.Q.Q.Q.Q.Q.~.^.^.^.^.^.^.^.&.Y ^.^.T T T t 7               + + o < +   o : < + < + ",
"Q.Q.Q.Q.Q.Q.Q.Q.Q.Q.!.~.^.^.^.^.^.^.^.^.Z.^ ^.^.! Z.^.^.W.&.,             o + +         < + ;   ",
"Q.Q.Q.Q.Q.Q.Q.Q.Q.Q.^.^.^.^.^.^.^.^.^.^.( / ^.Y.~ ^.^.^.&.R @               o           ; + o   ",
"Q.Q.Q.Q.Q.Q.Q.Q.Q.~.^.^.^.^.^.^.^.^.^.^.o.! O.( ! ^./.~ 6 +                                     ",
"Q.Q.Q.Q.Q.Q.Q.Q.~.^.^.^.^.^.^.^.^.^.^.^.^.;.! &.^.Y.t < +                                   o   ",
"Q.Q.Q.Q.Q.Q.Q.^.^.^.^.^.(.(.^.^.^.^.^.^.^.^.Y.R L P q <   S ,.,.S             o o         + <   ",
"Q.Q.Q.Q.Q.Q.!.^.^.^.^.(.j.^.^.^.^.^.^.^.^.^.&.+ 1 q 3 ;   > > S P 2           ; ;         ; < ; ",
"M.R.Q.Q.Q.^.^.^.^.^.E.h.(.^.^.^.^.^.^.^.^.^.&.      ; ;                     o < ;         < < < ",
"8.y.6.Q.^.^.^.^.^.^.p.f.^.^.^.^.^.^.^.^.^.^.Y.                  +           + 5 ;       : 5 < < ",
"Q.Q.Q.!.^.^.^.^.^.^.j.L.^.^.^.^.^.^.^.^.^.^.^./               ; :           : 5 ;     o < < 5 5 ",
"Q.Q.~.^.^.^.^.^.^.^.(.^.^.^.^.^.^.^.E.B.B.E.^.^.m           o < ;         o < 5 ;         < 5 V.",
"!.^.^.^.^.^.K.(.^.j.(.^.^.^.^.^.^.^.w.2.,.5.^.^.^           5 5           : < 6 Y t @     < O.Q.",
"L.^.^.^.^.(.j.^.(.h.^.^.^.^.^.^.^.^.^.E.r.2.H.~.o.      2 ; G E e         < r Y.^.^.Y.Z.Z.Y.^.~."
};
