/* XPM */
static char *result[] = {
/* columns rows colors chars-per-pixel */
"48 48 188 2 ",
"   c #0D0415",
".  c #0F0618",
"X  c #110516",
"o  c #110719",
"O  c #1C0619",
"+  c #15091D",
"@  c #1B0B1D",
"#  c #1C121F",
"$  c #220A1C",
"%  c #2C091C",
"&  c #25071C",
"*  c #320B1C",
"=  c #3A0B1F",
"-  c #37161D",
";  c #160B20",
":  c #1A0D23",
">  c #1B1222",
",  c #1F1028",
"<  c #270E25",
"1  c #330B22",
"2  c #370F27",
"3  c #221423",
"4  c #2C1126",
"5  c #251925",
"6  c #281D27",
"7  c #231129",
"8  c #281628",
"9  c #3C1424",
"0  c #3B1926",
"q  c #09253B",
"w  c #2E202A",
"e  c #33262E",
"r  c #3F3236",
"t  c #460E1E",
"y  c #45141E",
"u  c #421A1B",
"i  c #55121F",
"p  c #5C141C",
"a  c #61161A",
"s  c #631A1D",
"d  c #691D1C",
"f  c #6B241D",
"g  c #450D22",
"h  c #4B0E22",
"j  c #510F20",
"k  c #451321",
"l  c #4E1021",
"z  c #4D1329",
"x  c #471A23",
"c  c #531221",
"v  c #5A1622",
"b  c #5D1A23",
"n  c #541A2B",
"m  c #5C1F2C",
"M  c #611A20",
"N  c #5C2434",
"B  c #403237",
"V  c #453539",
"C  c #4A393D",
"Z  c #692326",
"A  c #6E322F",
"S  c #76322E",
"D  c #7B342B",
"F  c #612A36",
"G  c #6A2C32",
"H  c #632D39",
"J  c #66303C",
"K  c #69323D",
"L  c #753332",
"P  c #773837",
"I  c #0A2D44",
"U  c #122F48",
"Y  c #08344D",
"T  c #493542",
"R  c #4E3C40",
"E  c #6D3B43",
"W  c #733D43",
"Q  c #084B5F",
"!  c #065A77",
"~  c #374F65",
"^  c #5E484C",
"/  c #594847",
"(  c #484653",
")  c #624D4D",
"_  c #7A4B4C",
"`  c #7D4344",
"'  c #65504D",
"]  c #6C5853",
"[  c #755E57",
"{  c #785455",
"}  c #786059",
"|  c #84443D",
" . c #995439",
".. c #834842",
"X. c #864A44",
"o. c #8B534B",
"O. c #975A49",
"+. c #885D57",
"@. c #965F52",
"#. c #88655E",
"$. c #936554",
"%. c #99675B",
"&. c #A46A57",
"*. c #846B61",
"=. c #896F64",
"-. c #8A7266",
";. c #8F7568",
":. c #9C7369",
">. c #957A6C",
",. c #997C6D",
"<. c #987368",
"1. c #976D65",
"2. c #A1766A",
"3. c #AD7D6D",
"4. c #A07567",
"5. c #B07F67",
"6. c #A97E70",
"7. c #9C8674",
"8. c #AA8575",
"9. c #A48E79",
"0. c #AC8B7A",
"q. c #A68776",
"w. c #B78B76",
"e. c #B48D7B",
"r. c #B78A77",
"t. c #AF907D",
"y. c #B5947D",
"u. c #BA937D",
"i. c #B98765",
"p. c #C0957F",
"a. c #056C82",
"s. c #096881",
"d. c #016F90",
"f. c #1C8397",
"g. c #0494AB",
"h. c #248BA3",
"j. c #02A2B8",
"k. c #1EA2B6",
"l. c #4D969E",
"z. c #519EA7",
"x. c #40A9B1",
"c. c #62ABAD",
"v. c #72A9A5",
"b. c #63B3B9",
"n. c #019BC2",
"m. c #139DC0",
"M. c #03B1C5",
"N. c #04A8D1",
"B. c #10BED0",
"V. c #3DACC3",
"C. c #42ADC0",
"Z. c #4DB3C3",
"A. c #0EC5D8",
"S. c #3FD1D7",
"D. c #01CFE4",
"F. c #04D3E8",
"G. c #5BC5C4",
"H. c #6DC3C2",
"J. c #B69681",
"K. c #BB9682",
"L. c #BB9B85",
"P. c #B69E84",
"I. c #B5B49E",
"U. c #A4AC9A",
"Y. c #95B9AF",
"T. c #BCBCA4",
"R. c #B4BDA7",
"E. c #C39E85",
"W. c #C49E88",
"Q. c #C4A38A",
"!. c #CAA68C",
"~. c #C4AA8D",
"^. c #CCA98F",
"/. c #CBA280",
"(. c #D3B18E",
"). c #CFAB91",
"_. c #D2AE92",
"`. c #CBBD9F",
"'. c #CDB193",
"]. c #D5B195",
"[. c #D6B698",
"{. c #D6BA9A",
"}. c #D8BD9B",
"|. c #CBBFA0",
" X c #88C3B8",
".X c #B6C2A9",
"XX c #BEC1A6",
"oX c #C0C1A5",
/* pixels */
"}.}.}.}.}.}.}.}.}.}.}.}.}.}.}.}.}.}.}.}.}.}.}.|.}.}.}.}.}.}.}.}.}.}.}.}.}.}.}.}.}.}.}.}.}.}.}.}.",
"}.}.}.}.}.}.}.}.}.}.}.}.}.}.}.}.}.}.}.}.}.}.XX|.}.}.}.}.}.}.}.}.}.}.}.}.}.}.}.}.}.}.}.}.}.}.}.}.",
"}.}.}.}.}.}.}.}.}.}.}.}.}.|.oX}.}.}.}.}.}.R.H.R.{.{.}.}.}.}.}.}.}.}.}.}.}.}.}.}.}.}.}.}.}.}.}.}.",
"}.}.}.}.}.}.}.}.}.}.}.}.}.R. XR.}.oX.X.X|.Y.C.).].[.{.}.}.}.}.}.}.}.}.}.}.}.}.}.}.}.}.}.}.}.}.}.",
"}.}.}.}.}.}.}.}.}.}.}.}.{.T.c.c.v.G.S.x.b.x.V.J.3.!.[.{.}.}.}.}.}.}.}.}.}.}.}.}.}.}.}.}.}.}.}.}.",
"}.}.}.}.}.}.}.}.}.}.}.}.{.T.z.h.k.F.D.a.N.n.m.( P 3._.[.}.}.}.}.}.}.}.}.}.}.}.}.}.}.}.}.}.}.}.}.",
"}.}.}.}.}.}.}.}.}.}.}.}.{.}.R.U.c.A.a.j.d.Y I : k G 6._.{.{.}.}.}.}.}.}.}.}.}.}.}.}.}.}.}.}.}.}.",
"}.}.}.}.}.}.}.}.}.}.}.}.}.}.}.}.v.B.g.M.I .     & t G r.].[.}.}.}.}.}.}.}.}.}.}.}.}.}.}.}.}.}.}.",
"}.}.}.}.}.}.}.}.}.}.}.}.}.}.}.Q.l.g.g.Q q     . X & h P r._.[.}.}.}.}.}.}.}.}.}.}.}.}.}.}.}.}.}.",
"}.}.}.}.}.}.}.}.}.}.}.}.}.'.0.E ~ f.s.!       X + o 1 h M | w.].[.[.}.[.}.}.}.}.}.}.}.}.}.}.}.}.",
"}.}.}.}.}.}.}.}.}.].}.'.e.o.n g 4 7 U ;   X X X + o % g i a M D O.$.4.<.0.[.}.}.}.}.}.}.}.}.}.}.",
"}.}.}.}.}.}.}.}.}.:.y.#.n j k 4 : : % = X O & X + o & g p a s d d i t n :.[.}.}.}.}.}.}.}.}.}.}.",
"}.}.}.}.}.(./.'.}.| v c c k 4 : o @ & % % % O $ @ o @ i p p s s p i p a o.y.].}.^.8.!.}.}.}.}.}.",
"}.}.}.}.}.i. .i.8.F j j k 4 : o : : % % = % O X @ @ u f b v c p a a a a a D %.2.{ F L.}.}.}.}.}.",
"}.}.}.}.}.$.f | F k c 9 7 7 : X : < t * O O X o + @ - 9 2 h h a a a a a a a p n c Z u.}.}.}.}.}.",
"}.}.}.}.}.y.A x l i i k : : + X + @ & &     X o : o : 7 7 4 H s p a a p p a i i p s D %.E.}.}.}.",
"}.}.}.}.{.[._ * l a p o.#.3 X   ; X . X       . ; ; ; ; : 7 K.L M p a p p d a p a a a M L @.Q.].",
"}.}.}.}.[.1.n * g p X.u.-.+   o : @ .   ;   X + + ; X   o 7 _.e.K h p p j v a a a p a a a M G E ",
"}.}.}.}.e.N t * h i +.C ;   . ; : ; .   , . o : + : o   X ^ _.].J.N h h h j p v i h j j h z E r.",
"}.}.{.~._ z i y 0 0 ] 8 o       X ; . : +   ; , ; ; : X 8 L.].]._.r.a v h z z n J E +.r.K.{.{.}.",
"}.}.[.:.N j P 3.,.;.y.R .       . X X ; . . ; , ; ; o   ^ !._.].).&.D L ` +.J.W._.].[.}.}.}.}.}.",
"}.}.y.J b ..E._.].].q.> X o     . o ; X     o : : o o   3 =.!.].!.O.$.E._.].].].].].].].}.}.}.}.",
"{.{.q.m o.W.]._._.J.T .   + o       .           o o       o 0.]._.e.=.L.].].].].].].].].[.}.}.}.",
"}.{.6.W K.].]._.0.T :   X ; : o                 o o       V Q.].].W.>.W.].].].].].].].].].[.}.}.",
"{.[.u.2._.].].].^ ; :     : : o                 . .     . =.].].].W.;.L.].].].].].].].].].].[.}.",
"].].^.^.].].].].]   +   . + +                           @ ) q.t.L.2.*.W.].].].].].].].].].].].].",
"].].].].].].].].>.                                      V ,.} ' { [ W.].].].].].].].].].].].].].",
"].].].].].]._.].,.                                      C Q.^.~.!.!.].].].].].].].].].].].].].].",
"].].].].].].].].].5 X 3 w X                             6 Q.].].].].].].].].].].].].].].].].].].",
"].].].].].].].].].u./ !.y.V X       5 #         > e 5 w -.[.].].].].].].].].].].].].].].].].].].",
"].].].].[._.].].].].(.[.{.7.e X   r y.7.V # . r 9.'.~.~.{.}.{.].].].].].].].].].].].].].].].].].",
"].].].].].].].].].].].[.(.~.*.r r 9.}.|.~.] / 7.}.}.}.}.}.}.{.{.].].].].].].].].].].].].].].].].",
"].].].].].].].].].].].].].].).K.!.}.}.}.}.}.}.}.}.}.}.}.}.}.}.}.}.].].].].].].].].].].].].].].].",
"].].].].].].].].].].]._.].].{.}.}.}.}.}.}.}.}.}.}.}.}.}.}.}.}.}.{.{.[.].].].].].].].].].].].].].",
"].].].].].].].].].].].].[.}.}.}.}.}.}.}.}.}.}.}.}.}.}.}.}.}.}.}.}.}.[.[.].].].].].].].].].].].].",
"].].].].].].].].].].].].[.}.}.}.}.}.}.}.}.}.}.}.}.}.}.}.}.}.}.}.}.}.}.[.].].].].].].].].].].].].",
"].].].].].].].].].].[.[.}.}.}.}.}.}.}.}.}.}.}.}.}.}.}.}.}.}.}.}.}.}.}.}.{.[.].].].].].].].].].].",
"].].].].].].].].].[.}.}.}.}.}.}.}.}.}.}.}.}.}.}.}.}.}.}.}.}.}.}.}.}.}.}.}.[.].]._.].].].].].].].",
"].].].].].].].].].[.}.}.}.}.}.}.}.}.}.}.}.}.}.}.}.}.}.}.}.}.}.}.}.}.}.}.}.}.}.].].].].].].].].].",
"].].].].].].].].}.}.}.}.}.}.}.}.}.}.}.}.}.}.}.}.}.}.}.}.}.}.}.}.}.}.}.}.}.}.}.}.].].].].].].].].",
"].].].].].].[.}.}.}.}.}.}.}.}.}.}.}.}.}.}.}.}.}.}.}.}.}.}.}.}.}.}.}.}.}.}.}.}.}.[.].].].].].].].",
"].].].].].].[.}.}.}.}.}.}.}.}.}.}.}.}.}.}.}.}.}.}.}.}.}.}.}.}.}.}.}.}.}.}.}.}.}.}.[.].].].].].].",
"].].].].[.[.}.}.}.}.}.}.}.}.}.}.}.}.}.}.}.}.}.}.}.}.}.}.}.}.}.}.}.}.}.}.}.}.}.}.}.}.}.[.].].].].",
"].].].[.}.}.}.}.}.}.}.}.}.}.}.}.}.}.}.}.}.}.}.}.}.}.}.}.}.}.}.}.}.}.}.}.}.}.}.}.}.}.}.[.].].].].",
"].].].[.}.}.}.}.}.}.}.}.}.}.}.}.}.}.}.}.}.}.}.}.}.}.}.}.}.}.}.}.}.}.}.}.}.}.}.}.}.}.}.}.}.].].].",
"].].}.}.}.}.}.}.}.}.}.}.}.}.}.}.}.}.}.}.}.}.}.}.}.}.}.}.}.}.}.}.}.}.}.}.}.}.}.}.}.}.}.}.}.}.].].",
"[.}.}.}.}.}.}.}.}.}.}.}.}.}.}.}.}.}.}.}.}.}.}.}.}.}.}.}.}.}.}.}.}.}.}.}.}.}.}.}.}.}.}.}.}.}.[.].",
"[.}.}.}.}.}.}.}.}.}.}.}.}.}.}.}.}.}.}.}.}.}.}.}.}.}.}.}.}.}.}.}.}.}.}.}.}.}.}.}.}.}.}.}.}.}.}.}."
};
