/* XPM */
static char *result[] = {
/* columns rows colors chars-per-pixel */
"48 48 175 2 ",
"   c #0D0415",
".  c #100619",
"X  c #1B0619",
"o  c #14081C",
"O  c #180E1C",
"+  c #100416",
"@  c #25071B",
"#  c #29081D",
"$  c #27081C",
"%  c #31091E",
"&  c #3C1317",
"*  c #0D0E21",
"=  c #170B20",
"-  c #1B0D24",
";  c #0C182C",
":  c #1E1320",
">  c #1F1028",
",  c #12182D",
"<  c #3A0A21",
"1  c #231824",
"2  c #21112A",
"3  c #28192B",
"4  c #301027",
"5  c #3D1223",
"6  c #2A1931",
"7  c #301E33",
"8  c #0E2339",
"9  c #30232D",
"0  c #3D2A3A",
"q  c #382734",
"w  c #55111F",
"e  c #5B131C",
"r  c #581B1C",
"t  c #621619",
"y  c #60191E",
"u  c #6C291A",
"i  c #470C24",
"p  c #4C0E22",
"a  c #500F20",
"s  c #4E1428",
"d  c #531120",
"f  c #521629",
"g  c #571928",
"h  c #571E30",
"j  c #601A20",
"k  c #48222E",
"l  c #5C222C",
"z  c #4B2334",
"x  c #5A2334",
"c  c #5F2937",
"v  c #5F2938",
"b  c #53273B",
"n  c #46383B",
"m  c #46373B",
"M  c #56363A",
"N  c #652A34",
"B  c #67313D",
"V  c #6D333B",
"C  c #783939",
"Z  c #682429",
"A  c #09344D",
"S  c #18324B",
"D  c #3B2843",
"F  c #4F3C46",
"G  c #493642",
"H  c #503E40",
"J  c #693941",
"K  c #064A65",
"L  c #294561",
"P  c #2D5065",
"I  c #514242",
"U  c #5D4B4C",
"Y  c #5D464E",
"T  c #5E4A50",
"R  c #604C4A",
"E  c #74444A",
"W  c #794449",
"Q  c #66514E",
"!  c #674F54",
"~  c #7E4C50",
"^  c #675650",
"/  c #6D5B54",
"(  c #715A55",
")  c #726058",
"_  c #7C635E",
"`  c #415460",
"'  c #545461",
"]  c #7E6B60",
"[  c #822D1B",
"{  c #83331C",
"}  c #88452B",
"|  c #83433B",
" . c #974C32",
".. c #9A553F",
"X. c #A55D34",
"o. c #894B42",
"O. c #834E4C",
"+. c #864844",
"@. c #8F5249",
"#. c #985745",
"$. c #855354",
"%. c #8E5E5C",
"&. c #955B50",
"*. c #9B6357",
"=. c #96665B",
"-. c #B8724D",
";. c #8A6E69",
":. c #806C62",
">. c #966863",
",. c #996E66",
"<. c #877068",
"1. c #877366",
"2. c #9D736A",
"3. c #947E6E",
"4. c #92776A",
"5. c #A87565",
"6. c #A4796E",
"7. c #A2756C",
"8. c #BA7E60",
"9. c #A97F72",
"0. c #9C8273",
"q. c #AB8375",
"w. c #A88A78",
"e. c #B48A7A",
"r. c #BA8E7B",
"t. c #AB947D",
"y. c #C48259",
"u. c #C69679",
"i. c #056483",
"p. c #046B8C",
"a. c #007B9D",
"s. c #157999",
"d. c #027FA2",
"f. c #5F7A88",
"g. c #0286AB",
"h. c #1289AF",
"j. c #048EB3",
"k. c #0096B8",
"l. c #0E96BA",
"z. c #5D8F9A",
"x. c #019FC7",
"c. c #019FC8",
"v. c #05A4C7",
"b. c #02B4CF",
"n. c #00AFD7",
"m. c #00B3DD",
"M. c #00B7E0",
"N. c #00BCE2",
"B. c #00C5E7",
"V. c #00DFF5",
"C. c #00D5F0",
"Z. c #8E978E",
"A. c #AE9481",
"S. c #B79683",
"D. c #BD9582",
"F. c #B69E84",
"G. c #BD9C85",
"H. c #BCA489",
"J. c #8EBBB2",
"K. c #9ABEB0",
"L. c #C49F89",
"P. c #C59A82",
"I. c #C8A087",
"U. c #C4A48B",
"Y. c #CCA48A",
"T. c #C3A98D",
"R. c #CDA88F",
"E. c #C7AE90",
"W. c #CAAE91",
"Q. c #D1AD92",
"!. c #CDB394",
"~. c #D5B195",
"^. c #D6B698",
"/. c #D7B999",
"(. c #D8BD9B",
/* pixels */
"(.(.(.(.(.(.(.(.(.(.(.(.(.(.(.(.(.(.(.(.(.(.(.(.(.(.(.(.(.(.(.(.(.(.(.(.(.(.(.(.(.(.(.(.(.(.(.(.",
"(.(.(.(.(.(.(.(.(.(.(.(.(.(.(.(.(.(.(.(.(.(.(.(.(.(.(.(.(.(.(.(.(.(.(.(.(.(.(.(.(.(.(.(.(.(.(.(.",
"(.(.(.(.(.(.(.(.(.(.(.(.(.(.(.(.(.(.(.(.(.(.(.^./.(.(.(.(.(.(.(.(.(.(.(.(.(.(.(.(.(.(.(.(.(.(.(.",
"(.(.(.(.(.(.(.(.(.(.(.(.(.(.(.(.(.(.(.(.(.(.~.~.~.^.(.(.(.(.(.(.(.(.(.(.(.(.(.(.(.(.(.(.(.(.(.(.",
"(.(.(.(.(.(.(.(.(.(.(.(.(.(.(.(.(.(.(.(.(.^.~.~.~.~.~.(.(.(.(.(.(.(.(.(.(.(.(.(.(.(.(.(.(.(.(.(.",
"(.(.(.(.(.(.(.(.(.(.(.(.(.(.(.(.(.(.(.(.^.~.~.~.~.~.~./.(.(.(.(.(.(.(.(.(.(.(.(.(.(.(.(.(.(.(.(.",
"(.(.(.(.(.(.(.(.(.(.(.(.(.(.(.(.(.(.(.~.~.~.~.~.~.~.~.~.^.(.(.(.(.(.(.(.(.(.(.(.(.(.(.(.(.(.(.(.",
"(.(.(.(.(.(.(.(.(.(.(.(.(.(.(.(.(.(.^.~.~.~.~.~.~.~.~.~.~.~.(.(.(.(.^.!.(.(.(.(.(.(.(.(.(.(.(.(.",
"(.(.(.(.(.(.(.(.(.(.(.(.(.(.(.(.(.^.~.~.~.~.~.~.~.~.~.~.~.~.^.(.(.(.O.=.(.(.(.(.(.(.(.(.(.(.(.(.",
"(.(.(.(.(.(.(.(.(.(.(.(.(.(.(.(.~.~.~.~.~.~.~.~.~.~.~.~.~.~.~.^.(.(.#.| (.(.(.(.(.(.(.(.(.(.(.(.",
"(.(.(.(.(.(.(.(.(.(.(.(.(.(.(.^.~.L.%.~.~.~.~.~.~.~.~.~.~.~.~.~.~.(.| j ,.(.(.(.(.(.(.(.(.(.(.(.",
"(.(.(.(.(.(.(.(.(.(.(.(.(.(.^.~.~.9.N ~.~.~.~.~.~.~.~.~.~.~.~.~.~.9.d j v (.(.(.(.(.(.(.(.(.(.(.",
"(.(.(.(.(.(.(.(.(.(.(.(.(.~.~.~.L.h N ~.Q.~.~.~.~.~.~.~.~.~.~.~.q.g d j i 2.(.(.(.(.(.(.(.(.(.(.",
"(.(.(.(.(.(.(.(.(.(.(.(.^.~.~.Q.,.e e O.~.~.~.~.~.~.~.~.~.~.~.Q.x i p i a x /.(.(.(.(.(.(.(.(.(.",
"(.(.(.(.(.(.(.(.(.(.(./.~.~.~.Y.f i i i e.~.~.~.~.~.~.~.~.~.~.W i e a i y i q./.(.(.(.(.(.(.(.(.",
"(.(.(.(.(.(.(.(.(.(.^.~.~.~.~.%.p i a a h R.~.~.P.~.Y.~.~.Q.7.p d t a i t e N (.(.(.(.(.(.(.(.(.",
"(.(.(.(.(.(.(.(./.~.~.~.~.~.D.f j i a t p J R.e.&.~.u.#.Q.P.p p t t a i e t p 7.(.(.(.(.(.(.(.(.",
"(.(.(.(.(.(.(.(.^.~.~.~.~.~.J a e i t t d a J C *.~.P.[ o.x a d e t e i e t a N W.(.(.(.(.(.(.(.",
"(.(.(.(.(.(./.~.~.~.~.~.~.P.i d e i e t a t d a J ~.~.+.d d d t e t e i e t e p 7.(.(.(.(.(.(.(.",
"(.(.(.(.(.(.^.~.~.~.~.~.Q.x d t p a t t d t a a O.~.~.P.d a d t t t e i e e e e x Q.(.(.(.(.(.(.",
"(.(.(.(.(.^.~.~.~.~.~.~.9.i t t p d t t t e i i >.~.~.~.J p a t t t e i e t t t p 6.^.(.(.(.(.(.",
"(.(.(.(.~.~.~.~.~.~.~.~.J +.t t p t t t t p a a %.~.~.~.,.d a d t t t p e t t t e h ^.^.(.(.(.(.",
"(.(.(.^.~.~.~.~.~.~.~.~.9.~.o.t i t t t e i e p %.~.~.~.P.g a p t t t p e t t @.r.$.q.Q.~.(.(.(.",
"(.(.^.~.~.~.~.~.~.~.~.~.~.~.Y.Z p t t t a p z L f.Z.~.K.J.b d i e t t p a t &.~.~.~.Y.^.Q.(.(.(.",
"/.^.~.~.~.~.~.~.~.~.~.~.~.~.~.J p t Z P v.j.B.N.a.j.d.C.m.h.s w p e t w a C ~.~.~.~.~.~.~.~.^./.",
"~.~.~.~.~.~.~.~.~.~.~.~.~.~.^.J e M l.k.v.v.V.N.p.d.p.n.i.p.D e e a t w a *.~.~.~.~.~.~.~.~.~.~.",
"~.~.~.~.~.~.y.-.8.~.~.~.~.~.~.~ R.z.' L P c.m.M.M.K * A   * 6 d t e e w a ~.~.~.~.~.~.~.~.~.~.~.",
"~.~.~.~.~.~. .u +.~.~.~.Q.Y.S.S.U.~.E 5 k s.m.b.p.p..     + > 4 e t p $.V ~.Q.~.~.~.~.~.~.~.~.~.",
"~.~.~.~.~.~.| [ &.^.~.S.Y 7 2 2 6 m 2 2 - 8 M.p.d.;       o = 2 J 5.e.7.D.^.~.~.~.~.~.~.~.~.~.~.",
"~.~.~.~.~.~.u.M w.~.~.0 = o o o o o - >   ; c.c.i., + #   = o 2 ! ~.~.~.~.u.y.8.~.~.~.~.~.~.~.~.",
"~.~.~.~.~.~.~.R 3.~.;.=         + - 2 >     i.d.S < X X   > = - 0 ~.~.^.~. .X. .P.~.~.~.Q.^.Q.~.",
"~.~.~.~.~.~.~.( L.~._ .           + = -   < % @ $ i X % + - - + 0 ~.~.Q.^.5.& r &.~.~.~.^.Q.^.^.",
"~.~.~.~.~.~.~.Q ,.~.;.              . =   $ % $         = 2 -   0 ^.~.~.~.q =.#.P.~.~.~.~.~.~.~.",
"~.~.~.~.~.~.~.D.( 0.~.n                                 > 2     2 3.~.~.Q _ T.~.~.~.~.~.~.~.~.~.",
"~.~.~.~.~.~.~.~.w.( Q ~.I         o     o - = o - .   = 2 2 .   > G /.^.q ~.~.~.~.~.~.~.~.~.~.~.",
"~.~.~.~.~.~.~.~.Q.U.M I I O   . > 2   = > 2 2 2 > o   > 2 2 .   > 2 (.! w.~.~.~.~.~.~.~.~.~.~.~.",
"~.~.~.~.~.~.~.~.~.~.^.H.1.3 > 2 2 > o > > = > - = = > 2 2 2 . . 2 2 /.<.3.~.~.~.~.~.~.~.~.~.~.~.",
"~.~.~.~.~.~.~.~.~.^.1.q 2 2 - - o   = -       O 2 2 2 2 - -     2 2 E.] ] /.^.~.~.~.~.~.~.~.~.~.",
"~.~.~.~.~.~.~.~.~.A.2 - = = > > o   o       O > > - > > = -   = 2 2 0.) ] (.(.~.~.~.~.~.~.~.~.~.",
"~.~.~.~.~.~.~.~./.T .         -     . =   o       o > . - -   - 2 2 0.W.1.(.(./.~.~.~.~.~.~.~.~.",
"~.~.~.~.~.~.^.(.(.>           . .         .           . > =   2 2 2 :.n Q (.(.(./.~.~.~.~.~.~.~.",
"~.~.~.~.~.Q.(.(./.>                       .             > o o 2 o 2 (.H.T.(.(.(.(.(.~.~.~.~.~.~.",
"~.~.~.~.~.(.(.(.(.G                                     - . = 2 o R (.(.(.(.(.(.(.(./.~.~.~.~.~.",
"~.~.~.~.(.(.(.(.(.(.U   . :   : /           ^     O     . 7 F H G.(.(.(.(.(.(.(.(.(.(.(.~.~.~.~.",
"~.~.~.(.(.(.(.(.(.(.E.) H.E.F.t.1         1 !.F.n I .   n E.(.(.(.(.(.(.(.(.(.(.(.(.(.(.(.~.~.~.",
"~.~.(.(.(.(.(.(.(.(.(.(.(.(.(.!.1         m (.(.(.t.F.0.U.(.(.(.(.(.(.(.(.(.(.(.(.(.(.(.(.^.~.~.",
"~.(.(.(.(.(.(.(.(.(.(.(.(.(.(.(.m     O / (.(.(.(.(.(.(.(.(.(.(.(.(.(.(.(.(.(.(.(.(.(.(.(.(.(.~.",
"(.(.(.(.(.(.(.(.(.(.(.(.(.(.(.(.!.t.H.T.(.(.(.(.(.(.(.(.(.(.(.(.(.(.(.(.(.(.(.(.(.(.(.(.(.(.(.(."
};
