/* XPM */
static char *result[] = {
/* columns rows colors chars-per-pixel */
"48 48 200 2 ",
"   c #0D0415",
".  c #0D081A",
"X  c #140517",
"o  c #130619",
"O  c #1B061A",
"+  c #14091D",
"@  c #1B0B1A",
"#  c #21071A",
"$  c #27081B",
"%  c #2C091D",
"&  c #360C1A",
"*  c #0C0E21",
"=  c #170B20",
"-  c #1A0D23",
";  c #0C1528",
":  c #1F1028",
">  c #0C1D31",
",  c #3A0B21",
"<  c #21112A",
"1  c #251827",
"2  c #35192B",
"3  c #0A2338",
"4  c #3D2E34",
"5  c #362633",
"6  c #2F212C",
"7  c #55111E",
"8  c #5C141C",
"9  c #621619",
"0  c #6A1E1C",
"q  c #7C2A1C",
"w  c #6B291A",
"e  c #460C24",
"r  c #4B0E22",
"t  c #500F20",
"y  c #521020",
"u  c #591B2A",
"i  c #571F31",
"p  c #631C20",
"a  c #4F2330",
"s  c #4A393C",
"d  c #67343F",
"f  c #713531",
"g  c #744028",
"h  c #092C43",
"j  c #0A354C",
"k  c #503E40",
"l  c #533E48",
"z  c #6F3D45",
"x  c #09485D",
"c  c #35444F",
"v  c #075875",
"b  c #0C4C68",
"n  c #365564",
"m  c #2E586E",
"M  c #03627C",
"N  c #5D464E",
"B  c #634E4D",
"V  c #7B494A",
"C  c #66514E",
"Z  c #755958",
"A  c #605D5E",
"S  c #78635D",
"D  c #8A554E",
"F  c #976B5D",
"G  c #8F645F",
"H  c #BA7C5B",
"J  c #846B62",
"K  c #8B736A",
"L  c #937A6B",
"P  c #9D8171",
"I  c #A88373",
"U  c #A88A78",
"Y  c #B1917A",
"T  c #C0835F",
"R  c #006381",
"E  c #016B8A",
"W  c #0D6685",
"Q  c #136A83",
"!  c #186C83",
"~  c #00718F",
"^  c #006F90",
"/  c #017594",
"(  c #017A9C",
")  c #057C94",
"_  c #157B95",
"`  c #12748F",
"'  c #236F83",
"]  c #247184",
"[  c #307586",
"{  c #3B7886",
"}  c #337C8C",
"|  c #247D94",
" . c #307F90",
".. c #067FA0",
"X. c #477C87",
"o. c #04879D",
"O. c #18849C",
"+. c #25869C",
"@. c #36899B",
"#. c #0086A9",
"$. c #0389A9",
"%. c #0090AF",
"&. c #008EB4",
"*. c #0093B4",
"=. c #0096BC",
"-. c #049CB9",
";. c #1895B3",
":. c #1890AD",
">. c #2499B3",
",. c #3096AA",
"<. c #01A2BB",
"1. c #05A1B6",
"2. c #36A7BA",
"3. c #488089",
"4. c #5A8589",
"5. c #588D93",
"6. c #5E9299",
"7. c #6B8C8C",
"8. c #62898B",
"9. c #778E8C",
"0. c #7B928D",
"q. c #77908C",
"w. c #6E9395",
"e. c #4EACB8",
"r. c #6BB4BB",
"t. c #6BB6B3",
"y. c #7CB1B3",
"u. c #77C3BE",
"i. c #009CC2",
"p. c #00A1CA",
"a. c #05A8C5",
"s. c #16A9C9",
"d. c #00B5CE",
"f. c #00ABD3",
"g. c #00AED8",
"h. c #00B3DD",
"j. c #00BEDB",
"k. c #05B6D6",
"l. c #15B3D7",
"z. c #34AFC4",
"x. c #36B4CA",
"c. c #24B4D2",
"v. c #00B7E0",
"b. c #00BBE2",
"n. c #56B5C1",
"m. c #47BDCB",
"M. c #00C3DC",
"N. c #00C2E5",
"B. c #00CBE2",
"V. c #00C6E8",
"C. c #00CCEB",
"Z. c #00D2ED",
"A. c #00D8EF",
"S. c #12DAED",
"D. c #00DEF4",
"F. c #00D5F0",
"G. c #17C6E0",
"H. c #23D7E5",
"J. c #47D0D5",
"K. c #47C8D1",
"L. c #6AC8C5",
"P. c #82928D",
"I. c #8E978E",
"U. c #839B94",
"Y. c #909F92",
"T. c #919486",
"R. c #BB9C85",
"E. c #B59884",
"W. c #A19D90",
"Q. c #A19A8C",
"!. c #8FA298",
"~. c #B8A189",
"^. c #B1A491",
"/. c #B4AE96",
"(. c #BDA994",
"). c #B5A896",
"_. c #BAB19E",
"`. c #B7B39A",
"'. c #A7AD9B",
"]. c #8EB1AD",
"[. c #82B3B2",
"{. c #96BAAF",
"}. c #A4B6A9",
"|. c #B4BBA6",
" X c #B8B4A1",
".X c #C29C84",
"XX c #C6A58A",
"oX c #D0A88B",
"OX c #CBAE94",
"+X c #C3AB94",
"@X c #C9B89B",
"#X c #D5B195",
"$X c #D6B698",
"%X c #D7B999",
"&X c #D8BD9B",
"*X c #D5B897",
"=X c #C0BCA2",
"-X c #88C2B8",
";X c #90C8B9",
":X c #B4C3AA",
/* pixels */
"&X&X&X&X&X&X&X&X&X&X&X&X&X&X&X&X&X&X&X&X&X&X&X&X&X&X&X&X&X&X&X&X&X&X&X&XI r 8 9 9 9 9 9 9 9 t 7 ",
"&X&X&X&X&X&X&X&X&X&X&X&X&X&X&X&X&X&X&X&X&X&X&X&X&X&X&X&X&X&X&X&X&X&X&X&XG r 8 9 9 9 8 9 9 9 e 8 ",
"&X&X&X&X&X&X&X&X&X&X&X&X&X&X&X&X&X&X&X&X&X&X&X$X$X&X&X&X&X&X&X&X&X&X&XY V t 7 7 8 9 7 9 9 9 y y ",
"&X&X&X&X&X&X&X&X&X&X&X&X&X&X&X&X&X&X&X&X&X&X#X#X#X$X&X&X&X&X&X&X&X&XG u 7 t t t r r r 9 0 u y y ",
"&X&X&X&X&X&X&X&X&X&X&X&X&X&X&X&X&X&X&X&X&X#X#X#X#X#X*X&X&X&X&X&X&X&X&XXXU y 7 8 8 8 7 8 0 q 8 y ",
"&X&X&X&X&X&X&X&X&X&X&X&X&X&X&X&X&X&X&X&X$X#X#X#X#X#X#X$X&X&X&X&X&X&X&X&X&XV r 8 9 9 9 9 r r 9 7 ",
"&X&X&X&X&X&X&X&X&X&X&X&X&X&X&X&X&X&X&X$X#X#X#X#X#X#X#X#X$X&X&X&X&X&X&X&X&XOXi 7 9 9 9 9 8 D t r ",
"&X&X&X&X&X&X&X&X&X&X&X&X&X&X&X&X&X&X$X#X#X#X#X#X#X#X#X#X#X#X&X&X&X&X&X&X&X&XI r 8 7 9 9 9 F d r ",
"&X&X&X&X&X&X&X&X&X&X&X&X&X&X&X&X&X#X#X#X#X#X#X#X#X#X#X#X#X#X$X&X&X&X&X&X&X&X&Xd r 9 9 9 9 XXI e ",
"&X&X&X&X&X&X&X&X&X&X&X&X&X&X&X&X#X#X#X#X#X#X#X#X#X#X#X#X#X#X#X#X&X&X&X&X&X&X&XI e 9 9 9 f %XI e ",
"&X&X&X&X&X&X&X&X&X&X&X&X&X&X&X#X#X#X#X#X#X#X#X#X#X#X#X#X#X#X#X#X#X&X&X&X&X&X&X#Xd t 8 9 V %XI e ",
"&X&X&X&X&X&X&X&X&X&X&X&X&X&X$X#X#X#X#X#X#X#X#X#X#X#X#X#X#X#X#X#X#X*X&X&X&X&X&X&XI O.a 9 D u e e ",
"&X&X&X&X&X&X&X&X&X&X&X&X&X#X#X#X#X#X#X#X#X#X#X#X#X#X#X#X#X#X#X7.+X#X$X&X&X&X&X$X2.m 7 r e e y 8 ",
"&X&X&X&X&X&X&X&X&X&X&X&X$X#X#X#X#X#X#X#X#X#X#X#X#X#X#X#X#X#X#X~.3.#X#X#X:X;X&XU s.m $ -   o - , ",
"&X&X&X&X&X&X&X&X&X&X&X%X#X#X#X#X#X#X#X#X#X#X#X#X#X#X#X#X#X#X#Xq.<.U.e.H.S.B.2.>.f.3   + +     + ",
"&X&X&X&X&X&X&X&X&X&X$X#X#X#X#X#X#X#X#X#X#X#X#X#X#X#X#X#X#X#X#XP.a.<.D.N.D.M B.b.N.)   +         ",
"&X&X&X&X&X&X&X&X$X#X#X#X#X#X#X#X#X#X#X#X#X#X#X#X#X#X#X#X#X#X#X#X'. Xt.b.) 1.<.o.x ;   =   + o = ",
"&X&X&X&X&X&X&X&X$X#X#X#X#X#X#X#X#X#X#X#X#X#X#X#X#X#X#X#X#X#X#X#X#X#XZ D.; B.o.;           @ = - ",
"&X&X&X&X&X&X&X#X#X#X#X#X#X#X#X#X#X#X#X#X#X#X#X#X#X#X#X#X#X#X#X#X#X#XL.d.A.o.3 +   O O     + - = ",
"&X&X&X&X&X&X$X#X#X#X#X#X#X#X#X#X#X#X#X#X#X#X#X#X#X#X#X#XoXH H oX#X#XL.B.1.  ~ > % 7 &   % + -   ",
"&X&X&X&X&X$X#X#X#X#X#X#X#X#X#X#X#X#X#X#X#X#X#X#X#X#X#X#XF f q Y #X#X XJ.A 3 v   % # # O X O -   ",
"&X&X&X&X$X#X#X#X#X#X#X#X#X#X#X#X#X#X#X#X#X#X#X#X#X#X#X#XY 0 w XX{.#XH.$XZ 3 j   O $ O % & - -   ",
"&X&X&X$X#X#X#X#X$XX.| X.#X#X#X#XX.] X.Q.#X#Xy.#X#X#X#X#XoXf E.e.D.u.S.$XC = - X , e O $ $ @ -   ",
"&X&X$X#X#X#X#X#X#X>.f.[ #X#X#X#XR M E Q OX#X_.#X#X#X#X#XR.s n.D.G.J.J.K : : -   % # X & & - -   ",
"&X#X#X#X#X#X#X#X#X[ / [ [ f.U.#X(.' ( ( P.#X%X&X%X+X).#XE.s m.D.-X#XXX: : : - . O o     = < -   ",
"$X#X#X#XQ.w.w.P.OXY.7.W.W./ X.#X#XQ.{ ' 0.$X%X&X&X` i.e.Q.4.H.L.#X#XS =     .         - < : -   ",
"#X#X#XQ...i.f.E X.#X#X#X#XX.X.#X#X#X#X#X#X%X&X&X{.f.N.b.K.D.F.[.#X#XS X               + = : -   ",
"#X#X#X>.i.p.&._ 9.#X#X#X#X#X$X#X#X#X#X#X%X&X&X}.b.D.D.D.D.D.N.r.#XK Z k k 2               + -   ",
"#X#XI.&.^ i.W ' #X#X#X#X#X#X#X#X#X#X#X&X&X/.7.x.Z.D.D.B.<.A.j.r.#XC U #X#X#XP 4             + o ",
"#X#XI.R X.W W I.#X#X#X]. X(.^.#X}.e.e.Y./.Y.+.N.F.D.D.M.E g.g.[.#Xk .X#X#XE.N 6             o   ",
"#X#XOXP.oX^.(.#X#X#X5.v.x.+.W 0.c.v.v.&.Q ! <.D.D.D.D.Z.x.c.+.K K B R.#XK 5 +                   ",
"#X#X#X#X#X#X#X#X#X^...C.V.h.=...g.Z.C.v.M.B.A.D.D.D.C.N.:X&X~.c J #X#Xl < =                     ",
"#X#X#X#X#X#X#X#X6.i./ i.N.D.b.v.h.v.v.v.F.D.D.C.D.C.v.*._.&X|.e.Z l < < :     .                 ",
"#X#X#X#X#X#X#X#X&.C.f.g.F.D.D.v.v.g.h.V.D.D.D.v.v.f.( R } &X&X~.# @ - < :     b ;               ",
"#X#X#X#X#X#X#X#X} g.v.F.D.D.D.v.g.v.h.%.Z.D.D.C.b.v.f.( &.|.&XR.o     + -   . v v ; .           ",
"#X#X#X#X#X#X#X#XX.R F.D.C.V.D.v.j.h.#.) D.D.D.D.D.F.v.g.c.=X&X@X4               h v +           ",
"#X#X#X#X#X#X#XW.R R k.D.V.h.b.C.D.Z.#.) D.D.D.D.D.D.j.h.r.&X&X&XY               = W >         = ",
"#X+XI.6.]._.#XI.&.#.*.D.Z.v.h.C.D.D.*.M j.D.D.D.D.D.d.( 2. .5.%X&XS x h       . : b >         - ",
"+X_ b.D.C.l. XI.g.h.h.h.h.g.g.v.D.D.d.R ~ N.N.h.D.D.-.R #.f.h.r.&X~.  b *     : < h ;       + : ",
"9.f.D.C.b.h.2.9.=.h.h.h.h.v.C.F.D.D.-.p.R =.h.b.D.D./ =.g.b.v.k.{.(.@ * *.. - 1 N n         - < ",
"U.h.D.D.A.k.R i.C.b.f...i.h.D.D.D.D.F.h.b.Z.N.C.D.k.i.h.v.D.F.v.l.&XL 1 E c K R.&X$XL 1 X o < Z ",
"`.f.F.D.D.N.g.Z.F.v./ R E j.D.D.D.D.Z.v.Z.D.D.D.C.i.b.b.Z.D.F.g.v.&X&XT.#.}.&X&X&X%X#XU C 5 Z #X",
"(.&.h.C.A.D.D.D.C.h./ R $.h.h.D.D.D.D.D.D.D.D.D.$.R *.d.B.D.C.v.s.U.X.:.s.@X&X&X&X&X%X#X#X#X#X#X",
"#X8.| #.;.h.h.h.f.&.R R ^ ;.i./ M / M.D.D.D.B.( R R R R Q +.l.h.l.c.c.c.|.%X&X&X&X&X&X%X$X#X#X#X",
"#X#X#X(.@X|.|.|.'.3.] ] 8./.`.W.! %.Z.D.D.j.) 3.7.0.`./.@X%X=X|.=X&X&X&X&X&X&X&X&X&X&X&X%X#X#X#X",
"#X#X&X&X&X&X&X&X&X&X&X&X&X&X&X&XY.=.h.N.a.-.@.&X&X&X&X&X&X&X&X&X&X&X&X&X&X&X&X&X&X&X&X&X&X%X#X#X",
"$X&X&X&X&X&X&X&X&X&X&X&X&X&X&X&X&X5.+.' +.4.&X&X&X&X&X&X&X&X&X&X&X&X&X&X&X&X&X&X&X&X&X&X&X&X%X$X",
"%X&X&X&X&X&X&X&X&X&X&X&X&X&X&X&X&X&X&X&X&X%X&X&X&X&X&X&X&X&X&X&X&X&X&X&X&X&X&X&X&X&X&X&X&X&X&X%X"
};
