/* XPM */
static char *result[] = {
/* columns rows colors chars-per-pixel */
"48 48 187 2 ",
"   c #0D0415",
".  c #0F0618",
"X  c #120516",
"o  c #110619",
"O  c #1A0619",
"+  c #14091D",
"@  c #1A0D1C",
"#  c #1C121F",
"$  c #23071B",
"%  c #25081A",
"&  c #2C091A",
"*  c #310B1B",
"=  c #3C0C1D",
"-  c #170A20",
";  c #1A0D23",
":  c #0B172B",
">  c #1E1321",
",  c #1F1028",
"<  c #0B1F31",
"1  c #210E26",
"2  c #390C21",
"3  c #231824",
"4  c #21112A",
"5  c #2A192A",
"6  c #2D1C32",
"7  c #0A2235",
"8  c #2D202B",
"9  c #32252D",
"0  c #392638",
"q  c #362633",
"w  c #3F3136",
"e  c #470E1F",
"r  c #55111E",
"t  c #5C141C",
"y  c #5D1B1D",
"u  c #621619",
"i  c #661A1D",
"p  c #5F241E",
"a  c #4C0E22",
"s  c #500F20",
"d  c #4E1124",
"f  c #491725",
"g  c #541322",
"h  c #5A1621",
"j  c #5C1B25",
"k  c #511529",
"l  c #551A2B",
"z  c #561F31",
"x  c #641D22",
"c  c #5E212D",
"v  c #5B2434",
"b  c #48363C",
"n  c #6A2122",
"m  c #68292C",
"M  c #732D2A",
"N  c #7C3027",
"B  c #662E38",
"V  c #6A323C",
"C  c #6F383F",
"Z  c #783633",
"A  c #7B3A36",
"S  c #7C3F3C",
"D  c #773432",
"F  c #7D4434",
"G  c #093D54",
"H  c #4A3940",
"J  c #563B45",
"K  c #6A3641",
"L  c #603E4A",
"P  c #783E40",
"I  c #0C435E",
"U  c #3A4750",
"Y  c #084C68",
"T  c #055B77",
"R  c #2A5170",
"E  c #305973",
"W  c #5C494B",
"Q  c #564345",
"!  c #424853",
"~  c #604F4C",
"^  c #784449",
"/  c #644E51",
"(  c #7E4E51",
")  c #6C5755",
"_  c #745C58",
"`  c #746159",
"'  c #7C645D",
"]  c #7C5E61",
"[  c #803F3A",
"{  c #843A21",
"}  c #904E2F",
"|  c #8F4A3C",
" . c #90503C",
".. c #954D39",
"X. c #884D48",
"o. c #925244",
"O. c #825454",
"+. c #875A58",
"@. c #8B5956",
"#. c #945B52",
"$. c #87514C",
"%. c #9C675B",
"&. c #966759",
"*. c #A56447",
"=. c #A56C5B",
"-. c #A57059",
";. c #866D63",
":. c #9A6E64",
">. c #976E66",
",. c #867265",
"<. c #887466",
"1. c #8E796A",
"2. c #8E726B",
"3. c #9A7469",
"4. c #97786C",
"5. c #9A7D72",
"6. c #967970",
"7. c #8C7B77",
"8. c #A26F63",
"9. c #A87666",
"0. c #A4776A",
"q. c #A67D70",
"w. c #B57E65",
"e. c #9C8372",
"r. c #978270",
"t. c #AD806C",
"y. c #BB8569",
"u. c #A38374",
"i. c #A88977",
"p. c #B48C79",
"a. c #B68976",
"s. c #A7917B",
"d. c #AC947D",
"f. c #B2927F",
"g. c #BC937C",
"h. c #C38057",
"j. c #C48C6B",
"k. c #C89A78",
"l. c #057795",
"z. c #4F7381",
"x. c #17829D",
"c. c #0497BE",
"v. c #0697B6",
"b. c #0688AD",
"n. c #0DABBD",
"m. c #7BA09A",
"M. c #4FB9BD",
"N. c #5CB3BF",
"B. c #57A9AE",
"V. c #77C0BD",
"C. c #019EC5",
"Z. c #04B7D8",
"A. c #17ABCE",
"S. c #2CB6D0",
"D. c #32BFD3",
"F. c #4ABDC7",
"G. c #35C9D5",
"H. c #21C8D8",
"J. c #42C8D2",
"K. c #A09182",
"L. c #BC9B85",
"P. c #BF9E88",
"I. c #BEA58A",
"U. c #BAA187",
"Y. c #BCB49C",
"T. c #A8A695",
"R. c #86B1B0",
"E. c #AAB4A4",
"W. c #B5B1A0",
"Q. c #C49A82",
"!. c #C19F88",
"~. c #C2A187",
"^. c #C3A48A",
"/. c #CBA68D",
"(. c #C5A98D",
"). c #CBAB8E",
"_. c #CDA387",
"`. c #D0A98D",
"'. c #CBAE91",
"]. c #D2AE93",
"[. c #CEB395",
"{. c #C9B49A",
"}. c #D5B195",
"|. c #D5B897",
" X c #D6B698",
".X c #D6BA99",
"XX c #D8BD9B",
/* pixels */
"XXXXXXXXXXXXXXXXXXXXXXXXXXXXXXXXXXXXXXXXXXXXXXXXXXXXXXXXXXXXXXXXXXXXXXXXXXXXXXXXXXXXXXXXXXXXXXXX",
"XXXXXXXXXXXXXXXXXXXXXXXXXXXXXXXXXXXXXXXXXXXXXXXXXXXXXXXXXXXXXXXXXXXXXXXXXXXXXXXXXXXXXXXXXXXXXXXX",
"XXXXXXXXXXXXXXXXXXXXXXXXXXXXXXXXXXXXXXXXXXXXXX.X.XXXXXXXXXXXXXXXXXXXXXXXXXXXXXXXXXXXXXXXXXXXXXXX",
"XXXXXXXXXXXXXXXXXXXXXXXXXXXXXXXXXXXXXXXXXXXX}.}.}..XXXXXXXXXXXXXXXXXXXXXXXXXXXXXXXXXXXXXXXXXXXXX",
"XXXXXXXXXXXXXXXXXXXXXXXXXXXXXXXXXXXXXXXXXX X}.}.}.}.}.XXXXXXXXXXXXXXXXXXXXXXXXXXXXXXXXXXXXXXXXXX",
"XXXXXXXXXXXXXXXXXXXXXXXXXXXXXXXXXXXXXXXX X].}.}.}.}.}..XXXXXXXXXXXXXXXXXXXXXXXXXXXXXXXXXXXXXXXXX",
"XXXXXXXXXXXXXXXXXXXXXXXXXXXXXXXXXXXXXX X}.}.}.}.}.}.}.}. XXXXXXXXXXXXXXXXXXXXXXXXXXXXXXXXXXXXXXX",
"XXXXXXXXXXXXXXXXXXXXXXXXXXXXXXXXXXXX X}.}.}.}.}.}.}.}.}.}.}.XXXXXXXXXXXXXXXXXXXXXXXXXXXXXXXXXXXX",
"XXXXXXXXXXXXXXXXXXXXXXXXXXXXXXXXXX X}.}.}.].}.}.}.}.}.}.}.}.}.XXXXXXXXXXXXXXXXXXXXXXXXXXXXXXXXXX",
"XX.X[.}.XXXXXXXXXXXXXXXXXXXXXXXX}.}.}.}.}.}.{.}.}.}.}.}.}.}.}..XXXXXXXXXXXXXXXXX.X}.XXXXXXXXXXXX",
"XX(.0.p.XXXXXXXXXX.X.XXX X{.XX}.}.}.}.}.{.E.W.}.}.}.}.}.}.}.}.}.}.XXXXXXXXXXXXXXk.y.XXXXXXXXXXXX",
"XXL.F $.q.f.).XXXX~.).XXY.T.{.}.}.}.}.].W.F.{.}.}.}.}.}.}.}.}.}.}..XXXXXXXXXXXXX*.*.|.XXXXXXXXXX",
".Xq.c g l V ( >.q.&.a.XXY.m.T.W.E.R.R.W.V.F.}.}.}.}.}.}.}.}.}.}.}.}. XXXXXL.q.3.N M i.|.XXXXXXXX",
"'.( a a a g r l v c @.I.E.M.F.J.S.A.x.G.H.G.K.9.Q.}.}.].}.}.].j.]./.t.>.+.V v l j y B :.'.XXXXXX",
"L.k d a a t r t r a l V ' B.J.G.Z.C.l.Z.v.n.U m | j.].].}.}.`...^ V v l d r t t a a a l +.^.XXXX",
">.a t r a t t u u e a r g J r.z.v.Y c.Y 7 < + 2 j A Q.}.}.}.@.x r r r r r t u t a a t r k ( /.XX",
"( s u u r e t u t a s t u s k R C.C.l.<     . X * r @./.}.O.a a s s u u t t u u s s u u t g O./.",
"g s t u t d t u u a h t y i y E l.l.G :     o X + 2 h A m d h t a s u t u u u u s s u u u t a @.",
"a t u u i j h n x s x D #.8.%.! Y Y Y o   X + + + 4 f s l l x u h a s t u u u u s s u u u r y j ",
"j M A [ %.:.$.%.8.X.k.!.].L.;.5 O 5 O . O $ O - - ; J P 8.9.8.[ M x s t u i n u s t u u u t u u ",
"%.g.'.XXXXk.*.y.}.}.}.].L.W -   $ e = % * $ O + - , J P.].}.].`.a.%.V g Z #.%.o.a x x D [ Z M i ",
"XXXXXXXX}.*.{ o.}.}.'.q.H , .   O % % e e & & + ; , 6 2.].}.}.}.}.].a.K 9.].].}.z :.8.w.Q.Q.q.%.",
"XXXXXX|.}.-.S &.].].K.H 4 ;     X = = * * $ O o - , 4 J /.}.}.}.}.}.].p.Q.}.}.}.q.}.}.}.}.XXXX X",
"XXXX|.}.]._.>.] }.].q.6 0 ; .   O 2 = O O O X X - ; 4 6 5.].}.}.}.}.].}.].}.}.}.].}.}.}.]..XXXXX",
"XX}.}.}.}.}.f.u.}.}.!.6.' + . + o $ & X   . o o - - , , _ ].}.}.}.}.}.}.}.}.}.}.}.}.}.}.}.}. XXX",
"}.}.}.}.}.}.e.' }.].].^._ X   + - . X . o o - o - . . - ) }.}.}.`.j.h.k.}.}.}.}.}.}.}.}.}.}.}.}.",
"}.}.}.}.}.}.i.Q ;.` L.i.6   X , - .   . - + , + - -   . ) }.}.}.k. .} y.}.].}.}.}.}.}.}.}.}.}.}.",
"}.}.}.}.}.}.}.}.6.b , ; o   o ; ; .   ; + + 4 ; - - .   / }.}./.` f p &.).}.}.}.}.}.}.}.}.}.}.}.",
"}.}.}.}.}.}.}.}.}.'./ ; .     . - X   -   + 4 ;   + +   _ }.}.I._ 3.y.k.}.}.}.}.}.}.}.}.}.}.}.}.",
"}.}.}.}.}.}.}.}.].L.b X o       . o . o   + , ; o o o o i..X}.P.` ~.}.}.}.}.}.}.}.}.}.}.}.}.}.}.",
"}.}.}.}.}.}.}.}.'.] ; X - +         + .   o + ; o o o 3 I.XX.XP.;.g.}.}.}.}.}.}.}.}.}.}.}.}.}.}.",
"}.}.}.}.}.}.}.}.4.q + o - , o       .         o .     > K..X Xe.0.}.}.}.}.}.}.}.}.}.}.}.}.}.}.}.",
"}.}.}.}.}.}.}.!.0 1 o   - 4 ; .                         ` XXY.` (.|.[.}.}.}.}.}.}.}.}.}.}.}.}.}.",
"}.}.}.}.}.}.}.u.; ; .   + 4 4 o                         Q ~ r.,.XXXX}.}.}.}.}.}.}.}.}.}.}.}.}.}.",
"}.}.}.}.}.}.}.e.+ + .   + 4 ; o                         ` r.(.[.XXXX|.|.}.}.}.}.}.}.}.}.}.}.}.}.",
"}.}.}.}.}.}.}.5.  X     o + o                         9 I.XXXXXXXXXXXX|.}.}.}.}.}.}.}.}.}.}.}.}.",
"}.}.}.}.}.`.}.Q.3                                     8 I.XXXXXXXXXXXXXXXX}.}.}.}.}.}.}.}.}.}.}.",
"}.}.}.}.}.}.}.}.u.Q d.r.1         @ @         @ # . 3 ,.|.XXXXXXXXXXXXXXXXXX}.}.}.}.}.}.}.}.}.}.",
"}.}.}.}.}.}.}.}.}..XXX[.<.8 .   3 ` <.9 o   8 ,.s.r.s.|.XXXXXXXXXXXXXXXXXXXXXX}.}.}.}.}.}.}.}.}.",
"}.}.}.}.}.}.}.}..XXXXXXX[.r.H w <.[.XXs.~ w ` [.|.|.|.|.XXXXXXXXXXXXXXXXXXXXXX|.}.}.}.}.}.}.}.}.",
"}.}.}.}.}.}.|.XXXXXXXXXXXX.XI.U.|.XXXXXX|.I.|..XXXXXXXXXXXXXXXXXXXXXXXXXXXXXXXXX X}.}.}.}.}.}.}.",
"}.}.}.}.}.}.XXXXXXXXXXXXXXXXXXXXXXXXXXXXXXXXXXXXXXXXXXXXXXXXXXXXXXXXXXXXXXXXXXXXXXXX}.}.}.}.}.}.",
"}.}.}.}.|.|.XXXXXXXXXXXXXXXXXXXXXXXXXXXXXXXXXXXXXXXXXXXXXXXXXXXXXXXXXXXXXXXXXXXXXXXX X}.}.}.}.}.",
"}.}.}.}.XXXXXXXXXXXXXXXXXXXXXXXXXXXXXXXXXXXXXXXXXXXXXXXXXXXXXXXXXXXXXXXXXXXXXXXXXXXXXXXX}.}.}.}.",
"}.}.}.|.XXXXXXXXXXXXXXXXXXXXXXXXXXXXXXXXXXXXXXXXXXXXXXXXXXXXXXXXXXXXXXXXXXXXXXXXXXXXXXXX X}.}.}.",
"}.}.XXXXXXXXXXXXXXXXXXXXXXXXXXXXXXXXXXXXXXXXXXXXXXXXXXXXXXXXXXXXXXXXXXXXXXXXXXXXXXXXXXXXXXXX}.}.",
"}.XXXXXXXXXXXXXXXXXXXXXXXXXXXXXXXXXXXXXXXXXXXXXXXXXXXXXXXXXXXXXXXXXXXXXXXXXXXXXXXXXXXXXXXXXX X X",
"XXXXXXXXXXXXXXXXXXXXXXXXXXXXXXXXXXXXXXXXXXXXXXXXXXXXXXXXXXXXXXXXXXXXXXXXXXXXXXXXXXXXXXXXXXXXXXXX"
};
