/* XPM */
static char *result[] = {
/* columns rows colors chars-per-pixel */
"48 48 169 2 ",
"   c #0D0415",
".  c #100619",
"X  c #14081C",
"o  c #180E1C",
"O  c #0C0E21",
"+  c #170B20",
"@  c #1B0D24",
"#  c #0A192D",
"$  c #0B1427",
"%  c #1F1028",
"&  c #1E1122",
"*  c #091E33",
"=  c #1E1E39",
"-  c #2E0F28",
";  c #380F26",
":  c #231824",
">  c #21112A",
",  c #291029",
"<  c #2B1629",
"1  c #35192E",
"2  c #2B1A30",
"3  c #092136",
"4  c #1D233E",
"5  c #2E212B",
"6  c #332332",
"7  c #392535",
"8  c #3D2B3A",
"9  c #3A2B32",
"0  c #55111F",
"q  c #5B141C",
"w  c #481718",
"e  c #621619",
"r  c #681F1F",
"t  c #651C1E",
"y  c #622B1D",
"u  c #75271B",
"i  c #470C24",
"p  c #4C0E22",
"a  c #500F20",
"s  c #4F152A",
"d  c #481321",
"f  c #521222",
"g  c #591520",
"h  c #541A2C",
"j  c #551A2B",
"k  c #571E30",
"l  c #611F27",
"z  c #5A202F",
"x  c #403237",
"c  c #47373C",
"v  c #622827",
"b  c #682529",
"n  c #6D2C31",
"m  c #7B3936",
"M  c #753738",
"N  c #0A3F59",
"B  c #172943",
"V  c #4B3541",
"C  c #503E40",
"Z  c #6F3A43",
"A  c #723C42",
"S  c #18405D",
"D  c #044B66",
"F  c #0D506E",
"G  c #095874",
"H  c #145070",
"J  c #164763",
"K  c #284E6B",
"L  c #355E7A",
"P  c #534143",
"I  c #5D464E",
"U  c #5D4949",
"Y  c #604C4A",
"T  c #76444B",
"R  c #7A464B",
"E  c #66514E",
"W  c #674F54",
"Q  c #675650",
"!  c #6B5354",
"~  c #715A55",
"^  c #705758",
"/  c #755D59",
"(  c #785F5C",
")  c #756059",
"_  c #7B615F",
"`  c #7B6160",
"'  c #822D1B",
"]  c #953C1D",
"[  c #813B2C",
"{  c #883F30",
"}  c #A35332",
"|  c #B86435",
" . c #C4733E",
".. c #824845",
"X. c #8F584D",
"o. c #8D544C",
"O. c #895957",
"+. c #955B50",
"@. c #955645",
"#. c #89635B",
"$. c #976259",
"%. c #9D755D",
"&. c #A96344",
"*. c #856D63",
"=. c #8A6E69",
"-. c #8A6A65",
";. c #986F66",
":. c #966863",
">. c #8B7467",
",. c #8C7769",
"<. c #92776A",
"1. c #99786C",
"2. c #A77668",
"3. c #A57A6F",
"4. c #A97B6E",
"5. c #A77E71",
"6. c #C77D4A",
"7. c #B0816C",
"8. c #A48477",
"9. c #AC8375",
"0. c #A48D79",
"q. c #AC8B78",
"w. c #B18473",
"e. c #B38A7A",
"r. c #B78B78",
"t. c #B3947F",
"y. c #B9917F",
"u. c #C79E7F",
"i. c #C89776",
"p. c #046382",
"a. c #0D6B8B",
"s. c #0B7CA1",
"d. c #0880A3",
"f. c #008AAF",
"g. c #008EB4",
"h. c #0097B7",
"j. c #0097BE",
"k. c #00A0BD",
"l. c #6AB1B9",
"z. c #019CC3",
"x. c #00A2C6",
"c. c #03A4CB",
"v. c #03ABC9",
"b. c #00AAD2",
"n. c #00B4DE",
"m. c #00BAE1",
"M. c #00C3E6",
"N. c #00C6E8",
"B. c #00DCF3",
"V. c #B79683",
"C. c #BB9581",
"Z. c #B69E84",
"A. c #BF9E87",
"S. c #C29780",
"D. c #C39D84",
"F. c #C19F89",
"G. c #CDA386",
"H. c #C4A58C",
"J. c #CAA58D",
"K. c #C2A98C",
"L. c #CCA98F",
"P. c #D1AF8D",
"I. c #C7AE90",
"U. c #D2AD92",
"Y. c #CDB394",
"T. c #D5B195",
"R. c #D6B698",
"E. c #D7B999",
"W. c #D8BD9B",
/* pixels */
"W.W.W.W.W.W.W.W.W.W.W.W.W.W.W.W.W.W.W.W.W.W.W.W.W.W.W.W.W.W.W.W.W.W.W.W.W.W.W.W.W.W.W.W.W.W.W.W.",
"W.W.W.W.W.W.W.W.W.W.W.W.W.W.W.W.W.W.W.W.W.W.W.W.W.W.W.W.W.W.W.W.W.W.W.W.W.W.W.W.W.W.W.W.W.W.W.W.",
"W.W.W.W.W.W.W.W.W.W.W.W.W.W.W.W.W.W.W.W.W.W.W.R.R.W.W.W.W.W.W.W.W.W.W.W.W.W.W.W.W.W.W.W.W.W.W.W.",
"W.W.W.W.W.W.W.W.W.W.W.W.W.W.W.W.W.W.W.W.W.W.R.T.T.L.W.P.D.W.W.W.W.W.W.W.W.W.W.W.W.W.W.W.W.W.W.W.",
"W.W.W.W.W.W.W.W.W.W.W.W.W.W.W.W.W.W.W.W.W.R.T.T.e.R R.L.{ P.W.W.W.W.W.W.W.W.W.W.W.W.W.W.W.W.W.W.",
"W.W.W.W.W.W.W.W.W.W.W.W.W.W.W.W.W.W.W.W.R.T.T.5.n o.T.R.X.&.E.W.W.W.W.W.W.W.W.W.W.W.W.W.W.W.W.W.",
"W.W.W.W.W.W.W.W.W.W.W.W.W.W.W.W.W.W.W.T.T.T.5.j j J.T.T.e.' @.9.W.W.W.W.W.W.W.W.W.W.W.W.W.W.W.W.",
"W.W.W.W.W.W.W.W.W.W.W.W.W.W.W.W.W.W.R.T.T.r.h 0 A T.4.3.T.q q b ;.W.W.W.W.W.W.W.W.W.W.W.W.W.W.W.",
"W.W.W.W.W.W.W.W.W.W.W.W.W.W.W.W.W.E.T.U.w.i 0 i y.3.M L.T.A l a p t.W.W.W.W.W.W.W.W.W.W.W.W.W.W.",
"W.W.W.W.W.W.W.W.W.W.W.W.W.W.W.W.T.T.T.e.s q 0 i k f O.U.C.i i p q h H.R.W.W.W.W.W.W.W.W.W.W.W.W.",
"W.W.W.W.W.W.W.W.W.W.W.W.W.W.W.R.T.T.9.s a q i q 0 a r w.k a q i f 0 T W.W.W.W.W.W.W.W.W.W.W.W.W.",
"W.W.W.W.W.W.W.W.W.W.W.W.W.W.R.T.U.y.i p e a q 0 p i u M a 0 e 0 i q f O.W.W.W.W.W.W.W.W.W.W.W.W.",
"W.W.W.W.W.W.W.W.W.W.W.W.W.R.T.T.e.s a e q i e a i i g e g e q e a a e f q.W.W.W.W.W.W.W.W.W.W.W.",
"W.W.W.W.W.W.W.W.W.W.W.W.T.T.U.9.s a e e i g q i p i 4.j g e e e q p q a p 9.W.W.W.W.W.W.W.W.W.W.",
"W.W.W.W.W.W.W.W.W.W.W.R.T.T.L.s a e e a a e a a i i T.2.i 0 e e e q a e q h 3.R.W.W.W.W.W.W.W.W.",
"W.W.W.W.W.W.W.W.W.W.R.T.T.T.T 0 e e e p q q i a i :.U.L.T i q e e e 0 q e 0 h 3.W.W.W.W.W.W.W.W.",
"W.W.W.W.W.W.W.W.W.T.T.T.V.! 1 V.5.{ a f e p 0 p k L.H.! V - i f e e e f e e m :.q.W.W.W.W.W.W.W.",
"W.W.W.W.W.i.7.} L.T.T.8.% + @ % W $...l q p q i L l.2 > > > - i 0 e e e p +.U.R.W.W.W.W.W.W.W.W.",
"W.W.W.W.W.&.y u S.T.F.2       X % 7 -.#.; p K m.N.b.F J 4 > % - p e e o.A T.T.T.R.W.W.W.W.W.W.W.",
"W.W.W.W.W.r.] m J.T.V..         + % > 2 S s.b.B.B.c.v.h.k.x.H , M p ..T.C.2.G.U.T.T.W.W.W.W.W.W.",
"W.W.W.W.W.R.#.~ T.T.( .         O @ = z.c.b.g.m.m.n.f.f.j.G v.> 8.4.T T.i. .| G.T.T.R.W.W.W.W.W.",
"W.W.W.W.L.*.E <.U.T./           . > 4 a.F s.F m.m.N.p.$ #   S % 2 _ F.T.r.w y 7.T.T.T.R.W.W.W.W.",
"W.W.W.E.V.C L.U./ / c X         . > % B @ + . p.j.p.3     .   @ > > I q.-.v u X.T.T.T.T.T.W.W.W.",
"W.W.W.P.U.Y D.c Y @ . X         . + .   .     D z.h.#     @ X X > > > 7 t.L.u.U.T.T.T.T.T.W.W.W.",
"W.E.T.T.T.E U Y ^ +               .   + > % . O D *     + > +   > > > ~ T.T.T.T.T.T.T.T.T.T.R.E.",
"R.P.T.T.T.T.T.P.=.@   .             . @ + @ > .       @ > > @   > > X ^ T.U.T.T.T.T.T.T.T.T.T.T.",
"P.T.T.T.T.T.T.T.T.7 > > +       . . X     . @ +     @ > > > @   X .   ~ <.T.T.T.T.T.T.T.T.T.T.T.",
"T.T.T.T.T.T.T.T.I > > > > +   . > X       . X @ @ > > > > > @ . .   9 Y E T.T.T.T.T.T.T.T.T.T.T.",
"T.T.T.T.T.T.T.T.x > > > > > > > @ .     . + + + @ > > > > > % X > @ L.T.<.-.T.T.T.T.T.T.T.T.T.T.",
"T.T.T.T.T.T.P.G.2 @ X     . + @ .                   > > > > @ X > > F.<.Q =.T.T.T.T.T.T.T.T.T.T.",
"T.T.T.T.T.T.D.P +             X                     X > > > + X > > ! C ^ U.T.T.T.T.T.T.T.T.T.T.",
"T.T.U.T.T.=.< .                                       @ > > + X > > W T.T.T.T.T.T.T.T.T.T.T.T.R.",
"T.T.T.U.T.T.F.C 1               o &                   . = % o X X + I T.T.T.T.T.T.T.T.T.T.T.T.T.",
"T.T.T.T.T.T.T.T.H.+           5 P o                   . % % +       ` T.T.T.U.T.T.T.T.T.U.T.T.T.",
"T.T.T.T.T.T.T.T.T.> & C C C P >.o                 .   . % 5 5     V K.T.T.T.T.T.T.T.T.T.T.T.T.T.",
"T.T.T.T.T.T.T.T.T.T.T.T.W.W.W.Y.:         5 Y.W.Z.8   o % ` Z.8.0.W.W.E.T.T.T.T.T.T.T.T.T.T.T.T.",
"T.T.T.T.T.T.T.T.T.T.R.R.W.W.W.W.Q         0.W.W.W.W.9 5 ,.W.W.W.W.W.W.W.E.R.T.T.T.T.T.T.T.T.U.T.",
"T.T.T.T.T.T.T.T.T.R.W.W.W.W.W.W.K.:     Q W.W.W.W.W.K.Y.W.W.W.W.W.W.W.W.W.E.R.T.T.U.T.T.T.T.T.T.",
"T.T.T.T.T.T.T.T.T.E.W.W.W.W.W.W.W.W.) I.W.W.W.W.W.W.W.W.W.W.W.W.W.W.W.W.W.W.E.T.T.T.T.T.T.T.T.T.",
"T.T.T.T.U.T.T.T.E.W.W.W.W.W.W.W.W.W.W.W.W.W.W.W.W.W.W.W.W.W.W.W.W.W.W.W.W.W.W.E.T.T.T.T.T.T.T.T.",
"T.T.T.T.T.T.R.W.W.W.W.W.W.W.W.W.W.W.W.W.W.W.W.W.W.W.W.W.W.W.W.W.W.W.W.W.W.W.W.W.E.R.T.T.T.T.T.T.",
"T.T.T.T.T.T.E.W.W.W.W.W.W.W.W.W.W.W.W.W.W.W.W.W.W.W.W.W.W.W.W.W.W.W.W.W.W.W.W.W.W.E.T.T.T.T.T.T.",
"T.T.T.T.T.E.W.W.W.W.W.W.W.W.W.W.W.W.W.W.W.W.W.W.W.W.W.W.W.W.W.W.W.W.W.W.W.W.W.W.W.W.E.T.T.T.T.T.",
"T.T.T.T.W.W.W.W.W.W.W.W.W.W.W.W.W.W.W.W.W.W.W.W.W.W.W.W.W.W.W.W.W.W.W.W.W.W.W.W.W.W.W.E.T.T.T.T.",
"T.T.T.E.W.W.W.W.W.W.W.W.W.W.W.W.W.W.W.W.W.W.W.W.W.W.W.W.W.W.W.W.W.W.W.W.W.W.W.W.W.W.W.W.E.T.T.T.",
"T.T.R.W.W.W.W.W.W.W.W.W.W.W.W.W.W.W.W.W.W.W.W.W.W.W.W.W.W.W.W.W.W.W.W.W.W.W.W.W.W.W.W.W.W.W.T.T.",
"R.W.W.W.W.W.W.W.W.W.W.W.W.W.W.W.W.W.W.W.W.W.W.W.W.W.W.W.W.W.W.W.W.W.W.W.W.W.W.W.W.W.W.W.W.W.W.T.",
"E.W.W.W.W.W.W.W.W.W.W.W.W.W.W.W.W.W.W.W.W.W.W.W.W.W.W.W.W.W.W.W.W.W.W.W.W.W.W.W.W.W.W.W.W.W.W.E."
};
