/* XPM */
static char *result[] = {
/* columns rows colors chars-per-pixel */
"48 48 182 2 ",
"   c #0D0415",
".  c #140517",
"X  c #1B0717",
"o  c #120619",
"O  c #1E0719",
"+  c #15091D",
"@  c #1A0C1C",
"#  c #220719",
"$  c #26081B",
"%  c #2B081B",
"&  c #230817",
"*  c #340A1D",
"=  c #3A0C1C",
"-  c #3B1718",
";  c #170B20",
":  c #1B0D24",
">  c #0D1D2F",
",  c #1F1028",
"<  c #0B1F34",
"1  c #2C0F26",
"2  c #350D24",
"3  c #3A0D23",
"4  c #231824",
"5  c #21112A",
"6  c #291D27",
"7  c #301E33",
"8  c #0B2537",
"9  c #2E222B",
"0  c #3B2D33",
"q  c #3E2C3C",
"w  c #392737",
"e  c #430E1A",
"r  c #54111F",
"t  c #5C141C",
"y  c #5D191D",
"u  c #621619",
"i  c #631C1D",
"p  c #6D221C",
"a  c #622E1F",
"s  c #76281C",
"d  c #470C24",
"f  c #4B0E22",
"g  c #500F20",
"h  c #4B1127",
"j  c #4F162B",
"k  c #521020",
"l  c #571725",
"z  c #571F31",
"x  c #661E20",
"c  c #44232E",
"v  c #57232B",
"b  c #432E39",
"n  c #5C2834",
"m  c #45363A",
"M  c #6F2827",
"N  c #7B2F24",
"B  c #7C3726",
"V  c #6A2C32",
"C  c #642A35",
"Z  c #67323E",
"A  c #6E353B",
"S  c #793A38",
"D  c #072E45",
"F  c #102D46",
"G  c #073D56",
"H  c #09354D",
"J  c #4E3843",
"K  c #503E40",
"L  c #6D3842",
"P  c #703B43",
"I  c #07455F",
"U  c #074C67",
"Y  c #08576B",
"T  c #06607F",
"R  c #514242",
"E  c #5B444D",
"W  c #5D4B4C",
"Q  c #584448",
"!  c #5E4A50",
"~  c #474E56",
"^  c #77464C",
"/  c #7C4B4D",
"(  c #784449",
")  c #63514D",
"_  c #7E4C50",
"`  c #675650",
"'  c #7F5152",
"]  c #755D59",
"[  c #726058",
"{  c #7C635D",
"}  c #415962",
"|  c #7E6B60",
" . c #7C6762",
".. c #802C1B",
"X. c #86311C",
"o. c #813624",
"O. c #82413C",
"+. c #AD613D",
"@. c #C9763D",
"#. c #844844",
"$. c #935B4F",
"%. c #865556",
"&. c #875A59",
"*. c #945B51",
"=. c #8F645F",
"-. c #9B6357",
";. c #9A6557",
":. c #B06948",
">. c #AD6D52",
",. c #866B63",
"<. c #986F66",
"1. c #947F6E",
"2. c #967469",
"3. c #997C71",
"4. c #897567",
"5. c #A47261",
"6. c #A57B6E",
"7. c #AC7C6B",
"8. c #A87565",
"9. c #9F8976",
"0. c #9C8373",
"q. c #B5826C",
"w. c #AE8574",
"e. c #AA8B7B",
"r. c #A38675",
"t. c #B18570",
"y. c #B68D7B",
"u. c #AB947D",
"i. c #B3937F",
"p. c #BA957D",
"a. c #BE987E",
"s. c #C48259",
"d. c #C7977A",
"f. c #016C8A",
"g. c #087D99",
"h. c #208198",
"j. c #008EB4",
"k. c #0195BA",
"l. c #0496AA",
"z. c #219CAC",
"x. c #6AB1B9",
"c. c #748F92",
"v. c #00AEC8",
"b. c #1BACC5",
"n. c #00B2CB",
"m. c #00ADD7",
"M. c #08B8D6",
"N. c #16B2C4",
"B. c #00BDE3",
"V. c #3BD2DA",
"C. c #00C9E9",
"Z. c #03D3E9",
"A. c #00DDF4",
"S. c #23D7E5",
"D. c #AF9782",
"F. c #B69582",
"G. c #BA9581",
"H. c #B69E84",
"J. c #BE9D87",
"K. c #BBA289",
"L. c #9AB1A9",
"P. c #A0B7AA",
"I. c #B8B8A3",
"U. c #C29780",
"Y. c #C19E86",
"T. c #CB9F83",
"R. c #C59F89",
"E. c #C4A185",
"W. c #C9A086",
"Q. c #C5A48B",
"!. c #CBA58B",
"~. c #CBA98E",
"^. c #D0A88B",
"/. c #CDAF91",
"(. c #C7AE90",
"). c #D1AD92",
"_. c #D5B195",
"`. c #D4B897",
"'. c #D6B698",
"]. c #D7B999",
"[. c #D8BD9B",
"{. c #8EC0B5",
/* pixels */
"[.[.[.[.[.[.[.[.[.[.[.[.[.[.[.[.[.[.[.[.[.[.[.[.[.[.[.[.[.[.[.[.[.[.[.[.[.[.[.[.[.[.[.[.[.[.[.[.",
"[.[.[.[.[.[.[.[.[.[.[.[.[.[.[.[.[.[.[.[.[.[.[.[.[.[.[.[.[.[.[.[.[.[.[.[.[.7.'.[.[.[.[.[.[.[.[.[.",
"[.[.[.[.[.[.[.[.[.[.[.[.[.[.[.[.[.[.[.[.[.[.[.'.'.[.[.[.[.[.[.[.[.[.[.[.[.s E.[.[.[.[.[.[.[.[.[.",
"[.[.[.[.[.[.[.a.[.[.[.[.[.[.[.[.[.[.[.[.[.[.'._._.'.[.[.[.[.[.[.[.[.[.[.t.s E.[.[.[.[.[.[.[.[.[.",
"[.[.[.[.[.[.J.V [.[.[.[.[.[.[.[.[.[.[.[.[.'._._._._._.[.[.[.[.[.[.[.[.[.t.X.E.[.[.[.[.[.[.[.[.[.",
"[.[.[.[.[.[.p.l Q.[.[.[.[.[.[.[.[.[.[.[.'._._._._._._.'.[.[.[.[.[.[.[.(.A p / ].[.[.[.[.[.[.[.[.",
"[.[.[.[.[.[./ r &.[.[.[.[.[.[.[.[.[.[._._._._._._._._._.'.[.[.[.[.[._.L x p t &.[.[.[.[.[.[.[.[.",
"[.[.[.[.[.~.g r f F.[.[.[.[.[.[.[.[.'._._._._._._._._._._._.[.[.].(.A d k f d d z ~.[.[.[.[.[.[.",
"[.[.[.[.[.=.f d d ^ [.[.[.[.[.[.[.'._._._._._._._._._._._._.'.[._.S l t u r f r d C w.[.[.[.[.[.",
"[.[.[.[.[.j r f g f E.[.[.[.[.[.'._._._._._._._._._._._._._._.'.A t t u u r f u u d h %.[.[.[.[.",
"[.[.[.[._ r u f r t z _.[.[.[._._._._._._._._._._._._._._._.^.Z d u u u u r f u u u r d L (.[.[.",
"[.[.[.p.d t u d t u f <.[.[.'._._._._._._._._._._._._._._./.A r t t u u u t d t u u g t r j Y.[.",
"[.[.Y.n t r t r t u r h p.'._._._._._._._._._._._._._._.!.Z g u u t u u u t f t u u l u u t n J.",
"[.[.' r u u u d t u r r ( _._._._._._._._._._._._.d._.^.P g u u u t u u u t g r u u t u u u t l ",
"[.(.f u u u u r u t t u d y.R._._._._.I.V._._._._.q.N C g u u u u u u u u u t g u u u u u u S t.",
"[.^ t u u u u f t u ~ } f A 7._._._._.V.P._._._._._.V x k u u u u u u u u u t f u u u u M 5.).[.",
"y.^ u u u u u f u u u z.g g 7.P.x._._.S.I._._._._._.f k h u g g t u u u u u u f u u u *._.[.[.[.",
"Y.[./.*.u u u f t i J A.g.b.B.B.j.b.Z.A.{.y./ 6._.y.d u g d k u u u u u u u u g k u >.].[.[.[.[.",
"[.[.[.[.y.i t f u u v M.S.M.A.B.U v.n.A.l.O l N w.<.g u u g g u u u u u u u u u k 5.[.[.[.[.[.[.",
"[.[.[.[.[.d.x f u u k v n b C.U j.f.G 8 > o 1 t V P g u u u g d t u u u u u u u C _.[.[.[.[.[.[.",
"[.[.[.[.[.].*.g u u f u u c m.f.m.I       : + 3 t g g u u u u g d u u u u M 5.U.%._.'.[.[.[.[.[.",
"[.[.[.[._._.U.( S g l o.*.c.j.k.Y D     +   , 5 d d t g k u u u t f u u #.T._._.6._._.'.[.[.[.[.",
"[.[.[.'._._.R.R.R.Z U._._.L.b.g.G H     + : o , 2 d u u u x u u t g g u U._._._./._._._.'.[.[.[.",
"[.[.'._._._._._._.~._.'._.G.w F < .     O , : + 5 G.U.U.U.8.*.>.>.u g g _._._._._._._._._.'.[.[.",
"[.'.!.s.:.d._._._._._._._.E : r e . X = X ; , ; 5 F._._._._._._._._.^./ %._._._._._._._._._.'.].",
"'._.6.a p q._._._._._.R.E 5 . * * = * . * 1 5 : : E _._._._._._._._._._._._._._._._._._._._._._.",
"_._.i.o.B d._._.J. .q 7 5 o   # % e i = X # , , ; q ]._._._._._._._._._._._._._._._._._._._._._.",
"_._._.T.2._._.r.5 5 5 5 :     e t $ $ = % # : 5 o , [.]._._._._._._._._._._._._._._._._._._._._.",
"_._._.i.0 _._.]     o :     . d = $ X .     , 5 : ;  .[.[.'._._._._._._._._.)._._._._._._._._._.",
"_._._.Q.0 !._._.r.0           . * *       o , 5 , ; q [.[.]._._.'.W.^._._._._._._._._._._._._._.",
"_._._._.] 2._._._.i.@     :         ; :   : , , , ; q `.[.[.]._.>.@.+._._._._._._._._._._._._._.",
"_._._._.0.` J._._.3.{   o 5       + 5 , ; 5 5 , , ; 5 J.[.[.[.].*.e o.^._._._._._._._._._._._.'.",
"_._._._._.{ m Q w , 5 : 5 :     , , , ; : , 4 5 5 : , D.[.[.[.[.| B B d._._._._._._._._._._._._.",
"_._._._._._.).{ o   + : 5 o : , , , , ; , , , , , , , ! [.[.[.[.0 (.E._._._._._._._._._._._._._.",
"_._._._._._._.q       + , ; : 5 , , : + , : , , : : , Q [.[.[.[.{ [.[.`._._._._._._._._._._._._.",
"_._._._._._.F.  + ;           o o , + : : : : , : , 5 9.[.[.[.[ ,.[.[.[._._._._._._._._.)._._._.",
"_._._._._._.F.; 5 o             @ ,           o : o 9 [.[.[.[.` 0.`.[.[.`.`._._._._._._._._._._.",
"_._._._._.!.J 5 :               ,                   R [.[.[.K.6 [.[.[.[.[.[.`._._._._._._._._._.",
"_._._._._.,., 5 ;               @                   K.[.[.[.9.| [.[.[.[.[.[.[._._.)._._._._._._.",
")._._._._.; + : ;                                 , 0.9.0.[ 0 H.[.[.[.[.[.[.[.`._._._._._._._._.",
"_._._._._.R   o ;                                   W ) 4.r.H.`.[.[.[.[.[.[.[.[.].'._._._._._._.",
"_._._._._.e.    +                                   [.[.[.[.[.[.[.[.[.[.[.[.[.[.[.'._._._._._._.",
"_._._._.`.`.u.0                             9 @ 0 0.[.[.[.[.[.[.[.[.[.[.[.[.[.[.[.[.].'._._._._.",
"_._._.`.[.[.[.[.) 9 9 m o                   [ [.[.`.[.[.[.[.[.[.[.[.[.[.[.[.[.[.[.[.[.]._._._._.",
"_._._.'.[.[.[.[.[.[.[.[.q                   (.[.[.[.[.[.[.[.[.[.[.[.[.[.[.[.[.[.[.[.[.[.].'._._.",
"_._.[.[.[.[.[.[.[.[.[.[.u.      , | 9       [.[.[.[.[.[.[.[.[.[.[.[.[.[.[.[.[.[.[.[.[.[.].]._._.",
"`.[.[.[.[.[.[.[.[.[.[.[.[.0.R R 9.[.[.| R 0.[.[.[.[.[.[.[.[.[.[.[.[.[.[.[.[.[.[.[.[.[.[.[.[.]._.",
"'.[.[.[.[.[.[.[.[.[.[.[.[.[.[.[.[.[.[.[.`.`.[.[.[.[.[.[.[.[.[.[.[.[.[.[.[.[.[.[.[.[.[.[.[.[.[.]."
};
