/* XPM */
static char *result[] = {
/* columns rows colors chars-per-pixel */
"48 48 164 2 ",
"   c #0D0415",
".  c #0C0C1E",
"X  c #110619",
"o  c #14081C",
"O  c #1A0D1C",
"+  c #230916",
"@  c #20071A",
"#  c #290A16",
"$  c #3C0E17",
"%  c #170B20",
"&  c #1C0E25",
"*  c #0B1427",
"=  c #1F1028",
"-  c #200F28",
";  c #2D0C23",
":  c #3B0C22",
">  c #370D25",
",  c #2D1125",
"<  c #21112A",
"1  c #291029",
"2  c #281928",
"3  c #361223",
"4  c #2B1A30",
"5  c #152234",
"6  c #3A2D33",
"7  c #3A2839",
"8  c #45121C",
"9  c #4F1218",
"0  c #42191B",
"q  c #55111E",
"w  c #5B141C",
"e  c #621619",
"r  c #641A1D",
"t  c #6B1F1D",
"y  c #4F221B",
"u  c #5F2119",
"i  c #6D2B1A",
"p  c #79291B",
"a  c #470C24",
"s  c #4B0E22",
"d  c #500F20",
"f  c #481427",
"g  c #521020",
"h  c #5B1C2A",
"j  c #571E31",
"k  c #5E2737",
"l  c #44323F",
"z  c #5A383F",
"x  c #6F2727",
"c  c #6B2729",
"v  c #75302D",
"b  c #622836",
"n  c #69323D",
"m  c #7E3E38",
"M  c #082D44",
"N  c #2F324D",
"B  c #503E40",
"V  c #6E3A43",
"C  c #24425F",
"Z  c #025773",
"A  c #2A4961",
"S  c #524343",
"D  c #584140",
"F  c #5C4C49",
"G  c #5D464E",
"H  c #444959",
"J  c #5E4A50",
"K  c #604C4B",
"L  c #77454B",
"P  c #79494C",
"I  c #64514E",
"U  c #7E4C50",
"Y  c #675551",
"T  c #735D5A",
"R  c #715A55",
"E  c #726058",
"W  c #7C645C",
"Q  c #4C5061",
"!  c #7E5F60",
"~  c #496D75",
"^  c #7C6762",
"/  c #7E6B60",
"(  c #7A746E",
")  c #833B28",
"_  c #974426",
"`  c #8F4533",
"'  c #904630",
"]  c #934D3B",
"[  c #A04722",
"{  c #BA6737",
"}  c #884A42",
"|  c #8F5249",
" . c #91574C",
".. c #855455",
"X. c #8D5D5A",
"o. c #A05C44",
"O. c #8F645F",
"+. c #976257",
"@. c #9B6357",
"#. c #9F685B",
"$. c #A26C5E",
"%. c #856C62",
"&. c #986F66",
"*. c #926360",
"=. c #897567",
"-. c #877169",
";. c #8E756A",
":. c #8F7A6B",
">. c #93776C",
",. c #947D6E",
"<. c #A4796E",
"1. c #AA7767",
"2. c #A67C70",
"3. c #958070",
"4. c #9F8976",
"5. c #9D8171",
"6. c #B2826F",
"7. c #AC8273",
"8. c #A88A78",
"9. c #A58D7C",
"0. c #B38C7B",
"q. c #B68A75",
"w. c #AB947D",
"e. c #B3937F",
"r. c #BC927B",
"t. c #C7977A",
"y. c #C49779",
"u. c #006280",
"i. c #006D8D",
"p. c #00789A",
"a. c #007FA1",
"s. c #0189AE",
"d. c #1DA5BF",
"f. c #5E8589",
"g. c #6C8D8B",
"h. c #47A0B0",
"j. c #7CAFA9",
"k. c #009CC3",
"l. c #00A7D0",
"z. c #23B7C9",
"x. c #3BB1C0",
"c. c #B79680",
"v. c #BB9581",
"b. c #B69E84",
"n. c #BE9D86",
"m. c #A59F90",
"M. c #B9A088",
"N. c #9AB1A9",
"B. c #C29780",
"V. c #C49F89",
"C. c #C59C84",
"Z. c #C5A48A",
"A. c #C5AB8F",
"S. c #CBA98E",
"D. c #CAA78E",
"F. c #D0A88B",
"G. c #CFAF92",
"H. c #D1AC92",
"J. c #CEB495",
"K. c #C9B199",
"L. c #D5B195",
"P. c #D6B698",
"I. c #D7B999",
"U. c #D8BD9B",
/* pixels */
"U.U.U.U.U.U.U.U.U.U.U.U.U.U.U.U.U.U.U.U.U.U.U.U.U.U.U.U.U.U.U.U.U.U.U.U.U.U.U.U.U.U.U.U.U.U.U.U.",
"U.U.U.U.U.U.U.U.U.U.U.U.U.U.U.U.U.U.U.U.U.U.U.U.U.U.U.U.U.U.U.U.U.U.U.U.U.U.U.U.U.U.U.U.U.U.U.U.",
"U.U.U.U.U.U.U.U.U.U.U.U.U.U.U.U.U.U.U.U.U.U.U.L.I.U.U.U.U.U.U.U.U.U.U.U.U.U.U.U.U.U.U.U.U.U.U.U.",
"U.U.U.U.U.U.U.U.U.U.U.U.U.U.U.U.U.U.U.U.U.U.L.L.L.I.I.U.U.U.U.U.U.U.U.U.U.U.U.U.U.U.U.U.U.U.U.U.",
"U.U.U.U.U.U.U.U.U.U.U.U.U.U.U.U.U.U.U.U.U.L.L.L.L.L.L.I.U.U.U.U.U.U.U.U.U.U.U.U.U.U.U.U.U.U.U.U.",
"U.U.U.U.U.U.U.U.U.U.U.U.U.U.U.U.U.U.U.U.I.L.L.L.L.L.L.I.U.U.U.U.U.U.U.U.U.U.U.U.U.U.U.U.U.U.U.U.",
"U.U.U.U.U.U.U.U.U.U.U.U.U.U.U.U.U.U.U.L.L.L.L.L.L.L.L.L.I.U.U.U.U.U.U.U.U.U.U.U.U.U.U.U.U.U.U.U.",
"U.U.U.U.U.U.U.U.U.U.U.U.U.U.U.U.U.U.P.L.L.L.L.L.L.L.L.L.L.L.U.U.U.U.U.U.U.U.U.U.U.U.U.U.U.U.U.U.",
"U.U.U.U.U.U.U.U.U.U.U.U.U.U.U.U.I.P.L.L.L.L.L.L.L.L.L.L.L.L.I.I.U.U.U.U.U.U.U.U.U.U.U.U.U.U.U.U.",
"U.U.U.U.U.U.U.U.U.U.U.U.U.U.U.U.L.L.L.L.L.L.L.L.L.L.L.L.L.L.L.I.I.U.U.U.U.U.U.U.U.U.U.U.U.U.U.U.",
"U.U.U.U.U.U.U.U.U.U.U.U.U.U.U.P.L.L.L.L.L.L.L.L.L.L.L.L.L.L.L.L.P.U.U.U.U.U.U.U.U.U.U.U.U.U.U.U.",
"U.U.U.U.U.U.U.U.U.U.U.U.U.U.I.L.L.L.L.L.L.L.L.L.L.L.L.L.L.L.L.L.0.I.U.U.U.U.U.U.U.U.U.U.U.U.U.U.",
"U.U.U.U.U.U.U.U.U.U.U.U.A.Z.L.L.L.L.L.L.L.L.L.L.L.j.z.N.L.L.L.y.n P.P.I.U.U.U.U.U.U.U.U.S.U.U.U.",
"U.U.U.U.U.U.U.U.U.U.U.U.<.] L.L.L.L.L.L.L.L.L.L.m.5 M s.g.L.L.X.r L.L.P.U.U.U.U.U.U.U.t.' U.U.U.",
"U.U.U.U.U.U.U.X.q.U.U.I.<.w 7.L.L.L.L.L.v.c.>.%.( . * i.z.K.G.Q H L 0.r.L.U.U.U.U.U.J.] m U.U.U.",
"U.U.U.U.U.U.U.P c L.L.L.V.g b ..7.L.L.T %   X X   X X Z k.h.x.s.H g a a V L L <.A.U. .p 7.U.U.U.",
"U.U.U.U.U.U.I.0.g g a a a q w a a B 4 X & X o     & = M a.i.l.p.N g e g w d s a a d g w U.U.U.U.",
"U.U.U.U.U.U.U.&.g w a a a a a a > = o X - X       & < o Z f.C A a g e e r g e e g d t g v.U.U.U.",
"U.U.U.U.U.U.U.j a a g g e w a ; - - o o o       o 1 = = ~ ! a w d g e e e w e e e s s d V U.U.U.",
"U.U.U.U.U.U...a d s g w w e : < 1 - X % @ X     % - < < L b s e d d e e e e e e g d g g a 2.U.U.",
"U.U.U.U.U.I.b s e w a w e e , < < <   = : O     & < < < a a g g w s e e e e e e g s e e s V U.U.",
"U.U.U.U.P.2.a q e e a d e w 2 < < <   %         < < < < : s r w g d g e e g e g s d e e q a v.U.",
"U.U.U.L.L...a r e e g s w 8 & = < - X %         < & O - s q e e g d e e e e w d a g r e w a *.U.",
"U.U.I.L.L.a w g w e e s d ,     o %   o         %   X >. .x e e w a e e e e e a d e e w g d f D.",
"U.L.L.L.<.a e e w e e q : =           % =       2 F 8.L.L.L.C.r e a e e e e g s w e e e e w a c.",
"L.L.L.L...q e e e 9 w w 1 = X         % = %     ;.I.P.L.L.L.L.#.e a w e e e a d e e e e e e s ..",
"L.L.L.Z.n e e 9 $ + # 8 < =           < = &     7 A.I.L.L.L.L.L.x a e e e d s e e e e x } v d k ",
"L.L.F.{ _ ' e 8 $ e 9 1 < =       %   < < - %   % ^ I.I.L.L.L.L.@.a e e e a d r } 1.L.L.L.L.L.U ",
"L.L.e.y r @.6.# e e 3 < = =     X % % = < < %   % 4 9.U.I.L.L.L.F...2.q.h b +.y.L.L.L.L.L.L.L.G.",
"L.L.D.' ) y.L.I 2.$.< - - &     % % % = < < =   % = T I.U.I.L.L.L.v.F.L.k v.L.L.L.L.L.L.L.L.L.L.",
"L.L.L.r.D L.O.R L.L.% X o %     - % % = < < =   o = 4 K.U.U.I.L.L.L.L.L.*.H.L.L.L.L.L.L.L.L.L.L.",
"L.L.L.n.B c.B b.L.L.n.2       % - X % = = = =   % = & B J.U.U.I.L.L.L.H.y.t.L.L.L.L.L.L.L.L.L.L.",
"L.H.L.L.n.W ,.L.L.L.G % X     % =   = < < < < o o = o = ^ U.U.U.U.L.L. .{ [ L.L.L.L.L.L.L.L.L.L.",
"L.L.L.L.L.L.L.L.L.>.- %     X - =   = < < < = = o %   = 2 -.U.U.U.I.L.@.0 i t.L.L.L.L.L.L.L.L.L.",
"L.L.L.L.L.L.L.L.V.2 - %     X % o   < % o o % =         o S U.U.U.U.U.>.] i r.L.L.L.L.L.L.L.L.L.",
"L.L.L.L.L.L.L.L.l - - &                       X         O =.U.U.U.U.U.6 e.L.L.L.L.L.L.L.L.L.L.L.",
"L.L.L.L.L.L.L.L.< < < %               X %           X F -.=.U.U.U.U.U.F A.P.L.L.L.L.L.L.L.L.L.L.",
"L.L.L.L.L.L.L.L.;.4 < %             X = < %         S U.b.Y =.U.U.U.w.W U.U.L.L.L.L.L.L.L.L.L.L.",
"L.L.L.L.L.L.L.L.L.I.Y %           X < < < < o     6 I.U.U.4.E U.U.U.:.=.U.U.U.L.L.L.L.L.L.L.L.L.",
"L.L.L.L.L.L.L.L.I.U.I.=.O       X = = < < < = X 6 b.U.U.U.U.:.Y 8.S I U.U.U.U.P.L.L.L.L.L.L.L.L.",
"L.L.L.L.L.L.P.U.U.U.U.U.U.,.,.3.3.M.U.J.^ J ,.w.U.U.U.U.U.U.J.,.3.:.c.U.U.U.U.U.P.L.L.L.L.L.L.L.",
"L.L.L.L.L.L.I.U.U.U.U.U.U.U.U.U.U.U.U.U.U.U.U.U.U.U.U.U.U.U.U.U.U.U.U.U.U.U.U.U.U.I.L.L.L.L.L.L.",
"L.L.L.L.L.I.U.U.U.U.U.U.U.U.U.U.U.U.U.U.U.U.U.U.U.U.U.U.U.U.U.U.U.U.U.U.U.U.U.U.U.U.I.L.L.L.L.L.",
"L.L.L.P.U.U.U.U.U.U.U.U.U.U.U.U.U.U.U.U.U.U.U.U.U.U.U.U.U.U.U.U.U.U.U.U.U.U.U.U.U.U.U.I.L.L.L.L.",
"L.L.L.I.U.U.U.U.U.U.U.U.U.U.U.U.U.U.U.U.U.U.U.U.U.U.U.U.U.U.U.U.U.U.U.U.U.U.U.U.U.U.U.U.I.L.L.L.",
"L.L.I.U.U.U.U.U.U.U.U.U.U.U.U.U.U.U.U.U.U.U.U.U.U.U.U.U.U.U.U.U.U.U.U.U.U.U.U.U.U.U.U.U.U.I.L.L.",
"P.I.U.U.U.U.U.U.U.U.U.U.U.U.U.U.U.U.U.U.U.U.U.U.U.U.U.U.U.U.U.U.U.U.U.U.U.U.U.U.U.U.U.U.U.U.I.P.",
"I.U.U.U.U.U.U.U.U.U.U.U.U.U.U.U.U.U.U.U.U.U.U.U.U.U.U.U.U.U.U.U.U.U.U.U.U.U.U.U.U.U.U.U.U.U.U.I."
};
