/* XPM */
static char *result[] = {
/* columns rows colors chars-per-pixel */
"48 48 190 2 ",
"   c #0D0415",
".  c #120517",
"X  c #110619",
"o  c #1C0619",
"O  c #150A1D",
"+  c #180B1D",
"@  c #1D111F",
"#  c #23071B",
"$  c #24091B",
"%  c #2B091C",
"&  c #330A1E",
"*  c #3D0C1D",
"=  c #36111F",
"-  c #160B20",
";  c #1A0C23",
":  c #1F0F28",
">  c #1E1421",
",  c #1F1028",
"<  c #0B1327",
"1  c #260F26",
"2  c #380A21",
"3  c #261A26",
"4  c #21112A",
"5  c #281625",
"6  c #351425",
"7  c #351A27",
"8  c #3E1422",
"9  c #2C2029",
"0  c #30242C",
"q  c #3B2E33",
"w  c #410D1D",
"e  c #4D111B",
"r  c #41111D",
"t  c #55111E",
"y  c #5C141C",
"u  c #5D181F",
"i  c #611619",
"p  c #641A1D",
"a  c #6E1F1B",
"s  c #55201D",
"d  c #66201C",
"f  c #722F1F",
"g  c #440C23",
"h  c #4C0E22",
"j  c #500F20",
"k  c #4C1224",
"l  c #4D1329",
"z  c #4D1B26",
"x  c #521323",
"c  c #5B1A26",
"v  c #51172C",
"b  c #561B2C",
"n  c #551D23",
"m  c #641E25",
"M  c #422B33",
"N  c #5A2533",
"B  c #443739",
"V  c #57282E",
"C  c #6C2525",
"Z  c #6A2B2B",
"A  c #652429",
"S  c #702A2A",
"D  c #642A35",
"F  c #6A323C",
"G  c #67313D",
"H  c #7E3B36",
"J  c #77342D",
"K  c #0B2D42",
"L  c #112E45",
"P  c #083951",
"I  c #4E3F40",
"U  c #503E40",
"Y  c #6B3640",
"T  c #703C44",
"R  c #045D79",
"E  c #21647E",
"W  c #584647",
"Q  c #634E4C",
"!  c #764144",
"~  c #7F4645",
"^  c #7D4A4F",
"/  c #76464C",
"(  c #64524E",
")  c #6B5A53",
"_  c #725F57",
"`  c #765F58",
"'  c #78635B",
"]  c #81371F",
"[  c #813F3A",
"{  c #87473A",
"}  c #8B4E46",
"|  c #824440",
" . c #8A514D",
".. c #93574E",
"X. c #814F52",
"o. c #8C5A58",
"O. c #885656",
"+. c #965E54",
"@. c #976157",
"#. c #9A6252",
"$. c #96645E",
"%. c #93695D",
"&. c #86655B",
"*. c #A86E4E",
"=. c #A26D5F",
"-. c #846D62",
";. c #996B65",
":. c #936561",
">. c #8B7467",
",. c #8D796A",
"<. c #877365",
"1. c #937C6D",
"2. c #9A7167",
"3. c #A36E60",
"4. c #A37164",
"5. c #A2756C",
"6. c #A9796C",
"7. c #A87D72",
"8. c #9B8673",
"9. c #9F8975",
"0. c #AC8474",
"q. c #A18B77",
"w. c #A48C78",
"e. c #A58678",
"r. c #B28473",
"t. c #B58A79",
"y. c #B88F7E",
"u. c #A9927C",
"i. c #BC927D",
"p. c #B5927F",
"a. c #C28C6E",
"s. c #C2957C",
"d. c #D0A17F",
"f. c #056985",
"g. c #08768F",
"h. c #047D96",
"j. c #058097",
"k. c #0286A8",
"l. c #0393B5",
"z. c #009ABE",
"x. c #1C9AB2",
"c. c #3797A8",
"v. c #2786A2",
"b. c #35A0B6",
"n. c #2BACBB",
"m. c #579095",
"M. c #5EB3BE",
"N. c #56A5AE",
"B. c #68B2BA",
"V. c #75B4B0",
"C. c #039FC1",
"Z. c #00B6DF",
"A. c #11BEDD",
"S. c #2DB4CD",
"D. c #37BBCA",
"F. c #52BBC6",
"G. c #00CAE2",
"H. c #54C6C9",
"J. c #61C0C3",
"K. c #8E978E",
"L. c #9B9B8F",
"P. c #969E93",
"I. c #BC9481",
"U. c #B49C83",
"Y. c #BB9B84",
"T. c #B69783",
"R. c #B9A187",
"E. c #BDA489",
"W. c #A7AC9B",
"Q. c #BEB49E",
"!. c #9CAEA0",
"~. c #A6B6A7",
"^. c #B4B1A0",
"/. c #C59C84",
"(. c #C59F89",
"). c #C4A189",
"_. c #CBA58C",
"`. c #C5AB8E",
"'. c #CCA98F",
"]. c #C4AC92",
"[. c #CCAC91",
"{. c #D2AD93",
"}. c #CDB294",
"|. c #CBB299",
" X c #C2B59E",
".X c #D5B195",
"XX c #D6B698",
"oX c #D7B999",
"OX c #D8BD9B",
"+X c #D2B897",
/* pixels */
"OXOXOXOXOXOXOXOXOXOXOXOXOXOXOXOXOXOXOXOXOXOXOXOXOXOXOXOXOXOXOXOXOXOXOXOXOXOXOXOXOXOXOXOXOXOXOXOX",
"OXOXOXOXOXOXOXOXOXOXOXOXOXOXOXOXOXOXOXOXOXOXOXOXOXOXOXOXOXOXOXOXOXOXOXOXOXOXOXOXOXOXOXOXOXOXOXOX",
"OXOXOXOXOXOXOXOXOXOXOXOXOXOXOXOXOXOXOXOXOXOXOXXXoXOXOXOXOXOXOXOXOXOXOXOXOXOXOXOXOXOXOXOXOXOXOXOX",
"OXOXOXOXOXOXOXOXOXOXOXOXOXOXOXOXOXOXOXOXOXoXXX.X.XXXoXOXOXOXOXOXOXOXOXOXOXOXOXOXOXOXOXOXOXOXOXOX",
"OXOXOXOXOXOXOXOXOXOXOXOXOXOXOXOXOXOXOXOXOX.X.X.X.X.XXXOXOXOXOXOXOXOXOXOXOXOXOXOXOXOXOXOXOXOXOXOX",
"OXOXOXOXOXOXOXOXOXOXOXOXOXOXOXOXOXOXOXOXoX.X.X.X.X.X.XXXOXOXOXOXOXOXOXOXOXOXOXOXOXOXOXOXOXOXOXOX",
"OXOXOXOXOXOXOXOXOXOXOXOXOXOXOXOXOXOXOXXX.X.X.X.X.X.X.X.XXXOXOXOXOXOXOXOXOXOXOXOXOXOXOXOXOXOXOXOX",
"OXOXOXOXOXOXOXOXOXOXOXOXOXOXOXOXOXOXXX{..X.X.X.X.X.X.X.X.XXXOXOXOXOXOXOXOXOXOXOXOXOXOXOXOXOXOXOX",
"OXOXOXOXOXOXOXOXOXOXOXOXOXOXOXOXOXXX.X.X.X.X.X.X.X.X.X.X.X.XXXoXOXOXOXOXOXOXOXOXOXOXOXOXOXOXOXOX",
"OXOXOXOXOXOXOXOXOXOXOXOXOXOXOXOXXX.X.X.X.X.X.X.X.X.X.X.X.X.X.XXXOXOXOXOXOXOXOXOXOXOXOXOXOXOXOXOX",
"OXOXOXOXOXOXOXOXOXOXOXOXOXOXOX.X.X.X.X.X{..X.X.X.X.X.X.X.X.X.X.X.XOXOXOXOXOXOXOXOXOXOXOXOXOXOXOX",
"OXOXOXOXOXOXOXOXOXOXOXOXOXOXXXXX.X.X.X.X.X{.^.|..X.X.X.X.X.X.X.X.XoXOXOXOXOXOXOXOXOXOXOXOXOXOXOX",
"OXOXOXOXOXOXOXOXOXOXOXOXoX].E.XX.X.X.X.XXX~.M..X.X.X.X.X.X.X.X.X.X.XXXOXOXOXOXOXOXOXOXOXOXOXOXOX",
"OXOXOXOXOXOXOXOXOXOXOXOX.XL.K.].|. X~. X XM.B.{..X.X.X.X.X.X.X.X.X.X.X.XOXOXOXOXOXOXOXOXOXOXOXOX",
"OXOXOXOXOXOXOXOXOXOXOXoX.XP.m.V.J.F.D.N.H.S.N.6.t.{..X.X.X.X.X.X.X.X.X.XoXOXOXOXOXOXOXOXOXOXOXOX",
"OXOXOXOXOXOXOXOXOXOXXX.X.X!.c.n.A.Z.l.g.G.C.x.V } s.{..X.X.X.X.X.X.X.X.X.XXXOXOXOXOXOXOXOXOXOXOX",
"OXOXOXOXOXOXOXOXOXXX{..X.X|.W.W.b.k.f.k.f.K K # n | I.XX{.XX{.{..X.X.X.X.X.X.XOXOXOXOXOXOXOXOXOX",
"OXOXOXOXOXOXOXOXXX.X.X.X.X.X.X{.b.k.l.h.<       % x | /.XX{..X.X.X.X.X.X.X.X.XXXOXOXOXOXOXOXOXOX",
"OXOXOXOXOXOXoXXX.X.X.X.X.X.X.X6.v.z.h.L       X O & k  .(..X.X.X.X.X{.XX.X.X.X.XXXOXOXOXOXOXOXOX",
"OXOXOXOXOXOXXX.X.X.X.X.X.X).;.N E g.f.P       X - o 2 t S ../.{.{..X{.{..X.X.X.X.X.XOXOXOXOXOXOX",
"OXOXOXOXOXoX.X.X.X{.{./.5.F x g # - L     . o X ; o 2 h y i C H ..+.5.;.I..X.X{..X.XXXOXOXOXOXOX",
"OXOXOXoX.X.X.X.X.X$.r.Y x t e 1 X # w o # % o . ; - % e i i p a p j h D t..X.X{..X.X.X.XOXOXOXOX",
"OXOXOXXX.Xd.a./.{.y c h t r $ : O o % # w % o o ; ; = c m x p p x y y C +.s.{.{./.7.{..XXXOXOXOX",
"OXOXoX.X{.*.] #.;.j h k 6 ; - 4 - . % % * & o o ; 6 s p i j t i i i i i p [ =.;.T T _..X.XXXOXOX",
"oX.X.X.X.X*.f H v h g 1 1 O O O O # w % o # . X - 6 8 6 g g x i i i i i i i m x j { /..X.X.XXXoX",
".X.X.X.X.Xr.Z z h t t % O X O X X . # %   .     - , ; - 5 ^ b p y i i y y i x x y a { 6._..X.X.X",
".X.X.X.X.XY.V 2 t i A %.Q X ; O       .   X X   - , : X : 0.6.C t i i i p p i i i i i C [ =._._.",
".X.X.X.X)./ l % e p 4._.' ; 4 +         X ; X   ; : ; - : u.{.2.b j i x x y i i i t i i i m F / ",
".X.X.X{.:.b e % g Z 2.' O - - - X       - : -   - O   O 4 T..X{.4.l g g j t y j t j j j t x X.I.",
".X.X.X0.N k p n 7 M U + O .   X X       : : -         O Q |..X{.'.+.p x l l v N G F 5.7./..X{..X",
".X.X(.X.k c } y.).p.8.1 .             X ; : ;         O 1.oXoXXX/.{ J  .$.5.I._..X.X.X.X.X.X.X.X",
".X{.2.x A @._..X{.'.` O - O               O ;           B q.oXXXi.{ o..X.X.X.X.X.X.X.X.X.X.X.X.X",
".X_.O.D 3.'.{.{.{.-.3 - 4 - .               @             9 OXOX+Xw.,..X.X.X.X.X.X.X.X.X.X.X.X.X",
".X(.o.o._..XXX{.-.+ O 4 4 ;                               ' OXOXOXp.8..X.X.X.X.X.X.X.X{..X.X.X.X",
"{._.7.y..X.X{.(.3 X O O ; ;                             @ q.u.u.u.8.9..X.X.X.X.X.X.X.X.X{..X.X.X",
".X{._.{..X.X.XI.+ .     X -                             I 8.9.u.,.8.p.oX.X.X.X.X.X.X.X.X.X.X.X.X",
".X.X.X.X.X.X.X'.W       .                               8.E.+X+X`.}.+XOXOX+X.X.X.X.X.X.X.X.X.X.X",
".X.X.X.X.X.X.X.X).( O                                 3 u.OXOXOXOXOXOXOXOXoX+X.X.X.X.X.X.X.X.X.X",
".X.X.X.X.X.X.X.X.XoXR.0                               ' +XOXOXOXOXOXOXOXOXOXoX.X.X.X.X.X.X.X.X.X",
".X.X.X.X.X.X.X.XoXOX}._ X     O O       .         @ q.OXOXOXOXOXOXOXOXOXOXOXOXoX.X.X.X.X{..X.X.X",
".X.X.X.X.X.XXXOXOXOXOXE.W 9 q ' ( @   @ B q @   + ' }.OXOXOXOXOXOXOXOXOXOXOXOXOXoX.X.X.X.X.X.X.X",
".X.X.X.X.X.XoXOXOXOXOXOX`.u.E.+X`.( q ( ].R.<.I ) R.OXOXOXOXOXOXOXOXOXOXOXOXOXOXOXoX.X.X.X.X.X.X",
".X{..X.XXXoXOXOXOXOXOXOXOXOXOXOXOX+XR.}.OXOXOXOXOXOXOXOXOXOXOXOXOXOXOXOXOXOXOXOXOXOXoX.X.X.X.X.X",
".X.X.XXXoXOXOXOXOXOXOXOXOXOXOXOXOXOXOXOXOXOXOXOXOXOXOXOXOXOXOXOXOXOXOXOXOXOXOXOXOXOXOXOX.X.X.X.X",
".X.X.XoXOXOXOXOXOXOXOXOXOXOXOXOXOXOXOXOXOXOXOXOXOXOXOXOXOXOXOXOXOXOXOXOXOXOXOXOXOXOXOXOXoX.X.X.X",
".XXXoXOXOXOXOXOXOXOXOXOXOXOXOXOXOXOXOXOXOXOXOXOXOXOXOXOXOXOXOXOXOXOXOXOXOXOXOXOXOXOXOXOXOXoX.X.X",
"XXoXOXOXOXOXOXOXOXOXOXOXOXOXOXOXOXOXOXOXOXOXOXOXOXOXOXOXOXOXOXOXOXOXOXOXOXOXOXOXOXOXOXOXOXOXoXXX",
"oXOXOXOXOXOXOXOXOXOXOXOXOXOXOXOXOXOXOXOXOXOXOXOXOXOXOXOXOXOXOXOXOXOXOXOXOXOXOXOXOXOXOXOXOXOXOXoX"
};
