/* XPM */
static char *result[] = {
/* columns rows colors chars-per-pixel */
"48 48 191 2 ",
"   c #0D0415",
".  c #0D081A",
"X  c #120517",
"o  c #110619",
"O  c #1C0619",
"+  c #14091C",
"@  c #1E0717",
"#  c #20071A",
"$  c #2A081C",
"%  c #270A1C",
"&  c #340A1D",
"*  c #320D17",
"=  c #170B20",
"-  c #1B0D24",
";  c #1E1320",
":  c #1F1028",
">  c #3A0C22",
",  c #21112A",
"<  c #231725",
"1  c #2B1A30",
"2  c #301F33",
"3  c #09263C",
"4  c #0B293A",
"5  c #2E212B",
"6  c #3A2A37",
"7  c #460E1E",
"8  c #4A171D",
"9  c #55111F",
"0  c #5C141C",
"q  c #5E181F",
"w  c #621619",
"e  c #641A1D",
"r  c #6A1E1D",
"t  c #75281B",
"y  c #6C301F",
"u  c #7C311E",
"i  c #470C24",
"p  c #4C0E22",
"a  c #500F20",
"s  c #4D1329",
"d  c #521121",
"f  c #541A2C",
"g  c #5F1920",
"h  c #571E30",
"j  c #681F20",
"k  c #5F2938",
"l  c #5C2535",
"z  c #47363C",
"x  c #5B2126",
"c  c #6B2220",
"v  c #75302D",
"b  c #67313D",
"n  c #773836",
"m  c #722B2A",
"M  c #7F4735",
"N  c #092E44",
"B  c #09344D",
"V  c #3D3046",
"C  c #4F3C46",
"Z  c #503E40",
"A  c #533E48",
"S  c #6E3943",
"D  c #743E43",
"F  c #07425C",
"G  c #094458",
"H  c #15425C",
"J  c #085F72",
"K  c #07546D",
"L  c #365D6A",
"P  c #31647B",
"I  c #564548",
"U  c #454346",
"Y  c #76434A",
"T  c #79484B",
"R  c #65514E",
"E  c #675650",
"W  c #6B5754",
"Q  c #715A55",
"!  c #725B5B",
"~  c #674F59",
"^  c #72615A",
"/  c #7B645D",
"(  c #4C7478",
")  c #7C6762",
"_  c #80352A",
"`  c #88453C",
"'  c #A95F3A",
"]  c #C9763D",
"[  c #884B42",
"{  c #8F5249",
"}  c #8D5E5C",
"|  c #855756",
" . c #955B50",
".. c #98685C",
"X. c #846C62",
"o. c #847063",
"O. c #8A7467",
"+. c #947E6E",
"@. c #92776A",
"#. c #A3796D",
"$. c #AA7A68",
"%. c #A67C70",
"&. c #9C8272",
"*. c #9F8976",
"=. c #BC8163",
"-. c #A28476",
";. c #AA8B7A",
":. c #A88273",
">. c #B18570",
",. c #B28C79",
"<. c #BB8C76",
"1. c #AA927D",
"2. c #B9957E",
"3. c #C28867",
"4. c #C89678",
"5. c #036A8A",
"6. c #027B9D",
"7. c #057395",
"8. c #19768B",
"9. c #23788D",
"0. c #018CAD",
"q. c #0487A2",
"w. c #178BA9",
"e. c #008EB4",
"r. c #0497B6",
"t. c #169BB7",
"y. c #308EA4",
"u. c #2E9CAE",
"i. c #04A2B7",
"p. c #30A0B8",
"a. c #5F828C",
"s. c #629B99",
"d. c #4A9FA3",
"f. c #6AB6BC",
"g. c #78B6B8",
"h. c #10A6C1",
"j. c #01AAD2",
"k. c #00B2DD",
"l. c #00B9D8",
"z. c #12B2D7",
"x. c #36B2CB",
"c. c #27B9D4",
"v. c #00BDE3",
"b. c #00B7E0",
"n. c #47B6C7",
"m. c #30C1CF",
"M. c #23C8DD",
"N. c #00C2E6",
"B. c #00CBEA",
"V. c #00D1EC",
"C. c #18D6E9",
"Z. c #00D5F0",
"A. c #00DFF5",
"S. c #23D7E5",
"D. c #24D9E6",
"F. c #47C9D1",
"G. c #53C6CC",
"H. c #6AC8C5",
"J. c #918B81",
"K. c #90948C",
"L. c #BC9582",
"P. c #BF9C86",
"I. c #B69D84",
"U. c #8FA89C",
"Y. c #BBA289",
"T. c #BCB19E",
"R. c #BEA893",
"E. c #8EB1AD",
"W. c #97B1AA",
"Q. c #82B1B1",
"!. c #9ABEB0",
"~. c #8EA8A3",
"^. c #A5B6A7",
"/. c #B1B1A1",
"(. c #B8B7A2",
"). c #C29780",
"_. c #C19D86",
"`. c #CAA68B",
"'. c #CCA98F",
"]. c #C3A489",
"[. c #C7AE90",
"{. c #CBAD92",
"}. c #D1AD92",
"|. c #CBB299",
" X c #C3B59D",
".X c #D5B195",
"XX c #D5B698",
"oX c #D7B999",
"OX c #D8BD9B",
"+X c #82C3BA",
"@X c #BAC2A7",
/* pixels */
"OXOXOXOXOXOXOXOXOXOXOXOX}.].#...f d 0 w 0 0 w 0 0 n >.} 7 i 0 w w w w w w w w w OXOXOXOXOXOXOXOX",
"OXOXOXOXOXOXOXOXOXOXOXOX2.D d a d i i i i i i i 9 t _ r w p 0 w w w w w w w w w OXOXOXOXOXOXOXOX",
"OXOXOXOXOXOXOXOXOXOXOXOXOXOXOXT p w w w 9 w w w 0 n } f j p i a 9 w w w w w w w >.OXOXOXOXOXOXOX",
"OXOXOXOXOXOXOXOXOXOXOXOXOXOXOX1.p w w w w 9 w w w [ '.f a 9 p p i 9 9 0 w w w w $.OXOXOXOXOXOXOX",
"OXOXOXOXOXOXOXOXOXOXOXOXOXOXOX].p w w w w w w w 0 [ ).i 9 w w 0 q 9 i i p 9 w w e `.OXOXOXOXOXOX",
"OXOXOXOXOXOXOXOXOXOXOXOXOXOXOXP.i 0 w w w w w w w [ L.i 9 w w w 0 0 9 w 0 p i p q 4.OXOXOXOXOXOX",
"OXOXOXOXOXOXOXOXOXOXOXOXOXOXOXoXl 9 0 0 w w w w w j | p w w w w w w w w w w q 9 p S +.OXOXOXOXOX",
"OXOXOXOXOXOXOXOXOXOXOXOXOXOXOXOXk a w w w w w w w w D a w w w w w w w w w w w w j ,.:.OXOXOXOXOX",
"OXOXOXOXOXOXOXOXOXOXOXOXOXOXOXOXl a w w 0 g w w w w D p d g 9 0 w w w w w w w w >.OXOXOXOXOXOXOX",
"OXOXOXOXOXOXOXOXOXOXOXOXOXOXOXoXl a w 0 w w 0 w w w s p w w w w w w w w w w w w .XOXOXOXOXOXOXOX",
"OXOXOXOXOXOXOXOXOXOXOXOXOXOXOX%.h a 0 0 0 d d 0 0 9 i p w w w w w w w w w w w [ OXOXOXOXOXOXOXOX",
"OXOXOXOXOXOXOXOXOXOXOXOXOX'.D d g d i p p a p a j j a p w w w w w w w w w w w $.OXOXOXOXOXOXOXOX",
"OXOXOXOXOXOXOXOXOXOXOXOXoXXX'.4.| a a w w w w a w r w j 0 w w w 0 w w w w w c 4.OXOXOXOXOXOXOXOX",
"OXOXOXOXOXOXOXOXOXOXOXOXXX.X.X.X_.S a w w w w w g f a r i p 0 0 0 0 w w w w n OXOXOXOXOXOXOXOXOX",
"OXOXOXOXOXOXOXOXOXOXOXoX.X.X.X.X.X$.f 0 w 0 w w m _.S a i p i i p 9 0 w w w >.OXOXOXOXOXOXOXOXOX",
"OXOXOXOXOXOXOXOXOXOXXX.X.X.X.X.X.X.X} i a g w w v .X} i 0 w 0 0 d d p i d d ,.OXOXOXOXOXOXOXOXOX",
"OXOXOXOXOXOXOXOXOX.X.X.X.X.X.X.X.X.X).s 9 w w w { XXL.i d w w w w w w w w p h L.oXOXOXOXOXOXOXOX",
"OXOXOXOXOXOXOXOXXX.X.X.X.X.X.X.X.X.X.XD i 0 w w $..XL.i a w w w w w w w w  .}.oXoXoXOXOXOXOXOXOX",
"OXOXOXOXOXOXOXXX.X.X.X.X.X.X.X.X.X.X.X).b V x w )..X).i a w w w w w w [ <..X.X.XXXOXOXOXOXOXOXOX",
"OXOXOXOXOXOX.X.X.X.X.XT..X.X.X.X.X.X.X.X~ t.w e ..f i i a w w w w [ 4..X.X.X.X.X.XXXOXOXOXOXOXOX",
"OXOXOXOXOXoX.X.X.X.X.XW.Q..X.X.X.X.X.XL.w.P 9 > i p 9 q w w w w $..X.X.X.X.X.X.X.X.XoXOXOXOXOXOX",
"OXOXOXOX.X.X.X.X.X.X.XT.p.{.R.~.f.n.^.a.h.H + , : = % 7 d w w  ..X.X.X.X.X.X.X.X.X.X.XXXOXOXOXOX",
"OXOXOX.X.X.X.X.X.X.X.XE.6.p.w.j.b.6.t.k.B.J   = ; = - : : | ).'..X.X.X.X.X.X.X.X.X.X.X.X.XOXOXOX",
"OXOXoX.X.X.X.X.X.X.X.XT.w.9.y.A.v.5.e.e.v.i.  +       . + 1 ;..X.X.X.X.X.X.X.X.X.X.X.X.X.XoXOXOX",
"OX.X.X.X.X.X.X.X.X.X.X.X.X.X*.B.B 6.5.N         + =       , : -..X.X.X.X.X.X.X.X.X.X.X.X.X.XXXOX",
"XX.X.X.X.X.X.X.X.X.X.X.X.X.XK.k.7.j.F o           - =   + , , 1 .X.X.X.X.X.X.X.X.X.X.X.X.X.X.X.X",
".X.X.X.X.X.X.X.X.X.X.X.X.X.XE.e.r.F N N         o O , +   : = : / .X.X.X.X.X.X.X.X.X.X.X.X.X.X.X",
".X.X.X.X.X.X.X.X.X.X.X.X.X.XW.c.8.. F B X 0 7   & X = , =     o I .X.X.X.X.X.X.X.X.X.X.X.X.X.X.X",
".X.X.X.X.X.X.X.X=.' =..X.X.X.X}.^ 3 G K # @ > O # $ - , , o     ; ]..X.X.X.X.X.X.X.X.X.X.X.X.X.X",
".X.X.X.X.X.X.X`.' y ` oX.XXX^.u.2 N q.N X & @ > $ O o , , +       O..X.X.X.X.X.X.X.X_.@.`..X.X.X",
".X.X.X.X.X.X.X.XM y [ T..X(.m.4     o + # i $ $ O $ = , , -   +   6 '..X.X.X.X.X.X.X@.R Q &.4.3.",
".X.X.X.X.X.X.X.X3...( C.H.C.L       = o X & $ X %   - , , , o o : + | .X.X.X.X.X.X@.z .XQ E v ] ",
".X.X.X.X.X.X.X.X.XU.V.A.A.+X.XO.+ o , .   O         = , , , :   : ,   -..X.X.X.X.XX./ .X.X%.$ 8 ",
".X.X.X}.^.H.H. X.Xd.A.A.D. XoXOXE + :               , , , , , o = , + ; A -..X.X].R .X.X.X.X..u ",
".X.X{.n.v.N.A.M.n.A.B.B.G.OXOXOXz : o             : , , , , , + - , +   : , ! ;._.Z ;..X.X.X.X<.",
".X.X/.k.A.A.N.k.V.A.c.x.g.OXOX% ^ OXOXo.        + , , , , , , o , -     - , , , -.@./ .X.X.X.X.X",
".X.X/.b.A.A.k.k.Z.G. XOXOXo.^ R [.OXOXOX      o : , , , , , , + , =       : , , ; z Q .X.X.X.X.X",
".X.Xx.B.A.A.b.k.V.s.Y.O.&.E &.OXOXOXY.~ +     = = o     = , = + : : o     : , , : 6 >..X.X.X.X.X",
".X Xz.B.B.B.v.z.f.U ^ E R < 6 / ) I 2 : +     +         + , o - , , : o   = , , : R .X.X.X.X.X.X",
".X/.k.b.N.N.N.F.OXOXOXXX&.. = : , , , :                   :   = : o o =   - , ,   ;..X.X.X.X.X.X",
"}.f.F.Z.A.A.A.D.OXOXOXOX&.    + , , , o                   <   +       +   + =   < '..X.X.X.X.X.X",
".XXX[.+XD.D.H.@XOXOXOXOX&.      - , =                     +   o                 o.OX.X.X.X.X.X.X",
".X.X.X.XOXOXOXOXOXOXOXOXR.;     . =                                             ].OXOX.X.X.X.X.X",
".X.X.X.XOXOXOXOXOXOXOXOXOX^                       o             o - = .     ; O.OXOXOXOXXX.X.X.X",
".X.X.XOXOXOXOXOXOXOXOXOXOXY.5                   o : =           + , , C / *.[.OXOXOXOXOXoX.X.X.X",
".X.XOXOXOXOXOXOXOXOXOXOXOXOXOXZ 5               + , ,           = : ! OXOXOXOXOXOXOXOXOXOXoX.X.X",
".XOXOXOXOXOXOXOXOXOXOXOXOXOXOXOX!               : : , =         - I OXOXOXOXOXOXOXOXOXOXOXOXoXXX",
"OXOXOXOXOXOXOXOXOXOXOXOXOXOXOXOX1.            - : 6 &.1.Z       C oXOXOXOXOXOXOXOXOXOXOXOXOXOXoX"
};
