/* XPM */
static char *result[] = {
/* columns rows colors chars-per-pixel */
"48 48 255 2 ",
"   c #D8BD9B",
".  c #D7B898",
"X  c #D8A384",
"o  c #D63D28",
"O  c #EB541C",
"+  c #FF8426",
"@  c #EBA161",
"#  c #D8BC9A",
"$  c #D6B496",
"%  c #D5B195",
"&  c #D6B698",
"*  c #ECA060",
"=  c #F88E3A",
"-  c #DEB488",
";  c #D79778",
":  c #DA6C4C",
">  c #E85926",
",  c #F57F17",
"<  c #FFAB13",
"1  c #F5A63A",
"2  c #E8A56A",
"3  c #DBB891",
"4  c #DB7858",
"5  c #E8985F",
"6  c #FF971D",
"7  c #FC8930",
"8  c #EF9C57",
"9  c #D8B997",
"0  c #D8A888",
"q  c #E34316",
"w  c #F9811E",
"e  c #FFB110",
"r  c #FFD100",
"t  c #FA9631",
"y  c #E4AE76",
"u  c #D5A58A",
"i  c #D69C7F",
"p  c #DBA782",
"a  c #DCA982",
"s  c #DEAF85",
"d  c #DFB387",
"f  c #DE7A4B",
"g  c #E34E11",
"h  c #F9841D",
"j  c #FF9120",
"k  c #FF8A23",
"l  c #FA8C36",
"z  c #E4AC77",
"x  c #D7533B",
"c  c #FEB70B",
"v  c #FFCB03",
"b  c #FEBB0F",
"n  c #D5765E",
"m  c #DC492A",
"M  c #F27E36",
"N  c #F88B38",
"B  c #F88C39",
"V  c #F8A01E",
"C  c #F9B703",
"Z  c #FEC206",
"A  c #FFC406",
"S  c #FFA416",
"D  c #FE8629",
"F  c #DBAB86",
"G  c #E86531",
"H  c #FEDC40",
"J  c #FCE780",
"K  c #FDE36A",
"L  c #FFD515",
"P  c #D6A88B",
"I  c #E08258",
"U  c #EA9A5D",
"Y  c #EA773D",
"T  c #EE621A",
"R  c #FC9C14",
"E  c #FFBE09",
"W  c #F59243",
"Q  c #DE9E74",
"!  c #F98935",
"~  c #FFD207",
"^  c #FED723",
"/  c #FCEB95",
"(  c #FAFDFF",
")  c #FBF7DC",
"_  c #FDDE4E",
"`  c #FFC605",
"'  c #FF9C1A",
"]  c #EEA052",
"[  c #DC9670",
"{  c #DD4827",
"}  c #DD4927",
"|  c #F87826",
" . c #FCF0B1",
".. c #FAF9EA",
"X. c #FAFCF8",
"o. c #FFCF01",
"O. c #FCA820",
"+. c #F88834",
"@. c #F98D39",
"#. c #D62411",
"$. c #DD3A11",
"%. c #F89413",
"&. c #FED82B",
"*. c #FBF6D5",
"=. c #FBF2BF",
"-. c #FFAA13",
";. c #FFBE0A",
":. c #DD3F0F",
">. c #F8A908",
",. c #FF8F21",
"<. c #FF8625",
"1. c #FE8125",
"2. c #F97723",
"3. c #F87422",
"4. c #DD3613",
"5. c #F87F1D",
"6. c #FFB90C",
"7. c #E34117",
"8. c #DD3414",
"9. c #D77156",
"0. c #FFB525",
"q. c #FDDD6D",
"w. c #FAF3ED",
"e. c #FCCBA5",
"r. c #FEB553",
"t. c #F56C21",
"y. c #EA6026",
"u. c #FBF4D6",
"i. c #FBEBDA",
"p. c #FBE9DB",
"a. c #FCDABC",
"s. c #FE9F3F",
"d. c #E74C1A",
"f. c #D63E28",
"g. c #D8A484",
"h. c #EB9455",
"j. c #FECE30",
"k. c #FEA345",
"l. c #FE984A",
"z. c #FFBD12",
"x. c #D92C13",
"c. c #FF971C",
"v. c #FDE77F",
"b. c #D64A34",
"n. c #D77D62",
"m. c #D8B090",
"M. c #D9BB98",
"N. c #DDB58B",
"B. c #F3954A",
"V. c #DD9972",
"C. c #D8AF8F",
"Z. c #D77056",
"A. c #DE734E",
"S. c #F8802E",
"D. c #FEC949",
"F. c #F87F2D",
"G. c #DD6E4B",
"H. c #D69075",
"J. c #DD3415",
"K. c #FBF1B8",
"L. c #FEDD47",
"P. c #DCB188",
"I. c #F87423",
"U. c #F29248",
"Y. c #DCAF88",
"T. c #DCAA83",
"R. c #F88D39",
"E. c #F99530",
"W. c #FBF6D4",
"Q. c #FED82A",
"!. c #E2A572",
"~. c #D8AD8C",
"^. c #E69E67",
"/. c #F4A338",
"(. c #FCBC05",
"). c #EE6917",
"_. c #EA541B",
"`. c #E0A679",
"'. c #EA954F",
"]. c #EA7F16",
"[. c #F5A604",
"{. c #F5920E",
"}. c #EA7A09",
"|. c #D56B53",
" X c #DB9370",
".X c #D73A24",
"XX c #E76C0A",
"oX c #F9B902",
"OX c #FECC00",
"+X c #F8B403",
"@X c #F9AC09",
"#X c #FE8C20",
"$X c #EE5C1D",
"%X c #F98A35",
"&X c #E2A373",
"*X c #F27A32",
"=X c #DC3518",
"-X c #D93210",
";X c #E3590C",
":X c #DD410E",
">X c #E34C12",
",X c #F97922",
"<X c #FC7C24",
"1X c #FE8529",
"2X c #FCA311",
"3X c #EE830A",
"4X c #EB7B08",
"5X c #EE8907",
"6X c #FCC301",
"7X c #FDD489",
"8X c #EB6712",
"9X c #DCAC81",
"0X c #F89633",
"qX c #FDC78F",
"wX c #DCB47D",
"eX c #F8C11E",
"rX c #FDE183",
"tX c #EEA44E",
"yX c #FCC80F",
"uX c #FFBC0B",
"iX c #FF991B",
"pX c #FEC106",
"aX c #F9831D",
"sX c #D9674A",
"dX c #E75825",
"fX c #EA8017",
"gX c #EB9A52",
"hX c #E77815",
"jX c #D96D47",
"kX c #D5997F",
"lX c #D63B27",
"zX c #F38036",
"xX c #DC4B2B",
"cX c #DC4B2C",
"vX c #F38037",
"bX c #F8A11E",
"nX c #F8AD0C",
"mX c #F99430",
"MX c #E76530",
"NX c #D64F39",
"BX c #D59E83",
"VX c #D63C27",
"CX c #DDB187",
"ZX c #D9A685",
"AX c #DD5422",
"SX c #DEA073",
"DX c #DBAC86",
"FX c #D7A587",
"GX c #D5AE92",
"HX c #D77D61",
"JX c #DA7249",
"KX c #E87915",
"LX c #E1895B",
"PX c #D7BA9A",
"IX c #D5B296",
/* pixels */
"                                                                                                ",
"                                                                                                ",
"                                              . .                                               ",
"            X o O + + + + + @             # $ % % & #           * + + + = -                     ",
"          ; : > , < < < < < 1 2 3         $ % % % % $     ; 4 5 1 < < 6 7 8 * 2 3               ",
"      9 0 : q w e r r r r r e t y 3     . % % u i p a s d f g h e r r e j j k l z 3             ",
"      0 x > w c v r r r r r v b t 2 # $ % % % n m M N N B V C Z v r r v A A S D l 2             ",
"      F G , e v H J J J K L r A j @ P n I U U Y T R < < < E r r r r r r r r E S k W 2 3         ",
"    X Q ! < ~ ^ / ( ( ( ) _ L ` ' ] [ { T j j j ' ` r r r r r r r r r r r r r ` ' k l z d       ",
"    o } | < ^  ...( ( ( X.) K o.` O.+.| R A A A ` o.r r r r r r r r r r r r r o.` S D l @.      ",
"    #.$.%.E &.*.( ( ( ( ( ( =.K L -.k S E r r r r r r r r r r r ;.-.-.E r r r r r -.+ + +       ",
"    #.:.>.v &.*.( ( ( ( ( ( .. .^ -.j A L &.&.&.&.&.L r r r r r e ,.<.S A A v o.` S 1.2.3.      ",
"    #.4.5.e &.*.( ( ( ( ( ( / ^ ~ -.j A K *.*.*.*.*.K r r r r r v 6.,.k j j e ` ' k 2.7.8.      ",
"    9.: > , 0.q.=.( ( ( w.e.r.e v E 0.q.=.( ( ( ( ( =.K L H J J J q.0.< S k < A j t.> : 9.      ",
"      0 x y.,.6.q.u.i.p.a.s.j ' ` r &.*.( ( ( ( ( ( ( ) _ / ( ( ( ) _ L ` ' < c w d.f.g.        ",
"      9 0 h.<.,.0.j.k.l.s.z.A ` o.r &.*.( ( ( ( ( ( ( X.) ..( ( ( X.) K o.` -.w q x.f.g.        ",
"          * + + 6 S k c.e v r r r r &.*.( ( ( ( ( ( ( ( ( =.v.v.=.( ( v.r r -.3.8.b.n.m.        ",
"      M.N.8 <.,.k <.,.e r r r r r L _ ) ( ( ( ( ( ( ( ( ( / ^ ~ K ) X.v.r r -.| } n.            ",
"      N.B.7 ,.6.S ,.6.v r r r r r K ) X.( ( ( ( ( ( ( ( ( .. .^ L _ ) v.r r -.+.V.C.            ",
"    Z.A.S.c.e v -.j A r r r H J J =.( ( ( ../ =.( ( ( ( ( ( ../ H L K D.-.-.6 F.G.H.            ",
"    J.q w e r r -.j A r ~ ^ / ( ( ( ( ( ..K.L./ ( ( ( ( ( ( ( ( / ^ ~ e j j j w q G.P.M.        ",
"    I.w c v r r -.j A r ^  ...( ( ( ( ( / L.K...( ( ( ( ( ( ( ( .. .^ v A A A c w F.U.Y.#       ",
"    + j A r r r E e v r &.*.( ( ( ( ../ J / ..=.v.v.=.( ( ( ../ v.K L r r r r v e 6 B T.$       ",
"    R.E.b v r r r r r r &.*.( ( ( ( W.Q.J X.) K r r K W.W.W. .^ r r r r r r r r r e E.!.a .     ",
"# $ T.!.E.e r r r r r r &.*.( ( ( ( W.Q.J ) _ L r r L Q.Q.Q.^ ~ r r r r r r r r r v b E.N % & # ",
"$ % % ~.^./.e v r r r r &.*.( ( ( ( W.Q.H K L r r r ;.-.-.-.-.-.E r r r r r r r r r (.)._.% % $ ",
"% % % % % U j A r r r r ^  ...( ( ( W.Q.r r r v A A -.j j j j j e r r r r r r r r v >.:.#.% % % ",
"% % % % % U j A r r r r ~ ^ / ( ( ( W.Q.r r r e j j < A A A A A v r r r r r r r r e 5.4.#.% % % ",
"% % % % % `.'.].[.r r r r r H v.v.v.K L r r r E < < E L K J J J H r r r v e {.}.}., F.G.|.% % % ",
"% % % % % ~. X.XXXoXOXr ~ ^ &.&.&.L r r r r r L &.&.&._ ) ( ( ( v.OXoX+X@X#XT :.4.$X%X&Xa % % % ",
"% % % % % ^.*X=X-X;XoXr ^  .*.*.*.K r r r r r K *.*.*.) X.( ( ( v.oX;X:X>X,XR >.5.<X1X%XN % % % ",
"% % % ~.^./.2X3X4X5X6XH / ..( ( ( =.K L H J J =.( ( ( ( ( ( ( ( 7XR T 8X3X2XE v e < S k + % % % ",
"% % % 9X0Xe r r r r r K ) X.( ( ( ( W.Q.K ) X.( ( ( ( ( ( ( ( ( qXj j e r r r r r r ` ' j % % % ",
"% % % wXeXv r r r r r L _ ) ( ( ( ( W.Q.L _ ) ( ( ( ( ( ( ( ( ( rXA A v r r r r r r o.` A % % % ",
"% % U tXyXr r r r r r r L K =.( ( =.K L r &.*.( ( ( ( ../ v.v.v.H r r r r r r r r ;.e v r % % % ",
"% % + ,.6.v r r r r r v ` o.K W.W.K o.` v ^  ...( ( .. .^ r r r v ` o.r r r r r r e ' ` r % % % ",
"% % + <.,.e r r r r r e ' ` L Q.Q.L ` ' e ~ ^ / ( ( / ^ ~ r r r e ' ` r r r r r r v ` o.r % % % ",
"% % _.$X<X< r r r r r E < -.E r r r A j 6 e v H v.v.H r r r v e 6 j A r r r r v e E v e -.% % % ",
"% % #.J.I.S ` o.r r r v 6.,.< o.` A 6.,.+ ,.6.A A A A A A A uXiXj ' ` r o.` A uXiXe pXaX3.% % % ",
"% % #.J.I.k ' ` r r r e ,.<.< ` ' j ,.<.+ <.,.j j j j j j j iXuXA ` o.r ` ' j iXuXv C g 8.% % % ",
"% % |.sXdXt.k S E v e 6 + + , fXgXW <X$X_._._._.$X<X+ + + c.e v r v e -.-.< < < -.{.hXjX|.% % % ",
"% % % kXlXd.2.1.S 6.,.+ 1.2.> x 0 2 zXxXf.f.f.f.cXvX= = = bXoXOXr A j + ,.6.(.nXmXMXNXBX% % % % ",
"% % % kXVXx.7.2.k ,.<.+ 2.7.: 0 9 3 CXZXg.g.g.g.ZXCX- - - f ;XoXr A j + <.,.).AXSXDXFXGX% % % % ",
"% % % P HXb.x.d._._._._.> : ;                             ; JXKX{.S k W @ @ LXn.m.    PX$ % % % ",
"% % % PX  Z.#.#.#.#.#.#.f.g.                                X o O + + @                 PX% % % ",
"% $ PX                                                                                    PXIX% ",
"$ #                                                                                         PX$ ",
"PX                                                                                            PX"
};
