/* XPM */
static char *result[] = {
/* columns rows colors chars-per-pixel */
"48 48 217 2 ",
"   c #1C1B18",
".  c #231D19",
"X  c #1C281D",
"o  c #25211C",
"O  c #2B241D",
"+  c #25291F",
"@  c #1D2822",
"#  c #1C392B",
"$  c #2C2622",
"%  c #2E2A22",
"&  c #262B21",
"*  c #342B24",
"=  c #392E26",
"-  c #382F29",
";  c #302720",
":  c #283229",
">  c #3A3127",
",  c #3C332B",
"<  c #3B3A2D",
"1  c #36332A",
"2  c #3C3730",
"3  c #3A3B34",
"4  c #2B3B34",
"5  c #43362B",
"6  c #43382E",
"7  c #4A3A2F",
"8  c #413732",
"9  c #443B33",
"0  c #4A3E35",
"q  c #4A3F39",
"w  c #1C4F37",
"e  c #3F413D",
"r  c #334932",
"t  c #4D4135",
"y  c #4D433B",
"u  c #474638",
"i  c #534437",
"p  c #53443B",
"a  c #58463B",
"s  c #554A3E",
"d  c #5A4A3D",
"f  c #5C4434",
"g  c #42553D",
"h  c #604635",
"j  c #284640",
"k  c #255646",
"l  c #30554F",
"z  c #375E56",
"x  c #2A6957",
"c  c #3A615A",
"v  c #3A694F",
"b  c #397E64",
"n  c #2F6D67",
"m  c #4D4B42",
"M  c #494945",
"N  c #564B42",
"B  c #5B4D42",
"V  c #574B47",
"C  c #4D5A4A",
"Z  c #5D5145",
"A  c #5C544A",
"S  c #59554B",
"D  c #455B56",
"F  c #5B5C53",
"G  c #595B54",
"H  c #624F44",
"J  c #625245",
"K  c #63554B",
"L  c #63594D",
"P  c #6C5A4D",
"I  c #695747",
"U  c #705E4E",
"Y  c #645B52",
"T  c #6A5D53",
"R  c #695A55",
"E  c #715E53",
"W  c #56674B",
"Q  c #49625C",
"!  c #4A755B",
"~  c #5F635B",
"^  c #6E6354",
"/  c #6C645A",
"(  c #736255",
")  c #796555",
"_  c #72645A",
"`  c #74695B",
"'  c #7C6B5C",
"]  c #666D52",
"[  c #4A6962",
"{  c #5D6B62",
"}  c #46756D",
"|  c #577A71",
" . c #5F756C",
".. c #666B61",
"X. c #736B62",
"o. c #7B6D61",
"O. c #67756C",
"+. c #7C7264",
"@. c #7B736B",
"#. c #757368",
"$. c #777974",
"%. c #FF0401",
"&. c #826E5D",
"*. c #806852",
"=. c #83745C",
"-. c #806E60",
";. c #837264",
":. c #84756A",
">. c #85796D",
",. c #8C7B6C",
"<. c #897569",
"1. c #857B72",
"2. c #8B7E73",
"3. c #937F72",
"4. c #3C8271",
"5. c #5B8969",
"6. c #488979",
"7. c #54897C",
"8. c #748C76",
"9. c #4FAA7E",
"0. c #95826D",
"q. c #8D8174",
"w. c #8A8179",
"e. c #928374",
"r. c #998575",
"t. c #93857B",
"y. c #9A8A7B",
"u. c #98887C",
"i. c #A3917C",
"p. c #A58D7E",
"a. c #3B9984",
"s. c #3E9D91",
"d. c #338C85",
"f. c #32A598",
"g. c #1AADA8",
"h. c #2DB6B2",
"j. c #588B85",
"k. c #5A9388",
"l. c #44988B",
"z. c #7E8D81",
"x. c #629486",
"c. c #7A9283",
"v. c #5AB199",
"b. c #6FAE8F",
"n. c #67BBA9",
"m. c #6DB1A5",
"M. c #2AC4B3",
"N. c #40E696",
"B. c #52CEB1",
"V. c #4BC6AB",
"C. c #78C8A8",
"Z. c #1ECEC8",
"A. c #2ED2CC",
"S. c #29FFFF",
"D. c #38FFFF",
"F. c #27ECE9",
"G. c #73CEC6",
"H. c #44FCDD",
"J. c #7BEEDD",
"K. c #69FFFF",
"L. c #76FFFF",
"P. c #7CFFFE",
"I. c #76FFF1",
"U. c #72F1ED",
"Y. c #9D8E81",
"T. c #958C80",
"R. c #9C9488",
"E. c #9D9F98",
"W. c #A29285",
"Q. c #AA9584",
"!. c #A59589",
"~. c #A9988A",
"^. c #B49F8B",
"/. c #B99E88",
"(. c #A79B90",
"). c #8DB69A",
"_. c #B5A188",
"`. c #AAA196",
"'. c #BDA995",
"]. c #B9AA9D",
"[. c #B5A496",
"{. c #80A8A2",
"}. c #BCADA0",
"|. c #B6ADA6",
" X c #BDB1A6",
".X c #C5AD99",
"XX c #D5B195",
"oX c #D7BA9A",
"OX c #D8BD9B",
"+X c #D6B698",
"@X c #C0A485",
"#X c #C1AFA3",
"$X c #CAB6A2",
"%X c #CBB9A9",
"&X c #C6B5A8",
"*X c #D5BCA2",
"=X c #8CCBB2",
"-X c #D6C9BA",
";X c #D4C5B7",
":X c #D3CCAC",
">X c #E1CCB8",
",X c #86E6D9",
"<X c #99FFFD",
"1X c #85FFF1",
"2X c #ACFFFF",
"3X c #BDFFFF",
"4X c #D1C8C0",
"5X c #E2D6CA",
"6X c #EEE0D1",
"7X c #F5EADE",
"8X c #C6FFFF",
"9X c #D8FFFF",
"0X c #D5FAE9",
"qX c #FAF2E9",
"wX c #E5FFFF",
"eX c #F4FFFF",
"rX c white",
/* pixels */
"OXOXOXOXOXOXOXOXOXOXOXOXOXOXOXOXOXOXOXOXOXOXOXOXOXOXOXOXOXOXOXOXOXOXOXOXOXOXOXOXOXOXOXOXOXOXOXOX",
"OXOXOXOXOXOXOXOXOXOXOXOXOXOXOXOXOXOXOXOXOXoXOXOXOXOXOXOXOXOXOXOXOXOXOXOXOXOXOXOXOXOXOXOXOXOXOXOX",
"OXOXOXOXOXOXOXOXOXOXOXOXOXOXOXOXOXOXOXOXR.oXOXoX+X}.OXoXOXOXOXOXOXOXOXOXOXOXOXOXOXOXOXOXOXOXOXOX",
"OXOXOXOXOXOXOXOXOXOXOXOXOXOXOXOX;X%X3.#X;XR.w.`.}.;X>X.X~.].OXOXOXOXOXOXOXOXOXOXOXOXOXOXOXOXOXOX",
"OXOXOXOXOXOXOXOXOXOXOXOXOXOXq.}.&XW.2.&X-X}.:.l.].5X>X$X>.].[.OXOXOXOXOXOXOXOXOXOXOXOXOXOXOXOXOX",
"OXOXOXOXOXOXOXOXOXOXOXOXOXOX2.].`.` ) (. X|.-XE.,X8.$XQ._ ~.[.i.OXOXOXOXOXOXOXOXOXOXOXOXOXOXOXOX",
"OXOXOXOXOXOXOXOXOXOXOXOXOX'  X[.Y.t./ R.1.].;X(.e.#.i.0.,.!.-X%Xy.OXOXOXOXOXOXOXOXOXOXOXOXOXOXOX",
"OXOXOXOXOXOXOXOXOXOXOXOXu.) e.0.<.,.i Z N ~.6X;X#X@.I d r.y.W.~.Y.*XOXOXOXOXOXOXOXOXOXOXOXOXOXOX",
"OXOXOXOXOXOXOXOX_ OXOXOX3.B ) ,.W.<.J 6 2 &X7X5X;X:., t ) Q.y.t.,.i.OXOXOXOXOXOXOXOXOXOXOXOXOXOX",
"OXOXOXOXOXOXOXOX;.oX- +.t.i p ( t.<.( _ V X.7XqX4X@.d ) ;.,.1.+.d _.OXOXOXOXOXOXOXOXOXOXOXOXOXOX",
"OXOXOXOXOXOXOXP _ d * <.;.&.K p R K p N 9 $.5XqX Xy N a U ^ T ( 0._.^.$XOXL OXOXOXOXOXOXOXOXOXOX",
"OXOXOXOXOXOXOXT a B = o.N 3.t.q 5 q H R V %.W.|.%.V P B d d q q.$X_.) ^.>Xd L OXOXOXOXOXOXOXOXOX",
"OXOXOXOXOXOXN q q p , / 1 X.R 8 $ E <.-.L p $.8.Z U <.,.o.$ N u.#XQ.d e.].u L q.OXOXOXOXOXOXOXOX",
"OXOXOXOXOXOXC A 9 u t m % - - 8 XXN R K L B t.q.B L ^ T B XX0 T =./ > ^ < S s A ] OXOXOXOXOXOXOX",
"OXOXOXOXOXOXk.A m r , o . G . XXXXq q q s d N F S ..{ m 9 XXXXI s / ; , u m S ] i.OXOXOXOXOXOXOX",
"OXOXOXOXOX6. .O.O.D 1   G B XXXXXXXXR X.@.+.#.O.G / _ ^ 9 XXXXXX6 * S X.y Y ` #.#.1XOXOXOXOXOXOX",
"OXOXOXOXOX6.k.k.| [ e X S $ XXXXXXXXK A R E Y K R N V p m XXXXXXXX* % , y X.w.#.W V.N.OXOXOXOXOX",
"OXOXOXOXG.K.j.n x w X 4.: XXXXXXXXK H q P I q J I p 7 p q XXXXXXXXXX% 3 2 S #.] s ! OXOXOXOXOXOX",
"OXOXOXT.$.{.U.c v. .@ k & XXXXXXXX- a a ( I q B ) *.f 9 8 XXXXXXXXXXXX, u m ,XG.W 5.=.OXOXOXOXOX",
"OXOXOXo.<._ M Q 7.b.5.# XXXXXXXXXX- O 5 ) E i B ) J - q q XXXXXXXXXXXX% 1 r r W 8.B.b.OXOXOXOXOX",
"OXOXK e.3.E : x.C.z.j.w XXXXXXXXXX- $ 4 x N - 8 9 @ ; , = XXXXXXXXXXXX! r u 3 F ).=Xn.OXOXOXOXOX",
"OXOXOX$.$.j M j.m.D D XXXXXXXXXX- - $ O   # @     $ 5 = ; XXXXXXXXXXXXL.b g F C 5.).J.] OXOXOXOX",
"OXOXOXD | h.} c z } [ XXXXXXXXXX= 6 , ; $ o   . O $ , - = i XXXXXXXXXXXXXX+ H.F =X=X1X=XXXOXOXOX",
"OX*XoXl c z f.x w n.a.XXXXXXXXq - 9 6 5 ; $ . ; ; = , 9 , H XXXXXXXXXXXXXXXXXX1 n.,XI.<XXXOXOXOX",
"OX+X+Xs.6.n g.+Xh.f.d.XXXXXXXXK 9 N 2 = % O O O = 5 t u N o.y XXXXXXXXXXXXXXXXXXd.L.2X8XXXXXXXOX",
"XXXX4.} 4.x Z.Z.S.A.XXXXXXXXN E X.1./ A 9 , % * > > I ' >.=.K 0 XXXXXXXXXXXXXXXXXX6.9XrXXXXXXXXX",
"XXXXXXa.A.M.XXXXXXXXXXXXXXXXN H K Y Y A S S OXA K ^ ( 0.( ( ( d XXXXXXXXXXXXXXXXXXXX<XrXwXXXXXXX",
"XXXXXXXXF.D.XXXXXXXXXXXXXXXXI o.o.T N 9 9 ^ OXOXB t I ( &.&.;.( XXXXXXXXXXXXXXXXXXXXXXwXeXXXXXXX",
"XXXXXXXXXXXXXXXXXXXXXXXXXXXX;.:.2.>.E B i OXOXOXOX9 B / =.;.o.:.XXXXXXXXXXXXXXXXXXXXXX9XrX0XXXXX",
"XXXXXXXXXXXXXXXXXXXXXXXXXXXXR _ V B P E d OXOXOXOXA Z ^ +.+.>.+.XXXXXXXXXXXXXXXXXXXXXXv.rXeXXXXX",
"XXXXXXXXXXXXXXXXXXXXXXXXXXXXV H V H ) I A OXOXOXOXOX/ ^ L A J Y XXXXXXXXXXXXXXXXXXXXXXXXrXrXXXXX",
"XXXXXXXXXXXXXXXXXXXXXXXXXXXXq V p B f 5 OXOXOXOXOXOXG / O.{ s 8 XXXXXXXXXXXXXXXXXXXXXXXX8X8XXXXX",
"XXXXXXXXXXXXXXXXXXXXXXXXXXXX5 0 5 = 5 T B OXOXOXOXOX~ Q M m t 5 < XXXXXXXXXXXXXXXXXXXXXX2XL.XXXX",
"XXXXXXXXXXXXXXXXXXXXXXXXXXXX5 5 3 Y 1._ p OXOXOXOXOXF / y 5 > ; OXoXXXXXXXXXXXXXXXXXXXXXXXXXXXXX",
"XXXXXXXXXXXXXXXXXXXXXXXXXXoX7 p Y @.T ( OXOXOXOXOXOX` A ( J q 8 OXOXoX+XXXXXXXXXXXXXXXXXXXXXXXXX",
"XXXXXXXXXXXXXXXXXXXXXXXXoX*X; X./ q 0 H OXOXOXOXOXOXA y A ' J 8 , OXOXoXXXXXXXXXXXXXXXXXXXXXXXXX",
"XXXXXXXXXXXXXXXXXXXXXXOXOXOXOXK / i H OXOXOXOXOXOXOXOXH , K N 5 OXOXOXOXoXXXXXXXXXXXXXXXXXXXXXXX",
"XXXXXXXXXXXXXXXXXXXXOXOXOXOXOXL J d H OXOXOXOXOXOXOXOX) h 0 N 8 OXOXOXOXOXoX+XXXXXXXXXXXXXXXXXXX",
"XXXXXXXXXXXXXXXXXXOXOXOXOXOXOX' P B q OXOXOXOXOXOXOXOX8 E ;.<.<.OXOXOXOXOXOXoXXXXXXXXXXXXXXXXXXX",
"XXXXXXXXXXXXXXXXoXOXOXOXOXOX-.<.E / y OXOXOXOXOXOXOXOXOXo.;.3.3.OXOXOXOXOXOXOXoXXXXXXXXXXXXXXXXX",
"XXXXXXXXXXXXXXOXOXOXOXOXOXOXQ.~._ @.q OXOXOXOXOXOXOXOXOXt.<.Q.Q.^.OXOXOXOXOXOXOX+XXXXXXXXXXXXXXX",
"XXXXXXXXXXXXoXOXOXOXOXOXOX'.^.].Y.q.y OXOXOXOXOXOXOXOXp t.3..X_.W.OXOXOXOXOXOXOXOXOXXXXXXXXXXXXX",
"XXXXXXXXXXOXOXOXOXOXOXOXOX_.[.*X.Xo.OXOXOXOXOXOXOXOXOXOX:.$X[.'.e.OXOXOXOXOXOXOXOXOX+XXXXXXXXXXX",
"XXXXXXXXOXOXOXOXOXOXOXOXOXOXoX=.i.OXOXOXOXOXOXOXOXOXOXOXOXp.:X+.OXOXOXOXOXOXOXOXOXOXOXOXXXXXXXXX",
"XXXXXXOXOXOXOXOXOXOXOXOXOXOXOXOXOXOXOXOXOXOXOXOXOXOXOXOXOXOXOXOXOXOXOXOXOXOXOXOXOXOXOXOXOXXXXXXX",
"XXXXoXOXOXOXOXOXOXOXOXOXOXOXOXOXOXOXOXOXOXOXOXOXOXOXOXOXOXOXOXOXOXOXOXOXOXOXOXOXOXOXOXOXOX+XXXXX",
"XXOXOXOXOXOXOXOXOXOXOXOXOXOXOXOXOXOXOXOXOXOXOXOXOXOXOXOXOXOXOXOXOXOXOXOXOXOXOXOXOXOXOXOXOXOXOXXX",
"oXOXOXOXOXOXOXOXOXOXOXOXOXOXOXOXOXOXOXOXOXOXOXOXOXOXOXOXOXOXOXOXOXOXOXOXOXOXOXOXOXOXOXOXOXOXOXOX"
};
