/* XPM */
static char *_c8c0ad5dd684cde8a9d33d53e21885fIzLxl9Cnsm6ehp5L[] = {
/* columns rows colors chars-per-pixel */
"48 48 8 1 ",
"  c #D8BD9B",
". c #D7B898",
"X c #D8BC9A",
"o c #D6B496",
"O c #D5B195",
"+ c #D6B698",
"@ c #D7BA9A",
"# c #D5B296",
/* pixels */
"                                                ",
"                                                ",
"                       ..                       ",
"                     XoOO+X                     ",
"                     oOOOOo                     ",
"                    .OOOOOO.                    ",
"                  XoOOOOOOOO+X                  ",
"                  oOOOOOOOOOOo                  ",
"                 .OOOOOOOOOOOO.                 ",
"               XoOOOOOOOOOOOOOO+X               ",
"               oOOOOOOOOOOOOOOOOo               ",
"              .OOOOOOOOOOOOOOOOOO.              ",
"            XoOOOOOOOOOOOOOOOOOOOO+X            ",
"            oOOOOOOOOOOOOOOOOOOOOOOo            ",
"           .OOOOOOOOOOOOOOOOOOOOOOOO.           ",
"         XoOOOOOOOOOOOOOOOOOOOOOOOOOO+X         ",
"         oOOOOOOOOOOOOOOOOOOOOOOOOOOOOo         ",
"        .OOOOOOOOOOOOOOOOOOOOOOOOOOOOOO.        ",
"      XoOOOOOOOOOOOOOOOOOOOOOOOOOOOOOOOO+X      ",
"      oOOOOOOOOOOOOOOOOOOOOOOOOOOOOOOOOOOo      ",
"     .OOOOOOOOOOOOOOOOOOOOOOOOOOOOOOOOOOOO.     ",
"   XoOOOOOOOOOOOOOOOOOOOOOOOOOOOOOOOOOOOOOO+X   ",
"   oOOOOOOOOOOOOOOOOOOOOOOOOOOOOOOOOOOOOOOOOo   ",
"  .OOOOOOOOOOOOOOOOOOOOOOOOOOOOOOOOOOOOOOOOOO.  ",
"XoOOOOOOOOOOOOOOOOOOOOo@@#OOOOOOOOOOOOOOOOOOOO+X",
"oOOOOOOOOOOOOOOOOOOOOoX  @oOOOOOOOOOOOOOOOOOOOOo",
"OOOOOOOOOOOOOOOOOOOOO@    @OOOOOOOOOOOOOOOOOOOOO",
"OOOOOOOOOOOOOOOOOOOo@      @#OOOOOOOOOOOOOOOOOOO",
"OOOOOOOOOOOOOOOOOOoX        @oOOOOOOOOOOOOOOOOOO",
"OOOOOOOOOOOOOOOOOO@          @OOOOOOOOOOOOOOOOOO",
"OOOOOOOOOOOOOOOOo@            @#OOOOOOOOOOOOOOOO",
"OOOOOOOOOOOOOOOoX              @oOOOOOOOOOOOOOOO",
"OOOOOOOOOOOOOOO@                @OOOOOOOOOOOOOOO",
"OOOOOOOOOOOOOo@                  @#OOOOOOOOOOOOO",
"OOOOOOOOOOOOoX                    @oOOOOOOOOOOOO",
"OOOOOOOOOOOO@                      @OOOOOOOOOOOO",
"OOOOOOOOOOo@                        @#OOOOOOOOOO",
"OOOOOOOOOoX                          @oOOOOOOOOO",
"OOOOOOOOO@                            @OOOOOOOOO",
"OOOOOOOo@                              @#OOOOOOO",
"OOOOOOoX                                @oOOOOOO",
"OOOOOO@                                  @OOOOOO",
"OOOOo@                                    @#OOOO",
"OOOoX                                      @oOOO",
"OOO@                                        @OOO",
"Oo@                                          @#O",
"oX                                            @o",
"@                                              @"
};
