/* XPM */
static char *result[] = {
/* columns rows colors chars-per-pixel */
"48 48 20 1 ",
"  c #211F30",
". c #CF9E6E",
"X c #E4C997",
"o c #A14744",
"O c #B96E54",
"+ c #843346",
"@ c #292534",
"# c #312D39",
"$ c #302C39",
"% c #322E3A",
"& c #322D3A",
"* c #2E2A38",
"= c #2D2A37",
"- c #272534",
"; c #3C3740",
": c #262333",
"> c #232131",
", c #222031",
"< c #222030",
"1 c #3E3841",
/* pixels */
"                                                ",
" .............................................X ",
" o...........................................XO ",
" oo.........................................XOO ",
" ooo.......................................XOOO ",
" oooo.....................................XOOOO ",
" ooooo...................................XOOOOO ",
" ooooooXXXXXXXXXXXXXXXXXXXXXXXXXXXXXXXXXXOOOOOO ",
" oooooo++++++++++++++++++++++++++++++++++OOOOOO ",
" ooooo++++++++++++++++++++++++++++++++++++OOOOO ",
" oooo++++++++++++++++++++++++++++++++++++++OOOO ",
" ooo++++++++++++++++++++++++++++++++++++++++OOO ",
" oo++++++++++++++++++++++++++++++++++++++++++OO ",
" o++++++++++++++++++++++++++++++++++++++++++++O ",
" ++++++++++++++++++++++++++++++++++++++++++++++ ",
"                                                ",
"                                                ",
" .............X  .............................X ",
" o...........XO  o...........................XO ",
" oo.........XOO  oo.........................XOO ",
" ooo.......XOOO  ooo.......................XOOO ",
" oooo.....XOOOO  oooo.....................XOOOO ",
" ooooo...XOOOOO  ooooo...................XOOOOO ",
" oooooo.XOOOOOO  oooooo.................XOOOOOO ",
" oooooo++OOOOOO  ooooooo...............XOOOOOOO ",
" ooooo++++OOOOO  oooooooo.............XOOOOOOOO ",
" oooo++++++OOOO  ooooooooo...........XOOOOOOOOO ",
" ooo++++++++OOO  oooooooooo.........XOOOOOOOOOO ",
" oo++++++++++OO  ooooooooooo.......XOOOOOOOOOOO ",
" o++++++++++++O  oooooooooooo.....XOOOOOOOOOOOO ",
" ++++++++++++++  ooooooooooooo...XOOOOOOOOOOOOO ",
" .............X  oooooooooooooo.XOOOOOOOOOOOOOO ",
" o...........XO  oooooooooooooo++OOOOOOOOOOOOOO ",
" oo.........XOO  ooooooooooooo++++OOOOOOOOOOOOO ",
" ooo.......XOOO  oooooooooooo++++++OOOOOOOOOOOO ",
" oooo.....XOOOO  ooooooooooo++++++++OOOOOOOOOOO ",
" ooooo...XOOOOO  oooooooooo++++++++++OOOOOOOOOO ",
" oooooo.XOOOOOO  ooooooooo++++++++++++OOOOOOOOO ",
" oooooo++OOOOOO  oooooooo++++++++++++++OOOOOOOO ",
" ooooo++++OOOOO  ooooooo++++++++++++++++OOOOOOO ",
" oooo++++++OOOO  oooooo++++++++++++++++++OOOOOO ",
" ooo++++++++OOO  ooooo++++++++++++++++++++OOOOO ",
" oo++++++++++OO  oooo++++++++++++++++++++++OOOO ",
" o++++++++++++O  ooo++++++++++++++++++++++++OOO ",
" ++++++++++++++  oo++++++++++++++++++++++++++OO ",
"                 o++++++++++++++++++++++++++++O ",
"@#$$%%&&*==*=--; ++++++++++++++++++++++++++++++ ",
":>>,,,,,,<<,> ,1                                "
};
