/* XPM */
static char *_cce92990a0f4a53827bbaac8a47958faV1LIfTWRUoZipav[] = {
/* columns rows colors chars-per-pixel */
"48 48 11 1 ",
"  c #211F30",
". c #E1F394",
"X c #A4CC42",
"o c #72A11D",
"O c #B96E54",
"+ c #CF9E6E",
"@ c #28860F",
"# c #A14744",
"$ c #B0664D",
"% c #076029",
"& c #843346",
/* pixels */
"                                                ",
" .XXXXXXXXXo O+++++O++++OO+++++++++O++++OO++++O ",
" Xoooooooooo@ #OOOO$OOOO$$OOOOOOOOO$OOOO$$OOOO# ",
" XoXoooooooo@ #OOO$OOOO$$OOOOOOOOO$OOOO$$OOOOO# ",
" Xooooooo@@o@ #OOO$OOOO$$OOOOOOOOO$OOOO$$OOOOO# ",
" Xooooooo@@o@ #OO$OOOO$$OOOOOOOOO$OOOO$$OO#+OO# ",
" Xooooooooo@ #OOO$OOOO$$OOOOOOOOO$OOOO$$OOOOOO# ",
" Xoooooo@@%  #OOO$OOOO$$OOOOOOOOO$OOOO$$OOOOOO# ",
" Xoooooooooo@ #OO$OOOO$$OOOOOOOOO$OOOO$$OOOOOO# ",
" Xooooooooooo@ #O$OOOO$$OOOOOOOOO$O++O$$OOOOOO# ",
" Xooooooooooo@ #O$OOOO$$OOOOOOOOO$#OO+$$OOOOOO# ",
" Xooooooooooo@ #OO$OOOO$$OOOOOOOOO#OO+O$$OOOOO# ",
" XooooXoooooo@ #OO$OOOO$$OOOOOOOOO$##OO$$OOOOO# ",
" Xooooooooo@o@ #OOO$OOOO$$OOOOOOOOO$OOOO$$OOOO# ",
" Xoooooooooo@ #OOOO$OOOO$$OOOOOOOOO$OOOO$$OOOO# ",
" Xooooooo@@  #OOOOO$OOOO$$OOOOOOOOO$OOOO$$OOOO# ",
" Xooooooooo@ #OOOOO$OOOO$$OOOOOOOOO$OOOO$$OOOO# ",
" Xooooooo@@o@ #OOOO$OOOO$$OOOOOOOOO$OOOO$$OOOO# ",
" Xooooooo@@o@ #OOOO$OOOO$$OOOOOOOOO$OOOO$$OOOO# ",
" Xoooooooooo@ #OOO$OOOO$$OOOOOOOOO$OOOO$$OOOOO# ",
" XoooXoooooo@ #OOO$OOOO$$OOOOOOOOO$OOOO$$OOOOO# ",
" Xoooooooooo@ #OO$OOOO$$OOOOOOOOO$OOOO$$OOOOOO# ",
" Xooooooooo@ #OOO$OOOO$$OOOOOOOOO$OOOO$$OOOOOO# ",
" Xoooooo@@%  #OOO$OOOO$$OOOOOOOOO$OOOO$$OOOOOO# ",
" Xoooooooooo@ #OO$OOOO$$OOOOOOOOO$OOOO$$OOOOOO# ",
" Xooooooooo@o@ #O$OOOO$$OOOOOOOOO$OOOO$$OOOOOO# ",
" Xooooooooooo@ #O$OOOO$$OOOOOOOOO$OOOO$$OOOOOO# ",
" Xooooooooooo@ #OO$OOOO$$OOOOOOOOO$OOOO$$OOOOO# ",
" Xooooooooooo@ #OO$OOOO$$OOOOOOOOO$OOOO$$OOOOO# ",
" Xooooooooooo@ #OOO$OOOO$$OOOOOOOOO$OOOO$$OOOO# ",
" XoXoooooooo@ #OOOO$OOOO$$OOOOOOOOO$OOOO$$OOOO# ",
" Xooooooo@@  #OOOOO$OOOO$$OOOOOOOOO$OOOO$$OOOO# ",
" Xooooooooo@ #OOOOO$OOOO$$OOOOOOOOO$OOOO$$OOOO# ",
" Xoooooooooo@ #OOOO$OOOO$$OOOOOOOOO$OOOO$$OOOO# ",
" Xoooooooooo@ #OOOO$OOOO$$OOOOOOOOO$OOOO$$OOOO# ",
" Xoooooooooo@ #OOO$OOOO$$OOOOOOOOO$OOOO$$OOOOO# ",
" Xooooooo@@o@ #OOO$OOOO$$OOOOOOOOO$#+OO$$OOOOO# ",
" Xooooooo@@o@ #OO$OOOO$$OOOOOOOOO$OOOO$$OOOOOO# ",
" Xooooooooo@ #OOO$OOOO$$OOOOOOOOO$OOOO$$OOOOOO# ",
" Xoooooo@@%  #OOO$OOOO$$OOOOOOOOO$OOOO$$O##OOO# ",
" Xoooooooooo@ #OO$OOOO$$OOOOOOOOO$OOOO$$#OO+OO# ",
" Xooooooooo@o@ #O$OOOO$$OOOOOOOOO$OOOO$$#OO+OO# ",
" XoooooXooooo@ #O$OOOO$$OOOOOOOOO$OOOO$$O++OOO# ",
" Xooooooooooo@ #OO$OOOO$$OOOOOOOOO$OOOO$$OOOOO# ",
" XoXooooooooo@ #OO$OOOO$$OOOOOOOOO$OOOO$$OOOOO# ",
" Xooooooooooo@ #OOO$OOOO$$OOOOOOOOO$OOOO$$OOOO# ",
" o@@@@@@@@@@% &####&####&&#########&####&&####& ",
"                                                "
};
