/* XPM */
static char *d3967ae5a8894afa89af7747452dd389cQBbJ4zTv10Oy3EC[] = {
/* columns rows colors chars-per-pixel */
"48 48 11 1 ",
"  c #211F30",
". c #B96E54",
"X c #A14744",
"o c #843346",
"O c #CF9E6E",
"+ c #B0664D",
"@ c #28860F",
"# c #72A11D",
"$ c #076029",
"% c #A4CC42",
"& c #E1F394",
/* pixels */
"                                                ",
" .XXXXXXXXXXXXXXXXXXXXXXXXXXXXXXXXXXXXXXXXXXXXo ",
" O............................................X ",
" O............................................X ",
" O...O..................................OO....X ",
" O...X.................................X..O...X ",
" .+..........++++++..........++++++....X..O..+o ",
" .+++......++++++++++......++++++++++...XX.+++o ",
" O.++++++++++......++++++++++......++++++++++.X ",
" O...++++++..........++++++..........++++++...X ",
" O........OO..................................X ",
" O.......O..X.......................O.........X ",
" .+......O..X++++++..........++++++.X........+o ",
" O.++.....XX+......++......++......++......++.X ",
" O...++++++..........++++++..........++++++...X ",
" O............................................X ",
" O............................................X ",
" O............................................X ",
" O............................................X ",
" O............................................X ",
" O............................................X ",
" O............................................X ",
" .+..........++++++..........++++++..........+o ",
" .+++......++++++++++......++++++++++......+++o ",
" O.++++++++++......++++++++++......++++++++++.X ",
" O...++++++..........++++++..........++++++...X ",
" O............................................X ",
" O............................................X ",
" .+..........++++++..........++++++..........+o ",
" O.++......++......++......++......++......++.X ",
" O...++++++..........++++++..........++++++...X ",
" O............................................X ",
" O.......XXXXX...........XXXXX...........XXXXXX ",
" OXXXX..X     X..XXXXX..X     X..XXXXX..X     o ",
" .    XX @@@@@ XX     XX @@@@@ XX     XX @@@@@  ",
"  @@@@  @#####@  @@@@@  @#####@  @@@@@  @#####$ ",
" #####@ #####@# @#####@ #@##### @#####@ #@####@ ",
" %##@@#$#######@#@@####$#######@####@@#$######@ ",
" %##@@#@#######@#@@####@#######@####@@#@######@ ",
" %#####@###############@###############@######@ ",
" %########################################%###@ ",
" %##########%#################################@ ",
" %##################%#########################@ ",
" %############################################@ ",
" %#%##########################%#############%#@ ",
" %############################################@ ",
" &%%%%%%%%%%%%%%%%%%%%%%%%%%%%%%%%%%%%%%%%%%%%# ",
"                                                "
};
