/* XPM */
static char *_bfb95c2f48845508fdaba09a19fa918lqdppVvnu6CsL9as[] = {
/* columns rows colors chars-per-pixel */
"48 48 11 1 ",
"  c #211F30",
". c #72A11D",
"X c #A4CC42",
"o c #E1F394",
"O c #28860F",
"+ c #076029",
"@ c #A14744",
"# c #B96E54",
"$ c #843346",
"% c #CF9E6E",
"& c #B0664D",
/* pixels */
"                                                ",
" .XXXXXXXXXXXXXXXXXXXXXXXXXXXXXXXXXXXXXXXXXXXXo ",
" O............................................X ",
" O.X.............X..........................X.X ",
" O............................................X ",
" O.........................X..................X ",
" O.................................X..........X ",
" O...X........................................X ",
" O......O...............O...............O.....X ",
" O......O.OO....O.......O....OO.O.......O.OO..X ",
" O......+.OO....O.......+....OO.O.......+.OO..X ",
" O....O. O.....O .....O. O.....O .O..... O..... ",
" +.....O  OOOOO  O.....O  OOOOO  O.....O  OOOO  ",
"  OOOOO @@     @@ OOOOO @@     @@ OOOOO @@    # ",
" $     @##@@@@@##@     @##@@@@@##@     @##@@@@% ",
" @@@@@@###########@@@@@###########@@@@@#######% ",
" @############################################% ",
" @###&&&&&&##########&&&&&&##########&&&&&&###% ",
" @#&&######&&######&&######&&######&&######&&#% ",
" $&##########&&&&&&##########&&&&&&##########&# ",
" @############################################% ",
" @############################################% ",
" @###&&&&&&##########&&&&&&##########&&&&&&###% ",
" @#&&&&&&&&&&######&&&&&&&&&&######&&&&&&&&&&#% ",
" $&&&######&&&&&&&&&&######&&&&&&&&&&######&&&# ",
" $&##########&&&&&&##########&&&&&&##########&# ",
" @############################################% ",
" @############################################% ",
" @############################################% ",
" @############################################% ",
" @############################################% ",
" @############################################% ",
" @############################################% ",
" @###&&&&&&##########&&&&&&##########&&&&&&###% ",
" @#&&######&&######&&######&&######&@@#####&&#% ",
" $&########@#&&&&&&##########&&&&&&@##%######&# ",
" @#########%#######################@##%#######% ",
" @##################################%%########% ",
" @###&&&&&&##########&&&&&&##########&&&&&&###% ",
" @#&&&&&&&&&&######&&&&&&&&&&######&&&&&&&&&&#% ",
" $&&&#@@###&&&&&&&&&&######&&&&&&&&&&######&&&# ",
" $&##%##@####&&&&&&##########&&&&&&##########&# ",
" @###%##@#################################@###% ",
" @####%%##################################%###% ",
" @############################################% ",
" @############################################% ",
" $@@@@@@@@@@@@@@@@@@@@@@@@@@@@@@@@@@@@@@@@@@@@# ",
"                                                "
};
