/* XPM */
static char *result[] = {
/* columns rows colors chars-per-pixel */
"48 48 219 2 ",
"   c #0B191C",
".  c #14281A",
"X  c #0D1C23",
"o  c #121D21",
"O  c #1D2229",
"+  c #172122",
"@  c #1C372D",
"#  c #22262C",
"$  c #242A2E",
"%  c #2A2B29",
"&  c #3B352C",
"*  c #32322A",
"=  c #252B31",
"-  c #292C35",
";  c #322E32",
":  c #2D3138",
">  c #33353F",
",  c #3D3E3C",
"<  c #373534",
"1  c #443B31",
"2  c #4A3D35",
"3  c #443C3B",
"4  c #423739",
"5  c #513E39",
"6  c #364D1E",
"7  c #2B4624",
"8  c #524D2E",
"9  c #4B4136",
"0  c #4B463B",
"q  c #53453B",
"w  c #5B4A3D",
"e  c #56473A",
"r  c #495338",
"t  c #60473D",
"y  c #5C6539",
"u  c #676933",
"i  c #1C3C44",
"p  c #343541",
"a  c #373943",
"s  c #3A3B46",
"d  c #3B3B49",
"f  c #453C42",
"g  c #4B3D43",
"h  c #1A484F",
"j  c #244243",
"k  c #22434A",
"l  c #394649",
"z  c #3D504F",
"x  c #384954",
"c  c #345358",
"v  c #274F57",
"b  c #3A5864",
"n  c #4D4047",
"m  c #43434A",
"M  c #4E4148",
"N  c #4E4C46",
"B  c #53434B",
"V  c #5C4649",
"C  c #5A4D44",
"Z  c #575146",
"A  c #5A4954",
"S  c #405159",
"D  c #5D595C",
"F  c #55575A",
"G  c #4D4B54",
"H  c #654641",
"J  c #6D4B45",
"K  c #6A4C4B",
"L  c #714E47",
"P  c #734F4C",
"I  c #665748",
"U  c #6E5F4F",
"Y  c #655548",
"T  c #75514B",
"R  c #7B534D",
"E  c #624E57",
"W  c #624E58",
"Q  c #655059",
"!  c #6C545B",
"~  c #665653",
"^  c #7A5655",
"/  c #59675E",
"(  c #73695C",
")  c #786658",
"_  c #6F7153",
"`  c #4F5566",
"'  c #455A66",
"]  c #5A5868",
"[  c #495673",
"{  c #4D5C7E",
"}  c #495875",
"|  c #535D70",
" . c #444D61",
".. c #675B64",
"X. c #466062",
"o. c #49636B",
"O. c #59676A",
"+. c #566878",
"@. c #52707F",
"#. c #4A6B78",
"$. c #696563",
"%. c #766866",
"&. c #7E7863",
"*. c #716779",
"=. c #777B76",
"-. c #696D76",
";. c #82564F",
":. c #865751",
">. c #855953",
",. c #8A5A53",
"<. c #885E5B",
"1. c #935E57",
"2. c #907F44",
"3. c #94625C",
"4. c #9A635C",
"5. c #9A6957",
"6. c #84715E",
"7. c #866253",
"8. c #A26E5D",
"9. c #996B64",
"0. c #867868",
"q. c #867E78",
"w. c #927268",
"e. c #A46C63",
"r. c #AA6C65",
"t. c #A27566",
"y. c #A47C6D",
"u. c #A87969",
"i. c #C47F69",
"p. c #88826A",
"a. c #9C836E",
"s. c #968764",
"d. c #878475",
"f. c #948273",
"g. c #9A8A72",
"h. c #998775",
"j. c #9F9276",
"k. c #BD8A6D",
"l. c #AB8A74",
"z. c #A48D7A",
"x. c #A58772",
"c. c #B48977",
"v. c #AD927A",
"b. c #AB9877",
"n. c #B3947D",
"m. c #B9917C",
"M. c #B99874",
"N. c #B38D6D",
"B. c #B8A17B",
"V. c #C49C76",
"C. c #C78566",
"Z. c #CBA77B",
"A. c #D4A97A",
"S. c #E0B17E",
"D. c #505F81",
"F. c #536183",
"G. c #5C6A88",
"H. c #5D7A8B",
"J. c #577483",
"K. c #5C6B94",
"L. c #6D7C82",
"P. c #687F92",
"I. c #797E95",
"U. c #777D95",
"Y. c #70718A",
"T. c #867E89",
"R. c #778387",
"E. c #688497",
"W. c #708CA0",
"Q. c #7792A8",
"!. c #978E83",
"~. c #9B9081",
"^. c #948A93",
"/. c #85868C",
"(. c #A08981",
"). c #A79885",
"_. c #B59B83",
"`. c #BC9C86",
"'. c #B79682",
"]. c #AA9E96",
"[. c #BDA189",
"{. c #B7A184",
"}. c #B8A491",
"|. c #C49C85",
" X c #C59F89",
".X c #C0A086",
"XX c #C3AB86",
"oX c #C2A58C",
"OX c #CBAC8F",
"+X c #C7AA8D",
"@X c #D2AD8D",
"#X c #DEB284",
"$X c #C3AD92",
"%X c #CEAC91",
"&X c #C4AA9A",
"*X c #D2AE93",
"=X c #CCB293",
"-X c #CEB69A",
";X c #D5B195",
":X c #D3B996",
">X c #D6B698",
",X c #D6BB9A",
"<X c #D8BD9B",
"1X c #E7B882",
"2X c #EABC86",
"3X c #E1B98B",
"4X c #F1BF8B",
"5X c #E2BA92",
"6X c #FCC68D",
"7X c #F3C48C",
"8X c #E4C992",
"9X c #F9CD94",
"0X c #EDD599",
"qX c #FDD395",
"wX c #FFDA9A",
"eX c #FAD599",
"rX c #FEE4A1",
"tX c #FFEBA5",
"yX c #FFF3AB",
/* pixels */
"<X<X<X<X<X<X<X<X<X<X<X<X<X<X<X<X<X<X<X<X<X<X<X<X<X<X<X<X<X<X<X<X<X<X<X<X<X<X<X<X<X<X<X<X<X<X<X<X",
"<X<X<X<X<X<X<X<X<X<X<X<X<X<X<X<X<X<X<X<X<X<X<X<X<X<X<X<X<X,X<X<X<X<X<X<X<X<X<X<X<X<X<X<X<X<X<X<X",
"<X<X<X<X<X<X<X<X<X<X<X<X<X<X<X<X<X<X<X<X<X<X<X>X>X8X<X:X0.%.$X<X<X<X<X<X<X<X<X<X<X<X<X<X<X<X<X<X",
"<X<X<X<X<X<X<X<X<X<X<X<X<X<X<X<X<X<X<X<X<X<X;X;X;X;Xg.f - > N q.-X<X<X<X<X<X<X<X<X<X<X<X<X<X<X<X",
"<X<X<X<X<X<X<X<X<X<X<X<X<X<X<X<X<X<X<X<X<X>X;X;X+X~ = # - > > > $.,X<X<X<X<X<X<X<X<X<X<X<X<X<X<X",
"<X<X<X<X<X<X<X<X<X<X<X<X<X<X<X<X<X<X,X,X,X;X;X;X( # # $ = > > s l q.>X<X<X<X<X<X<X<X<X<X<X<X<X<X",
"<X<X<X<X<X<X<X<X<X<X<X<X<X<X<X<X<X<X,X>X;X;X;X;XN O $ # $ > s a s $.=X<X<X<X<X<X<X<X<X<X<X<X<X<X",
",X<X<X<X<X<X<X<X<X<X<X<X<X<X<X<X<X<X>X;X;X;X;X;X0 # O O - a s s a $.&X<X<X<X<X<X<X<X<X<X<X<X<X<X",
"<X<X<X<X<X<X<X<X<X<X<X<X<X<X<X<X<X<X*X;X;X;X;X;X, X o p p p d d d D =X,X<X<X<X<X<X<X<X<X<X<X<X<X",
"<X:X,X<X<X<X<X<X<X<X<X<X<X<X<X,XM.;X;X;X;X;X;X;X, $ : > p p d d l D -X,X<X<X<X<X<X<X<X<X<X<X<X<X",
"<X<X<X<X<X<X<X<X<X<X<X<X<X<X:Xb.u a.OX;X;X;X;X%Xf p p > p m %.a.g.~ OX<X<X<X<X<X<X<X<X<X<X<X<X<X",
"<X<X<X<X<X<X<X<X<X<X<X<X<X<X;X2.8 + $ $.[.;X;Xh.p a G 0.Z.rXyXyXtX0.@X<X<X<X<X<X<X<X<X<X<X<X<X<X",
"<X<X<X<X<X<X<X<X<X<X<X<X<X>X;X;X%X~ = X X &.{.h.Z 7XqXwXeXyXyXyXyXv.*X<X<X<X<X<X<X<X<X<X<X<X<X<X",
"<X<X<X<X<X<X<X<X<X<X<X,X;X;X;X*X;X*X_.( : X $ I y 7XV.Z.eXyX8XXX0XZ..X;X<X<X<X<X<X<X<X<X<X<X<X<X",
"<X<X<X<X<X<X,X<X<X<X:X%X;X;X%X*X;X;X-X;Xb.Z + . y 2XU ^ 7XrXw.~ 0Xp.F _.>X<X<X<X<X<X<X<X<X<X<X<X",
"<X<X<X<X<X<X<X<X<X=X;X;X;X;Xa.0.v.;X;X;X=X_ 6 r < A.M.Z.9XtX8XM.8X/ h j z.>X<X<X<X<X<X<X<X<X<X<X",
"<X<X<X,X<X<X<X<X<X*X;X;X;X*X`.2 q ) y.[.g.7 @ %   9 A.S.Z.qXwXwXd.h h i k z.;X<X<X<X<X<X<X<X<X<X",
"<X<X<X<X<X<X<X<X;X;X;X;X*X;X*Xn.0.w 9 q N 7 i o   o M.4XA.6XrX9X#.#.J.J.k j =.:X<X<X<X<X<X<X<X<X",
"<X<X<X<X<X<X:X%X;X;X;X;X;X;X*X;X;X.Xa.Y 9 c x ; % = f.4X6XrXrX$XH.H.H.W.J.k z [.,X,X<X<X<X<X<X<X",
"<X<X<X<X<X,X;X;X;X;X;X;X;X;X*X*X@X;X;X;Xz.c x < f B $.Y.T.^.F ' H.H.H.W.Q.E.O.[.;X:X<X<X<X<X<X<X",
"<X<X<X<X<X;X;X;X;X;X;X;X;X;X*X*X*X;X;X;X&.X.| n B B B A A E 4 ' H.H.H.P.E.E.R.}.;X;X<X<X<X<X<X<X",
"<X<X<X,X;X;X;X=X*X;X;X;X;X;X;X;X*X;X;X;X_ p.E.A M M g B M E g ' P.H.J.o.c $./.R.[.;X;X;X<X<X<X<X",
"<X<X,X;X;X;X;X;X;X;X;X;X;X;X;X;X;X;X*X{.s.1Xg.-.g M M g M A K <.c c c X.B.eX:XO.@.R.}.;X;X<X<X<X",
"<X:X;X;X*X;X;X*X;X;X;X;X*X*X;X;X;X*Xx.&.1X6X8Xa.f M M g f H 4.^ Q D h.:XwXwXeXXXX.b #.L.$X:X<X<X",
",X;X;X;X;X;X;X;X;X*X;X*X;X;X;X*X;X@X8 s.6X6X5X( ; f g 4 5 1.<.Q W W `.;X9XeXwX3X).d.-.o.L.~.>X,X",
";X*X;X;X;X;X;X;X;X;X;X;X;X;X;X*X;XOX1 A.qX#X=XZ ; ; % H :.4.! W W W z.;X*XqXqX3X|.;X;X}.!.=.!.;X",
";X;X;X;X;X;X;X;X;X;X;X;X;X;X;X;X;X+Xt u.k.t.[.r + 2 J K P ! W W W W %.'.|.5.t.1.|.;X;X;X>X;X+XoX",
";X;X;X;X;X;X;X;X;X;X;X;X;X;X;X;X*Xl.L 4.4.R U 0 J R T H g W W W W W R 9.*Xe.4.4.|.;X;X;X;X;X;X*X",
";X;X;X;X;X;X;X;X;X;X;X;X;X;X;X;X<X,XC 1.4.w 2 q R P V B g W W W W Q ;.y.;X|.9.3.&X;X;X;X;X;X;X;X",
";X;X;X;X;X;X;X;X;X;X;X;X;X;X;X:X<X<Xq >.3.1 9 L K B g g g ! W W W W <.y.;X;Xe.4.&X;X;X;X;X;X;X;X",
";X;X;X;X;X;X;X;X;X;X;X;X;X;X<X<X<X<X* H :.U v.'.R R K V d G W >.1.3.9.|.;X Xu.1.c.;X;X;X;X;X;X;X",
";X;X;X;X;X*X;X;X;X;X;X;X;X=X<X<X<X=X$ & ,.Y x.).....^ Q x ] *.w.Y.K.^.;Xx.,.8.r.c.;X;X;X;X;X;X;X",
";X;X;X;X;X;X;X;X;X;X;X;X;X>X<X<X<X:X% R 3.5.w q.{ } [  .b +.G.K.K.K./.;Xv.& ,.r.|.;X;X;X;X;X;X;X",
";X;X;X;X;X;X;X;X;X;X;X;X;X5X<X<X<X,X9 5.5.w 1 ] F.{ [ [ [ K.K.K.K.K.I.*XC.t <.'.*X;X;X;X;X;X;X;X",
";X;X;X;X;X;X;X;X;X;X;X;X,X<X<X<X<X,Xq C.C.8 1 ` D.F.F.L.}.>X=.{ K.K.I.*X|.u. X;X;X;X;X;X;X;X;X;X",
";X;X;X;X;X;X;X;X;X;X;X;X<X<X<X<X<X;X1 7.C.9 1 ` D.D.F.].<X<Xd.} K.K.I.-X;X;X;X;X;X;X;X;X;X;X;X;X",
";X;X;X;X;X;X;X;X;X;X>X<X<X<X<X<X<X,Xw 1 9 q 3 ` D.D.D.!.>X<X).{ K.K.I.-X>X>X;X;X;X;X;X;X;X;X;X;X",
";X;X;X;X;X;X;X;X;X>X<X<X<X<X<X<X<X<X:X$X:X{.1 ` D.D.+.B g.<X_.| K.K.I.-X<X>X>X;X;X;X;X;X;X;X;X;X",
";X;X;X;X;X;X;X;X;X>X<X<X<X<X<X<X<X<X<X<X<X:X1 q ^ ....3 1 Y 0.F G.*.(.>X<X<X,X;X;X;X;X;X;X;X;X;X",
";X;X;X;X;X;X;X;X>X<X<X<X<X<X<X<X<X<X<X<X<X$X1 9 T R >.w 1 1 & 2 1.1.V.>X<X<X<X,X;X;X;X;X;X;X;X;X",
";X;X;X;X;X;X>X<X<X<X<X<X<X<X<X<X<X<X<X<X<X=X9 1 T R <.) 1 1 * & 1.4.&X<X<X<X<X<X5X>X;X;X;X;X;X;X",
";X;X;X;X;X>X>X<X<X<X<X<X<X<X<X<X<X<X<X<X,X=X8 9 :.:.3.+X) 1 * 1 1.4.%X,X<X<X<X<X<X>X;X;X;X;X;X;X",
";X;X;X;X>X>X<X<X<X<X<X<X<X<X<X<X<X<X<X<X,X=X9 J ,.1.t.,X%Xq 1 R 3.1. X,X<X<X<X<X<X<X<X>X;X;X;X;X",
";X;X;X>X<X<X<X<X<X<X<X<X<X<X<X<X<X<X<X<X<X:Xe T ,.,.y.<X,Xb.1 ;.1.4.|.<X<X<X<X<X<X<X<X>X;X;X;X;X",
";X;X;X5X<X<X<X<X<X<X<X<X<X<X<X<X<X<X<X<X<X:X) ;.,.,.n.<X<X-XZ J 1.,.y.<X<X<X<X<X<X<X<X<X5X;X;X;X",
";X;X>X<X<X<X<X<X<X<X<X<X<X<X<X<X<X<X<X<X<X<X=Xl.t.9.oX<X<X<X0.5 ,.>.t.,X<X<X<X<X<X<X<X<X<X>X>X;X",
">X<X<X<X<X<X<X<X<X<X<X<X<X<X<X<X<X<X<X<X<X<X<X<X<X<X<X<X<X<X-Xy.e.u.'.>X<X<X<X<X<X<X<X<X<X<X>X>X",
">X<X<X<X<X<X<X<X<X<X<X<X<X<X<X<X<X<X<X<X<X<X<X<X<X<X<X<X<X<X<X>X%X;X>X<X<X<X<X<X<X<X<X<X<X<X<X>X"
};
