/* XPM */
static char *result[] = {
/* columns rows colors chars-per-pixel */
"48 48 205 2 ",
"   c #091619",
".  c #0A1A1B",
"X  c #061517",
"o  c #101D1B",
"O  c #18211E",
"+  c #131F21",
"@  c #14262A",
"#  c #1B2328",
"$  c #122222",
"%  c #0D2733",
"&  c #162C31",
"*  c #173239",
"=  c #15353A",
"-  c #0A2629",
";  c #252A27",
":  c #2E313A",
">  c #2E3530",
",  c #373A34",
"<  c #32343E",
"1  c #343B3D",
"2  c #292C36",
"3  c #453D31",
"4  c #4C3A34",
"5  c #3D443A",
"6  c #324F37",
"7  c #335336",
"8  c #3D533B",
"9  c #2E4736",
"0  c #4C4035",
"q  c #49463B",
"w  c #5C423C",
"e  c #5C583F",
"r  c #2F3D45",
"t  c #363643",
"y  c #373844",
"u  c #393946",
"i  c #3C3C4A",
"p  c #403E46",
"a  c #17464C",
"s  c #1A4A51",
"d  c #274347",
"f  c #344B4A",
"g  c #394D4B",
"h  c #2A525B",
"j  c #255059",
"k  c #325059",
"l  c #2D4D54",
"z  c #2C5761",
"x  c #2B5862",
"c  c #355965",
"v  c #43414C",
"b  c #4A464A",
"n  c #474A4B",
"m  c #564A47",
"M  c #5A504F",
"N  c #454553",
"B  c #4E4E5B",
"V  c #5E4E52",
"C  c #5D5F55",
"Z  c #545059",
"A  c #5A5A56",
"S  c #4B584F",
"D  c #654641",
"F  c #6F4B46",
"G  c #674E4C",
"H  c #724C47",
"J  c #724F4B",
"K  c #6D5F4E",
"L  c #77524A",
"P  c #7B514B",
"I  c #71584F",
"U  c #604E53",
"Y  c #635356",
"T  c #69585D",
"R  c #665956",
"E  c #765A55",
"W  c #5E6057",
"Q  c #67644D",
"!  c #79694C",
"~  c #6A675A",
"^  c #6E685C",
"/  c #6A6455",
"(  c #756D5E",
")  c #525265",
"_  c #505C7C",
"`  c #4C5B64",
"'  c #645961",
"]  c #685860",
"[  c #7B5D65",
"{  c #5F6D74",
"}  c #4C707C",
"|  c #6C6D62",
" . c #766E60",
".. c #776E69",
"X. c #786F61",
"o. c #6B7166",
"O. c #7F7466",
"+. c #7A756A",
"@. c #6A6377",
"#. c #76677B",
"$. c #865A53",
"%. c #895953",
"&. c #885751",
"*. c #925E57",
"=. c #8E6158",
"-. c #96615A",
";. c #9B645D",
":. c #976C5F",
">. c #99735F",
",. c #825E61",
"<. c #896465",
"1. c #976A63",
"2. c #9C6C63",
"3. c #976666",
"4. c #8C7F6C",
"5. c #867867",
"6. c #857578",
"7. c #886F7A",
"8. c #A2736A",
"9. c #A57568",
"0. c #97885C",
"q. c #93836C",
"w. c #8B8271",
"e. c #948672",
"r. c #9C8371",
"t. c #9D8A73",
"y. c #958C78",
"u. c #96897A",
"i. c #9F9175",
"p. c #A48C6E",
"a. c #A58666",
"s. c #A58E79",
"d. c #A58D75",
"f. c #B28D7B",
"g. c #B58876",
"h. c #AA947E",
"j. c #A79477",
"k. c #BB9978",
"l. c #B09369",
"z. c #B8A379",
"x. c #D19975",
"c. c #C0A473",
"v. c #D8AB7B",
"b. c #C9B07B",
"n. c #DCB07D",
"m. c #5C688E",
"M. c #5A6182",
"N. c #74738B",
"B. c #6A8896",
"V. c #7E84A1",
"C. c #9C8D90",
"Z. c #86909A",
"A. c #9D8484",
"S. c #AB9681",
"D. c #A39180",
"F. c #B49482",
"G. c #B39C84",
"H. c #BA9C84",
"J. c #A99692",
"K. c #B4A287",
"L. c #B7A28B",
"P. c #BEA389",
"I. c #BEA88D",
"U. c #8192B0",
"Y. c #859CAB",
"T. c #92A0AA",
"R. c #92ACB9",
"E. c #C09982",
"W. c #C2A58B",
"Q. c #CAAB8F",
"!. c #C5A389",
"~. c #DEAC82",
"^. c #DAB786",
"/. c #CEAC91",
"(. c #D2AE93",
"). c #CCB293",
"_. c #D5B195",
"`. c #D4B897",
"'. c #D6B698",
"]. c #D7BB9A",
"[. c #D8BD9B",
"{. c #EFBE86",
"}. c #E1B583",
"|. c #F0BE87",
" X c #F8C68C",
".X c #EDCE94",
"XX c #EFD196",
"oX c #F3D599",
"OX c #FEDB9A",
"+X c #FCD798",
"@X c #FFE7A2",
"#X c #FFE8A3",
"$X c #F8E1AD",
"%X c #FFEEBF",
"&X c #A6BEC6",
"*X c #C4D2DB",
"=X c #EBE0CF",
"-X c #FAEBCC",
";X c #CCDBE4",
":X c #DEE9F0",
">X c #E4ECEF",
",X c #E4EDF2",
"<X c #EEF3F6",
"1X c #EBF3F8",
"2X c #FFFFFF",
/* pixels */
"[.[.[.[.[.[.[.[.[.[.[.[.[.[.[.[.[.[.[.[.[.[.[.[.[.[.[.[.[.[.[.[.[.[.[.].[.K.0.`.[.[.[.[.[.[.[.[.",
"[.[.[.[.[.[.[.[.[.[.[.[.[.[.[.[.[.[.[.[.[.[.[.[.[.[.[.[.[.5.5 Q e.G.h.4.( q ! ].[.[.[.[.[.[.[.[.",
"[.[.[.[.[.[.[.[.[.[.[.[.[.[.[.[.[.[.[.[.[.[.[.'.'.[.[.[.].v X   # # 2 2 1 < 1 R K.[.[.[.[.[.[.[.",
"[.[.[.[.[.[.[.[.[.[.[.[.[.[.[.[.[.[.[.[.[.[._._._.'.[.[.[./ X . 2 t t u u u y t f X.`.[.[.[.[.[.",
"[.[.[.[.[.[.[.[.[.[.[.[.[.[.[.[.[.[.[.[.[.]._._._._._.[.[.q.# : t t t t u y y u u p ..[.[.[.[.[.",
"[.[.[.[.[.[.[.[.[.[.[.[.[.[.[.[.[.[.[.[.'._._._._._._.'.[.e.1 < 2 t t u t u u y i i p 6.[.[.[.[.",
"[.[.].[.[.[.[.[.[.[.[.[.[.[.[.[.[.[.[._._._._._._._._._.).5 9 < t t u t u u y i i p i ) [.[.[.[.",
"].[.[.].[.[.[.[.[.[.[.[.[.[.[.[.[.[._._._._._._._._._._.Q.8 7 1 t u i i i u u i p i p N L.[.[.[.",
"[.[.[.].[.[.[.[.[.[.[.[.[.[.[.[.[.'._._._._._._._._._._.(.e 7 6 u i u u i u i i i p g N L.[.[.[.",
"[.[.[.[.].[.[.[.[.[.[.[.[.[.[.[._._._._._._._._._._._._.Q.b 7 p.p.u u u u u u i i p p +.[.[.[.[.",
"[.[.[.[.[.].[.[.[.].].].].[.]._._._._._._._._._._._._._.e.9 Q OX}.i y p u u u u i i Z ).[.[.[.[.",
"[.[.[.[.[.[.[.[.[.].[.].].[.]._._._._._._._._._._._._._.!.Q b.OX+XV y u u u u u i i D.[.[.[.[.[.",
"[.[.].].].[.].].].].].].]._._._._._._._._._._._._._._._.`.i.^.OXOX5.u a.>.b u u i A '.[.[.[.[.[.",
"[.[.[.].[.].].].].].].`._._._._._._._._._._._._._._._._.(.j.z. X Xl.b e x.b i u i D.[.[.[.[.[.[.",
"[.[.].].].].].].].].]._._._._._._._._._._._._._._._._._._.W.c.{.{.|.n.v.l.b i u N u.[.[.[.[.[.[.",
"[.].].].].].[.].].].`._._._._._._._._._._._._._._._._._._._.n.a.a.v. X X Xn.u.B ..o.[.[.[.[.[.[.",
"[.[.[.[.[.[.[.'.'._._.(./.(._._._._._._._._._._._._._._._._.E.+ * ~ t.d.j.P.Y.@.] A ].[.[.[.[.[.",
"[.].[.`.[.[.'._._._._./._._._._._._._._._.~._._._._._._._._...s a a a a a j h k ` | ).[.[.[.[.[.",
"[.].].[.[.'._._._.(._._._._._._./._._._._._._._._._._._.(.Q.f s a s z z j h h k k w.K.].[.[.[.[.",
"].].[.[.'._._._._.(._._._._._.(._._._._._._._._._._._._.(.5.= s j } 1X1X<X>X*XR.{ =.y.[.[.[.[.[.",
"[.[.[.'._._._._._._._._._._._._._._._._._._._._._._._._._./ * c c B.2X2X2X2X2X2XZ.>.+.[.[.[.[.[.",
"`.[._.(._._._._._._._._._._._._._._._._._._._._._._._._._.s.d k c R.2X2X2X2X2X:X` r...'.[.[.[.[.",
"[.'._._._._._._._._._._._._._.(._._._._._._._._._._._._._._.C = x &X2X2X2X2X2XY.n ).| (._.[.[.[.",
"_._._._._._._._._._._._._._._._._._._._._._._.(._._._._.(._.5.- d *X2X2X2X2X,Xr V /.4.S._.].[.[.",
"]._._._._._._._._._._._._._._._._.)._._.'.).].].]._._._._._.X.. & ;X2X2X2X2XT.m Y /.h.O._._._.[.",
"_._._._._._._._._._._._._.(._._._._._._.].[.[.[.[.]._._._._.^ . . > $X%X-X=X' ' Y ).Q.R _._._._.",
"_._._._._._._._._._._._._._.(._._._._.`.].[.[.[.].[.]._._._.g . . O .X@X@X.XV ' T _._.C _._._._.",
"_._._._._._._._._._._._._._._._._._.`.].[.].].].].].[.]._./.g . X   ^.@X@X.XV T G Q._.( /._._._.",
"_._._._._._._._._._._._._._._._._.`.].[.[.[.].].[.[.[.[.].).g . .   z.@X@X.XU ] I _._.q.h._._._.",
"_._._._._._._._._.(._._._._._._.`.[.[.].].[.[.[.[.].[.].[.].5..     0.@X@XoXY E f._._.H.5._._._.",
"_._._._._._._._._.(._._._._._.'.].].[.[.].].].].[.].].].].[.I.% .   ! @X@XoXE 3./._._._.^ _._._.",
"_._._._._._._._._._._._._._._.].].[.[.[.].[.[.].].].[.[.).].[.n $ + ! @X@XoX;.F._._._._.~ _._._.",
"_._._._._._._._._._._._._._._.[.].[.[.].[.[.[.[.[.[.[.].`.].).y.% @ =.x.~.~.7.(._._._._...P._._.",
"_._._._._._._._._._._._._.(.[.[.].].[.[.[.[.[.].[.[.].`.`.`.d.e.% N *.-.;.;.A._._._._._.4.8._._.",
"_._._._._._._._._._._._._.[.[.'.].].[.[.[.[.[.[.[.].].].`.).K , & M.<.7.;.<.C._._._._._.S. ._._.",
"_._._._._._._._._._._._.[.[.[.[.].[.[.].].].].[.[.].].].[.j.3 w 4 m N.V.m.m.J.(._._._._.!.| _._.",
"_._._._._._._._._._.'.'.[.[.[.[.[.[.[.[.].].[.[.].[.[.[.[.y.3 D H H N.N.m.m.F.(._._._._._.| /._.",
"_._._._._._._._._._.[.[.[.[.[.[.[.[.[.[.].`.].[.].[.[.[.[.q.3 3 D H P 3.m.#.2.F._._._._._.5.E._.",
"_._._._._._._._._.[.[.[.[.[.[.[.[.[.[.[.].].].).].[.[.[.[.t.0 D p D H 7.m.,.-.*.(._._._._.t.s._.",
"_._._._._._._._.[.[.[.[.[.[.[.[.[.[.[.[.[.].].].[.[.[.].[.).q ; _ ) Y @.,.&.&.3._._._._._.H.6._.",
"_._._._._._._.[.[.[.[.[.[.[.[.[.[.[.[.[.[.[.[.[.[.[.[.[.[.[.h.; L ;.;.;.*.&.$.8.'._._._._.(.X.(.",
"_._._._._._.[.[.[.[.[.[.[.[.[.[.[.[.[.[.[.[.[.[.[.[.[.[.].[.z.3 L ;.;.;.8.H.k.P.[.[._._._._.5.(.",
"_._._._._.[.[.[.[.[.[.[.[.[.[.[.[.[.[.[.[.[.[.[.[.[.[.[.[.`.K 3 0 -.;.;.$.f.[.[.[.[.[.'._._.4.E.",
"_._._._.[.[.[.[.[.[.[.[.[.[.[.[.[.[.[.[.[.[.[.[.[.[.[.].`.).! 3 ; P ;.;.$.1.].[.[.[.[.'._._.S.F.",
"_._._.[.[.[.[.[.[.[.[.[.[.[.[.[.[.[.[.[.[.[.[.[.[.[.[.].m P P F w D -.*.%.;._.[.[.[.[.[.]._./.S.",
"_._.'.[.[.[.[.[.[.[.[.[.[.[.[.[.[.[.[.[.[.[.[.[.[.[.[.[.0 F P P P *.;.;.;.3./.[.[.[.[.[.[.]._.G.",
"_.[.[.[.[.[.[.[.[.[.[.[.[.[.[.[.[.[.[.[.[.[.[.[.[.[.[.[.r.&.;.;.9.g.g.E.W.(.[.[.[.[.[.[.[.[.].P.",
"[.[.[.[.[.[.[.[.[.[.[.[.[.[.[.[.[.[.[.[.[.[.[.[.[.[.[.[.].(.(._._.[.[.[.[.[.[.[.[.[.[.[.[.[.[.)."
};
