/* XPM */
static char *result[] = {
/* columns rows colors chars-per-pixel */
"48 48 199 2 ",
"   c #131D0D",
".  c #030F10",
"X  c #041215",
"o  c #091719",
"O  c #0C1918",
"+  c #121D1C",
"@  c #101B17",
"#  c #060E0A",
"$  c #15211C",
"%  c #18231F",
"&  c #182124",
"*  c #152424",
"=  c #0A2431",
"-  c #172C39",
";  c #0E2326",
":  c #22262D",
">  c #242B29",
",  c #312E29",
"<  c #29302E",
"1  c #34332C",
"2  c #272A32",
"3  c #292C34",
"4  c #2D2E39",
"5  c #2F303B",
"6  c #2A3637",
"7  c #333531",
"8  c #32323D",
"9  c #383B38",
"0  c #443C37",
"q  c #51461F",
"w  c #404023",
"e  c #4E5125",
"r  c #52542F",
"t  c #48473C",
"y  c #5D5731",
"u  c #5A453B",
"i  c #74633B",
"p  c #343542",
"a  c #383746",
"s  c #353944",
"d  c #393946",
"f  c #3C3C4A",
"g  c #433E47",
"h  c #31414A",
"j  c #384864",
"k  c #42414B",
"l  c #484A4B",
"z  c #5A464E",
"x  c #5D4F42",
"c  c #5A4750",
"v  c #5C4B54",
"b  c #5D4E5B",
"n  c #595951",
"m  c #425457",
"M  c #684A44",
"N  c #665A4B",
"B  c #7A564B",
"V  c #624F59",
"C  c #6C4F50",
"Z  c #65545D",
"A  c #6A5A5F",
"S  c #6B5557",
"D  c #7D5654",
"F  c #725559",
"G  c #765A5F",
"H  c #734D47",
"J  c #7A6B42",
"K  c #716354",
"L  c #766A5D",
"P  c #6C6856",
"I  c #424E60",
"U  c #40566A",
"Y  c #5F5360",
"T  c #525A77",
"R  c #6F5D6A",
"E  c #645763",
"W  c #755962",
"Q  c #645E71",
"!  c #586663",
"~  c #676562",
"^  c #796369",
"/  c #7C7166",
"(  c #65657B",
")  c #6A697B",
"_  c #716B7F",
"`  c #8C7B38",
"'  c #855854",
"]  c #8C5B55",
"[  c #875C58",
"{  c #915D57",
"}  c #925F59",
"|  c #89655B",
" . c #94625B",
".. c #9C655D",
"X. c #95695F",
"o. c #9D695E",
"O. c #906057",
"+. c #80705C",
"@. c #947C59",
"#. c #A2665E",
"$. c #A06A5D",
"%. c #815D61",
"&. c #8D6260",
"*. c #836F65",
"=. c #9A6660",
"-. c #956A65",
";. c #8A7C6A",
":. c #8A7766",
">. c #997866",
",. c #8E737D",
"<. c #A46C64",
"1. c #A47B6B",
"2. c #AB7F6F",
"3. c #A87566",
"4. c #B37E70",
"5. c #7C8733",
"6. c #9A825C",
"7. c #90805C",
"8. c #A8A540",
"9. c #B8B055",
"0. c #998976",
"q. c #A2856B",
"w. c #A99069",
"e. c #A58D79",
"r. c #A98873",
"t. c #B58575",
"y. c #B08C78",
"u. c #AD977D",
"i. c #BF917E",
"p. c #B49377",
"a. c #BA876A",
"s. c #C2B449",
"d. c #C4987C",
"f. c #DD9D74",
"g. c #C7A57E",
"h. c #D7C85D",
"j. c #F4DE5F",
"k. c #ECE65E",
"l. c #D5C963",
"z. c #D0C071",
"x. c #E7C970",
"c. c #F1E06B",
"v. c #FFFC7A",
"b. c #FFF874",
"n. c #596488",
"m. c #686A89",
"M. c #65708F",
"N. c #837788",
"B. c #748AAD",
"V. c #788CA9",
"C. c #758DB0",
"Z. c #798EB2",
"A. c #7C95BB",
"S. c #948384",
"D. c #AB9A80",
"F. c #B49C84",
"G. c #BF9882",
"H. c #A79791",
"J. c #BAA289",
"K. c #BDA394",
"L. c #989EAE",
"P. c #8898B6",
"I. c #AFABAD",
"U. c #B1AFB2",
"Y. c #B4B1B2",
"T. c #BCACA5",
"R. c #C49B85",
"E. c #C1A186",
"W. c #C5A48A",
"Q. c #CCA48C",
"!. c #C6AD8E",
"~. c #CBAA8F",
"^. c #DFB188",
"/. c #CBAD90",
"(. c #C3AC90",
"). c #D2AE93",
"_. c #CDB393",
"`. c #D5B195",
"'. c #D3B897",
"]. c #D6B798",
"[. c #D7BB9A",
"{. c #D8BD9B",
"}. c #DCB892",
"|. c #E2BE8A",
" X c #C1AEA3",
".X c #C7B2A3",
"XX c #D4BAA2",
"oX c #DBC09C",
"OX c #E7C988",
"+X c #F0C58D",
"@X c #F9C28B",
"#X c #EBCA91",
"$X c #FECF93",
"%X c #F2CD95",
"&X c #FFD194",
"*X c #FEDC9B",
"=X c #F6D597",
"-X c #FFE29F",
";X c #FFE5A0",
/* pixels */
"{.{.{.{.{.{.{.{.{.{.{.{.{.{.{.{.{.{.{.{.{.{.{.oX[.7.: 3 3 3 3 5 p p p f f g '.oXoXoX[.[.oX[.'.'.",
"{.{.{.{.{.{.{.{.{.{.{.{.{.{.{.{.{.{.{.{.{.{.{.[.L ; 2 4 5 p p p p a s a f f K.[.oX[.[.oX[.oXoXoX",
"{.{.{.{.{.{.{.{.{.{.{.{.{.{.{.{.{.{.{.{.[.[.[./ & 2 p p p 8 8 p a a s a f f F.[.oX[.oX[.oX[.oXoX",
"{.{.{.{.{.{.{.{.{.{.{.{.{.{.{.{.{.{.{.{.[.[.`.< 2 3 3 4 p p p d a a p p f f ,.oX[.[.oX[.oXXX'.'.",
"{.{.{.{.{.{.{.{.{.{.{.{.{.{.{.{.{.{.{.{.{.].e.o & 2 4 4 4 p a d d a s s d f ~ {.oX'.oX[.oX'.oXoX",
"{.{.{.{.{.{.{.{.{.{.{.{.{.{.{.{.{.{.{.{.].`.K X & 2 4 4 5 d d d d d p p s f y.{.[.oXoXoX'.oX'.oX",
"{.{.[.{.{.{.{.{.{.{.{.{.{.{.{.{.{.{.{.`.`.`.Q.& & 3 4 p d d d d d d p p 8 f A oXoXoX'.XXoXoXoXoX",
"{.{.[.{.{.{.{.{.{.{.{.{.{.{.{.{.{.{.].`.`.`.`.*.X 4 s a d d d d d d g @.F l *.].'.oXoX'.oX'.'.XX",
"{.{.{.{.{.{.{.{.{.{.{.{.{.{.{.{.{.].`.`.`.`.`.).5 p d d d d d d d d L *X*X#X>.^.{.{.{.{.{.{.{.{.",
"{.{.{.{.{.{.{.{.{.{.{.{.{.{.{.{.].`.`.`.`.`.`.`.e.d d d d d d d d h p.*X*X*X`.{.{.{.{.{.{.{.{.{.",
"{.{.{.{.{.{.{.{.{.{.{.{.{.{.{.].`.`.`.`.`.`.`.`.`.~ d d d d | a.S k |.*X*X*X{.{.{.{.{.{.{.{.{.{.",
"{.{.{.{.{.{.{.{.{.{.{.{.{.{.].`.`.`.`.`.`.`.`.`.`.F.k d d 9 N f.q.q.$X&X&X*X{.{.{.{.{.{.{.{.{.{.",
"{.{.{.{.{.{.{.{.{.{.{.{.{.`.`.`.`.`.`.`.`.`.`.`.`.~.l d d x |.|.$X$X&X$X&X%X{.{.{.{.{.{.{.{.{.{.",
"{.{.{.{.{.{.{.{.{.{.{.'.`.`.`.`.`.`.`.`.`.`.`.`.`.~.t d w.+X$X$X&X$XXXW.d.}.{.{.{.{.{.{.{.{.{.{.",
"{.{.[.{.{.{.{.{.{.[.`.`.`.`.`.`.`.`.`.`.`.`.`.`.`.x.j.x j H..X.X XT.P.) F d.{.{.{.{.{.{.{.{.{.{.",
"{.{.{.{.{.{.{.[.'.`.).`.`.`.).`.`.`.`.`.`.`.`.`.].x.v.i I B.C.Z.Z.B.Z.E Z 4.{.{.{.{.{.{.{.{.{.{.",
"[.{.{.{.{.[.XX'.`.`.`.`.`.`.`.`.`.`.`.`.).).`.`.`.z.b.i l ) ( ( ( m.( Z Z <.`.{.{.{.{.{.{.{.{.{.",
"'.{.{.{.{.XX).`.`.`.`.`.`.`.).`.`.`.`.:.& ; * < 7 r k.` y i z z c c z v Z  .Q.].{.{.{.{.{.{.{.{.",
"{.{.{.[.[.`.`.`.`.`.).`.`.`.`.`.).).Q., . . . . X O   # 8.l.z z v v z Z E ..R.`.].{.{.{.{.{.{.{.",
"{.[.{.].`.`.`.`.`.).`.`.`.`.`.`.`.`.`.~.S 0 7 , > w 9.e 5.h.( ( Y b b Z G $.d.).`.].{.{.{.{.{.{.",
"{.[.`.`.`.`.`.`.`.`.`.`.`.`.`.`.`.`.`.`.`.`.`.).!.7.v.9.m V.A.A.A.A.Z.) W <.Q.`.`.`.].{.{.{.{.{.",
"[.`.`.`.`.`.`.`.`.`.`.`.`.`.`.`.`.`.`.`.`.`.`.`.`.p.c.h.h I.Y.Y.Y.U.L._ [ t.`.`.`.`.`.].{.{.{.{.",
"`.`.`.`.`.`.`.`.`.`.`.`.].`.`.`.`.`.`.`.`.`.`.`.`.E.h.h.; w.-X-X;X-XS.R ..R.`.`.`.`.`.`.`.{.{.{.",
"`.`.`.`.`.`.`.`.`.`.`.`.).].).`.`.).).`.`.`.`.`.`.!.i q + @.-X-X-X=XV F =.~.`.`.`.`.`.`.`.].{.{.",
").`.`.`.`.`.`.`.`.`.`.`.`.`.`.`.`.).`.`.).'.'.'.[.).t @ O @.-X-X*X#Xv D -.0.`.`.`.`.`.`.`.`.].{.",
"`.`.`.`.`.`.`.`.`.`.).'.`.).`.`.`.`.`.`.'.'.oX'.{.!.1 $ o 7.-X-X;Xg.c ' %.! `.`.`.`.`.`.`.`.`.`.",
"`.).`.`.`.`.`.`.`.`.).`.`.`.`.).`.`.`.'.[.{.oXoX{._.7 $ @ @.-X-X-Xq.z ' %.! `.`.`.`.`.`.`.`.`.`.",
"`.`.`.`.`.`.`.).`.`.`.`.`.`.`.`.`.`.`.{.{.{.'.oX{.{.P $ @ 6.-X-X*X-.H } =./ `.`.`.`.`.`.`.`.`.`.",
"`.`.`.`.`.`.`.).`.`.`.`.`.`.`.`.`.`.[.[.'.oX'.oXoXoXu.> $ 6.-X-X*X<.{ } -.R.`.`.`.`.`.`.`.`.`.`.",
"`.`.`.`.`.`.`.`.`.`.`.`.`.).`.`.`.'.{.{.oXoXXXoXoXoXoXN $ 6.-X-X%X} } <.S.`.`.`.`.`.`.`.`.`.`.`.",
"`.`.`.`.`.`.`.`.`.).`.`.`.`.`.`.'.{.{.{.oX'.'.oXoX'.!.u.% w.*X-X|. ...-.H.].`.`.`.`.`.`.`.`.`.`.",
"`.`.`.`.`.`.`.`.`.`.).`.).`.).'.[.{.{.{.oX'.oXoX'.oXoX'.l B a.3.#.&.m.M.(.`.`.`.`.`.`.`.`.`.`.`.",
"`.`.`.`.`.`.`.`.`.`.`.`.`.`.].{.oXoX[.oX'.oX'.oX'.'.oXK.0.' { { { &.n.M.(.`.`.`.`.`.`.`.`.`.`.`.",
"`.`.`.`.`.`.`.`.`.`.`.`.`.].{.{.XX'.oX[.oX'.'.oXoX'.oX_./ 0 S N.N.C j _ R.`.`.`.`.`.`.`.`.`.`.`.",
"`.`.`.`.`.`.`.`.`.`.`.`.].{.{.{.oXoXoX[.oXoX[.[.'.oXoXoX_.h - ^ Z.%.E } 4.`.).`.`.`.`.`.`.`.`.`.",
"`.`.`.`.`.`.`.`.`.`.`.`.{.{.{.{.'.oX'.oX'.XXoX[.oX'.oX_.'.n = 8 ,.=.#.#.d.`.`.`.`.`.`.`.`.`.`.`.",
"`.`.`.`.`.`.`.`.`.`.`.{.{.{.{.{.oX[.[.[.XX'.oX'.'.oX'.'.K.6 = 9 #.#.#.#.<.R.Q.`.`.`.`.`.`.`.`.`.",
"`.`.`.`.`.`.`.`.`.`.{.{.{.{.{.{.oXXXoX[.oXoX'.oXoX'.oX'.u.- - b #.#.#...=.=.1.`.`.`.`.`.`.`.`.`.",
"`.`.`.`.`.`.`.`.`.{.{.{.{.{.{.{.oX'.oX'.oX[.oX'.oXoXoXoXJ.6 T T *...=.=.} { =.`.`.`.`.`.`.`.`.`.",
"`.`.`.`.`.`.`.`.{.{.{.{.{.{.{.{.oX'.oX[.oX[.oXoX'.XX'.oX0.t ] [ W W R } } } =.[.`.`.`.`.`.`.`.`.",
"`.`.`.`.`.`.`.{.{.{.{.{.{.{.{.{.'.oXoXoXoX[.'.XX[.[.[.[.L M ] ] ] ] 3.2.t.G./.[.].`.`.`.`.`.`.`.",
"`.`.`.`.`.`.{.{.{.{.{.{.{.{.{.{.oXoX'.XX[.oXoX'.[.[.[._.0 D ] ] ] 1.'.{.{.{.[.{.{.{.`.`.`.`.`.`.",
"`.`.`.`.`.{.{.{.{.{.{.{.{.{.{.{.[.'.[.oXoXoXoXoXoX[.[.K 1 ] ] ]  ./.{.{.{.{.{.{.{.{.{.`.`.`.`.`.",
"`.`.`.`.}.{.{.{.{.{.{.{.{.{.{.{.oX[.oXoX[.'.'.oX{.[.@.u H { ] ] { =.1.y.J.{.{.{.{.{.{.].`.`.`.`.",
"`.`.`.{.{.{.{.{.{.{.{.{.{.{.{.{.oX'.oXXX[.oX[.[.{.u.t H ] ] ] ] } } ] ' } [.{.{.{.{.{.{.{.`.`.`.",
"`.].].{.{.{.{.{.{.{.{.{.{.{.{.{.oX'.oX'.[.[.oXoX{._.>.| ] ] ] ] ] ] ] ' =.].{.{.{.{.{.{.{.XX`.`.",
"`.{.oX{.{.{.{.{.{.{.{.{.{.{.{.{.oX[.[.oXoX[.[.[.[.[.oX[.`.W.G.4.>. .O.{ 4.XX{.{.{.{.{.{.{.{.}.`.",
"{.{.{.{.{.{.{.{.{.{.{.{.{.{.{.{.[.[.oX[.[.oXoX[.oXoX[.oX[.[.].{.{.[.[.[.].{.{.{.{.{.{.{.{.{.oX{."
};
