/* XPM */
static char *result[] = {
/* columns rows colors chars-per-pixel */
"48 48 212 2 ",
"   c #0A1618",
".  c #0B181A",
"X  c #111D1D",
"o  c #1A241F",
"O  c #2A351D",
"+  c #131E21",
"@  c #171F27",
"#  c #1B2424",
"$  c #15202E",
"%  c #1B262A",
"&  c #1C2531",
"*  c #18363A",
"=  c #21262C",
"-  c #282824",
";  c #352E2A",
":  c #2D322C",
">  c #273224",
",  c #33382C",
"<  c #252A32",
"1  c #2A2D36",
"2  c #2C2F39",
"3  c #232E3F",
"4  c #2C3136",
"5  c #2D323A",
"6  c #32333D",
"7  c #383838",
"8  c #443D32",
"9  c #433736",
"0  c #4C3B33",
"q  c #324A33",
"w  c #51471E",
"e  c #4C4137",
"r  c #4D4239",
"t  c #45493A",
"y  c #574A3C",
"u  c #4A4E28",
"i  c #726721",
"p  c #7E702C",
"a  c #72693F",
"s  c #7C723D",
"d  c #193E48",
"f  c #343542",
"g  c #353B45",
"h  c #393A47",
"j  c #3D3D4B",
"k  c #273C43",
"l  c #4C3F46",
"z  c #17454C",
"x  c #19484F",
"c  c #154147",
"v  c #194A51",
"b  c #2D4349",
"n  c #344758",
"m  c #29525B",
"M  c #344E50",
"N  c #2F5660",
"B  c #395A66",
"V  c #4D4146",
"C  c #42434D",
"Z  c #4B434A",
"A  c #494C4B",
"S  c #444849",
"D  c #56444C",
"F  c #5C464B",
"G  c #544847",
"H  c #545348",
"J  c #464551",
"K  c #474952",
"L  c #4C4B55",
"P  c #574C58",
"I  c #41545B",
"U  c #5A5651",
"Y  c #565659",
"T  c #6B4943",
"R  c #674947",
"E  c #714C46",
"W  c #7B534C",
"Q  c #73514B",
"!  c #624D56",
"~  c #624F59",
"^  c #6E5254",
"/  c #665559",
"(  c #795658",
")  c #6F5547",
"_  c #5E675F",
"`  c #6A6654",
"'  c #736753",
"]  c #706A5C",
"[  c #7C6D5A",
"{  c #797557",
"}  c #6B734E",
"|  c #455A64",
" . c #405E6A",
".. c #485669",
"X. c #555868",
"o. c #4B5774",
"O. c #655B65",
"+. c #725A63",
"@. c #45636E",
"#. c #596564",
"$. c #466471",
"%. c #4C6B79",
"&. c #4A6775",
"*. c #596C70",
"=. c #526C7D",
"-. c #5A667C",
";. c #696864",
":. c #776466",
">. c #6E7061",
",. c #73796F",
"<. c #6A6675",
"1. c #767B70",
"2. c #60757A",
"3. c #987E32",
"4. c #835A55",
"5. c #8D5B55",
"6. c #855A57",
"7. c #925E57",
"8. c #945F58",
"9. c #8F604F",
"0. c #88675A",
"q. c #95625B",
"w. c #9B645C",
"e. c #97695C",
"r. c #8A794D",
"t. c #A2665F",
"y. c #AD755A",
"u. c #936660",
"i. c #9C6661",
"p. c #996A67",
"a. c #897969",
"s. c #937D6B",
"d. c #8A7E72",
"f. c #917E73",
"g. c #826A6F",
"h. c #A16760",
"j. c #A26962",
"k. c #A8796D",
"l. c #7E857C",
"z. c #9A8651",
"x. c #83827E",
"c. c #9B8973",
"v. c #9A8471",
"b. c #99866E",
"n. c #B0826A",
"m. c #A98875",
"M. c #B38875",
"N. c #AA9879",
"B. c #B2967E",
"V. c #AF914C",
"C. c #DFB54B",
"Z. c #CB9C7F",
"A. c #D49F7A",
"S. c #CBA87F",
"D. c #515F81",
"F. c #546285",
"G. c #5B698C",
"H. c #566989",
"J. c #557383",
"K. c #5A7585",
"L. c #5D7A8B",
"P. c #5C7888",
"I. c #676B8A",
"U. c #6B748F",
"Y. c #65778D",
"T. c #6B7993",
"R. c #716982",
"E. c #7A8688",
"W. c #6B829D",
"Q. c #7A92B7",
"!. c #768BAF",
"~. c #878288",
"^. c #8B918E",
"/. c #99918C",
"(. c #AD9480",
"). c #AB9984",
"_. c #B99884",
"`. c #A79C93",
"'. c #A48E83",
"]. c #ABA28D",
"[. c #BEA589",
"{. c #BBA588",
"}. c #B8A794",
"|. c #AAA292",
" X c #A19FA8",
".X c #C49F88",
"XX c #C5A38A",
"oX c #CAA58D",
"OX c #C4AA8D",
"+X c #CBA98F",
"@X c #C0AA86",
"#X c #DCAC84",
"$X c #CCB082",
"%X c #D7B784",
"&X c #C4AE93",
"*X c #CEAC91",
"=X c #D2AE93",
"-X c #CCB393",
";X c #CAB396",
":X c #D5B195",
">X c #D5B698",
",X c #D6BB9A",
"<X c #D8BD9B",
"1X c #D9B897",
"2X c #E2BC95",
"3X c #F1BD88",
"4X c #EBC48B",
"5X c #F7CB93",
"6X c #FFD495",
"7X c #FDD598",
"8X c #FFD999",
"9X c #ECC793",
/* pixels */
"<X<X<X<X<X<X<X<X<X<X<X<X<X<X<X<X<X<X<X<X<X<X<X,X,X,X<X<X<X<X<X<X<X<X<X<X<X<X<X<X<X<X<X<X<X<X<X<X",
"<X<X<X<X<X<X<X<X<X<X<X<X<X<X<X<X<X<X<X<X,X,X{.` c.&X,X<X<X<X<X<X<X<X<X<X<X<X<X<X<X<X<X<X<X<X<X<X",
"<X<X<X<X<X<X<X<X<X<X<X<X<X<X<X<X<X<X<X<X-X] X X < f b U a.).&X,X<X<X<X<X<X<X<X<X<X<X<X<X<X<X<X<X",
"<X<X<X<X<X<X<X<X<X<X<X<X<X<X<X<X<X<X<X<XH + < 2 f h l j j j P &X<X<X<X<X<X<X<X<X<X<X<X<X<X<X<X<X",
"<X<X<X<X<X<X<X<X<X<X<X<X<X<X<X<X<X<X<X,X7 4 2 6 6 h j j j M :.1X<X<X<X<X<X<X<X<X<X<X<X<X<X<X<X<X",
"<X<X<X<X<X<X<X<X<X<X<X<X<X<X<X<X<X<X<X,X: 1 5 6 6 h h h h K ).,X<X<X<X<X<X<X<X<X<X<X<X<X<X<X<X<X",
"<X<X<X<X<X<X<X<X<X<X<X<X<X<X<X<X<X<X<X:X% < 6 6 6 f h h h Y ;X<X<X<X<X<X<X<X<X<X<X<X<X<X<X<X<X<X",
"<X<X<X<X<X<X<X<X<X<X<X<X<X<X<X<X<X<X>X+X# % 6 f f f h h h L &X<X<X<X<X<X<X<X<X<X<X<X<X<X<X<X<X<X",
"<X<X<X<X<X<X<X<X<X<X<X<X<X<X<X<X<X>X:X*X+ & 6 6 6 f h j j L &X,X<X<X<X<X<X<X<X<X<X<X<X<X<X<X<X<X",
"<X<X<X<X<X<X<X<X<X<X<X<X<X<X<X<X>X:X:XXXX = 2 f f f j j j J _.>X<X<X<X<X<X<X<X<X<X<X<X<X<X<X<X<X",
"<X<X<X<X<X<X<X<X<X<X<X<X<X<X<X:X:X=X:X_.+ 1 1 6 6 h j j j J (.:X1X1X<X<X<X<X<X<X<X<X<X<X<X<X<X<X",
"<X<X<X<X<X<X<X<X<X<X<X<X<X<X1X:X:X:X=X' # 1 1 1 6 h j j j l (.:X=X,X<X<X<X<X<X<X<X<X<X<X<X<X<X<X",
"<X<X<X<X<X<X<X<X<X<X<X<X<X:X:X:X:X:X:Xa.= 1 1 1 g j j j j J _.>X:X:X>X<X<X<X<X<X<X<X<X<X<X<X<X<X",
"<X<X<X<X<X<X<X<X<X<X<X<X>X:X:X:X:X:X[.d.1 2 6 6 f j j j j l }.:X:X:X:X>X<XN.r.@X<X<X<X<X<X<X<X<X",
"<X<X<X<X<X<X<X<X<X<X<X1X:X:X:X:X:Xs.* * 3 2 f f f j j j j J .X=X:X:X:X:X[.q 3.C.<X<X<X<X<X<X<X<X",
"<X<X<X<X<X<X<X<X<X<X>X:X:X:X:X=X] * z x f 1 < k f j j l J l d.oX:X:X:X(.1 & U $X<X<X<X<X<X<X<X<X",
"<X<X<X<X<X<X<X<X<X:X:X:X:X:X=X_ c z z v 5 5 5 4 4 S C C C 5 . /  X:Xm.< $ Y *X<X<X<X<X<X<X<X<X<X",
"<X<X<X<X<X<X1X>X1X:X:X:X:X:X1.z z z N J.$.B b 7 4 C K ..Y 2 . P Q.d.& & :.>X:X1X<X<X<X<X<X<X<X<X",
"<X<X<X<X<X>X:X:X:X:X:X:X:X:X1.c z v m L.W.P.H.d.'.v.2.W.X.6 . ..H.$ & a.:X:X:X:X>X<X<X<X<X<X<X<X",
"<X<X<X<X:X:X:X:X:X=X:X:X:X:X1.z v v v P.L.L.T.!.Q.H.d , u ,   2 $ 2 f.:X:X:X:X:X:X,X<X<X<X<X<X<X",
"<X<X,X:X:X:X:X=X=X:X=X:X:X:X1.x v v v &.J.J.X.P O.<.F 7 w i O @ & 1X1X:X:X:X:X:X:X:X1X<X<X<X<X<X",
"<X<X:X:X:X:X:X=X:X=X=X=X:X:X).x z v v B %.%.O.D D ! ! D - #.s u d.6X9X:X:X:X:X:X:X:X=X1X1X<X<X<X",
"<X>X:X:X:X=X=X:X:X:X=X:X:X+XN.q b c c m N N ` Q l ~ F 4 =.K.| } 3.r.9X:X:X:X:X:X:X:X:X:X>X<X<X<X",
":X=X:X:X=X=X=X:X:X:X:X=X1XB.q } 9X%X>.b b 5 R 4.! D 5 K.=.| / =X5XV.4X1X:X:X=X:X:X:X:X:X:X1X<X<X",
":X:X=X*X:X:X:X:X=X=X=X:X=X8 q %X8X7X=X/ l l ; E 6.g P.%.| ! V :X7X8X8X9X*X:X:X:X:X:X:X:X:X:X:X<X",
":X:X*X:X:X=X:X:X=X=X:X:X:X, { 8X8XS.:Xg.l 9 o - L Y.%.X.~ ! : OX5X8X8X#X.X:X:X:X:X:X:X:X:X:X:X:X",
":X=X:X:X:X*X:X:X=X*X:X:X:Xt %X8X4Xy M.G @     n L.$.+.i.( ~ T [.1X8X8X#X.X:X:X:X:X:X:X:X:X:X:X:X",
"=X:X:X:X:X:X:X:X+X:X:X:X:X) 3X5Xr.8 ; X     B P.$.Y w.j.j.6.6.XXM.5X6XA.XX:X:X:X:X:X:X:X:X:X:X:X",
":X:X:X:X:X:X:X:X:X:X:X:X*XW q.W - r o X % @.L.@.J ! ^ 8.j.h.q.oXm.i.w.q.:X:X:X:X:X:X:X:X:X:X:X:X",
":X:X:X:X:X:X:X:X:X:X=X:X*X9 8 > H +X0 > -.K.| K l ! ! ! 4.j.j.+X.X5.4.6.oX:X:X:X:X:X:X:X:X:X:X:X",
":X:X:X:X:X:X:X:X:X:X=X:XoX0 q.; O ` U =.J.| C l l ~ ~ ~ ! ( u.=X:X[ ( 7..X:X:X:X:X:X:X:X:X:X:X:X",
":X:X:X=X:X:X=X-X:X:X=X:XoXT e.9., A K.J.| ^ R R D ~ ^ ( 5.u.p.:X:X( E 8.k.:X:X:X:X:X:X:X:X:X:X:X",
":X:X:X:X:X:X:X:X:X=X=X:X+X0 4.y.s.K.%.B X.O.^ ^ W 8.i.p.<.R.T.>X,X.Xk.M..X:X:X:X:X:X:X:X:X:X:X:X",
":X:X:X:X:X:X+X:X:X:X:X:X:X0 0 ;.W.=.M n o.o.o.o.X.R.I.G.G.G.U.>X,X,X:X:X:X:X:X:X:X:X:X:X:X:X:X:X",
":X:X:X:X:X:X:X:X:X:X:X:X*Xe X.P.%.M 7 n H.F.o...o.I.G.D.D.G.U.>X<X<X1X>X:X:X:X:X:X:X:X:X:X:X:X:X",
":X:X:X:X:X:X:X:X:X:X:X=X_.*.L.$.Y 8 7 b F.F.F.}.<X<X}.D.D.D.T.<X<X<X<X1X:X:X:X:X:X:X:X:X:X:X:X:X",
":X:X:X:X:X:X:X:X:X:X:X-Xx.P. .;.[.' 8 g F.F.F.`.<X<X}.D.D.D.~.,X<X<X<X<X,X>X:X:X:X:X:X:X:X:X:X:X",
":X:X:X:X:X:X:X:X:X>X;XE.P.@.A { ,X<XN.7 -.<.:.B.<X<X`.D.D.D./.<X<X<X<X<X<X<X>X:X:X:X:X:X:X:X:X:X",
":X:X:X:X:X:X:X:X:X-XE.K.$.H [.<X<X<X<XG 8.h.t.-X<X<X;X+.+.+._.,X<X<X<X<X<X<X>X:X:X:X:X:X:X:X:X:X",
":X:X:X:X:X:X:X:X,XE.=.*.}.OX<X<X<X<X1X; 5.h.q.+X<X,X*X8.8.8..X,X<X<X<X<X<X<X<X<X:X:X:X:X:X:X:X:X",
":X:X:X:X:X:X>X<X^.%.l.,X<X<X<X,X,X<X,Xo W t.q.@X,X,X[.7.8.q.0.-X<X<X<X<X<X<X<X<X1X:X:X:X:X:X:X:X",
":X:X:X:X:X-X,X/.2.].<X<X<X<X<X,X,X<X,Xo ) t.w.OX,X,X-X5.8.q.4.&X<X<X<X<X<X<X<X<X<X1X:X:X:X:X:X:X",
":X:X:X:X,X,X|.E.;X<X<X<X<X<X<X<X<X<X>X> T h.t.OX<X,X[.5.8.q.u.,X<X<X<X<X<X<X<X<X<X<X<X:X:X:X:X:X",
":X:X:X1X<X}.].<X<X<X<X<X<X<X<X<X<X,X-X, T 9.7.-X,X<Xb.7.q.q.k.,X<X<X<X<X<X<X<X<X<X<X<X<X:X:X:X:X",
":X:X:X1X<X,X<X<X<X<X<X<X<X<X<X<X<X<X-Xe W t.t.-X<X<Xb.4.5.5._.<X<X<X<X<X<X<X<X<X<X<X<X<X1X:X:X:X",
":X1X1X<X<X<X<X<X<X<X<X<X<X<X<X<X<X<X<Xb.e.k.n.:X<X,X0.5.5.q.+X<X<X<X<X<X<X<X<X<X<X<X<X<X<X1X>X:X",
">X<X<X<X<X<X<X<X<X<X<X<X<X<X<X<X<X<X<X,X>X1X<X<X<X<Xa.7.7.p.1X<X<X<X<X<X<X<X<X<X<X<X<X<X<X<X1X>X",
"1X<X<X<X<X<X<X<X<X<X<X<X<X<X<X<X<X<X<X<X<X,X<X<X<X<X<X1X1X-X<X<X<X<X<X<X<X<X<X<X<X<X<X<X<X<X<X<X"
};
