/* XPM */
static char *result[] = {
/* columns rows colors chars-per-pixel */
"48 48 166 2 ",
"   c #9F2F1A",
".  c #A22F19",
"X  c #A5311A",
"o  c #AC341B",
"O  c #AE381E",
"+  c #B1371B",
"@  c #B5391C",
"#  c #BB3C1C",
"$  c #A33822",
"%  c #AE3A20",
"&  c #B93E20",
"*  c #C13E1D",
"=  c #BC401D",
"-  c #A8442D",
";  c #BD4223",
":  c #BB4729",
">  c #B44D32",
",  c #BF4F30",
"<  c #BD5135",
"1  c #B0573F",
"2  c #C5411E",
"3  c #CC441F",
"4  c #CB4C1F",
"5  c #D1461F",
"6  c #C7511E",
"7  c #CC531F",
"8  c #D1551F",
"9  c #D25A1F",
"0  c #D1641F",
"q  c #C44523",
"w  c #C34A29",
"e  c #D34720",
"r  c #D64920",
"t  c #D94A20",
"y  c #CF5620",
"u  c #D35320",
"i  c #DB5222",
"p  c #D55920",
"a  c #D95D20",
"s  c #D0502B",
"d  c #DA562D",
"f  c #C35333",
"g  c #CC5633",
"h  c #C35D3D",
"j  c #D45D37",
"k  c #E24E21",
"l  c #E55222",
"z  c #EC5323",
"x  c #E25D22",
"c  c #EB5B22",
"v  c #F05523",
"b  c #F05B23",
"n  c #F05B2A",
"m  c #DC6420",
"M  c #DE6D21",
"N  c #DD6630",
"B  c #DB6239",
"V  c #E36422",
"C  c #E96223",
"Z  c #E56B24",
"A  c #EC6B23",
"S  c #E66B2C",
"D  c #EB6D2E",
"F  c #F26523",
"G  c #F26C23",
"H  c #F16129",
"J  c #E47522",
"K  c #EC7422",
"L  c #E37822",
"P  c #EC7F22",
"I  c #E57C29",
"U  c #EA7B2C",
"Y  c #F37423",
"T  c #F47B23",
"R  c #F3722B",
"E  c #E66336",
"W  c #F26A3B",
"Q  c #ED7133",
"!  c #EB7F39",
"~  c #E5753C",
"^  c #BB6549",
"/  c #BD6B4F",
"(  c #BE6E52",
")  c #BE7A5D",
"_  c #C46040",
"`  c #CA6040",
"'  c #C66D4E",
"]  c #CC6F4F",
"[  c #D16441",
"{  c #C7704F",
"}  c #DF7742",
"|  c #DB7E4D",
" . c #C77053",
".. c #D27452",
"X. c #DA7851",
"o. c #E07147",
"O. c #C57F62",
"+. c #F38323",
"@. c #F58B24",
"#. c #F58328",
"$. c #F3892F",
"%. c #DE8140",
"&. c #CB805F",
"*. c #DF8053",
"=. c #DE8E5F",
"-. c #E1834F",
";. c #F58748",
":. c #F48944",
">. c #F79746",
",. c #F79A44",
"<. c #F4885F",
"1. c #F4815C",
"2. c #EF9E5A",
"3. c #F7A356",
"4. c #F8A659",
"5. c #CC8163",
"6. c #CB8A6E",
"7. c #D18363",
"8. c #D3916F",
"9. c #CD9475",
"0. c #CF9D7E",
"q. c #D29575",
"w. c #D79B77",
"e. c #DA9D73",
"r. c #F69962",
"t. c #F59E70",
"y. c #DAA072",
"u. c #D4A27F",
"i. c #D7A97F",
"p. c #F8A46C",
"a. c #F6B06E",
"s. c #E5A976",
"d. c #ECA679",
"f. c #F8AD79",
"g. c #CF9F84",
"h. c #D09E82",
"j. c #CEA181",
"k. c #D5A582",
"l. c #D5A987",
"z. c #D1A488",
"x. c #D3AA8A",
"c. c #D8AC88",
"v. c #D9AA84",
"b. c #D3B08F",
"n. c #D4AF93",
"m. c #D5B195",
"M. c #D7B895",
"N. c #D8B995",
"B. c #D6B698",
"V. c #D7BA99",
"C. c #D8BD9B",
"Z. c #DAB592",
"A. c #F3AB88",
"S. c #F7BD87",
"D. c #FABE83",
"F. c #F6B18E",
"G. c #F9B583",
"H. c #EEBA96",
"J. c #FBC999",
"K. c #FAC49B",
"L. c #FBCFA6",
"P. c #FAC3A3",
"I. c #FCD5B1",
"U. c #F9D7B8",
"Y. c #FDEAE4",
"T. c white",
/* pixels */
"C.C.C.C.C.C.C.C.C.C.C.C.C.C.C.C.C.C.C.C.C.C.C.C.C.C.C.C.C.C.C.C.C.C.C.C.C.C.C.C.C.C.C.C.C.C.C.C.",
"C.C.C.C.C.C.C.C.C.C.C.C.C.C.C.C.C.C.C.C.C.C.C.C.C.C.C.C.C.C.C.C.C.C.C.C.C.C.C.C.C.C.C.C.C.C.C.C.",
"C.C.C.C.C.C.C.C.C.C.C.C.C.C.C.C.C.C.C.C.C.C.C.B.V.C.C.C.C.C.C.C.C.C.C.C.C.C.C.C.C.C.C.C.C.C.C.C.",
"C.C.C.C.C.C.C.C.C.C.C.C.C.C.C.C.C.C.C.C.C.C.m.m.m.B.C.C.C.C.C.C.C.C.C.C.C.C.C.C.C.C.C.C.C.C.C.C.",
"C.C.C.C.C.C.C.C.C.C.C.C.C.C.C.C.C.C.C.C.C.m.Z.Z.m.m.m.C.C.C.C.C.C.C.C.C.C.C.C.C.C.C.C.C.C.C.C.C.",
"C.C.C.C.C.C.C.C.C.C.C.C.C.C.C.C.c.=.~ C C l 5 r e i t d B X.k.C.C.C.C.C.C.C.C.C.C.C.C.C.C.C.C.C.",
"C.C.C.C.C.C.C.C.C.C.C.C.C.C.C.v.*.A R R G H z l k l z v v v o.k.C.C.C.C.C.C.C.C.C.C.C.C.C.C.C.C.",
"C.C.C.C.C.C.C.C.C.C.C.C.C.V.w.Q Y p.G.#.T T F b v l z v v v v E e.C.C.C.C.C.C.C.C.C.C.C.C.C.C.C.",
"C.C.C.C.C.C.C.C.C.C.C.C.M.e.S ;.K.F.A x x x z F n z k c H F F F Q y.N.C.C.C.C.C.C.C.C.C.C.C.C.C.",
"C.C.C.C.C.C.C.C.C.C.C.C.u.~ Y f.A.N 7 6 6 7 2 t z z t S 3.4.4.4.4.s.N.C.C.C.C.C.C.C.C.C.C.C.C.C.",
"C.C.C.C.C.C.C.C.C.C.C.C.*.A T Q y 7 V K K K 7 @ 2 z k k d.D.J.a.D.f.s.V.C.C.C.C.C.C.C.C.C.C.C.C.",
"C.C.C.C.C.C.C.C.C.C.C.u.V Y G q 9 :.J.@.+.T b k # * t k 8 @.@.@.@.@.@.v.C.C.C.C.C.C.C.C.C.C.C.C.",
"C.C.C.C.C.C.C.C.C.C.V...A Y u u r.I.>.T F F b v v # * 5 k l F F n H F | B.C.C.C.C.C.C.C.C.C.C.C.",
"C.C.C.C.C.C.C.C.C.C.c.j A V y d.D.>.G F F F v v v 5 @ 2 k 5 z v v v v E c.C.C.C.C.C.C.C.C.C.C.C.",
"C.C.C.C.C.C.C.C.C.C.q.i C 9 A +.0 9 F F F H i 7 8 v 5 * 5 5 5 5 t t t s 8.H.C.C.C.C.C.C.C.C.C.C.",
"C.C.C.C.C.C.C.C.C.x...t 5 8 K $.D.a.0 C F x ! Y A k 5 # 5 5 5 5 t t t r ..z.C.C.C.C.C.C.C.C.C.C.",
"C.C.C.C.C.C.C.C.C.q.g t 2 u J U.L.,.@.V x Z H v b i 5 # * 3 3 5 t e t t s q.B.V.V.C.C.C.C.C.C.C.",
"C.C.C.C.C.C.C.C.V.5.5 t = S H.T.Y.<.T J 9 C v v v 5 3 3 X 3 2 t t t t t k O.m.B.V.C.C.C.C.C.C.C.",
"C.C.C.C.C.C.C.B.m.] 3 2 6 U 2.P.1.v v A A c v v l 5 2 5 . * 2 5 t t t t t ] n.m.B.C.C.C.C.C.C.C.",
"C.C.C.C.C.C.m.m.Z.h 2 # 8 I $.W n v b b b v v z k 2 2 5 X # 2 5 t e t t t [ m.m.B.B.C.C.C.C.C.C.",
"C.C.C.C.C.B.m.m.m.g q + 9 L +.v v v v v v v v k t * * 5 @ + 2 2 t t t t t j m.m.m.m.B.V.C.C.C.C.",
"C.C.C.C.m.m.m.m.m.w * + M L T v v v v v v v v 5 5 * # 5 * o * 2 e e e e e s n.m.m.m.m.B.C.C.C.C.",
"C.C.C.m.m.m.m.m.Z.q # o V Z T v v v v v v v k k 5 # @ 5 q o * * * * * * * ; m.m.m.m.m.m.B.C.C.C.",
"C.C.V.m.m.m.m.m.m.q # o a 0 +.v v l z z l k 5 5 5 # @ 5 * o # # # # & * & & m.m.m.m.m.m.m.B.C.C.",
"C.B.m.m.m.m.m.m.m.q # o u a +.z z t t e t t t t * @ @ 5 * X # # @ @ * @ * # m.m.m.m.m.m.m.m.B.V.",
"B.n.m.m.m.m.m.m.m.q # o r a +.b k t t t t t t e * + @ 3 * X # * * @ @ * @ # m.m.m.m.m.m.m.m.m.m.",
"n.m.m.m.m.m.m.m.m.w # o 3 t L F k t t t t t t * # o * 5 # X # # # # # # * : n.m.m.m.m.m.m.m.m.m.",
"Z.m.m.m.m.m.m.m.m.f # o 2 r a +.k t t t t 5 * @ X @ * 5 o o * # # # # * @ w m.n.m.m.m.m.m.m.m.m.",
"m.m.m.m.m.m.m.m.m.h # o # e r +.v t t t r 5 * @ . # e e X o * # @ @ * @ & h m.m.m.m.m.m.m.m.m.m.",
"n.m.m.m.n.m.m.m.n.] # o @ 3 r M F 5 t t 3 * # X X * 3 * . + & @ # # @ * @ / m.m.m.m.m.m.m.m.m.m.",
"m.m.m.m.n.m.m.m.m.O.# O O 2 5 4 K t t 5 * * @ . + 5 e @ X @ # # * # # # @ O.m.m.m.m.m.m.m.m.m.m.",
"m.m.m.m.m.m.m.m.m.9.f + o @ 2 3 9 x 5 * * * . o * 3 * + o @ @ + + + + + > 9.m.m.m.n.m.m.m.m.m.m.",
"m.m.m.m.m.m.m.m.m.g. .& X o * 2 6 m e * * + X # 2 2 * o o @ @ o o o o o ( j.m.m.m.m.m.m.m.m.n.m.",
"m.m.m.m.m.m.m.m.m.m.6.& o o & 2 2 7 r # # X @ # 2 2 # X o # + o o o o @ 6.n.m.m.m.m.m.m.m.m.m.m.",
"m.m.n.m.m.m.m.m.m.m.g.f o o o * 2 = 9 2 + + # 2 2 # X o @ # o o o o o > g.m.m.m.m.m.m.m.m.m.m.m.",
"m.m.m.m.m.m.m.m.m.m.n.' @ o X % 2 2 2 2 # # 2 2 2 X o o * + o o o o o ' m.m.m.m.m.m.m.m.m.m.m.m.",
"m.m.m.m.m.m.m.m.m.m.Z.h.* + o . O 2 2 # @ * q # o X o @ # o o + o o o 0.C.m.m.m.m.m.m.m.m.m.m.m.",
"m.m.m.m.m.n.m.m.m.m.C.B.' & o o X o @ # # * + X X o o # + o o o o + ^ V.C.C.m.m.m.m.m.m.m.m.m.m.",
"m.m.m.m.m.m.m.m.n.C.C.C.h._ @ o o o X X o X X o o + @ @ o o o o o 1 9.C.C.C.V.m.m.m.m.m.n.m.m.m.",
"n.m.m.m.m.m.m.m.V.C.C.C.B.8.w + o o o o X o o o o @ # + o o o + +  .M.C.C.C.C.V.m.m.m.m.m.m.m.m.",
"m.m.m.m.m.m.Z.C.C.C.C.C.C.V.9.f # o o o o O o @ @ + o o o o o o ( m.C.C.C.C.C.C.B.m.m.m.m.m.m.m.",
"m.m.m.m.m.m.V.C.C.C.C.C.C.C.C.z.{ q # # # # # # o   X X X X X ^ b.C.C.C.C.C.C.C.C.V.m.m.m.m.m.m.",
"m.m.m.m.m.C.C.C.C.C.C.C.C.C.C.C.l.&.h : ; ; @ X X   X $ - 1 ) z.V.C.C.C.C.C.C.C.C.C.C.B.m.m.m.m.",
"m.n.m.m.C.C.C.C.C.C.C.C.C.C.C.C.C.C.C.C.C.C.C.C.C.C.C.C.C.C.C.C.C.C.C.C.C.C.C.C.C.C.C.V.m.m.m.m.",
"m.m.m.C.C.C.C.C.C.C.C.C.C.C.C.C.C.C.C.C.C.C.C.C.C.C.C.C.C.C.C.C.C.C.C.C.C.C.C.C.C.C.C.C.B.m.m.m.",
"m.m.V.C.C.C.C.C.C.C.C.C.C.C.C.C.C.C.C.C.C.C.C.C.C.C.C.C.C.C.C.C.C.C.C.C.C.C.C.C.C.C.C.C.C.V.B.m.",
"m.C.C.C.C.C.C.C.C.C.C.C.C.C.C.C.C.C.C.C.C.C.C.C.C.C.C.C.C.C.C.C.C.C.C.C.C.C.C.C.C.C.C.C.C.C.B.B.",
"C.C.C.C.C.C.C.C.C.C.C.C.C.C.C.C.C.C.C.C.C.C.C.C.C.C.C.C.C.C.C.C.C.C.C.C.C.C.C.C.C.C.C.C.C.C.C.V."
};
